<?xml version="1.0" encoding="utf-8"?>
<!-- Generator: Adobe Illustrator 25.3.0, SVG Export Plug-In . SVG Version: 6.00 Build 0)  -->
<svg version="1.1" id="Layer_2" xmlns="http://www.w3.org/2000/svg" xmlns:xlink="http://www.w3.org/1999/xlink" x="0px" y="0px"
	 viewBox="0 0 500 470" style="enable-background:new 0 0 500 470;" xml:space="preserve">
<style type="text/css">
	.st0{fill:#FFFFFF;}
	.st1{fill:#BF0C3F;}
	.st2{fill:#414042;}
	.st3{fill-rule:evenodd;clip-rule:evenodd;fill:#414042;}
	.st4{fill:#485992;}
	.st5{fill:url(#SVGID_1_);}
	.st6{fill:url(#SVGID_2_);}
	.st7{fill:url(#SVGID_3_);}
	.st8{fill:#38A3DC;}
	.st9{fill:#EC2024;}
</style>
<g>
	<rect x="93.5" y="119.5" class="st0" width="312.3" height="193.6"/>
	<g>
		<path class="st1" d="M148.6,224.3h4.2v9h-4.2v5.9h-9.7v-5.9h-16.1v-6.7l11.3-24.2h10.6l-10.3,21.9h4.6v-3.3l2.9-6.3h6.8V224.3z"/>
		<path class="st1" d="M168.2,228.6l-4.7,18.2h-7.7l2.3-18.2H168.2z"/>
		<path class="st1" d="M197.3,210l-13.9,29.2h-11.6l14-27.8h-15.7v-9h27.2V210z"/>
		<path class="st1" d="M232.2,220.8c0,11.9-7.3,19.1-16.5,19.1c-9.2,0-16.5-7.2-16.5-19.1s7.3-19.1,16.5-19.1
			C225,201.7,232.2,208.9,232.2,220.8z M209.3,220.8c0,6.4,2.8,9.8,6.4,9.8c3.7,0,6.4-3.4,6.4-9.8c0-6.4-2.8-9.8-6.4-9.8
			C212.1,211,209.3,214.4,209.3,220.8z"/>
		<path class="st1" d="M251.3,214.5c8.7,0.1,13.3,5.6,13.3,12.3c0,7.6-6.4,13.1-14.7,13.1c-8.3,0-14.7-5.4-14.7-12.8
			c0-3.6,1.4-7.1,3.8-10.7l9.4-14.1H260L251.3,214.5z M245.3,226.9c0,2.6,1.8,4.4,4.5,4.4c2.7,0,4.5-1.8,4.5-4.4
			c0-2.5-1.9-4.4-4.5-4.4C247.2,222.5,245.3,224.4,245.3,226.9z"/>
		<path class="st1" d="M279.5,228.6l-4.7,18.2h-7.7l2.3-18.2H279.5z"/>
		<path class="st1" d="M298.5,214.5c8.7,0.1,13.2,5.6,13.2,12.3c0,7.6-6.4,13.1-14.7,13.1c-8.3,0-14.7-5.4-14.7-12.8
			c0-3.6,1.4-7.1,3.8-10.7l9.4-14.1h11.6L298.5,214.5z M292.5,226.9c0,2.6,1.8,4.4,4.5,4.4c2.7,0,4.5-1.8,4.5-4.4
			c0-2.5-1.9-4.4-4.5-4.4C294.4,222.5,292.5,224.4,292.5,226.9z"/>
		<path class="st1" d="M326.8,227.1c-8.7-0.1-13.2-5.6-13.2-12.3c0-7.6,6.3-13.1,14.7-13.1c8.3,0,14.7,5.4,14.7,12.8
			c0,3.6-1.4,7.1-3.8,10.7l-9.4,14.1h-11.6L326.8,227.1z M332.8,214.7c0-2.6-1.9-4.4-4.5-4.4s-4.5,1.8-4.5,4.4
			c0,2.5,1.9,4.4,4.5,4.4S332.8,217.2,332.8,214.7z"/>
		<path class="st1" d="M374.8,212.4c0,4.2-2.4,6.8-5.5,8.2c3.6,1.4,6.4,4.1,6.4,8.5c0,6.7-6.8,10.7-15.1,10.7c-8.3,0-15-4-15-10.7
			c0-4.5,2.8-7.1,6.4-8.5c-3.1-1.5-5.5-4.1-5.5-8.2c0-6.7,6.3-10.7,14.1-10.7C368.4,201.7,374.8,205.7,374.8,212.4z M356.3,228
			c0,2.4,2.1,3.6,4.4,3.6c2.4,0,4.4-1.3,4.4-3.6c0-2.4-2.1-3.7-4.4-3.7C358.3,224.2,356.3,225.6,356.3,228z M356.9,213.4
			c0,2.1,1.6,3.3,3.7,3.3s3.7-1.2,3.7-3.3c0-2.1-1.6-3.2-3.7-3.2S356.9,211.3,356.9,213.4z"/>
		<path class="st1" d="M208.2,277.3h-7.6l-8.6-23.7h6.8l5.7,17l5.7-17h6.7L208.2,277.3z"/>
		<path class="st1" d="M225.1,277.3h-6.4v-23.7h6.4V277.3z"/>
		<path class="st1" d="M247,277.3h-18.5v-23.7H247v5.7h-12.1v3.1h11.2v5.7h-11.2v3.4H247V277.3z"/>
		<path class="st1" d="M278.4,277.3h-7.6l-4-13.9l-4,13.9h-7.6l-6.8-23.7h6.6l4,15.9l4.3-15.9h6.9l4.3,15.9l4-15.9h6.5L278.4,277.3z
			"/>
		<path class="st1" d="M303.3,261c-1.6-0.9-3.9-2-6.8-2c-1.7,0-3,0.5-3,1.5c0,1.3,2.4,1.5,4.8,1.9l0.8,0.2c4.9,0.9,7.4,3.3,7.4,6.9
			c0,6-5.1,8.2-10.1,8.2c-4.3,0-8.1-1-10.8-2.9l3.2-5.2c1.9,1.1,4.1,2.4,7.8,2.4c1.7,0,3-0.5,3-1.6c0-1.2-1.5-1.5-4.4-2l-0.9-0.2
			c-5.5-0.9-7.7-3.3-7.6-7.5c0.1-4.5,3.9-7.6,9.6-7.6c3.1,0,5.9,0.3,10,2.5L303.3,261z"/>
	</g>
	<g>
		<path class="st2" d="M152.3,65.7c0,6.3-3.6,9.8-10.2,9.8s-10.2-3.5-10.2-9.8V52.1h6.3v13.4c0,2.6,1.5,4,3.9,4c2.4,0,3.9-1.4,3.9-4
			V52.1h6.3V65.7z"/>
		<path class="st2" d="M177.2,75.1h-6.1l-9.5-12.9v12.9h-6.2v-23h6.1l9.5,12.9V52.1h6.2V75.1z"/>
		<path class="st2" d="M186.7,75.1h-6.2v-23h6.2V75.1z"/>
		<path class="st2" d="M213.5,63.6c0,2.4-0.7,4.4-1.8,6.1l4,5.4h-7.4l-1-1.3c-1.7,1.1-3.7,1.7-6,1.7c-7.1,0-12.2-5.1-12.2-11.9
			c0-6.9,5-11.9,12.2-11.9C208.5,51.7,213.5,56.7,213.5,63.6z M195.7,63.6c0,3.5,2.3,5.9,5.7,5.9c0.9,0,1.7-0.2,2.4-0.5l-3.1-4.2
			l6.3,0c0.1-0.4,0.1-0.8,0.1-1.3c0-3.5-2.3-5.9-5.7-5.9C198,57.6,195.7,60.1,195.7,63.6z"/>
		<path class="st2" d="M236,65.7c0,6.3-3.6,9.8-10.2,9.8s-10.2-3.5-10.2-9.8V52.1h6.3v13.4c0,2.6,1.5,4,3.9,4c2.4,0,3.9-1.4,3.9-4
			V52.1h6.3V65.7z"/>
		<path class="st2" d="M257.1,75.1h-18v-23h18v5.6h-11.7v3h10.9v5.6h-10.9v3.3h11.7V75.1z"/>
		<path class="st2" d="M287.1,65.7c0,6.3-3.6,9.8-10.2,9.8s-10.2-3.5-10.2-9.8V52.1h6.3v13.4c0,2.6,1.5,4,3.9,4s3.9-1.4,3.9-4V52.1
			h6.3V65.7z"/>
		<path class="st2" d="M306.8,59.2c-1.5-0.9-3.8-1.9-6.6-1.9c-1.7,0-3,0.5-3,1.5c0,1.3,2.3,1.4,4.7,1.9l0.7,0.1
			c4.8,0.9,7.2,3.2,7.2,6.7c0,5.8-4.9,8-9.8,8c-4.1,0-7.9-1-10.5-2.9l3.1-5.1c1.8,1.1,4,2.4,7.5,2.4c1.7,0,2.9-0.5,2.9-1.6
			c0-1.2-1.4-1.4-4.3-1.9l-0.9-0.1c-5.3-0.9-7.5-3.2-7.4-7.3c0.1-4.4,3.8-7.3,9.3-7.3c3,0,5.7,0.3,9.7,2.4L306.8,59.2z"/>
		<path class="st2" d="M330.4,75.1h-18v-23h18v5.6h-11.7v3h10.9v5.6h-10.9v3.3h11.7V75.1z"/>
		<path class="st2" d="M352.6,59.8c0,3.5-2.1,6.1-5.9,6.9l6.3,8.4h-7.4l-5.5-8.2h-0.3v8.2h-6.2v-23h10.3
			C349.5,52.1,352.6,55.1,352.6,59.8z M339.7,57.7v4.1h3.9c1.5,0,2.7-0.6,2.7-2s-1.1-2.1-2.7-2.1H339.7z"/>
		<path class="st2" d="M371.7,59.2c-1.5-0.9-3.8-1.9-6.6-1.9c-1.7,0-3,0.5-3,1.5c0,1.3,2.3,1.4,4.7,1.9l0.7,0.1
			c4.8,0.9,7.2,3.2,7.2,6.7c0,5.8-4.9,8-9.8,8c-4.1,0-7.9-1-10.5-2.9l3.1-5.1c1.8,1.1,4,2.4,7.5,2.4c1.7,0,2.9-0.5,2.9-1.6
			c0-1.2-1.4-1.4-4.3-1.9l-0.9-0.1c-5.3-0.9-7.5-3.2-7.4-7.3c0.1-4.4,3.8-7.3,9.3-7.3c3,0,5.7,0.3,9.7,2.4L371.7,59.2z"/>
	</g>
	<g>
		<path class="st2" d="M277.5,318.6c0,1.5-2.5,2.8-5.7,2.8h-44.3c-3.1,0-5.7-1.2-5.7-2.8H49.3c0,9.2,2.5,16.7,11.5,16.7h377.7
			c9,0,11.5-7.5,11.5-16.7H277.5z"/>
		<path class="st2" d="M408.7,122.6c0-6-5.2-10.9-11.6-10.9H102.2c-6.4,0-11.6,4.9-11.6,10.9v192.5h318V122.6z M249.7,114.1
			c1.9,0,3.4,1.5,3.4,3.4c0,1.9-1.5,3.4-3.4,3.4s-3.4-1.5-3.4-3.4C246.3,115.6,247.8,114.1,249.7,114.1z M399.5,303.8H99.8V123
			h299.7V303.8z"/>
		<path class="st2" d="M249.7,119.2c0.9,0,1.7-0.8,1.7-1.7c0-0.9-0.8-1.7-1.7-1.7s-1.7,0.8-1.7,1.7
			C248,118.4,248.7,119.2,249.7,119.2z"/>
	</g>
	<path class="st3" d="M218.1,149.6c0.1-1.2,0.4-2.4,1.1-2.6c0.4-0.1,0.8,0.1,1.2,0.4c1.8,1.8,4.9,1.8,6.7,0c0.4-0.3,0.8-0.5,1.2-0.4
		c0.6,0.2,1,1.5,1.1,2.6c0.1,0.6,0.4,0.6,0.6,0.3c0.2-0.5,0.5-0.8,0.8-0.8c0.5,0,0.8,1.3,0.7,2.9c-0.2,1.6-0.7,2.9-1.3,2.9
		c-0.1,0-0.2,0.1-0.3,0.2c-0.6,3-2.1,5.1-4.3,6c-1.1,0.5-2.4,0.5-3.5,0c-2.2-1-3.7-3.1-4.3-6c0-0.2-0.1-0.2-0.3-0.2
		c-0.5,0-1.1-1.3-1.3-2.9c-0.2-1.6,0.1-2.9,0.7-2.9c0.3,0,0.5,0.3,0.8,0.8C217.7,150.3,218,150.2,218.1,149.6L218.1,149.6z
		 M232.2,148c0,0.2,0,0.4,0,0.6c0.7,1,0.7,2.7,0.6,3.7c-0.1,1.2-0.6,3.2-1.7,3.9c-0.7,2.8-2.3,5.3-5.1,6.5c-1.5,0.6-3.2,0.6-4.6,0
		c-2.8-1.2-4.3-3.7-5.1-6.5c-1.2-0.7-1.6-2.7-1.7-3.9c-0.1-1-0.1-2.8,0.6-3.7c0-0.2,0-0.4,0-0.6C215.2,136.8,232.2,136.8,232.2,148
		L232.2,148z M223.8,164.1c-0.5,0-0.9-0.1-1.4-0.2c-0.6,0-0.7,1.5-0.6,2.1c0,0.1,0,0.2,0.1,0.3c0.2,0.1,0.4,0.3,0.6,0.5
		c0.1,0.1,0.1,0.3,0,0.5c-0.3,1.4-0.7,4.3-0.9,6.6c-0.1,1.4-0.2,2.8-0.2,4.1l4.8,0c-0.1-3.6-0.4-7.3-1.1-10.8c0-0.2-0.1-0.3,0-0.5
		c0.1-0.2,0.4-0.4,0.6-0.5c0.1-0.1,0.1-0.2,0.1-0.3c0.1-0.6-0.1-2.2-0.6-2.1C224.7,164.1,224.3,164.1,223.8,164.1L223.8,164.1z
		 M220.2,176.5h-10.7c-0.4,0-0.8-0.3-0.8-0.7c0-0.9,1.7-10.4,2.3-10.6c1.6-0.6,3.5-1,5-1.7c1.4-0.6,1.9-2.6,1.1-2.3
		c-1.9,1.5-4.6,1.8-6.9,2.6c-1.9,0.6-3.2,10.7-3.2,12.2c0,1.2,1,2.1,2.2,2.1l10.8,0C220.2,177.6,220.2,177.1,220.2,176.5
		L220.2,176.5z M235.5,163.4c-1.9-0.5-3.8-1-5.3-2.1c-0.8-0.3-0.3,1.7,1.1,2.3c0.5,0.2,0.9,0.4,1.4,0.6
		C233.5,163.9,234.5,163.7,235.5,163.4L235.5,163.4z M266.4,163.9c1.3-0.8,2.8-1.4,3.9-1.9c1.3,3.3,3.6,5.7,6.5,7.3
		c3.2-1.8,5.2-4.3,6.5-7.3c2.6,1.1,6.8,2.9,7.4,5.8l1.5,7.3c0.2,1.1-0.9,2-2,2h-16.7c-0.3-1.4-0.6-2.8-0.9-4.2
		c-0.4-1.7-0.9-3.5-1.6-5.1c-0.6-1.4-1.5-3.1-3-3.6C267.4,164.3,266.9,164.1,266.4,163.9L266.4,163.9z M279.3,140.6
		c2.7,0.7,5.1,2.4,6.2,5.3c0.4,1,0.5,2,0.6,3.1c0.3,5.3-0.5,9.7,2.8,14.8c-1.7-1.2-3.5-2.2-5.4-3l-0.5-0.2c-0.3,0.4-0.9,1-1.4,1.3
		c-0.2,0.1-0.5-1-0.6-1.6c0,0,0,0,0,0c-0.7,0.6-1.4,1.1-2.2,1.5c-1.3,0.8-2.6,0.8-3.9,0c-0.8-0.4-1.5-0.9-2.2-1.5c0,0,0,0,0,0
		c-0.1,0.6-0.5,1.7-0.6,1.6c-0.5-0.2-1-0.9-1.4-1.3l-0.5,0.2c-1.8,0.8-3.5,1.7-5.1,2.8l-0.2,0c3.3-5.4,2.3-9.3,2.6-14.6
		c0.1-1,0.2-2.1,0.6-3.1c0.5-1.3,1.1-2.3,2-3.2c1-0.8,2.9-2.1,4.5-1.5C276,140.5,277.3,140.1,279.3,140.6L279.3,140.6z M279.2,150.4
		c-1.6-0.5-3.6-1.2-5.6-2.6c-0.6-0.4-1.1-0.6-1.4,0.5c-0.2,0.6-0.3,1.4-0.7,1.8c-0.3,0.3-0.4,0.1-0.6-0.3c-0.2-0.4-0.4-0.6-0.6-0.6
		c-0.5,0-0.8,1.2-0.6,2.8c0.2,1.5,0.7,2.8,1.2,2.8c0.1,0,0.1,0,0.2,0.1c0.2,0.9,0.4,1.6,0.7,2.2c0.8,1.4,2,2.6,3.8,3.6
		c0.8,0.5,1.7,0.5,2.5,0c1.8-1,3-2.1,3.8-3.6c0.5-0.9,0.8-2.2,0.9-3.6c0.1-1-0.3-1.7-1.1-2.1C281,151.1,279.9,150.7,279.2,150.4
		L279.2,150.4z M251.5,166.4c0.7,0,0.9,1.9,0.8,2.7c0,0.2,0,0.3-0.2,0.4c-0.2,0.2-0.6,0.4-0.7,0.6c-0.1,0.2-0.1,0.4,0,0.6
		c0.3,1.2,0.6,3,0.8,4.8l5.3-12.3c0.1-0.2,0.3-0.3,0.5-0.2c2.4,1.8,6.5,2.3,9.3,3.3c2.4,0.7,4.7,13.1,4.7,14.9
		c0,1.5-1.2,2.8-2.8,2.8h-38.8c-1.5,0-2.8-1.2-2.8-2.8c0-1.8,2.3-14.2,4.7-14.9c2.8-1,6.9-1.5,9.3-3.3c0.2-0.1,0.4,0,0.5,0.2
		l5.3,12.3c0.3-1.8,0.6-3.5,0.8-4.8c0-0.2,0.1-0.4,0-0.6c-0.2-0.2-0.5-0.5-0.7-0.6c-0.1-0.1-0.1-0.2-0.2-0.4
		c-0.1-0.8,0.1-2.7,0.8-2.7C249.4,166.6,250.4,166.6,251.5,166.4L251.5,166.4z M254.8,137.2c2.7,0.1,4.3,1.7,5.2,3.8
		c0.7,1.7,1,3.8,0.9,5.7c0.9,1.3,1,3.7,0.8,5c-0.2,1.6-0.7,4.3-2.3,5.3c-0.7,3-3.2,5.8-6,7.6c-2.2,1.3-4.6,1.4-6.9,0.1
		c-3-1.7-5.5-4.6-6.2-7.7c-1.5-0.9-2.1-3.7-2.3-5.3c-0.1-1.4-0.1-3.8,0.8-5c-1-9.2,9.2-12.9,15.3-9.8
		C254.3,137.1,254.3,137.2,254.8,137.2L254.8,137.2z M242.4,147.2c0-0.8,0.3-0.8,1-0.6c1.9,0.5,10.2-1,12.1-1.9
		c0.3-0.2,0.7-0.3,1,0.1c0.2,0.2,0.3,0.5,0.3,0.7c0.2,0.7,0.2,1.8,0.3,2.5c0,0.2,0,0.3,0,0.4c0.1,0.6,0.2,0.6,0.4,0.5
		c0.2-0.2,0.3-0.4,0.4-0.6c0.3-0.5,0.6-0.8,0.9-0.8c0.7,0,1.1,1.8,0.9,3.9c-0.2,2.2-1,3.9-1.7,3.9c-0.2,0-0.3,0.1-0.3,0.3
		c-0.6,3.1-2.7,5.7-5.1,7.1c-2,1.2-3.3,1.2-5.5,0.1c-2.5-1.3-4.7-4-5.3-7.2c0-0.2-0.2-0.3-0.3-0.3c-0.7,0-1.5-1.8-1.7-3.9
		c-0.2-2.2,0.2-3.9,0.9-3.9c0.3,0,0.7,0.4,1,1.1c0.2,0.3,0.5,0.7,0.7,0.4C242.4,148.7,242.4,147.4,242.4,147.2L242.4,147.2z"/>
	<path class="st4" d="M144.6,365.9h-37.7c-3.8,0-7,3.1-7,7v37.7c0,3.8,3.1,7,7,7h18.6l0-18.4h-4.8c-0.6,0-1.1-0.5-1.1-1.1l0-5.9
		c0-0.6,0.5-1.1,1.1-1.1h4.8v-5.7c0-6.7,4.1-10.3,10-10.3h4.9c0.6,0,1.1,0.5,1.1,1.1v5c0,0.6-0.5,1.1-1.1,1.1l-3,0
		c-3.2,0-3.9,1.5-3.9,3.8v5h7.1c0.7,0,1.2,0.6,1.1,1.3l-0.7,5.9c-0.1,0.6-0.5,1-1.1,1h-6.4l0,18.4h11.1c3.8,0,7-3.1,7-7v-37.7
		C151.6,369,148.5,365.9,144.6,365.9z"/>
	<g>
		
			<linearGradient id="SVGID_1_" gradientUnits="userSpaceOnUse" x1="278.6393" y1="705.2812" x2="278.6393" y2="654.2208" gradientTransform="matrix(1 0 0 1 0 -287.8898)">
			<stop  offset="0" style="stop-color:#E09B3C"/>
			<stop  offset="0.3" style="stop-color:#C64C4E"/>
			<stop  offset="0.6" style="stop-color:#C11C76"/>
			<stop  offset="1" style="stop-color:#6A479B"/>
		</linearGradient>
		<path class="st5" d="M289.1,365.9h-20.9c-8.5,0-15.4,6.9-15.4,15.4v20.9c0,8.5,6.9,15.4,15.4,15.4h20.9c8.5,0,15.4-6.9,15.4-15.4
			v-20.9C304.4,372.8,297.5,365.9,289.1,365.9z M299.3,402.2c0,5.6-4.6,10.2-10.2,10.2h-20.9c-5.6,0-10.2-4.6-10.2-10.2v-20.9
			c0-5.6,4.6-10.2,10.2-10.2h20.9c5.6,0,10.2,4.6,10.2,10.2V402.2L299.3,402.2z"/>
		
			<linearGradient id="SVGID_2_" gradientUnits="userSpaceOnUse" x1="278.6393" y1="705.2812" x2="278.6393" y2="654.2208" gradientTransform="matrix(1 0 0 1 0 -287.8898)">
			<stop  offset="0" style="stop-color:#E09B3C"/>
			<stop  offset="0.3" style="stop-color:#C64C4E"/>
			<stop  offset="0.6" style="stop-color:#C11C76"/>
			<stop  offset="1" style="stop-color:#6A479B"/>
		</linearGradient>
		<path class="st6" d="M278.6,378.4c-7.4,0-13.3,6-13.3,13.3s6,13.3,13.3,13.3c7.4,0,13.3-6,13.3-13.3S286,378.4,278.6,378.4z
			 M278.6,399.9c-4.5,0-8.2-3.7-8.2-8.2s3.7-8.2,8.2-8.2c4.5,0,8.2,3.7,8.2,8.2C286.8,396.2,283.1,399.9,278.6,399.9z"/>
		
			<linearGradient id="SVGID_3_" gradientUnits="userSpaceOnUse" x1="292.0137" y1="705.2812" x2="292.0137" y2="654.2208" gradientTransform="matrix(1 0 0 1 0 -287.8898)">
			<stop  offset="0" style="stop-color:#E09B3C"/>
			<stop  offset="0.3" style="stop-color:#C64C4E"/>
			<stop  offset="0.6" style="stop-color:#C11C76"/>
			<stop  offset="1" style="stop-color:#6A479B"/>
		</linearGradient>
		<circle class="st7" cx="292" cy="378.5" r="3.2"/>
	</g>
	<path class="st8" d="M233.4,372.7c-2.3,1-4.7,1.7-7.3,2c2.6-1.6,4.6-4,5.5-7c-2.4,1.5-5.1,2.5-8,3c-2.3-2.5-5.6-4-9.2-4
		c-7,0-12.6,5.7-12.6,12.6c0,1,0.1,2,0.3,2.9c-10.5-0.5-19.7-5.5-25.9-13.2c-1.1,1.9-1.7,4-1.7,6.4c0,4.4,2.2,8.2,5.6,10.5
		c-2,0-4-0.6-5.7-1.6c0,0,0,0.1,0,0.1c0,6.1,4.4,11.2,10.1,12.4c-1,0.3-2.1,0.4-3.3,0.4c-0.8,0-1.6,0-2.4-0.2
		c1.6,5,6.3,8.7,11.8,8.8c-4.3,3.4-9.7,5.4-15.6,5.4c-1,0-2,0-3-0.2c5.6,3.6,12.2,5.6,19.3,5.6c23.2,0,35.8-19.2,35.8-35.8
		c0-0.6,0-1.1,0-1.6C229.6,377.5,231.7,375.2,233.4,372.7z"/>
	<g>
		<path class="st9" d="M396.3,375.4c-0.8-2.9-3.1-5.2-6-6c-5.3-1.5-26.5-1.5-26.5-1.5s-21.2,0-26.5,1.4c-2.8,0.8-5.2,3.1-6,6
			c-1.4,5.3-1.4,16.3-1.4,16.3s0,11,1.4,16.3c0.8,2.9,3.1,5.2,6,6c5.4,1.5,26.5,1.5,26.5,1.5s21.2,0,26.5-1.4c2.9-0.8,5.2-3.1,6-6
			c1.4-5.3,1.4-16.3,1.4-16.3S397.8,380.7,396.3,375.4z"/>
		<path class="st0" d="M357.1,401.9l17.6-10.2l-17.6-10.2V401.9z"/>
	</g>
</g>
</svg>
