<?xml version="1.0" encoding="utf-8"?>
<!-- Generator: Adobe Illustrator 25.2.3, SVG Export Plug-In . SVG Version: 6.00 Build 0)  -->
<svg version="1.1" id="Layer_2_1_" xmlns="http://www.w3.org/2000/svg" xmlns:xlink="http://www.w3.org/1999/xlink" x="0px" y="0px"
	 viewBox="0 0 500 500" style="enable-background:new 0 0 500 500;" xml:space="preserve">
<style type="text/css">
	.st0{fill:#FFFFFF;}
	.st1{fill:#EDB41E;}
	.st2{fill:#414042;}
	.st3{fill:#F9AE75;}
</style>
<g>
	<rect x="65.4" y="155.6" class="st0" width="368.8" height="228.6"/>
	<g>
		<path class="st1" d="M181.1,275.8h4.8v10.3h-4.8v6.8H170v-6.8h-18.6v-7.7l13-27.9h12.2l-11.8,25.2h5.3v-3.8l3.3-7.3h7.8
			L181.1,275.8L181.1,275.8z"/>
		<path class="st1" d="M219,262.1c0,4.4-2.1,7.7-6,9.5c4.4,1.8,6.9,5.1,6.9,9.5c0,8.6-8.1,12.6-16.8,12.6c-6.5,0-11.8-2.3-15.3-6.3
			l6.2-7.3c2.3,2.4,5.2,3.6,8.4,3.6s5.8-1.2,5.8-3.8c0-2.5-3-3.7-6.6-3.7H197v-9.7h4.8c3.3,0,5.8-1.3,5.8-3.6c0-2.3-2-3.4-5.1-3.4
			c-3.9,0-6.7,1.8-8.6,3.8l-6-7.4c3.5-3.7,8-6.3,15-6.3C212.3,249.8,219,254.7,219,262.1z"/>
		<path class="st1" d="M237.5,280.8l-5.4,21h-8.9l2.7-21H237.5z"/>
		<path class="st1" d="M240.8,257.4c2.9-3.4,8-7.6,16.3-7.6c9,0,15,5.4,15,13.7c0,4.9-1.8,8.4-7.1,13.4l-6.1,5.8h14V293h-29.7v-8.7
			l14.4-13.6c1.9-1.8,2.9-3.7,2.9-5.7c0-2.7-2.1-4.5-4.8-4.5c-3.6,0-6.2,2.2-8.5,4.6L240.8,257.4z"/>
		<path class="st1" d="M309.7,262.1c0,4.8-2.7,7.8-6.3,9.5c4.1,1.7,7.4,4.7,7.4,9.8c0,7.8-7.8,12.4-17.3,12.4s-17.3-4.6-17.3-12.4
			c0-5.1,3.2-8.2,7.4-9.8c-3.6-1.7-6.3-4.7-6.3-9.5c0-7.7,7.3-12.3,16.2-12.3C302.4,249.8,309.7,254.4,309.7,262.1z M288.4,280
			c0,2.7,2.4,4.2,5.1,4.2s5.1-1.5,5.1-4.2c0-2.8-2.4-4.3-5.1-4.3S288.4,277.3,288.4,280z M289.2,263.3c0,2.4,1.9,3.8,4.3,3.8
			s4.3-1.4,4.3-3.8s-1.9-3.7-4.3-3.7S289.2,260.9,289.2,263.3z"/>
		<path class="st1" d="M343.5,275.8h4.8v10.3h-4.8v6.8h-11.2v-6.8h-18.6v-7.7l13-27.9h12.2L327,275.8h5.3V272l3.3-7.3h7.8v11.1
			H343.5z"/>
		<path class="st1" d="M162.7,321.7h-6.2V338h-5.9v-16.3h-6.2v-5.4h18.3L162.7,321.7L162.7,321.7z"/>
		<path class="st1" d="M185.8,327.1c0,6.5-4.8,11.3-11.5,11.3s-11.5-4.8-11.5-11.3s4.8-11.3,11.5-11.3S185.8,320.6,185.8,327.1z
			 M169,327.1c0,3.3,2.2,5.6,5.4,5.6s5.4-2.3,5.4-5.6s-2.2-5.6-5.4-5.6S169,323.8,169,327.1z"/>
		<path class="st1" d="M204.3,321.7h-6.2V338h-5.9v-16.3H186v-5.4h18.3V321.7z"/>
		<path class="st1" d="M225.4,338h-6.3l-1.4-4.1h-8.1l-1.4,4.1H202l8.2-21.7h7L225.4,338z M211.4,328.6h4.5l-2.2-6.4L211.4,328.6z"
			/>
		<path class="st1" d="M243.4,338H227v-21.7h5.9v16.3h10.5V338z"/>
		<path class="st1" d="M264.6,338h-7l-7.9-21.7h6.3l5.2,15.6l5.2-15.6h6.2L264.6,338z"/>
		<path class="st1" d="M280,338h-5.9v-21.7h5.9V338z"/>
		<path class="st1" d="M300.1,338h-17v-21.7h17v5.3H289v2.9h10.3v5.3H289v3.1h11.1V338z"/>
		<path class="st1" d="M328.9,338h-7l-3.6-12.7l-3.6,12.7h-7l-6.2-21.7h6.1l3.7,14.6l3.9-14.6h6.3l3.9,14.6l3.7-14.6h6L328.9,338z"
			/>
		<path class="st1" d="M351.7,323c-1.4-0.8-3.6-1.8-6.3-1.8c-1.6,0-2.8,0.4-2.8,1.4c0,1.2,2.2,1.4,4.4,1.8l0.7,0.1
			c4.5,0.9,6.8,3,6.8,6.4c0,5.5-4.6,7.5-9.3,7.5c-3.9,0-7.4-0.9-9.9-2.7l2.9-4.8c1.7,1,3.8,2.2,7.1,2.2c1.6,0,2.7-0.4,2.7-1.5
			s-1.4-1.3-4.1-1.8l-0.8-0.1c-5-0.9-7.1-3-7-6.9c0.1-4.2,3.6-6.9,8.8-6.9c2.8,0,5.4,0.3,9.2,2.3L351.7,323z"/>
	</g>
	<g>
		<path class="st2" d="M281.7,383.6c0,1.8-2.9,3.2-6.5,3.2h-50.8c-3.6,0-6.5-1.4-6.5-3.2H20c0,10.6,2.8,19.1,13.2,19.1h433.2
			c10.4,0,13.2-8.6,13.2-19.1H281.7z"/>
		<path class="st2" d="M432.2,158.8c0-6.9-5.9-12.5-13.3-12.5H80.7c-7.3,0-13.3,5.6-13.3,12.5v220.9h364.8L432.2,158.8L432.2,158.8z
			 M249.8,149.1c2.1,0,3.9,1.7,3.9,3.9c0,2.1-1.7,3.9-3.9,3.9c-2.1,0-3.9-1.7-3.9-3.9C246,150.8,247.7,149.1,249.8,149.1z
			 M421.7,366.7H78V159.3h343.7V366.7z"/>
		<path class="st2" d="M249.8,154.9c1.1,0,1.9-0.9,1.9-1.9c0-1.1-0.9-1.9-1.9-1.9c-1.1,0-1.9,0.9-1.9,1.9
			C247.9,154,248.7,154.9,249.8,154.9z"/>
	</g>
	<g>
		<path class="st2" d="M141.8,112.6v8.2h-7.1V94.7h11.6c6.6,0,10.1,3.7,10.1,9s-3.5,8.8-10,8.8L141.8,112.6L141.8,112.6z
			 M141.8,101.1v5.3h4.5c1.8,0,3-1,3-2.6s-1.3-2.7-3-2.7C146.3,101.1,141.8,101.1,141.8,101.1z"/>
		<path class="st2" d="M182.2,120.8h-7.5l-1.7-5h-9.7l-1.7,5h-7.4l9.9-26.1h8.3L182.2,120.8z M165.4,109.5h5.3l-2.7-7.7L165.4,109.5
			z"/>
		<path class="st2" d="M204.7,97.9l-5,4.9c-1.2-1.2-2.8-1.9-5-1.9c-3.7,0-6.3,2.8-6.3,6.9c0,4.8,3.1,7.1,6.4,7.1
			c3.3,0,5.2-1.3,5.9-3.8h-6.1v-5.2h13c0.1,0.8,0.1,1.6,0.1,2.3c0,8.7-6.5,13.1-12.6,13.1c-8.2,0-14-5.6-14-13.5s5.8-13.5,14-13.5
			C199.3,94.3,202.5,95.6,204.7,97.9z"/>
		<path class="st2" d="M230.9,120.8h-20.4V94.7h20.4v6.3h-13.3v3.4H230v6.3h-12.4v3.7h13.3L230.9,120.8L230.9,120.8z"/>
		<path class="st2" d="M257.6,120.8h-8.3l-9.5-26.1h7.5l6.2,18.7l6.2-18.7h7.4L257.6,120.8z"/>
		<path class="st2" d="M276.2,120.8h-7.1V94.7h7.1V120.8z"/>
		<path class="st2" d="M300.3,120.8h-20.4V94.7h20.4v6.3H287v3.4h12.4v6.3H287v3.7h13.3V120.8z"/>
		<path class="st2" d="M334.8,120.8h-8.3l-4.4-15.3l-4.4,15.3h-8.3l-7.5-26.1h7.3l4.5,17.5l4.7-17.5h7.5l4.7,17.5l4.5-17.5h7.2
			L334.8,120.8z"/>
		<path class="st2" d="M362.2,102.8c-1.7-1-4.3-2.2-7.5-2.2c-1.9,0-3.4,0.5-3.4,1.7c0,1.5,2.7,1.6,5.3,2.1l0.8,0.2
			c5.4,1,8.1,3.6,8.1,7.6c0,6.6-5.6,9-11.1,9c-4.7,0-8.9-1.1-11.9-3.2l3.5-5.8c2.1,1.2,4.6,2.7,8.5,2.7c1.9,0,3.3-0.5,3.3-1.8
			c0-1.4-1.6-1.6-4.9-2.2l-1-0.2c-6-1-8.5-3.6-8.4-8.2c0.1-5,4.3-8.3,10.6-8.3c3.4,0,6.5,0.4,11,2.7L362.2,102.8z"/>
	</g>
	<g>
		<path class="st0" d="M297.6,203c1.2,1.1,1.2,3,0,4.2c-6.3,5.6-25.3,20.7-47.8,20.7s-41.5-15.1-47.8-20.7c-1.2-1.1-1.2-3,0-4.2
			c6.3-5.6,25.3-20.7,47.8-20.7S291.3,197.3,297.6,203z"/>
		<path class="st2" d="M249.8,229.7c-10,0-20.4-2.9-30.9-8.5c-8.6-4.6-15.1-9.9-18.2-12.7c-1-0.9-1.6-2.2-1.6-3.5s0.6-2.6,1.6-3.5
			c3.1-2.8,9.6-8.1,18.2-12.7c10.5-5.6,20.9-8.5,30.9-8.5c10,0,20.4,2.9,30.9,8.5c8.6,4.6,15.1,9.9,18.2,12.7l0,0
			c1,0.9,1.6,2.2,1.6,3.5s-0.6,2.6-1.6,3.5c-3.1,2.8-9.6,8.1-18.2,12.7C270.2,226.9,259.8,229.7,249.8,229.7z M249.8,184.1
			c-9.4,0-19.1,2.7-29.1,8c-8.2,4.4-14.5,9.5-17.5,12.2c-0.3,0.2-0.3,0.5-0.3,0.7s0,0.4,0.3,0.7c3,2.7,9.2,7.8,17.5,12.2
			c9.9,5.3,19.7,8,29.1,8s19.1-2.7,29.1-8c8.2-4.4,14.5-9.5,17.5-12.2c0.3-0.2,0.3-0.5,0.3-0.7s0-0.4-0.3-0.7
			c-3-2.7-9.2-7.8-17.5-12.2C268.9,186.8,259.2,184.1,249.8,184.1z"/>
		<g>
			
				<ellipse transform="matrix(0.1602 -0.9871 0.9871 0.1602 8.1054 419.5268)" class="st3" cx="250.6" cy="205" rx="22.8" ry="22.8"/>
			<path class="st2" d="M250.6,229.7c-13.6,0-24.7-11.1-24.7-24.7s11.1-24.7,24.7-24.7c13.6,0,24.7,11.1,24.7,24.7
				S264.3,229.7,250.6,229.7z M250.6,184.1c-11.5,0-20.9,9.4-20.9,20.9s9.4,20.9,20.9,20.9s20.9-9.4,20.9-20.9
				S262.2,184.1,250.6,184.1z"/>
		</g>
		<g>
			<ellipse transform="matrix(0.1602 -0.9871 0.9871 0.1602 8.1054 419.5267)" class="st0" cx="250.6" cy="205" rx="8.3" ry="8.3"/>
			<path class="st2" d="M250.6,215.3c-5.6,0-10.2-4.6-10.2-10.2s4.6-10.2,10.2-10.2c5.6,0,10.2,4.6,10.2,10.2
				S256.3,215.3,250.6,215.3z M250.6,198.6c-3.5,0-6.4,2.9-6.4,6.4s2.9,6.4,6.4,6.4s6.4-2.9,6.4-6.4S254.2,198.6,250.6,198.6z"/>
		</g>
	</g>
</g>
</svg>
