<?xml version="1.0" encoding="utf-8"?>
<!-- Generator: Adobe Illustrator 25.2.3, SVG Export Plug-In . SVG Version: 6.00 Build 0)  -->
<svg version="1.1" id="Layer_4" xmlns="http://www.w3.org/2000/svg" xmlns:xlink="http://www.w3.org/1999/xlink" x="0px" y="0px"
	 viewBox="0 0 500 500" style="enable-background:new 0 0 500 500;" xml:space="preserve">
<style type="text/css">
	.st0{fill:#414042;}
	.st1{fill:#FFFFFF;}
	.st2{fill:#EDB41E;}
	.st3{fill:#2B2B2B;}
</style>
<g>
	<path class="st0" d="M149.4,110.6c0,7-3.9,10.4-9.8,10.4c-3.8,0-6.7-1.4-8.2-2.9l3.4-5.4c0.9,0.8,2.3,1.6,4.2,1.6
		c2.2,0,3.4-1.1,3.4-4.3V94.7h7V110.6z"/>
	<path class="st0" d="M179.5,107.6c0,7.7-5.7,13.4-13.7,13.4c-8,0-13.7-5.7-13.7-13.4s5.7-13.4,13.7-13.4
		C173.8,94.2,179.5,99.9,179.5,107.6z M159.4,107.6c0,4,2.6,6.7,6.4,6.7c3.8,0,6.4-2.7,6.4-6.7c0-4-2.6-6.7-6.4-6.7
		C162,100.9,159.4,103.7,159.4,107.6z"/>
	<path class="st0" d="M193.8,94.7c7,0,10,2.8,10,7.4c0,2.5-1.4,4.4-3.4,5.5c2.3,0.8,4,3,4,5.6c0,4.6-3,7.4-9.9,7.4h-12.3V94.7H193.8
		z M189.3,100.4v4.3h4.4c1.9,0,2.9-0.7,2.9-2.2c0-1.4-1-2.1-2.9-2.1H189.3z M189.3,110.4v4.4l4.9,0c2,0,3-0.7,3-2.2
		c0-1.5-1-2.2-3-2.2H189.3z"/>
	<path class="st0" d="M233.5,102.7c-1.7-1-4.3-2.2-7.5-2.2c-1.9,0-3.3,0.5-3.3,1.7c0,1.5,2.6,1.6,5.3,2.1l0.8,0.2
		c5.3,1,8.1,3.6,8.1,7.6c0,6.5-5.5,9-11,9c-4.6,0-8.9-1.1-11.8-3.2l3.4-5.7c2.1,1.2,4.5,2.7,8.5,2.7c1.9,0,3.3-0.5,3.3-1.8
		c0-1.3-1.6-1.6-4.8-2.1l-1-0.2c-6-1-8.4-3.6-8.3-8.2c0.1-5,4.3-8.3,10.5-8.3c3.4,0,6.4,0.4,10.9,2.7L233.5,102.7z"/>
	<path class="st0" d="M260.1,120.6h-20.2V94.7h20.2v6.2h-13.2v3.4h12.3v6.2h-12.3v3.7h13.2V120.6z"/>
	<path class="st0" d="M289.5,120.6h-7.5l-1.7-4.9h-9.7l-1.7,4.9h-7.3l9.8-25.9h8.3L289.5,120.6z M272.9,109.4h5.3l-2.6-7.7
		L272.9,109.4z"/>
	<path class="st0" d="M313.1,103.3c0,4-2.3,6.9-6.7,7.8l7,9.5h-8.3l-6.2-9.2h-0.4v9.2h-7V94.7H303
		C309.6,94.7,313.1,98.1,313.1,103.3z M298.5,101v4.6h4.4c1.7,0,3-0.7,3-2.3c0-1.6-1.3-2.3-3-2.3H298.5z"/>
	<path class="st0" d="M340.6,100.8l-6.2,3.4c-1.3-2.1-3.2-3.3-5.7-3.3c-3.6,0-6.2,2.7-6.2,6.7c0,4.4,3.1,6.7,6.3,6.7
		c2.5,0,4.4-1.1,5.8-3.3l5.8,4c-2.4,3.7-6.4,6-11.5,6c-8,0-13.7-5.5-13.7-13.4c0-7.9,5.7-13.4,13.7-13.4
		C333.8,94.2,338.3,96.6,340.6,100.8z"/>
	<path class="st0" d="M350.2,104.3h9.6v-9.6h7v25.9h-7v-9.9h-9.6v9.9h-7V94.7h7V104.3z"/>
</g>
<rect x="65.4" y="155.6" class="st1" width="368.8" height="228.6"/>
<g>
	<path class="st0" d="M281.7,383.6c0,1.8-2.9,3.2-6.5,3.2h-50.8c-3.6,0-6.5-1.4-6.5-3.2H20c0,10.6,2.8,19.1,13.2,19.1h433.2
		c10.4,0,13.2-8.6,13.2-19.1H281.7z"/>
	<path class="st0" d="M432.2,158.8c0-6.9-5.9-12.5-13.3-12.5H80.7c-7.3,0-13.3,5.6-13.3,12.5v220.9h364.8L432.2,158.8L432.2,158.8z
		 M249.8,149.1c2.1,0,3.9,1.7,3.9,3.9c0,2.1-1.7,3.9-3.9,3.9c-2.1,0-3.9-1.7-3.9-3.9C246,150.8,247.7,149.1,249.8,149.1z
		 M421.7,366.7H78V159.3h343.7V366.7z"/>
	<path class="st0" d="M249.8,154.9c1.1,0,1.9-0.9,1.9-1.9c0-1.1-0.9-1.9-1.9-1.9c-1.1,0-1.9,0.9-1.9,1.9
		C247.9,154,248.7,154.9,249.8,154.9z"/>
</g>
<g>
	<path class="st2" d="M197.6,291.9h-10.9v-27.1l-8.7,3.1v-10.6l19.6-7.3L197.6,291.9L197.6,291.9z"/>
	<path class="st2" d="M216.3,280l-5.2,20.5h-8.7L205,280H216.3z"/>
	<path class="st2" d="M237.6,264.2c9.8,0.1,14.9,6.3,14.9,13.8c0,8.5-7.1,14.7-16.6,14.7c-9.4,0-16.5-6-16.5-14.3c0-4,1.6-8,4.3-12
		l10.6-15.8h13L237.6,264.2z M230.9,278.1c0,2.9,2.1,5,5,5c3,0,5.1-2.1,5.1-5c0-2.8-2.1-4.9-5.1-4.9
		C233,273.2,230.9,275.2,230.9,278.1z"/>
	<path class="st2" d="M283.8,260.5h-15.7l-0.1,5h3.5c9.5,0,15,4.7,15,12.5c0,8.8-6.6,14.6-16.2,14.6c-6.5,0-11.9-2.4-15.1-5.4l5-8.2
		c1.8,1.6,6,3.8,10.1,3.8c3.2,0,5-1.4,5-4.1c0-2.2-1.7-3.7-6.4-3.7h-10.5l0.6-24.4h24.9L283.8,260.5L283.8,260.5z"/>
	<path class="st2" d="M318.2,260.5h-15.7l-0.1,5h3.5c9.5,0,15,4.7,15,12.5c0,8.8-6.6,14.6-16.2,14.6c-6.5,0-11.9-2.4-15.1-5.4l5-8.2
		c1.8,1.6,6,3.8,10.1,3.8c3.2,0,5-1.4,5-4.1c0-2.2-1.7-3.7-6.4-3.7h-10.5l0.6-24.4h24.9L318.2,260.5L318.2,260.5z"/>
	<path class="st2" d="M157.4,336.9h-6.3l-1.4-4.1h-8.1l-1.4,4.1H134l8.2-21.7h7L157.4,336.9z M143.4,327.5h4.5l-2.2-6.4L143.4,327.5
		z"/>
	<path class="st2" d="M164.9,330v6.9H159v-21.7h9.7c5.5,0,8.4,3,8.4,7.5c0,4.4-2.9,7.4-8.4,7.4L164.9,330L164.9,330z M164.9,320.4
		v4.4h3.7c1.5,0,2.5-0.8,2.5-2.2c0-1.4-1.1-2.2-2.5-2.2L164.9,320.4L164.9,320.4z"/>
	<path class="st2" d="M185.3,330v6.9h-5.9v-21.7h9.7c5.5,0,8.4,3,8.4,7.5c0,4.4-2.9,7.4-8.4,7.4L185.3,330L185.3,330z M185.3,320.4
		v4.4h3.7c1.5,0,2.5-0.8,2.5-2.2c0-1.4-1.1-2.2-2.5-2.2L185.3,320.4L185.3,320.4z"/>
	<path class="st2" d="M216.2,336.9h-16.4v-21.7h5.9v16.3h10.5V336.9z"/>
	<path class="st2" d="M223.9,336.9H218v-21.7h5.9V336.9z"/>
	<path class="st2" d="M247.7,320.3l-5.2,2.9c-1.1-1.8-2.7-2.7-4.8-2.7c-3,0-5.2,2.3-5.2,5.6c0,3.7,2.6,5.6,5.3,5.6
		c2.1,0,3.7-0.9,4.9-2.7l4.8,3.4c-2.1,3.1-5.4,5-9.7,5c-6.7,0-11.5-4.7-11.5-11.3s4.8-11.3,11.5-11.3
		C242,314.7,245.8,316.8,247.7,320.3z"/>
	<path class="st2" d="M271.2,336.9h-6.3l-1.4-4.1h-8.1l-1.4,4.1h-6.2l8.2-21.7h7L271.2,336.9z M257.2,327.5h4.5l-2.2-6.4
		L257.2,327.5z"/>
	<path class="st2" d="M287.2,320.6H281v16.3h-5.9v-16.3h-6.2v-5.4h18.3L287.2,320.6L287.2,320.6z"/>
	<path class="st2" d="M294.9,336.9H289v-21.7h5.9V336.9z"/>
	<path class="st2" d="M320.2,326c0,6.5-4.8,11.3-11.5,11.3s-11.5-4.8-11.5-11.3s4.8-11.3,11.5-11.3S320.2,319.5,320.2,326z
		 M303.4,326c0,3.3,2.2,5.6,5.4,5.6s5.4-2.3,5.4-5.6s-2.2-5.6-5.4-5.6S303.4,322.7,303.4,326z"/>
	<path class="st2" d="M343.2,336.9h-5.7l-9-12.2v12.2h-5.9v-21.7h5.7l9,12.2v-12.2h5.9V336.9z"/>
	<path class="st2" d="M362,321.9c-1.4-0.8-3.6-1.8-6.3-1.8c-1.6,0-2.8,0.4-2.8,1.4c0,1.2,2.2,1.4,4.4,1.8l0.7,0.1
		c4.5,0.9,6.8,3,6.8,6.4c0,5.5-4.6,7.5-9.3,7.5c-3.9,0-7.4-0.9-9.9-2.7l2.9-4.8c1.7,1,3.8,2.2,7.1,2.2c1.6,0,2.7-0.4,2.7-1.5
		s-1.4-1.3-4.1-1.8l-0.8-0.1c-5-0.9-7.1-3-7-6.9c0.1-4.2,3.6-6.9,8.8-6.9c2.8,0,5.4,0.3,9.2,2.3L362,321.9z"/>
</g>
<g>
	<g>
		<g>
			<path class="st1" d="M276.6,228.5H223c-0.5,0-0.9-0.4-0.9-0.9v-41.7h55.4v41.7C277.5,228.1,277.1,228.5,276.6,228.5z"/>
			<path class="st3" d="M276.6,229.7H223c-1.2,0-2.1-1-2.1-2.1v-41.7c0-0.7,0.6-1.3,1.3-1.3h55.4c0.7,0,1.3,0.6,1.3,1.3v41.7
				C278.8,228.8,277.8,229.7,276.6,229.7z M223.4,227.2h52.8v-40h-52.8L223.4,227.2L223.4,227.2z"/>
		</g>
		<g>
			<g>
				<path class="st1" d="M220.9,185.9c-0.5,0-0.9,0.4-0.9,0.9v5.1v5c0,0.6,0.1,1.3,0.3,1.9l0,0c0.9,3,3.6,5,6.7,5h45.7
					c3.1,0,5.8-2.1,6.7-5l0,0c0.2-0.6,0.3-1.3,0.3-1.9v-5v-5.1c0-0.5-0.4-0.9-0.9-0.9H220.9z"/>
				<path class="st3" d="M272.7,205H227c-1.8,0-3.5-0.6-4.9-1.7c-1.4-1.1-2.5-2.6-2.9-4.3c-0.2-0.7-0.3-1.5-0.3-2.3v-10.1
					c0-1.2,1-2.1,2.1-2.1h57.9c1.2,0,2.1,1,2.1,2.1v10.1c0,0.8-0.1,1.5-0.3,2.3c-0.5,1.7-1.5,3.2-2.9,4.3
					C276.2,204.5,274.5,205,272.7,205z M221.3,187.2v9.7c0,0.5,0.1,1,0.2,1.6c0.3,1.2,1,2.2,2,3c1,0.7,2.2,1.1,3.4,1.1h45.7
					c1.2,0,2.4-0.4,3.4-1.1c1-0.7,1.7-1.8,2-3c0.1-0.5,0.2-1,0.2-1.6v-9.7H221.3z M278.8,187.2L278.8,187.2L278.8,187.2z"/>
			</g>
			<g>
				<polygon class="st1" points="243.8,201.5 243.8,203 243.8,204.5 243.8,206 255.9,206 255.9,204.5 255.9,203 255.9,201.5 				"/>
				<path class="st3" d="M255.9,207.3h-12.1c-0.7,0-1.3-0.6-1.3-1.3v-4.5c0-0.7,0.6-1.3,1.3-1.3h12.1c0.7,0,1.3,0.6,1.3,1.3v4.5
					C257.1,206.7,256.6,207.3,255.9,207.3z M245,204.7h9.6v-1.9H245V204.7z"/>
			</g>
		</g>
		<g>
			<path class="st1" d="M259.2,185.9h-18.8l1.5-3.7c0.1-0.3,0.4-0.5,0.8-0.5h14.2c0.3,0,0.7,0.2,0.8,0.5L259.2,185.9z"/>
			<path class="st3" d="M259.2,187.2h-18.8c-0.4,0-0.8-0.2-1.1-0.6c-0.2-0.4-0.3-0.8-0.1-1.2l1.5-3.7c0.3-0.8,1.1-1.3,2-1.3h14.2
				c0.9,0,1.7,0.5,2,1.3l1.5,3.7c0.2,0.4,0.1,0.8-0.1,1.2C260,186.9,259.6,187.2,259.2,187.2z M242.3,184.6h15l-0.7-1.7H243
				L242.3,184.6z"/>
		</g>
	</g>
</g>
</svg>
