<?xml version="1.0" encoding="utf-8"?>
<!-- Generator: Adobe Illustrator 25.3.0, SVG Export Plug-In . SVG Version: 6.00 Build 0)  -->
<svg version="1.1" id="Layer_1" xmlns="http://www.w3.org/2000/svg" xmlns:xlink="http://www.w3.org/1999/xlink" x="0px" y="0px"
	 viewBox="0 0 1139 468" style="enable-background:new 0 0 1139 468;" xml:space="preserve">
<style type="text/css">
	.st0{enable-background:new    ;}
	.st1{fill:#005CB9;}
	.st2{fill:#2E2E2E;}
	.st3{fill:none;stroke:#CCCCCC;stroke-linecap:square;}
</style>
<g class="st0">
	<path class="st1" d="M13.6,9.9h-5V23H5.4V9.9h-5v-3h13.2V9.9z"/>
	<path class="st1" d="M17.3,27.6H14l3.9-7l-4.8-8.8h3.4l3.1,5.7l3-5.7h3.3L17.3,27.6z"/>
	<path class="st1" d="M39.1,17.4c0,3.3-2.3,5.9-5.4,5.9c-1.5,0-2.6-0.6-3.3-1.5v5.8h-3V11.9h2.9v1.2c0.7-0.9,1.8-1.5,3.3-1.5
		C36.8,11.6,39.1,14.1,39.1,17.4z M30.3,17.4c0,1.8,1.2,3.1,2.9,3.1c1.8,0,2.9-1.4,2.9-3.1s-1.1-3.1-2.9-3.1
		C31.5,14.3,30.3,15.7,30.3,17.4z"/>
	<path class="st1" d="M53,17.4c0,3.4-2.6,5.9-6,5.9c-3.5,0-6-2.5-6-5.9s2.6-5.9,6-5.9C50.4,11.6,53,14.1,53,17.4z M44,17.4
		c0,1.8,1.3,3.1,3,3.1c1.7,0,3-1.3,3-3.1s-1.3-3.1-3-3.1C45.2,14.3,44,15.6,44,17.4z"/>
	<path class="st1" d="M63.3,13.1v-1.2h2.9v10.2c0,3.6-2.3,5.7-6,5.7c-1.8,0-3.6-0.5-4.9-1.3l1.1-2.5c1.1,0.7,2.3,1.1,3.7,1.1
		c1.9,0,3.2-1,3.2-3v-0.8c-0.8,0.9-1.9,1.5-3.4,1.5c-2.7,0-5.1-2.3-5.1-5.7c0-3.4,2.4-5.7,5.1-5.7C61.4,11.6,62.5,12.2,63.3,13.1z
		 M57.8,17.2c0,1.6,1.1,2.9,2.8,2.9c1.7,0,2.8-1.3,2.8-2.9c0-1.7-1.1-2.9-2.8-2.9C58.9,14.3,57.8,15.6,57.8,17.2z"/>
	<path class="st1" d="M77,11.8l-0.4,3c-0.5-0.2-1.2-0.4-1.8-0.4c-1.4,0-2.3,0.9-2.3,2.5V23h-3V11.9h2.9v1.2c0.7-1,1.8-1.5,3.1-1.5
		C76.1,11.6,76.6,11.6,77,11.8z"/>
	<path class="st1" d="M89.6,23h-2.9v-1.2c-0.7,0.9-1.8,1.5-3.3,1.5c-3.1,0-5.4-2.5-5.4-5.9s2.3-5.9,5.4-5.9c1.5,0,2.6,0.6,3.3,1.5
		v-1.2h2.9V23z M81,17.4c0,1.7,1.1,3.1,2.9,3.1c1.7,0,2.9-1.3,2.9-3.1c0-1.8-1.2-3.1-2.9-3.1C82.2,14.3,81,15.7,81,17.4z"/>
	<path class="st1" d="M104.4,17.4c0,3.3-2.3,5.9-5.4,5.9c-1.5,0-2.6-0.6-3.3-1.5v5.8h-3V11.9h2.9v1.2c0.7-0.9,1.8-1.5,3.3-1.5
		C102.1,11.6,104.4,14.1,104.4,17.4z M95.6,17.4c0,1.8,1.2,3.1,2.9,3.1c1.8,0,2.9-1.4,2.9-3.1s-1.1-3.1-2.9-3.1
		C96.8,14.3,95.6,15.7,95.6,17.4z"/>
	<path class="st1" d="M109.9,13c0.8-1.1,2-1.5,3.2-1.5c2.5,0,4.3,1.8,4.3,4.3V23h-3v-6.1c0-1.6-0.8-2.5-2.2-2.5
		c-1.3,0-2.4,0.8-2.4,2.5V23h-3V6.4h3V13z"/>
	<path class="st1" d="M122.8,27.6h-3.3l3.9-7l-4.8-8.8h3.4l3.1,5.7l3-5.7h3.3L122.8,27.6z"/>
</g>
<g class="st0">
	<path class="st2" d="M10.6,63.7H6.7V74H4.2V63.7H0.3v-2.3h10.3V63.7z"/>
	<path class="st2" d="M17.1,65.2l-0.4,2.3c-0.4-0.2-0.9-0.3-1.4-0.3c-1.1,0-1.8,0.7-1.8,2V74h-2.3v-8.7h2.3v1
		c0.5-0.8,1.4-1.2,2.5-1.2C16.4,65,16.8,65.1,17.1,65.2z"/>
	<path class="st2" d="M21.4,62.4c0,0.8-0.7,1.5-1.5,1.5c-0.8,0-1.5-0.6-1.5-1.5c0-0.8,0.6-1.5,1.5-1.5
		C20.7,60.9,21.4,61.6,21.4,62.4z M21.1,74h-2.3v-8.7h2.3V74z"/>
	<path class="st2" d="M37.7,68.4V74h-2.3v-4.8c0-1.3-0.6-2-1.7-2c-1,0-1.8,0.7-1.8,2V74h-2.4v-4.8c0-1.3-0.6-2-1.7-2
		c-1,0-1.8,0.7-1.8,2V74h-2.3v-8.7h2.3v1c0.6-0.9,1.6-1.3,2.6-1.3c1.3,0,2.3,0.6,2.9,1.5c0.7-1.1,1.8-1.5,3-1.5
		C36.3,65,37.7,66.4,37.7,68.4z"/>
</g>
<g class="st0">
	<path class="st2" d="M50.4,66.8h-3.3V74h-1.5v-7.2h-1.9v-1.3h1.9V64c0-1.8,0.8-3.1,2.8-3.1c1,0,1.7,0.3,2.4,0.6l-0.5,1.2
		c-0.5-0.3-1.1-0.5-1.7-0.5c-1,0-1.5,0.6-1.5,1.8v1.5h3.3V66.8z"/>
	<path class="st2" d="M60.6,69.7c0,2.5-1.9,4.5-4.5,4.5s-4.5-1.9-4.5-4.5s1.9-4.5,4.5-4.5S60.6,67.2,60.6,69.7z M53.1,69.7
		c0,1.8,1.3,3.1,3,3.1c1.7,0,3-1.3,3-3.1c0-1.8-1.3-3.1-3-3.1C54.4,66.7,53.1,67.9,53.1,69.7z"/>
	<path class="st2" d="M70.9,68.7V74h-1.5v-4.8c0-1.6-0.9-2.5-2.3-2.5c-1.4,0-2.5,0.9-2.5,2.5V74h-1.5v-8.6h1.5v1.1
		c0.7-1,1.8-1.3,2.8-1.3C69.5,65.3,70.9,66.6,70.9,68.7z"/>
	<path class="st2" d="M79.6,66.8H76V71c0,1.3,0.7,1.8,1.6,1.8c0.6,0,1.3-0.2,1.7-0.6l0.7,1.1c-0.7,0.5-1.5,0.8-2.6,0.8
		c-1.9,0-3-1-3-3.2v-4.2h-1.8v-1.3h1.8v-2.7H76v2.7h3.6V66.8z"/>
	<path class="st2" d="M92.6,67.3c-0.5-0.4-1.6-0.8-2.8-0.8c-1.2,0-1.9,0.5-1.9,1.3c0,0.7,0.6,1,1.7,1.1l1,0.1c1.8,0.2,2.9,1,2.9,2.4
		c0,1.6-1.5,2.7-3.8,2.7c-1.1,0-2.5-0.3-3.6-1.1l0.7-1.1c0.6,0.5,1.5,0.9,2.9,0.9c1.4,0,2.3-0.5,2.3-1.3c0-0.6-0.6-1-1.7-1.2l-1-0.1
		c-1.9-0.2-2.8-1.1-2.8-2.4c0-1.6,1.4-2.6,3.4-2.6c1.4,0,2.6,0.4,3.4,0.9L92.6,67.3z"/>
	<path class="st2" d="M97.5,62.4c0,0.6-0.5,1-1.1,1c-0.6,0-1-0.4-1-1c0-0.6,0.5-1.1,1-1.1C97.1,61.4,97.5,61.8,97.5,62.4z M97.2,74
		h-1.5v-8.6h1.5V74z"/>
	<path class="st2" d="M107.1,66.5l-5.3,6.1h5.3V74h-7.3v-1.1l5.3-6.1H100v-1.3h7.1V66.5z"/>
	<path class="st2" d="M117.2,69.7c0,0.2,0,0.4,0,0.5h-6.7c0.2,1.8,1.4,2.6,2.9,2.6c1,0,1.9-0.4,2.6-1l0.8,1c-1.1,1-2.3,1.3-3.5,1.3
		c-2.5,0-4.3-1.8-4.3-4.5c0-2.6,1.8-4.5,4.2-4.5C115.5,65.3,117.2,67.1,117.2,69.7z M110.5,69.1h5.2c-0.2-1.5-1.2-2.5-2.5-2.5
		C111.7,66.6,110.7,67.6,110.5,69.1z"/>
</g>
<g class="st0">
	<path class="st2" d="M538.6,74h-3l-2.7-9l-2.7,9h-3l-3.8-12.6h2.6l2.7,9.7l2.8-9.7h2.8l2.8,9.7l2.7-9.7h2.6L538.6,74z"/>
	<path class="st2" d="M551,69.6c0,0.3,0,0.6,0,0.8h-6.2c0.3,1.3,1.1,1.8,2.2,1.8c0.8,0,1.6-0.3,2.2-0.8l1.4,1.5
		c-1,0.9-2.3,1.3-3.7,1.3c-2.7,0-4.5-1.8-4.5-4.6c0-2.7,1.8-4.6,4.4-4.6C549.2,65,551,66.9,551,69.6z M544.8,68.8h3.9
		c-0.2-1.1-0.9-1.7-1.9-1.7C545.6,67.1,545,67.7,544.8,68.8z"/>
	<path class="st2" d="M555.6,62.4c0,0.8-0.7,1.5-1.5,1.5s-1.5-0.6-1.5-1.5c0-0.8,0.6-1.5,1.5-1.5S555.6,61.6,555.6,62.4z M555.2,74
		h-2.3v-8.7h2.3V74z"/>
	<path class="st2" d="M563.9,66.2v-1h2.3v8c0,2.8-1.8,4.5-4.7,4.5c-1.4,0-2.8-0.4-3.8-1.1l0.8-1.9c0.9,0.6,1.8,0.9,2.9,0.9
		c1.5,0,2.5-0.8,2.5-2.3v-0.6c-0.6,0.7-1.5,1.2-2.7,1.2c-2.1,0-4-1.8-4-4.4c0-2.7,1.9-4.5,4-4.5C562.4,65,563.3,65.5,563.9,66.2z
		 M559.6,69.5c0,1.3,0.9,2.3,2.2,2.3c1.3,0,2.2-1,2.2-2.3c0-1.3-0.9-2.3-2.2-2.3C560.4,67.2,559.6,68.2,559.6,69.5z"/>
	<path class="st2" d="M571,66.2c0.6-0.9,1.5-1.2,2.5-1.2c2,0,3.4,1.4,3.4,3.4V74h-2.3v-4.8c0-1.3-0.6-2-1.7-2c-1,0-1.8,0.7-1.8,2V74
		h-2.4V61h2.4V66.2z"/>
	<path class="st2" d="M585.5,67.4h-3.2v3.2c0,1.1,0.6,1.5,1.3,1.5c0.6,0,1.2-0.3,1.6-0.6l0.9,1.8c-0.8,0.5-1.6,0.9-2.9,0.9
		c-2.2,0-3.3-1.2-3.3-3.5v-3.4h-1.7v-2.1h1.7v-2.6h2.3v2.6h3.2V67.4z"/>
</g>
<g class="st0">
	<path class="st2" d="M538.1,155.5h-1.6v-10.8l-4.2,9.5h-1.7l-4.2-9.4v10.8h-1.6v-12.6h2.4l4.2,9.4l4.2-9.4h2.4V155.5z"/>
	<path class="st2" d="M549.1,151.2c0,0.2,0,0.4,0,0.5h-6.7c0.2,1.8,1.4,2.6,2.9,2.6c1,0,1.9-0.4,2.6-1l0.8,1c-1.1,1-2.3,1.3-3.5,1.3
		c-2.5,0-4.3-1.8-4.3-4.5c0-2.6,1.8-4.5,4.2-4.5C547.4,146.8,549,148.6,549.1,151.2z M542.3,150.6h5.2c-0.2-1.5-1.2-2.5-2.5-2.5
		C543.5,148.1,542.5,149.1,542.3,150.6z"/>
	<path class="st2" d="M558.2,148.1v-5.6h1.5v13h-1.5v-1.1c-0.7,0.8-1.7,1.3-3,1.3c-2.4,0-4.3-1.9-4.3-4.5s1.9-4.5,4.3-4.5
		C556.5,146.8,557.5,147.3,558.2,148.1z M552.4,151.2c0,1.7,1.2,3.1,2.9,3.1c1.7,0,2.9-1.3,2.9-3.1c0-1.7-1.2-3.1-2.9-3.1
		C553.5,148.2,552.4,149.5,552.4,151.2z"/>
	<path class="st2" d="M564.5,144c0,0.6-0.5,1-1.1,1c-0.6,0-1-0.4-1-1c0-0.6,0.5-1.1,1-1.1C564.1,142.9,564.5,143.4,564.5,144z
		 M564.2,155.5h-1.5V147h1.5V155.5z"/>
	<path class="st2" d="M575,151.9c0,2.6-1.9,3.8-3.9,3.8c-2.1,0-3.9-1.2-3.9-3.8v-5h1.5v4.8c0,1.7,1,2.5,2.4,2.5
		c1.4,0,2.4-0.8,2.4-2.5V147h1.5V151.9z"/>
	<path class="st2" d="M592.2,150.2v5.3h-1.5v-4.8c0-1.6-0.9-2.5-2.4-2.5c-1.4,0-2.5,1-2.5,2.5v4.8h-1.5v-4.8c0-1.6-0.9-2.5-2.3-2.5
		c-1.4,0-2.5,0.9-2.5,2.5v4.8h-1.5V147h1.5v1.1c0.7-1,1.8-1.3,2.8-1.3c1.4,0,2.6,0.6,3.2,1.7c0.7-1.3,2-1.7,3.2-1.7
		C590.8,146.8,592.2,148.2,592.2,150.2z"/>
</g>
<g class="st0">
	<path class="st2" d="M533.6,235h-8.8v-12.6h1.6v11.1h7.2V235z"/>
	<path class="st2" d="M537.3,223.5c0,0.6-0.5,1-1.1,1c-0.6,0-1-0.4-1-1c0-0.6,0.5-1.1,1-1.1C536.8,222.4,537.3,222.9,537.3,223.5z
		 M537,235h-1.5v-8.6h1.5V235z"/>
	<path class="st2" d="M546.6,227.6v-1.2h1.5v8c0,2.8-1.8,4.3-4.5,4.3c-1.3,0-2.7-0.4-3.6-1.1l0.6-1.2c0.8,0.6,1.8,1,2.9,1
		c1.8,0,3.1-1,3.1-2.9v-0.8c-0.6,0.8-1.6,1.3-2.9,1.3c-2.4,0-4.2-1.8-4.2-4.4c0-2.6,1.8-4.4,4.2-4.4
		C545,226.3,546,226.8,546.6,227.6z M540.9,230.7c0,1.7,1.1,3,2.9,3c1.7,0,2.9-1.3,2.9-3c0-1.7-1.2-3-2.9-3
		C542.1,227.7,540.9,229,540.9,230.7z"/>
	<path class="st2" d="M552.7,227.6c0.7-1,1.8-1.3,2.8-1.3c2.1,0,3.6,1.4,3.6,3.4v5.3h-1.5v-4.8c0-1.6-0.9-2.5-2.3-2.5
		c-1.4,0-2.5,0.9-2.5,2.5v4.8h-1.5v-13h1.5V227.6z"/>
	<path class="st2" d="M567.7,227.8h-3.6v4.2c0,1.3,0.7,1.8,1.6,1.8c0.6,0,1.3-0.2,1.7-0.6l0.7,1.1c-0.7,0.5-1.5,0.8-2.6,0.8
		c-1.9,0-3-1-3-3.2v-4.2h-1.8v-1.3h1.8v-2.7h1.5v2.7h3.6V227.8z"/>
</g>
<g class="st0">
	<path class="st2" d="M538.1,303h-1.6v-10.8l-4.2,9.5h-1.7l-4.2-9.4V303h-1.6v-12.6h2.4l4.2,9.4l4.2-9.4h2.4V303z"/>
	<path class="st2" d="M549.1,298.7c0,0.2,0,0.4,0,0.6h-6.7c0.2,1.8,1.4,2.6,2.9,2.6c1,0,1.9-0.4,2.6-1l0.8,1c-1.1,1-2.3,1.3-3.5,1.3
		c-2.5,0-4.3-1.8-4.3-4.5c0-2.6,1.8-4.5,4.2-4.5C547.4,294.3,549,296.1,549.1,298.7z M542.3,298.1h5.2c-0.2-1.5-1.2-2.5-2.5-2.5
		C543.5,295.6,542.5,296.6,542.3,298.1z"/>
	<path class="st2" d="M558.2,295.6v-5.6h1.5v13h-1.5v-1.1c-0.7,0.8-1.7,1.3-3,1.3c-2.4,0-4.3-1.9-4.3-4.5s1.9-4.5,4.3-4.5
		C556.5,294.3,557.5,294.8,558.2,295.6z M552.4,298.7c0,1.7,1.2,3.1,2.9,3.1c1.7,0,2.9-1.3,2.9-3.1c0-1.7-1.2-3.1-2.9-3.1
		C553.5,295.7,552.4,297,552.4,298.7z"/>
	<path class="st2" d="M564.5,291.5c0,0.6-0.5,1-1.1,1c-0.6,0-1-0.4-1-1c0-0.6,0.5-1.1,1-1.1C564.1,290.4,564.5,290.9,564.5,291.5z
		 M564.2,303h-1.5v-8.6h1.5V303z"/>
	<path class="st2" d="M575,299.4c0,2.6-1.9,3.8-3.9,3.8c-2.1,0-3.9-1.2-3.9-3.8v-5h1.5v4.8c0,1.7,1,2.5,2.4,2.5
		c1.4,0,2.4-0.8,2.4-2.5v-4.8h1.5V299.4z"/>
	<path class="st2" d="M592.2,297.7v5.3h-1.5v-4.8c0-1.6-0.9-2.5-2.4-2.5c-1.4,0-2.5,1-2.5,2.5v4.8h-1.5v-4.8c0-1.6-0.9-2.5-2.3-2.5
		c-1.4,0-2.5,0.9-2.5,2.5v4.8h-1.5v-8.6h1.5v1.1c0.7-1,1.8-1.3,2.8-1.3c1.4,0,2.6,0.6,3.2,1.7c0.7-1.3,2-1.7,3.2-1.7
		C590.8,294.3,592.2,295.7,592.2,297.7z"/>
</g>
<g class="st0">
	<path class="st2" d="M538.1,371h-1.6v-10.8l-4.2,9.5h-1.7l-4.2-9.4V371h-1.6v-12.6h2.4l4.2,9.4l4.2-9.4h2.4V371z"/>
	<path class="st2" d="M549.1,366.7c0,0.2,0,0.4,0,0.6h-6.7c0.2,1.8,1.4,2.6,2.9,2.6c1,0,1.9-0.4,2.6-1l0.8,1c-1.1,1-2.3,1.3-3.5,1.3
		c-2.5,0-4.3-1.8-4.3-4.5c0-2.6,1.8-4.5,4.2-4.5C547.4,362.3,549,364.1,549.1,366.7z M542.3,366.1h5.2c-0.2-1.5-1.2-2.5-2.5-2.5
		C543.5,363.6,542.5,364.6,542.3,366.1z"/>
	<path class="st2" d="M558.2,363.6v-5.6h1.5v13h-1.5v-1.1c-0.7,0.8-1.7,1.3-3,1.3c-2.4,0-4.3-1.9-4.3-4.5s1.9-4.5,4.3-4.5
		C556.5,362.3,557.5,362.8,558.2,363.6z M552.4,366.7c0,1.7,1.2,3.1,2.9,3.1c1.7,0,2.9-1.3,2.9-3.1c0-1.7-1.2-3.1-2.9-3.1
		C553.5,363.7,552.4,365,552.4,366.7z"/>
	<path class="st2" d="M564.5,359.5c0,0.6-0.5,1-1.1,1c-0.6,0-1-0.4-1-1c0-0.6,0.5-1.1,1-1.1C564.1,358.4,564.5,358.9,564.5,359.5z
		 M564.2,371h-1.5v-8.6h1.5V371z"/>
	<path class="st2" d="M575,367.4c0,2.6-1.9,3.8-3.9,3.8c-2.1,0-3.9-1.2-3.9-3.8v-5h1.5v4.8c0,1.7,1,2.5,2.4,2.5
		c1.4,0,2.4-0.8,2.4-2.5v-4.8h1.5V367.4z"/>
	<path class="st2" d="M592.2,365.7v5.3h-1.5v-4.8c0-1.6-0.9-2.5-2.4-2.5c-1.4,0-2.5,1-2.5,2.5v4.8h-1.5v-4.8c0-1.6-0.9-2.5-2.3-2.5
		c-1.4,0-2.5,0.9-2.5,2.5v4.8h-1.5v-8.6h1.5v1.1c0.7-1,1.8-1.3,2.8-1.3c1.4,0,2.6,0.6,3.2,1.7c0.7-1.3,2-1.7,3.2-1.7
		C590.8,362.3,592.2,363.7,592.2,365.7z"/>
</g>
<g class="st0">
	<path class="st2" d="M533.6,439h-8.8v-12.6h1.6v11.1h7.2V439z"/>
	<path class="st2" d="M537.3,427.4c0,0.6-0.5,1-1.1,1c-0.6,0-1-0.4-1-1c0-0.6,0.5-1.1,1-1.1C536.8,426.4,537.3,426.8,537.3,427.4z
		 M537,439h-1.5v-8.6h1.5V439z"/>
	<path class="st2" d="M546.6,431.6v-1.2h1.5v8c0,2.8-1.8,4.3-4.5,4.3c-1.3,0-2.7-0.4-3.6-1.1l0.6-1.2c0.8,0.6,1.8,1,2.9,1
		c1.8,0,3.1-1,3.1-2.9v-0.8c-0.6,0.8-1.6,1.3-2.9,1.3c-2.4,0-4.2-1.8-4.2-4.4c0-2.6,1.8-4.4,4.2-4.4
		C545,430.3,546,430.8,546.6,431.6z M540.9,434.6c0,1.7,1.1,3,2.9,3c1.7,0,2.9-1.3,2.9-3c0-1.7-1.2-3-2.9-3
		C542.1,431.7,540.9,433,540.9,434.6z"/>
	<path class="st2" d="M552.7,431.6c0.7-1,1.8-1.3,2.8-1.3c2.1,0,3.6,1.4,3.6,3.4v5.3h-1.5v-4.8c0-1.6-0.9-2.5-2.3-2.5
		c-1.4,0-2.5,0.9-2.5,2.5v4.8h-1.5v-13h1.5V431.6z"/>
	<path class="st2" d="M567.7,431.8h-3.6v4.2c0,1.3,0.7,1.8,1.6,1.8c0.6,0,1.3-0.2,1.7-0.6l0.7,1.1c-0.7,0.5-1.5,0.8-2.6,0.8
		c-1.9,0-3-1-3-3.2v-4.2h-1.8v-1.3h1.8v-2.7h1.5v2.7h3.6V431.8z"/>
</g>
<g class="st0">
	<path class="st2" d="M800.8,144.4h-5.5l-0.1,3.6h1.8c3,0,4.4,1.7,4.4,3.7c0,2.6-2,4.1-4.3,4.1c-1.8,0-3.2-0.7-4.3-2l1-1
		c0.8,1,2,1.5,3.3,1.5c1.8,0,2.8-1.1,2.8-2.5c0-1.3-0.8-2.4-3.3-2.4h-2.8l0.1-6.4h6.9V144.4z"/>
	<path class="st2" d="M814.1,149.2c0,4-2.3,6.5-5.2,6.5c-2.9,0-5.2-2.4-5.2-6.5c0-4.1,2.3-6.5,5.2-6.5
		C811.7,142.7,814.1,145.2,814.1,149.2z M805.2,149.2c0,3.2,1.6,5,3.6,5c2,0,3.6-1.8,3.6-5s-1.6-5-3.6-5
		C806.8,144.2,805.2,146,805.2,149.2z"/>
</g>
<g class="st0">
	<path class="st2" d="M800.8,225.7c0,1.5-0.8,2.4-1.9,2.9c1.3,0.5,2.2,1.5,2.2,3c0,2.4-2.1,3.6-4.4,3.6c-1.8,0-3.2-0.6-4.2-1.7l1-1
		c0.8,0.8,1.9,1.3,3.1,1.3c1.5,0,2.8-0.7,2.8-2.2c0-1.4-1.3-2.2-3-2.2h-1.6V228h1.6c1.5,0,2.7-0.7,2.7-2.2c0-1.3-1.2-2.1-2.7-2.1
		c-1.2,0-2.2,0.7-2.7,1.4l-1.1-0.9c0.7-1.1,2-1.9,3.9-1.9C799.1,222.2,800.8,223.6,800.8,225.7z"/>
	<path class="st2" d="M812.2,225.7c0,1.5-0.9,2.4-2.1,2.9c1.3,0.5,2.4,1.4,2.4,3c0,2.3-2.1,3.6-4.7,3.6s-4.7-1.3-4.7-3.6
		c0-1.6,1.1-2.5,2.4-3c-1.2-0.5-2.1-1.4-2.1-2.9c0-2.2,2-3.5,4.4-3.5C810.2,222.2,812.2,223.5,812.2,225.7z M804.7,231.6
		c0,1.5,1.4,2.2,3.1,2.2c1.7,0,3.1-0.8,3.1-2.2c0-1.4-1.4-2.2-3.1-2.2C806.1,229.3,804.7,230.1,804.7,231.6z M805,225.8
		c0,1.5,1.3,2.2,2.8,2.2c1.5,0,2.8-0.7,2.8-2.2c0-1.4-1.3-2.1-2.8-2.1C806.2,223.7,805,224.4,805,225.8z"/>
</g>
<g class="st0">
	<path class="st2" d="M800.8,293.7c0,1.5-0.8,2.4-1.9,2.9c1.3,0.5,2.2,1.5,2.2,3c0,2.4-2.1,3.6-4.4,3.6c-1.8,0-3.2-0.6-4.2-1.7l1-1
		c0.8,0.8,1.9,1.3,3.1,1.3c1.5,0,2.8-0.7,2.8-2.2c0-1.4-1.3-2.2-3-2.2h-1.6V296h1.6c1.5,0,2.7-0.7,2.7-2.2c0-1.3-1.2-2.1-2.7-2.1
		c-1.2,0-2.2,0.7-2.7,1.4l-1.1-0.9c0.7-1.1,2-1.9,3.9-1.9C799.1,290.2,800.8,291.6,800.8,293.7z"/>
	<path class="st2" d="M813.7,296.7c0,4-2.3,6.5-5.2,6.5c-2.9,0-5.2-2.4-5.2-6.5c0-4.1,2.3-6.5,5.2-6.5
		C811.4,290.2,813.7,292.7,813.7,296.7z M804.8,296.7c0,3.2,1.6,5,3.6,5c2,0,3.6-1.8,3.6-5c0-3.2-1.6-5-3.6-5
		C806.5,291.7,804.8,293.5,804.8,296.7z"/>
</g>
<g class="st0">
	<path class="st2" d="M792.8,360.3c0.6-0.9,1.7-2.1,3.9-2.1c2.6,0,4.1,1.7,4.1,3.9c0,1.6-0.9,2.7-1.7,3.5l-3.6,3.8h5.7v1.4h-8v-1.2
		l4.7-5c0.8-0.8,1.3-1.6,1.3-2.7c0-1.4-0.9-2.5-2.5-2.5c-1.4,0-2.2,0.7-2.8,1.5L792.8,360.3z"/>
	<path class="st2" d="M813.5,364.7c0,4-2.3,6.5-5.2,6.5c-2.9,0-5.2-2.4-5.2-6.5c0-4.1,2.3-6.5,5.2-6.5
		C811.2,358.2,813.5,360.7,813.5,364.7z M804.7,364.7c0,3.2,1.6,5,3.6,5c2,0,3.6-1.8,3.6-5c0-3.2-1.6-5-3.6-5
		C806.3,359.7,804.7,361.5,804.7,364.7z"/>
</g>
<g class="st0">
	<path class="st2" d="M797.7,439h-1.5v-10.6l-3.6,1.5v-1.6l5.1-2.2V439z"/>
	<path class="st2" d="M807.4,435h2.1v1.4h-2.1v2.6h-1.5v-2.6H800v-1.2l4.7-8.8h1.7l-4.6,8.5h4v-3.5h1.5V435z"/>
</g>
<g class="st0">
	<path class="st2" d="M1029.7,155.5h-1.5V145l-3.6,1.5v-1.6l5.1-2.2V155.5z"/>
	<path class="st2" d="M1043.2,149.2c0,4-2.3,6.5-5.2,6.5c-2.9,0-5.2-2.4-5.2-6.5c0-4.1,2.3-6.5,5.2-6.5
		C1040.9,142.7,1043.2,145.2,1043.2,149.2z M1034.3,149.2c0,3.2,1.6,5,3.6,5c2,0,3.6-1.8,3.6-5s-1.6-5-3.6-5
		C1036,144.2,1034.3,146,1034.3,149.2z"/>
	<path class="st2" d="M1056,149.2c0,4-2.3,6.5-5.2,6.5c-2.9,0-5.2-2.4-5.2-6.5c0-4.1,2.3-6.5,5.2-6.5
		C1053.6,142.7,1056,145.2,1056,149.2z M1047.1,149.2c0,3.2,1.6,5,3.6,5c2,0,3.6-1.8,3.6-5s-1.6-5-3.6-5
		C1048.8,144.2,1047.1,146,1047.1,149.2z"/>
</g>
<g class="st0">
	<path class="st2" d="M1029.7,235h-1.5v-10.6l-3.6,1.5v-1.6l5.1-2.2V235z"/>
	<path class="st2" d="M1043.2,228.7c0,4-2.3,6.5-5.2,6.5c-2.9,0-5.2-2.4-5.2-6.5c0-4.1,2.3-6.5,5.2-6.5
		C1040.9,222.2,1043.2,224.7,1043.2,228.7z M1034.3,228.7c0,3.2,1.6,5,3.6,5c2,0,3.6-1.8,3.6-5s-1.6-5-3.6-5
		C1036,223.7,1034.3,225.5,1034.3,228.7z"/>
	<path class="st2" d="M1056,228.7c0,4-2.3,6.5-5.2,6.5c-2.9,0-5.2-2.4-5.2-6.5c0-4.1,2.3-6.5,5.2-6.5
		C1053.6,222.2,1056,224.7,1056,228.7z M1047.1,228.7c0,3.2,1.6,5,3.6,5c2,0,3.6-1.8,3.6-5s-1.6-5-3.6-5
		C1048.8,223.7,1047.1,225.5,1047.1,228.7z"/>
</g>
<g class="st0">
	<path class="st2" d="M1034.1,293.7c0,1.5-0.9,2.4-2.1,2.9c1.3,0.5,2.4,1.4,2.4,3c0,2.3-2.1,3.6-4.7,3.6s-4.7-1.3-4.7-3.6
		c0-1.6,1.1-2.5,2.4-3c-1.2-0.5-2.1-1.4-2.1-2.9c0-2.2,2-3.5,4.4-3.5C1032.1,290.2,1034.1,291.5,1034.1,293.7z M1026.6,299.6
		c0,1.5,1.4,2.2,3.1,2.2c1.7,0,3.1-0.8,3.1-2.2c0-1.4-1.4-2.2-3.1-2.2C1028,297.3,1026.6,298.1,1026.6,299.6z M1026.9,293.8
		c0,1.5,1.3,2.2,2.8,2.2c1.5,0,2.8-0.7,2.8-2.2c0-1.4-1.3-2.1-2.8-2.1C1028.2,291.7,1026.9,292.4,1026.9,293.8z"/>
	<path class="st2" d="M1047,296.7c0,4-2.3,6.5-5.2,6.5c-2.9,0-5.2-2.4-5.2-6.5c0-4.1,2.3-6.5,5.2-6.5
		C1044.7,290.2,1047,292.7,1047,296.7z M1038.1,296.7c0,3.2,1.6,5,3.6,5c2,0,3.6-1.8,3.6-5c0-3.2-1.6-5-3.6-5
		C1039.8,291.7,1038.1,293.5,1038.1,296.7z"/>
</g>
<g class="st0">
	<path class="st2" d="M1028,363.2c0.4-0.2,0.8-0.3,1.4-0.3c2.3,0,4.2,1.8,4.2,4.1s-1.9,4.1-4.5,4.1c-2.6,0-4.5-1.8-4.5-4.1
		c0-1,0.4-1.9,1-2.9l3.7-5.8h1.9L1028,363.2z M1026.3,367.1c0,1.6,1.3,2.7,2.9,2.7s2.9-1.1,2.9-2.7s-1.2-2.7-2.9-2.7
		S1026.3,365.5,1026.3,367.1z"/>
	<path class="st2" d="M1046.1,364.7c0,4-2.3,6.5-5.2,6.5c-2.9,0-5.2-2.4-5.2-6.5c0-4.1,2.3-6.5,5.2-6.5
		C1043.7,358.2,1046.1,360.7,1046.1,364.7z M1037.2,364.7c0,3.2,1.6,5,3.6,5c2,0,3.6-1.8,3.6-5c0-3.2-1.6-5-3.6-5
		C1038.8,359.7,1037.2,361.5,1037.2,364.7z"/>
</g>
<g class="st0">
	<path class="st2" d="M1032.8,427.8h-5.5l-0.1,3.6h1.8c3,0,4.4,1.7,4.4,3.7c0,2.6-2,4.1-4.3,4.1c-1.8,0-3.2-0.7-4.3-2l1-1
		c0.8,1,2,1.5,3.3,1.5c1.8,0,2.8-1.1,2.8-2.5c0-1.3-0.8-2.4-3.3-2.4h-2.8l0.1-6.4h6.9V427.8z"/>
	<path class="st2" d="M1046.1,432.7c0,4-2.3,6.5-5.2,6.5c-2.9,0-5.2-2.4-5.2-6.5c0-4.1,2.3-6.5,5.2-6.5
		C1043.7,426.2,1046.1,428.6,1046.1,432.7z M1037.2,432.7c0,3.2,1.6,5,3.6,5c2,0,3.6-1.8,3.6-5s-1.6-5-3.6-5
		C1038.8,427.7,1037.2,429.5,1037.2,432.7z"/>
</g>
<g class="st0">
	<path class="st2" d="M800,64.6c-1-0.6-2.2-1.1-3.6-1.1c-1.4,0-2.4,0.6-2.4,1.5c0,0.9,1.1,1.2,2.6,1.5l0.7,0.1c2.2,0.4,4,1.3,4,3.5
		c0,2.8-2.4,4.1-5.2,4.1c-1.9,0-4-0.6-5.3-1.6l1.3-2c0.9,0.7,2.4,1.4,4,1.4c1.4,0,2.5-0.5,2.5-1.5c0-0.9-0.9-1.2-2.7-1.5l-0.8-0.1
		c-2.2-0.4-3.8-1.3-3.8-3.6c0-2.6,2.3-4,5-4c1.8,0,3.2,0.4,4.8,1.3L800,64.6z"/>
	<path class="st2" d="M806.1,62.4c0,0.8-0.7,1.5-1.5,1.5s-1.5-0.6-1.5-1.5c0-0.8,0.6-1.5,1.5-1.5S806.1,61.6,806.1,62.4z M805.8,74
		h-2.3v-8.7h2.3V74z"/>
	<path class="st2" d="M815.4,67l-4.3,4.9h4.4V74h-7.6v-1.7l4.4-4.9H808v-2.1h7.4V67z"/>
	<path class="st2" d="M825.5,69.6c0,0.3,0,0.6,0,0.8h-6.2c0.3,1.3,1.1,1.8,2.2,1.8c0.8,0,1.6-0.3,2.2-0.8l1.4,1.5
		c-1,0.9-2.2,1.3-3.7,1.3c-2.7,0-4.5-1.8-4.5-4.6c0-2.7,1.8-4.6,4.4-4.6C823.8,65,825.5,66.9,825.5,69.6z M819.3,68.8h3.9
		c-0.2-1.1-0.9-1.7-1.9-1.7C820.2,67.1,819.5,67.7,819.3,68.8z"/>
</g>
<g class="st0">
	<path class="st2" d="M1034.6,63.7h-3.9V74h-2.5V63.7h-3.9v-2.3h10.3V63.7z"/>
	<path class="st2" d="M1041.1,65.2l-0.4,2.3c-0.4-0.2-0.9-0.3-1.4-0.3c-1.1,0-1.8,0.7-1.8,2V74h-2.3v-8.7h2.3v1
		c0.5-0.8,1.4-1.2,2.5-1.2C1040.4,65,1040.8,65.1,1041.1,65.2z"/>
	<path class="st2" d="M1051,74h-2.3v-1c-0.6,0.7-1.4,1.2-2.6,1.2c-2.4,0-4.2-2-4.2-4.6s1.8-4.6,4.2-4.6c1.2,0,2,0.5,2.6,1.2v-1h2.3
		V74z M1044.3,69.6c0,1.3,0.9,2.4,2.3,2.4c1.3,0,2.2-1,2.2-2.4c0-1.4-0.9-2.4-2.2-2.4C1045.2,67.2,1044.3,68.3,1044.3,69.6z"/>
	<path class="st2" d="M1061.1,66.7l-1.7,1.4c-0.5-0.6-1.1-0.9-1.9-0.9c-1.2,0-2.2,1-2.2,2.4c0,1.5,1,2.4,2.2,2.4
		c0.8,0,1.4-0.3,1.9-0.9l1.7,1.4c-0.8,1.1-2,1.6-3.5,1.6c-2.8,0-4.6-1.9-4.6-4.6c0-2.6,1.9-4.6,4.6-4.6
		C1059,65,1060.3,65.6,1061.1,66.7z"/>
	<path class="st2" d="M1065.1,68.4h0.8l2.5-3.1h2.9l-3.4,4.1l3.5,4.6h-2.9l-2.5-3.5h-0.8V74h-2.3V61h2.3V68.4z"/>
	<path class="st2" d="M1075.3,62.4c0,0.8-0.7,1.5-1.5,1.5c-0.8,0-1.5-0.6-1.5-1.5c0-0.8,0.6-1.5,1.5-1.5
		C1074.6,60.9,1075.3,61.6,1075.3,62.4z M1075,74h-2.3v-8.7h2.3V74z"/>
	<path class="st2" d="M1085.7,68.4V74h-2.3v-4.8c0-1.3-0.6-2-1.7-2c-1,0-1.8,0.7-1.8,2V74h-2.3v-8.7h2.3v1c0.6-0.9,1.6-1.3,2.6-1.3
		C1084.3,65,1085.7,66.4,1085.7,68.4z"/>
	<path class="st2" d="M1094.3,66.2v-1h2.3v8c0,2.8-1.8,4.5-4.7,4.5c-1.4,0-2.8-0.4-3.8-1.1l0.8-1.9c0.9,0.6,1.8,0.9,2.9,0.9
		c1.5,0,2.5-0.8,2.5-2.3v-0.6c-0.6,0.7-1.5,1.2-2.7,1.2c-2.1,0-4-1.8-4-4.4c0-2.7,1.9-4.5,4-4.5C1092.8,65,1093.7,65.5,1094.3,66.2z
		 M1090,69.5c0,1.3,0.9,2.3,2.2,2.3c1.3,0,2.2-1,2.2-2.3c0-1.3-0.9-2.3-2.2-2.3C1090.8,67.2,1090,68.2,1090,69.5z"/>
</g>
<g class="st0">
	<path class="st2" d="M10.9,130.1v14.4h12.8v-14.4h6.7v35h-6.7v-15.5H10.9v15.5H4.2v-35H10.9z"/>
	<path class="st2" d="M60,130.1v5.2H45.5v9.3H59v5.2H45.5v10.2h14.9v5.2H38.8v-35H60z"/>
	<path class="st2" d="M94.1,161.2v3.9h-6.1l-2.4-8.9h-12l-2.5,8.9h-5.5v-3.9l9.2-31.2h9.9L94.1,161.2z M84.3,151l-4.1-15h-0.9
		l-4.1,15H84.3z"/>
	<path class="st2" d="M114.4,165.1h-13.8v-35h13.8c6.6,0,10.3,3.5,11.7,6.9v21.2C124.7,161.6,121.1,165.1,114.4,165.1z M113.2,135.2
		h-5.9v24.7h5.9c3.2,0,5.5-1.5,6.3-3.5v-17.8C118.6,136.7,116.4,135.2,113.2,135.2z"/>
	<path class="st2" d="M140.7,130.1v29.8h11.8v5.2H134v-35H140.7z"/>
	<path class="st2" d="M165.6,130.1v35h-6.7v-35H165.6z"/>
	<path class="st2" d="M181.9,130.1l11.8,24.1h0.9v-24.1h6.3v35H193L181.1,141h-0.9v24.1H174v-35H181.9z"/>
	<path class="st2" d="M230.4,130.1v5.2h-14.5v9.3h13.5v5.2h-13.5v10.2h14.9v5.2h-21.6v-35H230.4z"/>
</g>
<g class="st0">
	<path class="st2" d="M5.5,233v3c0.8,1.6,3,3.7,6.6,3.7c3.6,0,5.8-2.1,6.6-3.7v-3.8c-0.8-1.3-1.8-2.5-5.3-3.4l-3-0.8
		c-5-1.3-6.3-2.9-7.3-4.6V219c1-1.8,3.5-4.9,8.9-4.9c5.4,0,7.9,3.2,8.9,4.9v3.3h-2.3v-2.6c-0.8-1.6-3-3.7-6.6-3.7
		c-3.6,0-5.9,2.2-6.6,3.7v2.9c0.8,1.4,1.8,2.4,5.4,3.3l2.9,0.8c5,1.3,6.2,3,7.2,4.6v5.4c-1,1.9-3.5,5-8.9,5c-5.4,0-8-3.2-8.9-5V233
		H5.5z"/>
	<path class="st2" d="M42,220.8v20.4h-2.1v-1.8c-1.3,1.2-3.2,2.3-6.1,2.3c-4.4,0-6.3-2.5-7-3.8v-17.1H29v16.4
		c0.6,0.9,2.1,2.5,5.2,2.5c2.9,0,4.6-1.2,5.6-2.4v-16.6H42z"/>
	<path class="st2" d="M64,224.3v13.3c-0.7,1.3-2.7,4-7.1,4c-3,0-5-1.1-6.2-2.4v1.9h-2.1v-26.6h2.2v8.1c1.3-1.3,3.3-2.3,6.2-2.3
		C61.3,220.3,63.3,223,64,224.3z M61.8,224.9c-0.6-1-2.2-2.7-5.3-2.7c-2.8,0-4.7,1.1-5.8,2.5v12.5c1.1,1.4,3,2.5,5.8,2.5
		c3.1,0,4.7-1.7,5.3-2.7V224.9z"/>
	<path class="st2" d="M81.6,214.6v11.9H95v-11.9h2.4v26.6H95v-12.7H81.6v12.7h-2.4v-26.6H81.6z"/>
	<path class="st2" d="M105.9,231.4v4.7c0.8,1.9,2.7,3.6,5.8,3.6c3.1,0,5.1-1.7,5.9-3.6v-1.7h2.1v2.5c-0.8,2-3.3,4.8-7.9,4.8
		c-4.6,0-7.1-2.8-8-4.9v-11.5c0.9-2.2,3.3-4.9,8-4.9c4.7,0,7.1,2.8,7.9,4.8v6.3H105.9z M105.9,225.8v3.9h11.7v-3.9
		c-0.8-1.9-2.7-3.6-5.9-3.6C108.7,222.2,106.7,223.9,105.9,225.8z"/>
	<path class="st2" d="M140.5,225.2v15.9h-2.1V239c-1.2,1.4-3.4,2.7-6.6,2.7c-4.5,0-6.3-2.5-6.9-3.2v-5.8c0.5-0.9,2.4-3.3,6.8-3.3
		c3.2,0,5.4,1.2,6.6,2.5v-6.2c-0.8-1.9-2.7-3.6-5.9-3.6c-3,0-4.6,1.7-5.2,2.5v2.1h-2.1v-2.8c0.6-0.8,2.6-3.6,7.3-3.6
		C137.2,220.3,139.6,223.1,140.5,225.2z M138.3,236.8v-2.4c-0.9-1.6-3.1-3.2-6.3-3.2c-3,0-4.4,1.4-5,2.1v4.3c0.5,0.6,1.9,2.2,5,2.2
		C135.3,239.8,137.5,238.4,138.3,236.8z"/>
	<path class="st2" d="M161.8,214.6v26.6h-2.2v-1.9c-1.3,1.3-3.3,2.4-6.2,2.4c-4.4,0-6.4-2.7-7.1-4v-13.3c0.7-1.3,2.7-4,7.1-4
		c2.9,0,4.9,1.1,6.2,2.3v-8.1H161.8z M159.6,237.3v-12.5c-1.1-1.4-3-2.5-5.8-2.5c-3.1,0-4.7,1.7-5.3,2.7v12.2c0.6,1,2.2,2.7,5.3,2.7
		C156.6,239.8,158.6,238.6,159.6,237.3z"/>
	<path class="st2" d="M170.5,214.6v26.6h-2.2v-26.6H170.5z"/>
	<path class="st2" d="M178.1,214c0.8,0,1.3,0.3,1.4,0.6v1.6c-0.2,0.3-0.6,0.6-1.4,0.6c-0.7,0-1.3-0.3-1.4-0.6v-1.6
		C176.8,214.3,177.4,214,178.1,214z M179.2,220.8v20.4H177v-20.4H179.2z"/>
	<path class="st2" d="M201.2,224.3v16.8H199v-16.3c-0.6-1-2.2-2.7-5.3-2.7c-2.8,0-4.7,1.1-5.8,2.5v16.5h-2.2v-20.4h2.1v1.9
		c1.3-1.3,3.4-2.4,6.3-2.4C198.5,220.3,200.5,223,201.2,224.3z"/>
	<path class="st2" d="M209.2,231.4v4.7c0.8,1.9,2.7,3.6,5.8,3.6c3.1,0,5.1-1.7,5.9-3.6v-1.7h2.1v2.5c-0.8,2-3.3,4.8-7.9,4.8
		c-4.6,0-7.1-2.8-8-4.9v-11.5c0.9-2.2,3.3-4.9,8-4.9c4.7,0,7.1,2.8,7.9,4.8v6.3H209.2z M209.2,225.8v3.9h11.7v-3.9
		c-0.8-1.9-2.7-3.6-5.9-3.6C212,222.2,210,223.9,209.2,225.8z"/>
</g>
<g class="st0">
	<path class="st2" d="M8.4,285.6l4.4,10.5h0.5l4.4-10.5h5.4v21h-3.8v-15.3h-0.5L14.3,302h-2.6l-4.5-10.7H6.7v15.3H2.9v-21H8.4z"/>
	<path class="st2" d="M34.4,289.9c4.1,0,6.2,2.3,6.9,4v9c-0.7,1.7-2.8,4-6.9,4c-4.1,0-6.2-2.3-7-4v-9
		C28.2,292.2,30.3,289.9,34.4,289.9z M34.4,304.1c1.7,0,2.8-0.9,3.2-1.9v-7.5c-0.4-0.9-1.5-1.9-3.2-1.9c-1.7,0-2.8,0.9-3.2,1.9v7.5
		C31.6,303.2,32.7,304.1,34.4,304.1z"/>
	<path class="st2" d="M58.7,285.6v21h-3.6v-1.3c-1,0.9-2.4,1.7-4.4,1.7c-3.4,0-5-2.2-5.6-3.5v-9.9c0.6-1.3,2.2-3.5,5.6-3.5
		c1.9,0,3.3,0.7,4.3,1.6v-6H58.7z M55,302.7v-8.5c-0.6-0.7-1.7-1.3-3.1-1.3c-1.7,0-2.6,0.9-3,1.5v8.1c0.3,0.6,1.3,1.5,3,1.5
		C53.3,304,54.4,303.4,55,302.7z"/>
	<path class="st2" d="M76.3,290.3v16.2h-3.5v-1.3c-1,1-2.4,1.7-4.4,1.7c-3.4,0-4.9-2.2-5.5-3.5v-13.1h3.7v12.2
		c0.3,0.5,1.2,1.5,2.9,1.5c1.6,0,2.5-0.6,3.1-1.3v-12.4H76.3z"/>
	<path class="st2" d="M84.3,285.6v21h-3.7v-21H84.3z"/>
	<path class="st2" d="M92.1,299.4v2.8c0.4,1,1.5,1.9,3.2,1.9c1.7,0,2.8-0.9,3.2-1.9v-1.1h3.5v2.3c-0.6,1.2-2.6,3.6-6.7,3.6
		c-4.1,0-6.2-2.3-6.9-4v-9c0.7-1.7,2.8-4,6.9-4c4.1,0,6.1,2.4,6.7,3.6v5.9H92.1z M92.1,294.7v2.4h6.4v-2.4c-0.4-1-1.5-1.9-3.2-1.9
		C93.6,292.8,92.5,293.7,92.1,294.7z"/>
	<path class="st2" d="M117.4,285.6v8.6h7.7v-8.6h4v21h-4v-9.3h-7.7v9.3h-4v-21H117.4z"/>
	<path class="st2" d="M137.1,299.4v2.8c0.4,1,1.5,1.9,3.2,1.9c1.7,0,2.8-0.9,3.2-1.9v-1.1h3.5v2.3c-0.6,1.2-2.6,3.6-6.7,3.6
		c-4.1,0-6.2-2.3-6.9-4v-9c0.7-1.7,2.8-4,6.9-4c4.1,0,6.1,2.4,6.7,3.6v5.9H137.1z M137.1,294.7v2.4h6.4v-2.4c-0.4-1-1.5-1.9-3.2-1.9
		C138.6,292.8,137.6,293.7,137.1,294.7z"/>
	<path class="st2" d="M164.3,293.9v12.6h-3.6v-1.3c-1,0.9-2.5,1.7-4.6,1.7c-3.5,0-5.1-1.8-5.5-2.5v-4.8c0.4-0.8,2-2.7,5.5-2.7
		c2,0,3.5,0.7,4.5,1.5v-3.8c-0.5-1-1.5-1.9-3.2-1.9c-1.6,0-2.6,0.9-2.9,1.3v1.3H151v-2.5c0.5-0.7,2.3-3,6.4-3
		C161.4,289.9,163.5,292.2,164.3,293.9z M160.6,302.9v-1.8c-0.6-0.8-1.7-1.5-3.4-1.5c-1.6,0-2.5,0.7-2.8,1.1v2.4
		c0.3,0.4,1.2,1.3,2.8,1.3C158.9,304.4,160,303.7,160.6,302.9z"/>
	<path class="st2" d="M181.8,285.6v21h-3.6v-1.3c-1,0.9-2.4,1.7-4.4,1.7c-3.4,0-5-2.2-5.6-3.5v-9.9c0.6-1.3,2.2-3.5,5.6-3.5
		c1.9,0,3.3,0.7,4.3,1.6v-6H181.8z M178.1,302.7v-8.5c-0.6-0.7-1.7-1.3-3.1-1.3c-1.7,0-2.6,0.9-3,1.5v8.1c0.3,0.6,1.3,1.5,3,1.5
		C176.4,304,177.5,303.4,178.1,302.7z"/>
	<path class="st2" d="M189.8,285.6v21h-3.7v-21H189.8z"/>
	<path class="st2" d="M196,284.4c1.2,0,1.8,0.5,2.1,1v1.7c-0.2,0.5-0.9,1-2.1,1c-1.1,0-1.8-0.5-2-1v-1.7
		C194.2,285,194.9,284.4,196,284.4z M197.9,290.3v16.2h-3.7v-16.2H197.9z"/>
	<path class="st2" d="M215.8,293.5v13H212v-12.2c-0.3-0.6-1.3-1.5-2.9-1.5c-1.5,0-2.6,0.6-3.2,1.2v12.4h-3.7v-16.2h3.5v1.4
		c1-1,2.5-1.7,4.5-1.7C213.6,290,215.2,292.2,215.8,293.5z"/>
	<path class="st2" d="M223.5,299.4v2.8c0.4,1,1.5,1.9,3.2,1.9c1.7,0,2.8-0.9,3.2-1.9v-1.1h3.5v2.3c-0.6,1.2-2.6,3.6-6.7,3.6
		c-4.1,0-6.2-2.3-6.9-4v-9c0.7-1.7,2.8-4,6.9-4c4.1,0,6.1,2.4,6.7,3.6v5.9H223.5z M223.5,294.7v2.4h6.4v-2.4c-0.4-1-1.5-1.9-3.2-1.9
		C225,292.8,223.9,293.7,223.5,294.7z"/>
</g>
<g class="st0">
	<path class="st2" d="M7.2,360.2c1.8,0,3,1.1,3.6,2.1v2.5c-0.3,0.5-0.9,1.1-1.5,1.4c0.6,0.3,1.3,0.8,1.6,1.4v3
		c-0.6,1-1.8,2.1-3.7,2.1H2.2v-12.6H7.2z M8.6,364.5v-1.4c-0.3-0.6-1-1-1.9-1H4.6v3.4h2.3C7.5,365.5,8.2,365.1,8.6,364.5z
		 M8.7,369.9v-1.7c-0.3-0.6-1.1-1-1.9-1H4.6v3.8h2.1C7.8,371,8.4,370.5,8.7,369.9z"/>
	<path class="st2" d="M16.7,362.8c2.4,0,3.7,1.4,4.1,2.4v5.4c-0.4,1-1.7,2.4-4.1,2.4c-2.5,0-3.7-1.4-4.2-2.4v-5.4
		C13,364.2,14.3,362.8,16.7,362.8z M16.7,371.3c1,0,1.7-0.5,1.9-1.1v-4.5c-0.2-0.6-0.9-1.1-1.9-1.1s-1.7,0.6-1.9,1.1v4.5
		C15,370.8,15.7,371.3,16.7,371.3z"/>
	<path class="st2" d="M30.7,360.2v12.6h-2.2v-0.8c-0.6,0.6-1.4,1-2.6,1c-2.1,0-3-1.3-3.4-2.1V365c0.3-0.8,1.3-2.1,3.4-2.1
		c1.2,0,2,0.4,2.6,0.9v-3.6H30.7z M28.5,370.5v-5.1c-0.4-0.4-1-0.8-1.9-0.8c-1,0-1.6,0.5-1.8,0.9v4.9c0.2,0.3,0.8,0.9,1.8,0.9
		C27.5,371.3,28.1,370.9,28.5,370.5z"/>
	<path class="st2" d="M40.5,363.1v1.3l-3.4,10.2c-0.6,0.8-1.8,1.4-3.3,1.4c-0.6,0-1.1-0.1-1.4-0.1v-1.6c0.2,0,0.7,0,0.9,0
		c0.9,0,1.6-0.3,1.9-0.7l0.2-0.7l-3.1-8.4v-1.3h2.1l1.9,6.6h0.3l2-6.6H40.5z"/>
	<path class="st2" d="M55.1,370.5c-0.5,1-1.8,2.6-4.6,2.6s-4.2-1.5-4.7-2.8v-7.6c0.5-1.2,1.9-2.7,4.7-2.7s4.1,1.5,4.6,2.6v2.5h-2.3
		v-1.8c-0.3-0.7-1.1-1.4-2.3-1.4c-1.2,0-1.9,0.6-2.3,1.4v6.6c0.3,0.7,1.1,1.4,2.3,1.4c1.2,0,1.9-0.6,2.3-1.4v-2h2.3V370.5z"/>
	<path class="st2" d="M61,362.8c2.4,0,3.7,1.4,4.1,2.4v5.4c-0.4,1-1.7,2.4-4.1,2.4c-2.5,0-3.7-1.4-4.2-2.4v-5.4
		C57.3,364.2,58.5,362.8,61,362.8z M61,371.3c1,0,1.7-0.5,1.9-1.1v-4.5c-0.2-0.6-0.9-1.1-1.9-1.1s-1.7,0.6-1.9,1.1v4.5
		C59.3,370.8,60,371.3,61,371.3z"/>
	<path class="st2" d="M75.1,365v5.9c-0.3,0.8-1.3,2.1-3.3,2.1c-1.2,0-2-0.4-2.6-0.9v3.7H67v-12.7h2.2v0.8c0.6-0.6,1.4-1,2.6-1
		C73.8,362.9,74.8,364.2,75.1,365z M72.9,365.5c-0.2-0.3-0.8-0.9-1.8-0.9c-0.9,0-1.5,0.3-1.9,0.8v5.1c0.4,0.4,1,0.8,1.9,0.8
		c1,0,1.6-0.5,1.8-0.9V365.5z"/>
	<path class="st2" d="M84.5,363.1v1.3l-3.4,10.2c-0.6,0.8-1.8,1.4-3.3,1.4c-0.6,0-1.1-0.1-1.4-0.1v-1.6c0.2,0,0.7,0,0.9,0
		c0.9,0,1.6-0.3,1.9-0.7l0.2-0.7l-3.1-8.4v-1.3h2.1l1.9,6.6h0.3l2-6.6H84.5z"/>
	<path class="st2" d="M92.4,360.2v5.2H97v-5.2h2.4v12.6H97v-5.6h-4.6v5.6H90v-12.6H92.4z"/>
	<path class="st2" d="M103.6,368.6v1.7c0.3,0.6,0.9,1.1,1.9,1.1s1.7-0.5,1.9-1.1v-0.7h2.1v1.4c-0.4,0.7-1.6,2.1-4,2.1
		c-2.5,0-3.7-1.4-4.2-2.4v-5.4c0.5-1,1.7-2.4,4.2-2.4c2.4,0,3.7,1.4,4,2.1v3.6H103.6z M103.6,365.7v1.4h3.9v-1.4
		c-0.2-0.6-0.9-1.1-1.9-1.1S103.9,365.1,103.6,365.7z"/>
	<path class="st2" d="M119.4,365.3v7.6h-2.2v-0.8c-0.6,0.5-1.5,1-2.7,1c-2.1,0-3-1.1-3.3-1.5v-2.9c0.3-0.5,1.2-1.6,3.3-1.6
		c1.2,0,2.1,0.4,2.7,0.9v-2.2c-0.3-0.6-0.9-1.1-1.9-1.1c-1,0-1.5,0.5-1.7,0.8v0.8h-2.1v-1.5c0.3-0.4,1.4-1.8,3.8-1.8
		C117.6,362.8,118.9,364.2,119.4,365.3z M117.1,370.6v-1.1c-0.3-0.5-1-0.9-2.1-0.9c-1,0-1.5,0.4-1.7,0.7v1.5
		c0.2,0.3,0.7,0.8,1.7,0.8C116.1,371.5,116.8,371.1,117.1,370.6z"/>
	<path class="st2" d="M129.3,360.2v12.6h-2.2v-0.8c-0.6,0.6-1.4,1-2.6,1c-2.1,0-3-1.3-3.4-2.1V365c0.3-0.8,1.3-2.1,3.4-2.1
		c1.2,0,2,0.4,2.6,0.9v-3.6H129.3z M127,370.5v-5.1c-0.4-0.4-1-0.8-1.9-0.8c-1,0-1.6,0.5-1.8,0.9v4.9c0.2,0.3,0.8,0.9,1.8,0.9
		C126,371.3,126.7,370.9,127,370.5z"/>
	<path class="st2" d="M133.5,360.2v12.6h-2.2v-12.6H133.5z"/>
	<path class="st2" d="M136.6,359.5c0.7,0,1.1,0.3,1.2,0.6v1c-0.1,0.3-0.5,0.6-1.2,0.6c-0.7,0-1.1-0.3-1.2-0.6v-1
		C135.5,359.9,135.9,359.5,136.6,359.5z M137.7,363.1v9.7h-2.2v-9.7H137.7z"/>
	<path class="st2" d="M147.9,365v7.8h-2.2v-7.3c-0.2-0.3-0.8-0.9-1.8-0.9c-0.9,0-1.5,0.3-1.9,0.7v7.5h-2.2v-9.7h2.1v0.8
		c0.6-0.6,1.5-1,2.7-1C146.6,362.9,147.5,364.2,147.9,365z"/>
	<path class="st2" d="M151.9,368.6v1.7c0.3,0.6,0.9,1.1,1.9,1.1s1.7-0.5,1.9-1.1v-0.7h2.1v1.4c-0.4,0.7-1.6,2.1-4,2.1
		c-2.5,0-3.7-1.4-4.2-2.4v-5.4c0.5-1,1.7-2.4,4.2-2.4c2.4,0,3.7,1.4,4,2.1v3.6H151.9z M151.9,365.7v1.4h3.9v-1.4
		c-0.2-0.6-0.9-1.1-1.9-1.1S152.2,365.1,151.9,365.7z"/>
	<path class="st2" d="M161.5,369.7v0.9c0.3,0.4,0.8,0.8,1.7,0.8c0.9,0,1.5-0.4,1.7-0.8v-1c-0.2-0.4-0.7-0.6-1.4-0.8l-1.1-0.2
		c-1.9-0.4-2.8-1.1-3.1-1.6v-2.4c0.4-0.5,1.5-1.8,3.8-1.8c2.4,0,3.5,1.3,3.8,1.8v1.5H165v-0.8c-0.2-0.4-0.8-0.8-1.7-0.8
		c-0.9,0-1.5,0.4-1.7,0.8v0.9c0.2,0.3,0.7,0.6,1.4,0.7l1,0.2c1.9,0.4,2.8,1.1,3.1,1.6v2.5c-0.4,0.6-1.5,1.8-3.8,1.8
		s-3.5-1.3-3.8-1.8v-1.5H161.5z"/>
</g>
<g class="st0">
	<path class="st2" d="M6.9,426.4c1.6,0,2.8,1,3.5,2.1v2.4c-0.4,0.7-1.1,1.3-1.9,1.6c0.8,0.3,1.6,0.9,2,1.6v2.7
		c-0.6,1-1.7,2.1-3.6,2.1H2.5v-12.6H6.9z M9.3,430.7v-1.8c-0.5-0.9-1.5-1.5-2.6-1.5h-3v4.8h3.2C7.7,432.1,8.7,431.5,9.3,430.7z
		 M9.4,436.5v-2c-0.5-0.8-1.6-1.5-2.6-1.5H3.6v5.1h3C8.1,438.1,8.9,437.4,9.4,436.5z"/>
	<path class="st2" d="M16.3,429.1c2.2,0,3.4,1.3,3.8,2.3v5.4c-0.4,1-1.6,2.3-3.8,2.3s-3.4-1.3-3.8-2.3v-5.4
		C12.9,430.5,14.1,429.1,16.3,429.1z M16.3,438.4c1.5,0,2.4-0.8,2.8-1.7v-4.9c-0.4-0.9-1.3-1.7-2.8-1.7c-1.5,0-2.4,0.8-2.8,1.7v4.9
		C13.9,437.5,14.8,438.4,16.3,438.4z"/>
	<path class="st2" d="M29.6,426.4V439h-1v-0.9c-0.6,0.6-1.5,1.1-3,1.1c-2.1,0-3-1.3-3.4-1.9V431c0.3-0.6,1.3-1.9,3.4-1.9
		c1.4,0,2.3,0.5,2.9,1.1v-3.8H29.6z M28.5,437.2v-5.9c-0.5-0.6-1.4-1.2-2.8-1.2c-1.5,0-2.2,0.8-2.5,1.3v5.8c0.3,0.5,1.1,1.3,2.5,1.3
		C27.1,438.4,28,437.8,28.5,437.2z"/>
	<path class="st2" d="M39.2,429.4v0.7l-3.8,10.7c-0.6,0.8-1.9,1.3-2.9,1.3c-0.4,0-0.8-0.1-0.9-0.1v-0.8c0.3,0,0.6,0,0.8,0
		c1,0,1.8-0.5,2.2-1l0.3-1.1l-3.2-9.1v-0.7h0.9l2.8,8.2h0.2l2.8-8.2H39.2z"/>
	<path class="st2" d="M53.7,436.6c-0.5,1.2-1.8,2.7-4.4,2.7s-3.9-1.5-4.4-2.7v-7.6c0.5-1.2,1.9-2.7,4.4-2.7s3.9,1.5,4.4,2.7v2h-1.1
		v-1.7c-0.4-1.1-1.6-2.1-3.3-2.1s-2.9,1-3.3,2.1v7.1c0.4,1.1,1.6,2.1,3.3,2.1s2.9-1,3.3-2.1v-1.9h1.1V436.6z"/>
	<path class="st2" d="M59.7,429.1c2.2,0,3.4,1.3,3.8,2.3v5.4c-0.4,1-1.6,2.3-3.8,2.3s-3.4-1.3-3.8-2.3v-5.4
		C56.3,430.5,57.5,429.1,59.7,429.1z M59.7,438.4c1.5,0,2.4-0.8,2.8-1.7v-4.9c-0.4-0.9-1.3-1.7-2.8-1.7c-1.5,0-2.4,0.8-2.8,1.7v4.9
		C57.3,437.5,58.2,438.4,59.7,438.4z"/>
	<path class="st2" d="M73.2,431v6.3c-0.3,0.6-1.3,1.9-3.4,1.9c-1.4,0-2.3-0.5-2.9-1.1v3.9h-1v-12.6h1v0.9c0.6-0.6,1.5-1.1,3-1.1
		C71.9,429.2,72.9,430.4,73.2,431z M72.2,431.3c-0.3-0.5-1-1.3-2.5-1.3c-1.3,0-2.3,0.5-2.8,1.2v5.9c0.5,0.6,1.4,1.2,2.8,1.2
		c1.5,0,2.2-0.8,2.5-1.3V431.3z"/>
	<path class="st2" d="M82.3,429.4v0.7l-3.8,10.7c-0.6,0.8-1.9,1.3-2.9,1.3c-0.4,0-0.8-0.1-0.9-0.1v-0.8c0.3,0,0.6,0,0.8,0
		c1,0,1.8-0.5,2.2-1l0.3-1.1l-3.2-9.1v-0.7h0.9l2.8,8.2h0.2l2.8-8.2H82.3z"/>
</g>
<line id="Line" class="st3" x1="1.5" y1="104.5" x2="1138.5" y2="104.5"/>
<line id="Line-Copy" class="st3" x1="1.5" y1="195.5" x2="1138.5" y2="195.5"/>
<line id="Line-Copy-4" class="st3" x1="1.5" y1="399.5" x2="1138.5" y2="399.5"/>
<line id="Line-Copy-2" class="st3" x1="1.5" y1="263.5" x2="1138.5" y2="263.5"/>
<line id="Line-Copy-3" class="st3" x1="1.5" y1="331.5" x2="1138.5" y2="331.5"/>
</svg>
