<?xml version="1.0" encoding="utf-8"?>
<!-- Generator: Adobe Illustrator 25.3.0, SVG Export Plug-In . SVG Version: 6.00 Build 0)  -->
<svg version="1.1" id="Layer_1" xmlns="http://www.w3.org/2000/svg" xmlns:xlink="http://www.w3.org/1999/xlink" x="0px" y="0px"
	 viewBox="0 0 500 470" style="enable-background:new 0 0 500 470;" xml:space="preserve">
<style type="text/css">
	.st0{fill:#414042;}
	.st1{fill:#FFFFFF;}
	.st2{fill:#F9AE75;}
</style>
<g>
	<g>
		<path class="st0" d="M123.1,57.5l-5.5,3.1c-1.1-1.9-2.8-2.9-5.1-2.9c-3.2,0-5.6,2.4-5.6,5.9c0,3.9,2.7,5.9,5.6,5.9
			c2.2,0,3.9-1,5.2-2.9l5.1,3.6c-2.2,3.3-5.7,5.3-10.2,5.3c-7.1,0-12.1-4.9-12.1-11.9c0-7,5-11.9,12.1-11.9
			C117.1,51.7,121.1,53.8,123.1,57.5z"/>
		<path class="st0" d="M148,75.1h-6.6l-1.5-4.4h-8.6l-1.5,4.4h-6.5l8.7-23h7.4L148,75.1z M133.2,65.1h4.7l-2.4-6.8L133.2,65.1z"/>
		<path class="st0" d="M176.2,75.1H170V60.7L166.3,73h-6.7l-3.7-12.3v14.4h-6.2v-23h8.7l4.6,13.8l4.6-13.8h8.7V75.1z"/>
		<path class="st0" d="M185.8,67.9v7.2h-6.2v-23h10.3c5.9,0,8.9,3.2,8.9,8c0,4.6-3.1,7.8-8.8,7.8H185.8z M185.8,57.7v4.7h3.9
			c1.5,0,2.7-0.8,2.7-2.3s-1.1-2.4-2.7-2.4H185.8z"/>
		<path class="st0" d="M221.4,75.1h-6.6l-1.5-4.4h-8.6l-1.5,4.4h-6.5l8.7-23h7.4L221.4,75.1z M206.6,65.1h4.7l-2.4-6.8L206.6,65.1z"
			/>
		<path class="st0" d="M229.4,75.1h-6.2v-23h6.2V75.1z"/>
		<path class="st0" d="M252.6,54.9l-4.4,4.3c-1-1-2.4-1.7-4.4-1.7c-3.3,0-5.6,2.5-5.6,6.1c0,4.2,2.7,6.3,5.7,6.3
			c2.9,0,4.6-1.1,5.2-3.4h-5.4v-4.6h11.4c0.1,0.7,0.1,1.4,0.1,2.1c0,7.7-5.7,11.5-11.1,11.5c-7.2,0-12.3-4.9-12.3-11.9
			c0-7,5.1-11.9,12.3-11.9C247.8,51.7,250.6,52.9,252.6,54.9z"/>
		<path class="st0" d="M279.5,75.1h-6.1L264,62.2v12.9h-6.2v-23h6.1l9.5,12.9V52.1h6.2V75.1z"/>
		<path class="st0" d="M303.4,75.1h-7.4l-8.4-23h6.6l5.5,16.5l5.5-16.5h6.5L303.4,75.1z"/>
		<path class="st0" d="M319.8,75.1h-6.2v-23h6.2V75.1z"/>
		<path class="st0" d="M341,75.1h-18v-23h18v5.6h-11.7v3h10.9v5.6h-10.9v3.3H341V75.1z"/>
		<path class="st0" d="M371.5,75.1h-7.4l-3.8-13.5l-3.8,13.5h-7.4l-6.6-23h6.4l3.9,15.4l4.1-15.4h6.7l4.1,15.4l3.9-15.4h6.3
			L371.5,75.1z"/>
		<path class="st0" d="M395.7,59.2c-1.5-0.9-3.8-1.9-6.6-1.9c-1.7,0-3,0.5-3,1.5c0,1.3,2.3,1.4,4.7,1.9l0.7,0.1
			c4.8,0.9,7.2,3.2,7.2,6.7c0,5.8-4.9,8-9.8,8c-4.1,0-7.9-1-10.5-2.9l3.1-5.1c1.8,1.1,4,2.4,7.5,2.4c1.7,0,2.9-0.5,2.9-1.6
			c0-1.2-1.4-1.4-4.3-1.9l-0.9-0.1c-5.3-0.9-7.5-3.2-7.4-7.3c0.1-4.4,3.8-7.3,9.3-7.3c3,0,5.7,0.3,9.7,2.4L395.7,59.2z"/>
	</g>
	<g>
		<g>
			<path class="st0" d="M364,395.7c-1.2,0-2.4-0.3-3.4-1l-11.2-7.2c-0.5-0.3-1.1-0.3-1.6-0.1l-6.1,3.4c-1.8,1-4,1-5.8,0.1l-6.8-3.4
				c-0.1,0-0.2-0.1-0.3-0.1l-12.2-3.6c-1-0.3-1.9-0.8-2.6-1.6l-7-7c-0.9-0.9-1.4-1.9-1.7-3.1l-1.6-7.4c-0.1-0.2-0.2-0.5-0.3-0.7
				l-5.4-6.7c-0.1-0.2-0.3-0.3-0.4-0.4l-11.5-6.6c-0.2-0.1-0.5-0.2-0.8-0.2h-6.4c-1,0-2.1-0.3-3-0.8l-8.4-4.6
				c-1.7-0.9-2.9-2.7-3.2-4.6l-0.6-4c0-0.3-0.1-0.5-0.3-0.7l-13.8-17.9c-0.3-0.3-0.7-0.6-1.1-0.6l-11.7-1.2c-0.7-0.1-1.4-0.3-2-0.6
				l-8.9-4.2c-0.3-0.1-0.6-0.2-0.9-0.1l-14.2,1.6c-1.6,0.2-3.1,0.6-4.5,1.2l-8.7,3.7c-2.1,0.9-4.2,1.5-6.5,1.7l-9.8,1.1
				c-0.2,0-0.3,0.1-0.5,0.1l-10.3,4.9c-0.2,0.1-0.3,0.2-0.4,0.3l-8.9,8.9c-1.2,1.2-2.7,1.8-4.4,1.8h-12.8l-13.5,0.4
				c-0.4,0-0.7,0.2-1,0.4l-5.1,4.7c-0.3,0.3-0.7,0.5-1,0.8l-11.2,6.7c-1,0.6-2.1,0.9-3.2,0.9H97c-1.3,0-2.5-0.4-3.5-1.1l-8-5.5
				c-0.5-0.4-1-0.8-1.4-1.3l-2.8-3.7c-1.7-2.2-1.7-5.3-0.1-7.5l3.2-4.4c0.1-0.2,0.2-0.4,0.3-0.7l1.4-8.5c0.2-1.2,0-2.4-0.5-3.5
				l-6.4-12.8c-0.4-0.9-0.7-1.8-0.7-2.8v-8.3c0-2-0.6-4-1.6-5.7l-2.6-4.2c-0.4-0.6-0.7-1.3-0.8-2.1l-1.7-8.6c0-0.2-0.1-0.4-0.2-0.5
				l-5.6-9.3c-1-1.6-1.2-3.7-0.5-5.5l2.3-6c0.1-0.3,0.1-0.6,0.1-1l-3-12c-0.2-0.8-0.2-1.7-0.1-2.5l3.1-18.3c0.3-1.9,1.5-3.5,3.2-4.5
				l19.5-10.6c0.8-0.5,1.8-0.7,2.7-0.8l9.3-0.4c0.2,0,0.4-0.1,0.6-0.1l14.6-6.6c0.2-0.1,0.5-0.2,0.7-0.3l19-6
				c0.3-0.1,0.6-0.3,0.8-0.6l6.5-9.4c0.2-0.3,0.3-0.6,0.3-0.9v-9.4c0-2.3,1.2-4.4,3.2-5.5l16.9-9.3c0.3-0.2,0.5-0.4,0.7-0.7l2.1-4.2
				c0.4-0.7,0.8-1.3,1.4-1.9l11.4-10.1c1.5-1.4,3.7-1.9,5.7-1.4l8.2,2.1c1.8,0.4,3.3,1.6,4.1,3.3l1.5,3.1c0.3,0.5,0.8,0.9,1.4,0.9
				l0.1,0l4.1-0.2c0.5,0,0.9-0.3,1.2-0.6l4-5.5c0.1-0.1,0.2-0.3,0.2-0.5l4.1-12.8c0.1-0.2,0.1-0.3,0.1-0.5v-5.7c0-3.3,2.6-6,5.9-6.2
				l19.4-1.2c0.9-0.1,1.8,0.1,2.7,0.4l15.8,6.3c0.2,0.1,0.5,0.1,0.7,0.1l14.4-1.2c2.2-0.2,4.3,0.8,5.6,2.5l1.2,1.7
				c1.4,2,1.6,4.6,0.4,6.7l-9.3,16.6c-0.4,0.6-0.2,1.4,0.3,1.9l10.8,10c0.1,0.1,0.2,0.2,0.4,0.3l17,8.2l9.1,4.7
				c0.8,0.4,1.7,0.1,2.1-0.7l2.5-4.7c0.1-0.1,0.1-0.2,0.1-0.3l6.4-23.6l2.9-17.4c0-0.1,0-0.2,0-0.3v-10.3c0-3.4,2.8-6.2,6.2-6.2
				c2.5,0,4.7,1.4,5.7,3.6l6.8,14.8c0.2,0.4,0.3,0.8,0.4,1.2l3,12.9c0.1,0.4,0.4,0.8,0.8,1l7.2,3.8c1.7,0.9,2.9,2.5,3.2,4.4l2,10.7
				c0,0.2,0.1,0.5,0.3,0.7l3.9,5.1c0.5,0.7,0.9,1.5,1.1,2.3l3.5,13.9c0.1,0.3,0.3,0.6,0.6,0.9l19.8,15.7c0.7,0.5,1.2,1.2,1.6,2
				l7.5,14.2c0.3,0.5,0.8,0.8,1.4,0.8h0.6c1.5,0,3,0.6,4.2,1.6l2.6,2.3c1.3,1.2,2.1,2.9,2.1,4.6v3.3c0,0.4,0.1,0.7,0.4,1l16.5,19.7
				c0.6,0.7,1,1.5,1.2,2.3l3.3,11.6l4.5,13.6c0.4,1.3,0.4,2.8-0.1,4.1l-3.4,9.5c0,0.1,0,0.1-0.1,0.2l-4.8,21.2
				c-0.1,0.6-0.3,1.1-0.6,1.7l-11.6,20.7c0,0.1-0.1,0.1-0.1,0.2l-13.3,35c0,0.1,0,0.1-0.1,0.2l-3.3,12.7c-0.6,2.5-2.7,4.3-5.2,4.6
				l-11.1,1.5c-0.3,0-0.7,0.2-0.9,0.4l-9.9,9.9c-0.2,0.2-0.4,0.4-0.7,0.6l-1.6,1.2C366.6,395.3,365.3,395.7,364,395.7z"/>
		</g>
		<g>
			<path class="st0" d="M367.9,449.1h-1.6c-2.2,0-4.2-1.2-5.3-3.1l-1.1-2c-0.1-0.1-0.2-0.3-0.3-0.4l-4.3-4c-1.3-1.1-2-2.8-2-4.5
				v-6.5c0-0.2,0-0.4-0.1-0.6l-3.4-7.5c-0.3-0.8-0.5-1.6-0.5-2.5v-1.4c0-3.4,2.7-6.1,6.1-6.1c1.3,0,2.5,0.4,3.6,1.1l6,4.2
				c0.4,0.3,0.8,0.3,1.3,0.2l8.7-2.8c0.6-0.2,1.2-0.3,1.8-0.3h1.7c3.4,0,6.1,2.7,6.1,6.1v9.4c0,1.4-0.5,2.7-1.3,3.8l-8,10.2
				c0,0.1-0.1,0.1-0.1,0.2l-1.8,3.3C372.2,447.8,370.1,449.1,367.9,449.1z"/>
		</g>
	</g>
	<g>
		<path class="st1" d="M97.2,224.9c2.4-2.8,6.6-6.3,13.4-6.3c7.4,0,12.4,4.4,12.4,11.3c0,4.1-1.5,6.9-5.8,11l-5,4.7h11.5v8.5H99.2
			V247l11.9-11.2c1.6-1.5,2.4-3,2.4-4.7c0-2.2-1.8-3.7-4-3.7c-2.9,0-5.1,1.8-7,3.8L97.2,224.9z"/>
		<path class="st1" d="M151.6,228.8c0,3.6-1.8,6.3-5,7.9c3.6,1.5,5.7,4.2,5.7,7.8c0,7.1-6.7,10.4-13.9,10.4c-5.4,0-9.8-1.9-12.6-5.2
			l5.1-6c1.9,1.9,4.3,3,7,3c2.6,0,4.8-1,4.8-3.1c0-2-2.5-3-5.4-3h-3.8v-8h3.9c2.7,0,4.7-1.1,4.7-3c0-1.9-1.7-2.8-4.2-2.8
			c-3.2,0-5.5,1.4-7.1,3.1l-4.9-6.1c2.9-3,6.6-5.2,12.4-5.2C146,218.6,151.6,222.6,151.6,228.8z"/>
		<path class="st1" d="M167,249.1c0,3.1-2.6,5.8-5.7,5.8c-3.1,0-5.8-2.7-5.8-5.8c0-3.1,2.7-5.7,5.8-5.7
			C164.3,243.4,167,246,167,249.1z"/>
		<path class="st1" d="M197.9,228.8c0,3.9-2.2,6.4-5.2,7.8c3.4,1.4,6.1,3.9,6.1,8.1c0,6.4-6.4,10.2-14.3,10.2
			c-7.8,0-14.3-3.8-14.3-10.2c0-4.2,2.7-6.8,6.1-8.1c-3-1.4-5.2-3.9-5.2-7.8c0-6.3,6-10.1,13.4-10.1
			C191.9,218.6,197.9,222.4,197.9,228.8z M180.3,243.5c0,2.2,1.9,3.4,4.2,3.4c2.2,0,4.2-1.2,4.2-3.4c0-2.3-1.9-3.5-4.2-3.5
			C182.2,240,180.3,241.3,180.3,243.5z M180.9,229.8c0,2,1.5,3.1,3.5,3.1c2,0,3.5-1.1,3.5-3.1c0-2-1.5-3-3.5-3
			C182.5,226.7,180.9,227.8,180.9,229.8z"/>
		<path class="st1" d="M225.7,240.1h4v8.5h-4v5.6h-9.2v-5.6h-15.3v-6.3l10.7-23h10l-9.8,20.8h4.3V237l2.7-6h6.5V240.1z"/>
		<path class="st1" d="M283.4,254.2h-9.5v-21.9l-5.6,18.6h-10.1l-5.6-18.6v21.9h-9.5v-35h13.2l7,21l7-21h13.2V254.2z"/>
		<path class="st1" d="M297.6,222.2c0,2.9-2.2,5.1-5.1,5.1c-2.9,0-5.1-2.2-5.1-5.1s2.2-5.1,5.1-5.1
			C295.4,217.1,297.6,219.4,297.6,222.2z M297,254.2h-8.9v-24.8h8.9V254.2z"/>
		<path class="st1" d="M310.2,254.2h-8.9v-36h8.9V254.2z"/>
		<path class="st1" d="M323.5,254.2h-8.9v-36h8.9V254.2z"/>
		<path class="st1" d="M337.3,222.2c0,2.9-2.2,5.1-5.1,5.1c-2.9,0-5.1-2.2-5.1-5.1s2.2-5.1,5.1-5.1
			C335.1,217.1,337.3,219.4,337.3,222.2z M336.7,254.2h-8.9v-24.8h8.9V254.2z"/>
		<path class="st1" d="M366.9,241.8c0,7.5-5.7,13-13.5,13c-7.8,0-13.5-5.5-13.5-13c0-7.5,5.7-13,13.5-13
			C361.2,228.8,366.9,234.3,366.9,241.8z M349,241.8c0,2.8,1.8,4.8,4.4,4.8s4.4-2,4.4-4.8c0-2.8-1.8-4.8-4.4-4.8
			S349,239.1,349,241.8z"/>
		<path class="st1" d="M394.2,238.1v16.1h-8.9v-13.3c0-2.5-1.2-3.8-3.1-3.8c-1.8,0-3.1,1.2-3.1,3.8v13.3h-8.9v-24.8h8.5v2.5
			c1.4-2.1,3.6-3.2,6.7-3.2C390.4,228.8,394.2,232.4,394.2,238.1z"/>
	</g>
	<g>
		<g>
			<path class="st1" d="M146.4,292.1h-6.4l-1.5-4.2h-8.3l-1.5,4.2h-6.3l8.4-22.1h7.1L146.4,292.1z M132.2,282.6h4.5l-2.3-6.5
				L132.2,282.6z"/>
			<path class="st1" d="M162,279.9l-4.6,2.9c-0.7-1-1.4-1.5-2.5-1.5c-1.4,0-2.7,1.1-2.7,3c0,2,1.2,3,2.6,3c1.1,0,1.9-0.5,2.6-1.5
				l4.6,3c-1.5,2.3-3.9,3.8-7,3.8c-5,0-8.5-3.4-8.5-8.2c0-4.8,3.5-8.2,8.5-8.2C158.1,276.1,160.5,277.5,162,279.9z"/>
			<path class="st1" d="M174.6,276.2l-0.3,5.6c-0.6-0.2-1.6-0.4-2.5-0.4c-1.6,0-2.5,0.6-2.5,2.3v8.4h-5.6v-15.6h5.4v1.6
				c0.9-1.4,2.2-2,4.1-2C173.8,276.1,174.3,276.2,174.6,276.2z"/>
			<path class="st1" d="M192.4,284.3c0,4.8-3.6,8.2-8.5,8.2s-8.5-3.5-8.5-8.2c0-4.7,3.6-8.2,8.5-8.2S192.4,279.6,192.4,284.3z
				 M181.1,284.3c0,1.8,1.2,3,2.8,3s2.8-1.3,2.8-3c0-1.8-1.2-3-2.8-3S181.1,282.6,181.1,284.3z"/>
			<path class="st1" d="M206.3,281.7c-1.8-0.7-3.8-1.2-5.3-1.2c-1.1,0-1.4,0.2-1.4,0.6c0,0.6,1.1,0.6,2.5,0.8l0.9,0.2
				c3.3,0.6,5,2.2,5,4.8c0,3.6-2.7,5.6-7.3,5.6c-3.1,0-5.9-0.6-7.4-1.5l1.8-4.4c1.7,0.9,3.6,1.4,5.7,1.4c1.2,0,1.6-0.2,1.6-0.7
				c0-0.5-0.6-0.6-2.4-0.9l-0.6-0.1c-3.9-0.6-5.6-2.1-5.6-5c0-3.4,2.5-5.3,6.9-5.3c2.6,0,3.9,0.3,6.9,1.2L206.3,281.7z"/>
			<path class="st1" d="M222.1,281.7c-1.8-0.7-3.8-1.2-5.3-1.2c-1.1,0-1.4,0.2-1.4,0.6c0,0.6,1.1,0.6,2.5,0.8l0.9,0.2
				c3.3,0.6,5,2.2,5,4.8c0,3.6-2.7,5.6-7.3,5.6c-3.1,0-5.9-0.6-7.4-1.5l1.8-4.4c1.7,0.9,3.6,1.4,5.7,1.4c1.2,0,1.6-0.2,1.6-0.7
				c0-0.5-0.6-0.6-2.4-0.9l-0.6-0.1c-3.9-0.6-5.6-2.1-5.6-5c0-3.4,2.5-5.3,6.9-5.3c2.6,0,3.9,0.3,6.9,1.2L222.1,281.7z"/>
			<path class="st1" d="M254.6,292.1h-6.4l-1.5-4.2h-8.3l-1.5,4.2h-6.3l8.4-22.1h7.1L254.6,292.1z M240.4,282.6h4.5l-2.3-6.5
				L240.4,282.6z"/>
			<path class="st1" d="M270.7,285.4c0,4.9-3.3,7.1-7.7,7.1c-4.4,0-7.7-2.3-7.7-7.1v-8.9h5.6v8.4c0,1.6,0.8,2.4,2.1,2.4
				s2.1-0.8,2.1-2.4v-8.4h5.6V285.4z"/>
			<path class="st1" d="M285.4,281.7c-1.8-0.7-3.8-1.2-5.3-1.2c-1.1,0-1.4,0.2-1.4,0.6c0,0.6,1.1,0.6,2.5,0.8l0.9,0.2
				c3.3,0.6,5,2.2,5,4.8c0,3.6-2.7,5.6-7.3,5.6c-3.1,0-5.9-0.6-7.4-1.5l1.8-4.4c1.7,0.9,3.6,1.4,5.7,1.4c1.2,0,1.6-0.2,1.6-0.7
				c0-0.5-0.6-0.6-2.4-0.9l-0.6-0.1c-3.9-0.6-5.6-2.1-5.6-5c0-3.4,2.5-5.3,6.9-5.3c2.6,0,3.9,0.3,6.9,1.2L285.4,281.7z"/>
			<path class="st1" d="M301.5,281.5h-5.1v3.7c0,1.7,0.9,2.2,2.1,2.2c0.9,0,1.8-0.5,2.5-0.9l1.9,4.4c-1.6,1.1-3.1,1.8-5.9,1.8
				c-4.4,0-6.3-2.7-6.3-6.6v-4.5H288v-5h2.8V272h5.6v4.5h5.1V281.5z"/>
			<path class="st1" d="M315.4,276.2l-0.3,5.6c-0.6-0.2-1.6-0.4-2.5-0.4c-1.6,0-2.5,0.6-2.5,2.3v8.4h-5.6v-15.6h5.4v1.6
				c0.9-1.4,2.2-2,4.1-2C314.6,276.1,315.1,276.2,315.4,276.2z"/>
			<path class="st1" d="M332.9,292.1h-5.4v-1.4c-0.9,1-2.3,1.8-4.3,1.8c-4.2,0-7.1-3.7-7.1-8.3c0-4.5,2.9-8.2,7.1-8.2
				c2,0,3.3,0.8,4.2,1.8v-1.4h5.4V292.1z M321.9,284.3c0,1.8,1.2,3,2.8,3s2.8-1.3,2.8-3c0-1.8-1.2-3-2.8-3S321.9,282.6,321.9,284.3z
				"/>
			<path class="st1" d="M341.2,292.1h-5.6v-22.7h5.6V292.1z"/>
			<path class="st1" d="M350,271.9c0,1.8-1.4,3.2-3.2,3.2s-3.2-1.4-3.2-3.2s1.4-3.2,3.2-3.2S350,270.1,350,271.9z M349.6,292.1H344
				v-15.6h5.6V292.1z"/>
			<path class="st1" d="M368.4,292.1H363v-1.4c-0.9,1-2.3,1.8-4.3,1.8c-4.2,0-7.1-3.7-7.1-8.3c0-4.5,2.9-8.2,7.1-8.2
				c2,0,3.3,0.8,4.2,1.8v-1.4h5.4V292.1z M357.4,284.3c0,1.8,1.2,3,2.8,3s2.8-1.3,2.8-3c0-1.8-1.2-3-2.8-3S357.4,282.6,357.4,284.3z
				"/>
		</g>
	</g>
	<g>
		<path class="st1" d="M239.2,152.7c1.5,1.4,1.5,3.8,0,5.2c-7.8,7-31.5,25.8-59.4,25.8s-51.6-18.8-59.4-25.8c-1.5-1.4-1.5-3.8,0-5.2
			c7.8-7,31.5-25.8,59.4-25.8S231.3,145.7,239.2,152.7z"/>
		<path class="st0" d="M179.7,186c-12.4,0-25.3-3.5-38.4-10.5c-10.7-5.7-18.8-12.4-22.6-15.8c-1.2-1.1-1.9-2.7-1.9-4.3
			s0.7-3.2,1.9-4.3c3.9-3.5,12-10.1,22.6-15.8c13-7,26-10.5,38.4-10.5c12.4,0,25.3,3.5,38.4,10.5c10.7,5.7,18.8,12.4,22.6,15.8l0,0
			c1.2,1.1,1.9,2.7,1.9,4.3s-0.7,3.2-1.9,4.3c-3.9,3.5-12,10.1-22.6,15.8C205.1,182.5,192.2,186,179.7,186z M179.7,129.3
			c-11.6,0-23.8,3.4-36.1,10c-10.2,5.5-18,11.9-21.7,15.2c-0.3,0.3-0.4,0.6-0.4,0.8c0,0.2,0,0.5,0.4,0.8c3.7,3.3,11.5,9.7,21.7,15.2
			c12.3,6.6,24.5,10,36.1,10c11.6,0,23.8-3.4,36.1-10c10.2-5.5,18-11.9,21.7-15.2c0.3-0.3,0.4-0.6,0.4-0.8c0-0.2,0-0.5-0.4-0.8
			c-3.7-3.3-11.5-9.7-21.7-15.2C203.5,132.7,191.4,129.3,179.7,129.3z"/>
		<g>
			<circle class="st2" cx="180.8" cy="155.3" r="28.3"/>
			<path class="st0" d="M180.8,186c-16.9,0-30.7-13.8-30.7-30.7s13.8-30.7,30.7-30.7s30.7,13.8,30.7,30.7S197.7,186,180.8,186z
				 M180.8,129.3c-14.3,0-26,11.7-26,26s11.7,26,26,26c14.3,0,26-11.7,26-26S195.1,129.3,180.8,129.3z"/>
		</g>
		<g>
			<circle class="st1" cx="180.8" cy="155.3" r="10.4"/>
			<path class="st0" d="M180.8,168c-7,0-12.7-5.7-12.7-12.7s5.7-12.7,12.7-12.7c7,0,12.7,5.7,12.7,12.7S187.8,168,180.8,168z
				 M180.8,147.3c-4.4,0-8,3.6-8,8c0,4.4,3.6,8,8,8c4.4,0,8-3.6,8-8C188.8,150.9,185.2,147.3,180.8,147.3z"/>
		</g>
	</g>
</g>
</svg>
