<?xml version="1.0" encoding="utf-8"?>
<!-- Generator: Adobe Illustrator 25.3.0, SVG Export Plug-In . SVG Version: 6.00 Build 0)  -->
<svg version="1.1" id="Layer_3" xmlns="http://www.w3.org/2000/svg" xmlns:xlink="http://www.w3.org/1999/xlink" x="0px" y="0px"
	 viewBox="0 0 500 470" style="enable-background:new 0 0 500 470;" xml:space="preserve">
<style type="text/css">
	.st0{fill:#414042;}
	.st1{fill:#161A19;}
	.st2{fill:#F9AE75;}
	.st3{fill:#BF0C3F;}
	.st4{fill:#FFFFFF;}
</style>
<g>
	<g>
		<path class="st0" d="M259.3,321.8h-8.8c-2.4,0-4.4-2-4.4-4.4c0-2.4,2-4.4,4.4-4.4h8.8c2.4,0,4.4,2,4.4,4.4
			C263.6,319.8,261.7,321.8,259.3,321.8z"/>
		<path class="st0" d="M149.4,378.9c-0.6,0-1.1-0.1-1.7-0.3c-1.6-0.7-2.7-2.3-2.7-4.1v-52.7h-39.5c-12.1,0-22-9.9-22-22V146.1
			c0-12.1,9.9-22,22-22h48.3c2.4,0,4.4,2,4.4,4.4s-2,4.4-4.4,4.4h-48.3c-7.3,0-13.2,5.9-13.2,13.2v153.7c0,7.3,5.9,13.2,13.2,13.2
			h43.9c2.4,0,4.4,2,4.4,4.4v46.5l49.6-49.6c0.8-0.8,1.9-1.3,3.1-1.3h26.4c2.4,0,4.4,2,4.4,4.4c0,2.4-2,4.4-4.4,4.4h-24.5
			l-55.8,55.8C151.7,378.4,150.6,378.9,149.4,378.9z"/>
		<path class="st0" d="M212.4,132.9h-8.8c-2.4,0-4.4-2-4.4-4.4s2-4.4,4.4-4.4h8.8c2.4,0,4.4,2,4.4,4.4S214.8,132.9,212.4,132.9z"/>
		<path class="st0" d="M382.1,321.8h-79c-2.4,0-4.4-2-4.4-4.4c0-2.4,2-4.4,4.4-4.4h79c7.3,0,13.2-5.9,13.2-13.2V146.1
			c0-7.3-5.9-13.2-13.2-13.2H230c-2.4,0-4.4-2-4.4-4.4s2-4.4,4.4-4.4h152.2c12.1,0,22,9.9,22,22v153.7
			C404.1,311.9,394.2,321.8,382.1,321.8z"/>
		<path class="st0" d="M311.2,335c-1.1,0-2.2-0.4-3.1-1.3l-12.4-12.4c-1.7-1.7-1.7-4.5,0-6.2l12.4-12.4c1.7-1.7,4.5-1.7,6.2,0
			c1.7,1.7,1.7,4.5,0,6.2l-9.3,9.3l9.3,9.3c1.7,1.7,1.7,4.5,0,6.2C313.4,334.5,312.3,335,311.2,335z"/>
		<path class="st1" d="M147.9,145.3c-1.1,0-2.2-0.4-3.1-1.3c-1.7-1.7-1.7-4.5,0-6.2l9.3-9.3l-9.3-9.3c-1.7-1.7-1.7-4.5,0-6.2
			c1.7-1.7,4.5-1.7,6.2,0l12.4,12.4c1.7,1.7,1.7,4.5,0,6.2L151,144C150.1,144.9,149,145.3,147.9,145.3z"/>
	</g>
	<path class="st2" d="M150.1,161.8l23.5-20.8c10.4-10.4,12-16.4,10.2-23.5c-1.3-5.4-5-11.5-13.7-13.9c-7.3-2-15.1,1.7-20.5,7
		c0,0-0.1,0.1-0.1,0.1c0,0-0.1-0.1-0.1-0.1c-5.4-5.3-13.2-9.1-20.5-7c-8.7,2.4-12.4,8.6-13.7,13.9c-1.8,7.1-0.8,12.5,10.5,23.8
		l23.3,20.5C149.2,162.1,149.7,162.1,150.1,161.8z"/>
	<g>
		<path class="st0" d="M92.1,57.8h-6.5v17.3h-6.2V57.8h-6.5v-5.8h19.3V57.8z"/>
		<path class="st0" d="M116.6,63.6c0,6.9-5,11.9-12.2,11.9c-7.1,0-12.2-5.1-12.2-11.9c0-6.9,5-11.9,12.2-11.9
			C111.6,51.7,116.6,56.7,116.6,63.6z M98.8,63.6c0,3.5,2.3,5.9,5.7,5.9c3.4,0,5.7-2.4,5.7-5.9c0-3.5-2.3-5.9-5.7-5.9
			C101.1,57.6,98.8,60.1,98.8,63.6z"/>
		<path class="st0" d="M136.1,57.8h-6.5v17.3h-6.2V57.8h-6.5v-5.8h19.3V57.8z"/>
		<path class="st0" d="M158.5,75.1h-6.6l-1.5-4.4h-8.6l-1.5,4.4h-6.5l8.7-23h7.4L158.5,75.1z M143.7,65.1h4.7l-2.4-6.8L143.7,65.1z"
			/>
		<path class="st0" d="M177.6,75.1h-17.3v-23h6.2v17.3h11.1V75.1z"/>
		<path class="st0" d="M204.1,75.1h-18v-23h18v5.6h-11.7v3h10.9v5.6h-10.9v3.3h11.7V75.1z"/>
		<path class="st0" d="M228.9,75.1h-6.1l-9.5-12.9v12.9h-6.2v-23h6.1l9.5,12.9V52.1h6.2V75.1z"/>
		<path class="st0" d="M252.1,54.9l-4.4,4.3c-1-1-2.4-1.7-4.4-1.7c-3.3,0-5.6,2.5-5.6,6.1c0,4.2,2.7,6.3,5.7,6.3
			c2.9,0,4.6-1.1,5.2-3.4h-5.4v-4.6h11.4c0.1,0.7,0.1,1.4,0.1,2.1c0,7.7-5.7,11.5-11.1,11.5c-7.2,0-12.3-4.9-12.3-11.9
			c0-7,5.1-11.9,12.3-11.9C247.3,51.7,250.1,52.9,252.1,54.9z"/>
		<path class="st0" d="M278.7,75.1H272l-1.5-4.4h-8.6l-1.5,4.4h-6.5l8.7-23h7.4L278.7,75.1z M263.8,65.1h4.7l-2.3-6.8L263.8,65.1z"
			/>
		<path class="st0" d="M298.5,54.9l-4.4,4.3c-1-1-2.4-1.7-4.4-1.7c-3.3,0-5.6,2.5-5.6,6.1c0,4.2,2.7,6.3,5.7,6.3
			c2.9,0,4.6-1.1,5.2-3.4h-5.4v-4.6h11.4c0.1,0.7,0.1,1.4,0.1,2.1c0,7.7-5.7,11.5-11.1,11.5c-7.2,0-12.3-4.9-12.3-11.9
			c0-7,5.1-11.9,12.3-11.9C293.7,51.7,296.5,52.9,298.5,54.9z"/>
		<path class="st0" d="M321.6,75.1h-18v-23h18v5.6h-11.7v3h10.9v5.6h-10.9v3.3h11.7V75.1z"/>
		<path class="st0" d="M351.1,75.1h-6.2V60.7L341.2,73h-6.7l-3.7-12.3v14.4h-6.2v-23h8.7l4.6,13.8l4.6-13.8h8.7V75.1z"/>
		<path class="st0" d="M372.4,75.1h-18v-23h18v5.6h-11.7v3h10.9v5.6h-10.9v3.3h11.7V75.1z"/>
		<path class="st0" d="M397.2,75.1h-6.1l-9.5-12.9v12.9h-6.2v-23h6.1l9.5,12.9V52.1h6.2V75.1z"/>
		<path class="st0" d="M418.5,57.8h-6.5v17.3h-6.2V57.8h-6.5v-5.8h19.3V57.8z"/>
	</g>
	<g>
		<path class="st3" d="M174.3,194.7h-18.2l-0.2,5.8h4c11,0,17.3,5.5,17.3,14.4c0,10.2-7.7,16.9-18.7,16.9c-7.5,0-13.8-2.8-17.5-6.2
			l5.7-9.5c2.1,1.8,7,4.4,11.7,4.4c3.7,0,5.8-1.6,5.8-4.7c0-2.6-1.9-4.3-7.4-4.3h-12.1l0.6-28.2h28.8V194.7z"/>
		<path class="st3" d="M197.5,223.9c0,4.3-3.6,7.9-7.8,7.9c-4.3,0-7.9-3.7-7.9-7.9c0-4.2,3.7-7.8,7.9-7.8
			C193.9,216.1,197.5,219.7,197.5,223.9z"/>
		<path class="st3" d="M234.6,194.7h-18.2l-0.2,5.8h4c11,0,17.3,5.5,17.3,14.4c0,10.2-7.7,16.9-18.7,16.9c-7.5,0-13.8-2.8-17.5-6.2
			l5.7-9.5c2.1,1.8,7,4.4,11.7,4.4c3.7,0,5.8-1.6,5.8-4.7c0-2.6-1.9-4.3-7.4-4.3h-12.1l0.6-28.2h28.8V194.7z"/>
		<path class="st3" d="M274.5,211.6h5.4v11.6h-5.4v7.7h-12.6v-7.7h-21v-8.6l14.6-31.5h13.7L256,211.6h5.9v-4.2l3.8-8.2h8.8V211.6z"
			/>
		<path class="st3" d="M309.3,195.5c0,7.6-5.8,13.3-13.5,13.3c-7.7,0-13.5-5.6-13.5-13.3s5.8-13.3,13.5-13.3
			C303.5,182.3,309.3,187.9,309.3,195.5z M302.3,230.9h-11.6l35.6-47.8h11.6L302.3,230.9z M291.4,195.5c0,2.6,1.8,4.6,4.3,4.6
			c2.5,0,4.3-2,4.3-4.6c0-2.6-1.8-4.6-4.3-4.6C293.2,190.9,291.4,193,291.4,195.5z M346.8,218.6c0,7.6-5.8,13.3-13.5,13.3
			s-13.5-5.6-13.5-13.3c0-7.5,5.8-13.3,13.5-13.3S346.8,210.9,346.8,218.6z M328.9,218.6c0,2.6,1.8,4.6,4.3,4.6c2.5,0,4.3-2,4.3-4.6
			c0-2.6-1.8-4.6-4.3-4.6C330.7,213.9,328.9,216,328.9,218.6z"/>
		<path class="st0" d="M151,266h-11.7V251H151v3.6h-7.6v2h7.1v3.6h-7.1v2.1h7.6V266z"/>
		<path class="st0" d="M167.1,266h-3.9l-6.2-8.4v8.4h-4.1V251h3.9l6.2,8.4V251h4.1V266z"/>
		<path class="st0" d="M182.2,252.8l-2.9,2.8c-0.7-0.7-1.6-1.1-2.8-1.1c-2.1,0-3.6,1.6-3.6,4c0,2.7,1.8,4.1,3.7,4.1
			c1.9,0,3-0.7,3.4-2.2h-3.5v-3h7.4c0.1,0.5,0.1,0.9,0.1,1.3c0,5-3.7,7.5-7.2,7.5c-4.7,0-8-3.2-8-7.7c0-4.5,3.3-7.7,8-7.7
			C179.1,250.8,180.9,251.5,182.2,252.8z"/>
		<path class="st0" d="M199.4,266h-4.3l-1-2.8h-5.6l-1,2.8h-4.2L189,251h4.8L199.4,266z M189.8,259.5h3.1l-1.5-4.4L189.8,259.5z"/>
		<path class="st0" d="M212.3,252.8l-2.9,2.8c-0.7-0.7-1.6-1.1-2.8-1.1c-2.1,0-3.6,1.6-3.6,4c0,2.7,1.8,4.1,3.7,4.1
			c1.9,0,3-0.7,3.4-2.2h-3.5v-3h7.4c0.1,0.5,0.1,0.9,0.1,1.3c0,5-3.7,7.5-7.2,7.5c-4.7,0-8-3.2-8-7.7c0-4.5,3.3-7.7,8-7.7
			C209.2,250.8,211,251.5,212.3,252.8z"/>
		<path class="st0" d="M227.3,266h-11.7V251h11.7v3.6h-7.6v2h7.1v3.6h-7.1v2.1h7.6V266z"/>
		<path class="st0" d="M246.4,266h-4.1v-9.3l-2.4,8h-4.3l-2.4-8v9.3h-4.1V251h5.6l3,9l3-9h5.6V266z"/>
		<path class="st0" d="M260.2,266h-11.7V251h11.7v3.6h-7.6v2h7.1v3.6h-7.1v2.1h7.6V266z"/>
		<path class="st0" d="M276.3,266h-3.9l-6.2-8.4v8.4h-4.1V251h3.9l6.2,8.4V251h4.1V266z"/>
		<path class="st0" d="M290.1,254.8h-4.2V266h-4.1v-11.2h-4.2V251h12.5V254.8z"/>
		<path class="st0" d="M308,256c0,2.3-1.3,4-3.9,4.5l4.1,5.5h-4.8l-3.6-5.3h-0.2v5.3h-4.1V251h6.7C306,251,308,253,308,256z
			 M299.6,254.7v2.7h2.6c1,0,1.7-0.4,1.7-1.3s-0.7-1.3-1.7-1.3H299.6z"/>
		<path class="st0" d="M324.6,266h-4.3l-1-2.8h-5.6l-1,2.8h-4.2l5.7-14.9h4.8L324.6,266z M315,259.5h3.1l-1.5-4.4L315,259.5z"/>
		<path class="st0" d="M335.6,254.8h-4.2V266h-4.1v-11.2H323V251h12.5V254.8z"/>
		<path class="st0" d="M348.5,266h-11.7V251h11.7v3.6h-7.6v2h7.1v3.6h-7.1v2.1h7.6V266z"/>
	</g>
	<path class="st0" d="M186.6,116.8c-1.2-4.7-4.8-12.9-15.7-16c-6.8-1.9-14.7,0.4-21.4,6c-3.4-2.9-11.9-8.7-21.4-6
		c-11,3.1-14.6,11.3-15.7,16c-2,8.1-0.9,14.4,11.2,26.5l23.4,20.6c0.7,0.6,1.6,1,2.5,1c0.9,0,1.8-0.3,2.5-1l23.5-20.8l0.1-0.1
		c5.4-5.4,8.6-9.8,10.3-14C187.5,125.1,187.7,121.3,186.6,116.8z M171.7,138.9l-22.2,19.6l-21.9-19.3c-5.1-5.1-8.1-9.1-9.4-12.4
		c-1.2-3.1-1-5.6-0.2-8.6c1.1-4.2,3.9-9.7,11.7-11.9c4.3-1.2,11.2-0.2,17.7,6.3l0.1,0.1c1.1,1.1,3,1.1,4.1,0l0.1-0.1
		c6.6-6.5,13.5-7.5,17.7-6.3c7.8,2.2,10.6,7.7,11.7,11.9C182.5,123.9,181.4,129.2,171.7,138.9z"/>
	<g>
		<path class="st0" d="M224.5,381.3H221v-10.1l-2.9,8.7h-3.7l-2.9-8.7v10h-3.5v-14.7h5l3.4,9.3l3.3-9.3h5V381.3z"/>
		<path class="st0" d="M237.4,376.2c0,3.1-2.4,5.4-5.6,5.4c-3.2,0-5.6-2.3-5.6-5.4s2.4-5.4,5.6-5.4
			C235.1,370.7,237.4,373,237.4,376.2z M229.6,376.2c0,1.4,0.9,2.4,2.2,2.4c1.3,0,2.2-1,2.2-2.4s-0.9-2.4-2.2-2.4
			C230.5,373.8,229.6,374.8,229.6,376.2z"/>
		<path class="st0" d="M246.1,370.9l-0.3,3.3c-0.4-0.1-1.1-0.3-1.7-0.3c-1.2,0-1.9,0.6-1.9,1.9v5.6H239V371h3.2v1.2
			c0.6-1,1.6-1.5,2.8-1.5C245.5,370.7,245.9,370.8,246.1,370.9z"/>
		<path class="st0" d="M257.1,376.2c0,0.3,0,0.8-0.1,1h-7c0.3,1.1,1.1,1.7,2.2,1.7c0.8,0,1.6-0.3,2.2-0.9l2.1,2
			c-1.1,1.1-2.6,1.7-4.5,1.7c-3.2,0-5.4-2.2-5.4-5.4c0-3.2,2.2-5.5,5.3-5.5C254.9,370.7,257,372.9,257.1,376.2z M250,375.1h3.8
			c-0.3-1-0.9-1.6-1.9-1.6C250.9,373.5,250.3,374.1,250,375.1z"/>
		<path class="st0" d="M271,373.9h-3.5v3c0,1.2,0.6,1.6,1.5,1.6c0.6,0,1.3-0.3,1.8-0.6l1.1,2.6c-1,0.7-2,1.1-3.7,1.1
			c-2.8,0-4-1.7-4-4.2v-3.4h-1.9V371h1.9v-3h3.3v3h3.5V373.9z"/>
		<path class="st0" d="M276.3,372.1c0.7-0.9,1.7-1.4,2.9-1.4c2.1,0,3.7,1.4,3.7,3.8v6.8h-3.3v-5.6c0-1.2-0.6-1.9-1.6-1.9
			c-0.9,0-1.7,0.6-1.7,2v5.6H273v-15.1h3.3V372.1z"/>
		<path class="st0" d="M295.3,381.3h-3.2v-1.1c-0.6,0.8-1.6,1.4-3,1.4c-2.8,0-4.8-2.4-4.8-5.4c0-3,2-5.4,4.8-5.4
			c1.4,0,2.3,0.6,3,1.4V371h3.2V381.3z M287.7,376.2c0,1.3,0.9,2.4,2.2,2.4c1.3,0,2.2-1,2.2-2.4c0-1.4-0.9-2.4-2.2-2.4
			C288.6,373.8,287.7,374.8,287.7,376.2z"/>
		<path class="st0" d="M305.3,373.9h-3.5v3c0,1.2,0.6,1.6,1.5,1.6c0.6,0,1.3-0.3,1.8-0.6l1.1,2.6c-1,0.7-2,1.1-3.7,1.1
			c-2.8,0-4-1.7-4-4.2v-3.4h-1.9V371h1.9v-3h3.3v3h3.5V373.9z"/>
		<path class="st0" d="M319.7,373.9h-3.5v3c0,1.2,0.6,1.6,1.5,1.6c0.6,0,1.3-0.3,1.8-0.6l1.1,2.6c-1,0.7-2,1.1-3.7,1.1
			c-2.8,0-4-1.7-4-4.2v-3.4h-1.9V371h1.9v-3h3.3v3h3.5V373.9z"/>
		<path class="st0" d="M328.7,370.9l-0.3,3.3c-0.4-0.1-1.1-0.3-1.7-0.3c-1.2,0-1.9,0.6-1.9,1.9v5.6h-3.3V371h3.2v1.2
			c0.6-1,1.6-1.5,2.8-1.5C328.1,370.7,328.5,370.8,328.7,370.9z"/>
		<path class="st0" d="M333.6,367.8c0,1.1-0.9,2-2,2c-1.1,0-2-0.9-2-2c0-1.1,0.9-2,2-2C332.8,365.8,333.6,366.7,333.6,367.8z
			 M333.3,381.3H330V371h3.3V381.3z"/>
		<path class="st0" d="M346.4,376.1c0,3-2,5.4-4.8,5.4c-1.3,0-2.2-0.5-2.8-1.3v5.2h-3.3V371h3.2v1.1c0.6-0.8,1.6-1.4,3-1.4
			C344.3,370.7,346.4,373.1,346.4,376.1z M338.6,376.2c0,1.4,0.9,2.4,2.2,2.4c1.3,0,2.2-1,2.2-2.4s-0.9-2.4-2.2-2.4
			C339.5,373.8,338.6,374.8,338.6,376.2z"/>
		<path class="st0" d="M351.2,381.3h-3.3v-15.1h3.3V381.3z"/>
		<path class="st0" d="M363.2,376.2c0,0.3,0,0.8-0.1,1h-7c0.3,1.1,1.1,1.7,2.2,1.7c0.8,0,1.6-0.3,2.2-0.9l2.1,2
			c-1.1,1.1-2.6,1.7-4.5,1.7c-3.2,0-5.4-2.2-5.4-5.4c0-3.2,2.2-5.5,5.3-5.5C361.1,370.7,363.2,372.9,363.2,376.2z M356.2,375.1h3.8
			c-0.3-1-0.9-1.6-1.9-1.6C357,373.5,356.4,374.1,356.2,375.1z"/>
		<path class="st0" d="M377.2,373.9h-3.5v3c0,1.2,0.6,1.6,1.5,1.6c0.6,0,1.3-0.3,1.8-0.6l1.1,2.6c-1,0.7-2,1.1-3.7,1.1
			c-2.8,0-4-1.7-4-4.2v-3.4h-1.9V371h1.9v-3h3.3v3h3.5V373.9z"/>
		<path class="st0" d="M382.4,372.1c0.7-0.9,1.7-1.4,2.9-1.4c2.1,0,3.7,1.4,3.7,3.8v6.8h-3.3v-5.6c0-1.2-0.6-1.9-1.6-1.9
			c-0.9,0-1.7,0.6-1.7,2v5.6h-3.3v-15.1h3.3V372.1z"/>
		<path class="st0" d="M401,376.2c0,0.3,0,0.8-0.1,1h-7c0.3,1.1,1.1,1.7,2.2,1.7c0.8,0,1.6-0.3,2.2-0.9l2.1,2
			c-1.1,1.1-2.6,1.7-4.5,1.7c-3.2,0-5.4-2.2-5.4-5.4c0-3.2,2.2-5.5,5.3-5.5C398.9,370.7,400.9,372.9,401,376.2z M393.9,375.1h3.8
			c-0.3-1-0.9-1.6-1.9-1.6C394.8,373.5,394.2,374.1,393.9,375.1z"/>
		<path class="st0" d="M161.9,393.8c0,1.1-0.9,2-2,2c-1.1,0-2-0.9-2-2c0-1.1,0.9-2,2-2C161,391.8,161.9,392.7,161.9,393.8z
			 M161.6,407.3h-3.3V397h3.3V407.3z"/>
		<path class="st0" d="M173.5,400.5v6.8h-3.3v-5.6c0-1.2-0.6-1.9-1.6-1.9c-0.9,0-1.7,0.6-1.7,2v5.6h-3.3V397h3.2v1.3
			c0.7-1.1,1.7-1.6,3.1-1.6C171.9,396.7,173.5,398.2,173.5,400.5z"/>
		<path class="st0" d="M182.7,398v-5.8h3.3v15.1h-3.2v-1.1c-0.6,0.8-1.6,1.4-3,1.4c-2.8,0-4.8-2.4-4.8-5.4c0-3,2-5.4,4.8-5.4
			C181.1,396.7,182.1,397.2,182.7,398z M178.4,402.2c0,1.3,0.9,2.4,2.2,2.4c1.3,0,2.2-1,2.2-2.4c0-1.4-0.9-2.4-2.2-2.4
			C179.3,399.8,178.4,400.8,178.4,402.2z"/>
		<path class="st0" d="M197.9,402.9c0,3.2-2.2,4.7-5,4.7c-2.8,0-5-1.5-5-4.7V397h3.3v5.6c0,1.3,0.7,1.9,1.7,1.9c1,0,1.7-0.6,1.7-1.9
			V397h3.3V402.9z"/>
		<path class="st0" d="M207.7,400.2c-1-0.4-2.3-0.8-3.4-0.8c-0.9,0-1.2,0.3-1.2,0.6c0,0.4,0.7,0.5,1.7,0.7l0.8,0.1
			c2.2,0.3,3.4,1.4,3.4,3.1c0,2.3-1.8,3.6-4.8,3.6c-1.8,0-3.6-0.3-4.8-1.1l1.1-2.5c1,0.6,2.2,1,3.6,1c1,0,1.4-0.2,1.4-0.7
			c0-0.4-0.5-0.6-1.6-0.7l-0.6-0.1c-2.5-0.4-3.6-1.4-3.6-3.2c0-2.2,1.7-3.4,4.5-3.4c1.7,0,2.7,0.2,4.4,0.9L207.7,400.2z"/>
		<path class="st0" d="M218.2,399.9h-3.5v3c0,1.2,0.6,1.6,1.5,1.6c0.6,0,1.3-0.3,1.8-0.6l1.1,2.6c-1,0.7-2,1.1-3.7,1.1
			c-2.8,0-4-1.7-4-4.2v-3.4h-1.9V397h1.9v-3h3.3v3h3.5V399.9z"/>
		<path class="st0" d="M227.2,396.9l-0.3,3.3c-0.4-0.1-1.1-0.3-1.7-0.3c-1.2,0-1.9,0.6-1.9,1.9v5.6h-3.3V397h3.2v1.2
			c0.6-1,1.6-1.5,2.8-1.5C226.6,396.7,227,396.8,227.2,396.9z"/>
		<path class="st0" d="M232.3,411.5h-3.6l3.5-6.5l-4.3-8h3.8l2.3,4.6l2.3-4.6h3.6L232.3,411.5z"/>
		<path class="st0" d="M255.5,407.3h-3.2v-1.1c-0.6,0.8-1.6,1.4-3,1.4c-2.8,0-4.8-2.4-4.8-5.4c0-3,2-5.4,4.8-5.4
			c1.4,0,2.3,0.6,3,1.4V397h3.2V407.3z M247.9,402.2c0,1.3,0.9,2.4,2.2,2.4c1.3,0,2.2-1,2.2-2.4c0-1.4-0.9-2.4-2.2-2.4
			C248.8,399.8,247.9,400.8,247.9,402.2z"/>
		<path class="st0" d="M264.3,407.3h-3.8l-4-10.3h3.6l2.3,6.7l2.3-6.7h3.5L264.3,407.3z"/>
		<path class="st0" d="M278.7,402.2c0,0.3,0,0.8-0.1,1h-7c0.3,1.1,1.1,1.7,2.2,1.7c0.8,0,1.6-0.3,2.2-0.9l2.1,2
			c-1.1,1.1-2.6,1.7-4.5,1.7c-3.2,0-5.4-2.2-5.4-5.4c0-3.2,2.2-5.5,5.3-5.5C276.6,396.7,278.7,398.9,278.7,402.2z M271.7,401.1h3.8
			c-0.3-1-0.9-1.6-1.9-1.6C272.6,399.5,272,400.1,271.7,401.1z"/>
		<path class="st0" d="M287.4,396.9l-0.3,3.3c-0.4-0.1-1.1-0.3-1.7-0.3c-1.2,0-1.9,0.6-1.9,1.9v5.6h-3.3V397h3.2v1.2
			c0.6-1,1.6-1.5,2.8-1.5C286.8,396.7,287.2,396.8,287.4,396.9z"/>
		<path class="st0" d="M298.9,407.3h-3.2v-1.1c-0.6,0.8-1.6,1.4-3,1.4c-2.8,0-4.8-2.4-4.8-5.4c0-3,2-5.4,4.8-5.4
			c1.4,0,2.3,0.6,3,1.4V397h3.2V407.3z M291.3,402.2c0,1.3,0.9,2.4,2.2,2.4c1.3,0,2.2-1,2.2-2.4c0-1.4-0.9-2.4-2.2-2.4
			C292.2,399.8,291.3,400.8,291.3,402.2z"/>
		<path class="st0" d="M308.1,398.1V397h3.2v9.3c0,3.4-2.2,5.4-5.6,5.4c-1.7,0-3.5-0.4-4.7-1.3l1.2-2.6c1,0.7,2.1,1.1,3.3,1.1
			c1.3,0,2.6-0.7,2.6-2.4v-0.6c-0.6,0.8-1.5,1.3-2.8,1.3c-2.8,0-4.8-2.3-4.8-5.2s2-5.2,4.8-5.2C306.6,396.7,307.5,397.3,308.1,398.1
			z M303.8,401.9c0,1.3,0.9,2.2,2.2,2.2c1.2,0,2.1-0.9,2.1-2.2s-0.9-2.2-2.1-2.2C304.7,399.7,303.8,400.7,303.8,401.9z"/>
		<path class="st0" d="M323.3,402.2c0,0.3,0,0.8-0.1,1h-7c0.3,1.1,1.1,1.7,2.2,1.7c0.8,0,1.6-0.3,2.2-0.9l2.1,2
			c-1.1,1.1-2.6,1.7-4.5,1.7c-3.2,0-5.4-2.2-5.4-5.4c0-3.2,2.2-5.5,5.3-5.5C321.2,396.7,323.3,398.9,323.3,402.2z M316.2,401.1h3.8
			c-0.3-1-0.9-1.6-1.9-1.6C317.1,399.5,316.5,400.1,316.2,401.1z"/>
		<path class="st0" d="M340,402.2c0,3.1-2.4,5.4-5.6,5.4c-3.2,0-5.6-2.3-5.6-5.4s2.4-5.4,5.6-5.4C337.6,396.7,340,399,340,402.2z
			 M332.2,402.2c0,1.4,0.9,2.4,2.2,2.4c1.3,0,2.2-1,2.2-2.4s-0.9-2.4-2.2-2.4C333.1,399.8,332.2,400.8,332.2,402.2z"/>
		<path class="st0" d="M348.6,399.9h-2.9v7.4h-3.3v-7.4h-1.8V397h1.8v-0.8c0-2.8,1.5-4.3,3.9-4.3c1.6,0,2.7,0.5,3.5,1.1l-1.4,2.4
			c-0.5-0.3-1-0.5-1.6-0.5c-0.7,0-1.1,0.4-1.1,1.3v0.7h2.9V399.9z"/>
		<path class="st0" d="M361.7,407.3h-3.9v-9.7l-3.1,1.1V395l7-2.6V407.3z"/>
		<path class="st0" d="M368.3,405.1c0,1.3-1.1,2.4-2.4,2.4c-1.3,0-2.4-1.1-2.4-2.4c0-1.3,1.1-2.4,2.4-2.4
			C367.1,402.7,368.3,403.9,368.3,405.1z"/>
		<path class="st0" d="M379.5,396.1h-5.6l-0.1,1.8h1.2c3.4,0,5.3,1.7,5.3,4.4c0,3.1-2.4,5.2-5.8,5.2c-2.3,0-4.2-0.9-5.4-1.9l1.8-2.9
			c0.7,0.6,2.1,1.3,3.6,1.3c1.1,0,1.8-0.5,1.8-1.5c0-0.8-0.6-1.3-2.3-1.3h-3.7l0.2-8.7h8.9V396.1z"/>
		<path class="st0" d="M389.6,396.4c0,2.4-1.8,4.1-4.2,4.1s-4.2-1.7-4.2-4.1c0-2.4,1.8-4.1,4.2-4.1S389.6,394.1,389.6,396.4z
			 M387.5,407.3h-3.6l11-14.7h3.6L387.5,407.3z M384.1,396.4c0,0.8,0.6,1.4,1.3,1.4c0.8,0,1.3-0.6,1.3-1.4c0-0.8-0.6-1.4-1.3-1.4
			C384.7,395,384.1,395.6,384.1,396.4z M401.1,403.5c0,2.4-1.8,4.1-4.2,4.1c-2.4,0-4.2-1.7-4.2-4.1c0-2.3,1.8-4.1,4.2-4.1
			C399.4,399.4,401.1,401.1,401.1,403.5z M395.6,403.5c0,0.8,0.6,1.4,1.3,1.4c0.8,0,1.3-0.6,1.3-1.4c0-0.8-0.6-1.4-1.3-1.4
			C396.2,402.1,395.6,402.7,395.6,403.5z"/>
	</g>
	<g>
		<path class="st0" d="M437.7,165.8c0-2-0.8-3.7-2-5.1c0.4-0.3,0.7-0.6,1.1-0.9c1-1.1,2.2-3,2.1-5.9c0-4.8-3.9-8.6-8.6-8.6
			l-24.1-0.5l-0.3,0c0.2-7.1-0.2-12.8-0.2-12.9c-0.2-13-6-16.2-11.1-17.6c-1.4-0.4-2.9-0.1-4.1,0.7c-1.2,0.8-2,2.2-2.2,3.6l-2,17.9
			l-3.4,7.9c-0.9,2-2.8,3.4-5,3.5l-0.8,0v-1.8c0-1.5-1.2-2.7-2.7-2.7h-13.5v5.4h10.8v46.1h-10.8v5.4h13.5c1.5,0,2.7-1.2,2.7-2.7
			v-3.1c4.8,1.3,13.5,3.5,19.9,3.6c0.7,0,1.5,0,2.3,0c9.6,0,26.8-0.5,26.9-0.5c5.1,0,9-3.8,9-8.7c0-2.1-0.5-3.7-1.4-5
			c1.6-1.6,2.6-3.8,2.6-6.3c0-2-0.7-3.8-1.8-5.3c0.3-0.2,0.6-0.5,0.9-0.8C437.1,170.1,437.8,168.1,437.7,165.8z M431.1,177.7
			c0,1.8-1.4,3.4-3.1,3.4l-0.2,0c-0.4,0-0.7,0-1.1,0l-0.1,5.4l1.3,0c1.8,0.2,2,0.8,2.1,2.5c0,1.9-1.6,3.3-3.7,3.3
			c-0.2,0-20.4,0.5-29.1,0.5c-6.5-0.1-16-2.6-20-3.8v-35.6l1.1-0.1c4.3-0.2,8-2.8,9.7-6.8l3.6-8.3l2.2-18.6
			c2.8,0.8,6.6,2.4,6.7,12.5c0,0.1,0.5,7.2,0.1,15.2l-0.1,2.7l29.9,0.6c1.8,0,3.2,1.4,3.2,3.3c0,1.3-0.3,1.8-0.6,2.1
			c-0.8,0.8-2.4,1.3-4.6,1.3v5.4c2,0,4,1.6,4,3.2c0,1.1-0.3,1.6-0.6,1.9c-0.7,0.7-2.2,1.2-3.8,1.2v5.4
			C429.7,174.5,431.1,175.9,431.1,177.7z"/>
		<path class="st4" d="M430.3,150.6l-29.9-0.6l0.1-2.7c0.4-8-0.1-15.1-0.1-15.2c-0.1-10.1-3.9-11.7-6.7-12.5l-2.2,18.6l-3.6,8.3
			c-1.7,3.9-5.4,6.5-9.7,6.8l-1.1,0.1v35.6c4,1.2,13.5,3.7,20,3.8c8.6,0.1,28.9-0.4,29.1-0.5c2.1,0,3.7-1.4,3.7-3.3
			c0-1.7-0.2-2.3-2.1-2.5l-1.3,0l0.1-5.4c0.4,0,0.7,0,1.1,0l0.2,0c1.6,0,3.1-1.6,3.1-3.4c0-1.8-1.4-3.2-3.2-3.2v-5.4
			c1.6,0,3.1-0.5,3.8-1.2c0.3-0.3,0.6-0.8,0.6-1.9c0-1.6-2-3.2-4-3.2v-5.4c2.1,0,3.8-0.5,4.6-1.3c0.3-0.3,0.7-0.8,0.6-2.1
			C433.5,152.1,432.1,150.6,430.3,150.6z"/>
	</g>
</g>
</svg>
