<?xml version="1.0" encoding="utf-8"?>
<!-- Generator: Adobe Illustrator 25.2.3, SVG Export Plug-In . SVG Version: 6.00 Build 0)  -->
<svg version="1.1" id="Layer_3" xmlns="http://www.w3.org/2000/svg" xmlns:xlink="http://www.w3.org/1999/xlink" x="0px" y="0px"
	 viewBox="0 0 500 500" style="enable-background:new 0 0 500 500;" xml:space="preserve">
<style type="text/css">
	.st0{fill:#FFFFFF;}
	.st1{fill:#EDB41E;}
	.st2{fill:#414042;}
	.st3{fill-rule:evenodd;clip-rule:evenodd;fill:#414042;}
</style>
<g>
	<rect x="65.4" y="155.6" class="st0" width="368.8" height="228.6"/>
	<g>
		<path class="st1" d="M150.6,257.4c2.9-3.4,8-7.6,16.3-7.6c9,0,15,5.4,15,13.7c0,4.9-1.8,8.4-7.1,13.4l-6.1,5.8h14V293H153v-8.7
			l14.4-13.6c1.9-1.8,2.9-3.7,2.9-5.7c0-2.7-2.1-4.5-4.8-4.5c-3.6,0-6.2,2.2-8.5,4.6L150.6,257.4z"/>
		<path class="st1" d="M214.9,260.8h-16.1l-0.2,5.2h3.6c9.7,0,15.4,4.8,15.4,12.8c0,9.1-6.8,15-16.6,15c-6.6,0-12.2-2.5-15.5-5.5
			l5.1-8.4c1.9,1.6,6.2,3.9,10.4,3.9c3.3,0,5.1-1.4,5.1-4.2c0-2.3-1.7-3.8-6.5-3.8h-10.7l0.6-25h25.6V260.8z"/>
		<path class="st1" d="M235.4,280.8l-5.4,21h-8.9l2.7-21H235.4z"/>
		<path class="st1" d="M276.8,271.8c0,13.7-8.4,22-19,22c-10.6,0-19-8.2-19-22s8.4-22,19-22C268.5,249.8,276.8,258,276.8,271.8z
			 M250.4,271.8c0,7.4,3.2,11.3,7.4,11.3c4.2,0,7.4-3.9,7.4-11.3s-3.2-11.3-7.4-11.3C253.6,260.5,250.4,264.4,250.4,271.8z"/>
		<path class="st1" d="M309.7,260.8h-16.1l-0.2,5.2h3.6c9.7,0,15.4,4.8,15.4,12.8c0,9.1-6.8,15-16.6,15c-6.6,0-12.2-2.5-15.5-5.5
			l5.1-8.4c1.9,1.6,6.2,3.9,10.4,3.9c3.3,0,5.1-1.4,5.1-4.2c0-2.3-1.7-3.8-6.5-3.8h-10.7l0.6-25h25.6V260.8z"/>
		<path class="st1" d="M330.5,279c-10-0.1-15.3-6.4-15.3-14.1c0-8.7,7.3-15.1,17-15.1c9.6,0,17,6.2,17,14.7c0,4.1-1.7,8.2-4.4,12.3
			L333.9,293h-13.4L330.5,279z M337.4,264.8c0-3-2.1-5.1-5.2-5.1s-5.2,2.1-5.2,5.1c0,2.9,2.2,5,5.2,5S337.4,267.6,337.4,264.8z"/>
		<path class="st1" d="M117.7,331.2v6.9h-5.9v-21.7h9.7c5.5,0,8.4,3,8.4,7.5c0,4.4-2.9,7.4-8.4,7.4H117.7z M117.7,321.6v4.4h3.7
			c1.5,0,2.5-0.8,2.5-2.2c0-1.4-1.1-2.2-2.5-2.2H117.7z"/>
		<path class="st1" d="M148.6,338h-16.4v-21.7h5.9v16.3h10.5V338z"/>
		<path class="st1" d="M172.6,338h-6.3l-1.4-4.1h-8.1l-1.4,4.1h-6.2l8.2-21.7h7L172.6,338z M158.6,328.6h4.5l-2.2-6.4L158.6,328.6z"
			/>
		<path class="st1" d="M188.6,321.7h-6.2V338h-5.9v-16.3h-6.2v-5.4h18.3V321.7z"/>
		<path class="st1" d="M206.5,330.1h-10.2v7.9h-5.9v-21.7h16.8v5.3h-10.9v3.3h10.2V330.1z"/>
		<path class="st1" d="M231.8,327.1c0,6.5-4.8,11.3-11.5,11.3s-11.5-4.8-11.5-11.3c0-6.5,4.8-11.3,11.5-11.3
			S231.8,320.6,231.8,327.1z M215,327.1c0,3.3,2.2,5.6,5.4,5.6s5.4-2.3,5.4-5.6s-2.2-5.6-5.4-5.6S215,323.8,215,327.1z"/>
		<path class="st1" d="M252.3,323.5c0,3.4-1.9,5.8-5.6,6.5l5.9,8h-7l-5.2-7.7H240v7.7h-5.9v-21.7h9.7
			C249.3,316.3,252.3,319.1,252.3,323.5z M240,321.6v3.9h3.7c1.5,0,2.5-0.6,2.5-1.9s-1.1-1.9-2.5-1.9H240z"/>
		<path class="st1" d="M280,338h-5.9v-13.6l-3.5,11.6h-6.3l-3.5-11.6V338h-5.9v-21.7h8.2l4.4,13.1l4.3-13.1h8.2V338z"/>
		<path class="st1" d="M302.5,338h-7l-7.9-21.7h6.3l5.2,15.6l5.2-15.6h6.2L302.5,338z"/>
		<path class="st1" d="M318,338h-5.9v-21.7h5.9V338z"/>
		<path class="st1" d="M336.8,323c-1.4-0.8-3.6-1.8-6.3-1.8c-1.6,0-2.8,0.4-2.8,1.4c0,1.2,2.2,1.4,4.4,1.8l0.7,0.1
			c4.5,0.9,6.8,3,6.8,6.4c0,5.5-4.6,7.5-9.3,7.5c-3.9,0-7.4-0.9-9.9-2.7l2.9-4.8c1.7,1,3.8,2.2,7.1,2.2c1.6,0,2.7-0.4,2.7-1.5
			c0-1.1-1.4-1.3-4.1-1.8l-0.8-0.1c-5-0.9-7.1-3-7-6.9c0.1-4.2,3.6-6.9,8.8-6.9c2.8,0,5.4,0.3,9.2,2.3L336.8,323z"/>
		<path class="st1" d="M348,338h-5.9v-21.7h5.9V338z"/>
		<path class="st1" d="M368.2,321.7H362V338h-5.9v-16.3h-6.2v-5.4h18.3V321.7z"/>
		<path class="st1" d="M385.6,323c-1.4-0.8-3.6-1.8-6.3-1.8c-1.6,0-2.8,0.4-2.8,1.4c0,1.2,2.2,1.4,4.4,1.8l0.7,0.1
			c4.5,0.9,6.8,3,6.8,6.4c0,5.5-4.6,7.5-9.3,7.5c-3.9,0-7.4-0.9-9.9-2.7l2.9-4.8c1.7,1,3.8,2.2,7.1,2.2c1.6,0,2.7-0.4,2.7-1.5
			c0-1.1-1.4-1.3-4.1-1.8l-0.8-0.1c-5-0.9-7.1-3-7-6.9c0.1-4.2,3.6-6.9,8.8-6.9c2.8,0,5.4,0.3,9.2,2.3L385.6,323z"/>
	</g>
	<g>
		<path class="st2" d="M281.7,383.6c0,1.8-2.9,3.2-6.5,3.2h-50.8c-3.6,0-6.5-1.4-6.5-3.2H20c0,10.6,2.8,19.1,13.2,19.1h433.2
			c10.4,0,13.2-8.6,13.2-19.1H281.7z"/>
		<path class="st2" d="M432.2,158.8c0-6.9-5.9-12.5-13.3-12.5H80.7c-7.3,0-13.3,5.6-13.3,12.5v220.9h364.8V158.8z M249.8,149.1
			c2.1,0,3.9,1.7,3.9,3.9c0,2.1-1.7,3.9-3.9,3.9c-2.1,0-3.9-1.7-3.9-3.9C246,150.8,247.7,149.1,249.8,149.1z M421.7,366.7H78V159.3
			h343.7V366.7z"/>
		<path class="st2" d="M249.8,154.9c1.1,0,1.9-0.9,1.9-1.9c0-1.1-0.9-1.9-1.9-1.9c-1.1,0-1.9,0.9-1.9,1.9
			C247.9,154,248.7,154.9,249.8,154.9z"/>
	</g>
	<g>
		<path class="st2" d="M110.8,110.2c0,7.1-4.1,11.1-11.6,11.1s-11.6-4-11.6-11.1V94.7h7.1V110c0,3,1.7,4.5,4.5,4.5s4.5-1.5,4.5-4.5
			V94.7h7.1V110.2z"/>
		<path class="st2" d="M139,120.8h-6.9l-10.8-14.7v14.7h-7.1V94.7h6.9l10.8,14.7V94.7h7.1V120.8z"/>
		<path class="st2" d="M149.8,120.8h-7.1V94.7h7.1V120.8z"/>
		<path class="st2" d="M180.2,107.8c0,2.7-0.8,5-2,6.9l4.5,6.1h-8.3l-1.1-1.5c-1.9,1.2-4.2,1.9-6.8,1.9c-8.1,0-13.8-5.7-13.8-13.5
			c0-7.8,5.7-13.5,13.8-13.5C174.5,94.3,180.2,100,180.2,107.8z M160,107.8c0,4,2.6,6.7,6.4,6.7c1,0,1.9-0.2,2.7-0.5l-3.6-4.8l7.2,0
			c0.1-0.5,0.1-1,0.1-1.5c0-4-2.6-6.7-6.4-6.7C162.6,101,160,103.8,160,107.8z"/>
		<path class="st2" d="M205.8,110.2c0,7.1-4.1,11.1-11.6,11.1s-11.6-4-11.6-11.1V94.7h7.1V110c0,3,1.7,4.5,4.5,4.5s4.5-1.5,4.5-4.5
			V94.7h7.1V110.2z"/>
		<path class="st2" d="M229.7,120.8h-20.4V94.7h20.4v6.3h-13.3v3.4h12.4v6.3h-12.4v3.7h13.3V120.8z"/>
		<path class="st2" d="M256.4,120.8H248l-9.5-26.1h7.5l6.2,18.7l6.2-18.7h7.4L256.4,120.8z"/>
		<path class="st2" d="M274.9,120.8h-7.1V94.7h7.1V120.8z"/>
		<path class="st2" d="M297.5,102.8c-1.7-1-4.3-2.2-7.5-2.2c-1.9,0-3.4,0.5-3.4,1.7c0,1.5,2.7,1.6,5.3,2.1l0.8,0.2
			c5.4,1,8.1,3.6,8.1,7.6c0,6.6-5.6,9-11.1,9c-4.7,0-8.9-1.1-11.9-3.2l3.5-5.8c2.1,1.2,4.6,2.7,8.5,2.7c1.9,0,3.3-0.5,3.3-1.8
			c0-1.4-1.6-1.6-4.9-2.2l-1-0.2c-6-1-8.5-3.6-8.4-8.2c0.1-5,4.3-8.3,10.6-8.3c3.4,0,6.5,0.4,11,2.7L297.5,102.8z"/>
		<path class="st2" d="M311,120.8h-7.1V94.7h7.1V120.8z"/>
		<path class="st2" d="M335.2,101.3h-7.4v19.6h-7.1v-19.6h-7.4v-6.5h21.9V101.3z"/>
		<path class="st2" d="M362.9,107.8c0,7.8-5.7,13.5-13.8,13.5s-13.8-5.7-13.8-13.5c0-7.8,5.7-13.5,13.8-13.5S362.9,100,362.9,107.8z
			 M342.7,107.8c0,4,2.6,6.7,6.4,6.7s6.4-2.8,6.4-6.7c0-4-2.6-6.7-6.4-6.7S342.7,103.8,342.7,107.8z"/>
		<path class="st2" d="M387.5,103.4c0,4-2.3,6.9-6.7,7.8l7.1,9.6h-8.3l-6.3-9.3h-0.4v9.3h-7.1V94.7h11.6
			C384,94.7,387.5,98.2,387.5,103.4z M372.8,101.1v4.6h4.5c1.8,0,3-0.7,3-2.3s-1.3-2.3-3-2.3H372.8z"/>
		<path class="st2" d="M409.1,102.8c-1.7-1-4.3-2.2-7.5-2.2c-1.9,0-3.4,0.5-3.4,1.7c0,1.5,2.7,1.6,5.3,2.1l0.8,0.2
			c5.4,1,8.1,3.6,8.1,7.6c0,6.6-5.6,9-11.1,9c-4.7,0-8.9-1.1-11.9-3.2l3.5-5.8c2.1,1.2,4.6,2.7,8.5,2.7c1.9,0,3.3-0.5,3.3-1.8
			c0-1.4-1.6-1.6-4.9-2.2l-1-0.2c-6-1-8.5-3.6-8.4-8.2c0.1-5,4.3-8.3,10.6-8.3c3.4,0,6.5,0.4,11,2.7L409.1,102.8z"/>
	</g>
	<path class="st3" d="M213.8,193.4c0.1-1.3,0.5-2.8,1.2-3c0.5-0.1,0.9,0.1,1.4,0.4c2.1,2,5.6,2,7.6,0c0.5-0.3,0.9-0.6,1.4-0.4
		c0.7,0.2,1.1,1.7,1.2,3c0.1,0.7,0.5,0.7,0.6,0.3c0.3-0.6,0.6-0.9,0.9-0.9c0.6,0,1,1.5,0.8,3.3c-0.2,1.8-0.8,3.3-1.5,3.3
		c-0.2,0-0.3,0.1-0.3,0.2c-0.7,3.4-2.4,5.8-4.9,6.9c-1.3,0.6-2.7,0.6-4,0c-2.5-1.1-4.2-3.5-4.9-6.9c0-0.2-0.1-0.3-0.3-0.2
		c-0.6,0-1.3-1.5-1.5-3.3c-0.2-1.8,0.2-3.3,0.8-3.3c0.3,0,0.6,0.3,0.9,0.9C213.4,194.1,213.8,194.1,213.8,193.4L213.8,193.4z
		 M230,191.5c0,0.2,0,0.4,0,0.6c0.8,1.1,0.8,3.1,0.7,4.2c-0.1,1.3-0.6,3.7-2,4.4c-0.8,3.2-2.6,6-5.8,7.4c-1.7,0.7-3.6,0.7-5.3,0
		c-3.2-1.4-4.9-4.2-5.8-7.4c-1.3-0.8-1.8-3.1-2-4.4c-0.1-1.1-0.1-3.2,0.7-4.2c0-0.2,0-0.4,0-0.6C210.6,178.8,230,178.8,230,191.5
		L230,191.5z M220.4,209.9c-0.5,0-1-0.1-1.6-0.2c-0.6,0-0.8,1.7-0.7,2.4c0,0.2,0,0.2,0.2,0.4c0.2,0.2,0.5,0.4,0.7,0.6
		c0.1,0.1,0.1,0.4,0,0.5c-0.3,1.6-0.8,4.9-1,7.5c-0.1,1.6-0.2,3.1-0.2,4.7l5.5,0c-0.2-4.1-0.4-8.3-1.3-12.3c0-0.2-0.1-0.4,0-0.5
		c0.2-0.2,0.5-0.4,0.7-0.6c0.1-0.1,0.1-0.2,0.2-0.4c0.1-0.7-0.1-2.5-0.7-2.4C221.4,209.8,220.9,209.9,220.4,209.9L220.4,209.9z
		 M216.3,224h-12.1c-0.4,0-0.9-0.3-0.9-0.8c0-1,2-11.8,2.6-12c1.9-0.6,3.9-1.1,5.7-1.9c1.6-0.7,2.2-3,1.3-2.6
		c-2.2,1.7-5.3,2.1-7.8,3c-2.2,0.6-3.7,12.1-3.7,13.8c0,1.4,1.1,2.4,2.5,2.4l12.3,0C216.2,225.2,216.3,224.6,216.3,224L216.3,224z
		 M233.6,209c-2.1-0.6-4.3-1.1-6-2.4c-0.9-0.3-0.3,1.9,1.3,2.6c0.5,0.2,1.1,0.4,1.6,0.6C231.5,209.6,232.5,209.3,233.6,209
		L233.6,209z M268.8,209.7c1.5-0.9,3.1-1.6,4.4-2.1c1.5,3.8,4.1,6.4,7.4,8.3c3.6-2,5.9-4.9,7.4-8.3c2.9,1.2,7.7,3.2,8.4,6.6l1.7,8.3
		c0.3,1.2-1,2.3-2.3,2.3h-19c-0.3-1.6-0.6-3.2-1-4.7c-0.5-1.9-1.1-4-1.8-5.8c-0.7-1.6-1.7-3.5-3.4-4.1
		C270.1,210,269.5,209.8,268.8,209.7L268.8,209.7z M283.5,183.1c3,0.8,5.8,2.8,7.1,6.1c0.4,1.1,0.6,2.3,0.7,3.5
		c0.4,6.1-0.6,11,3.2,16.9c-1.9-1.3-4-2.5-6.2-3.4l-0.6-0.2c-0.4,0.4-1,1.2-1.6,1.4c-0.2,0.1-0.6-1.1-0.7-1.8c0,0,0,0,0,0
		c-0.8,0.7-1.6,1.3-2.5,1.7c-1.5,0.9-3,0.9-4.5,0c-0.9-0.5-1.7-1.1-2.5-1.7c0,0,0,0,0,0c-0.1,0.7-0.5,1.9-0.7,1.8
		c-0.5-0.3-1.2-1-1.6-1.4l-0.6,0.2c-2,0.9-4,1.9-5.8,3.1l-0.2,0c3.8-6.2,2.6-10.6,3-16.6c0.1-1.2,0.3-2.3,0.7-3.5
		c0.6-1.5,1.2-2.7,2.3-3.6c1.1-1,3.3-2.4,5.1-1.7C279.8,183,281.3,182.5,283.5,183.1L283.5,183.1z M283.4,194.3
		c-1.9-0.6-4.1-1.4-6.4-3c-0.7-0.5-1.2-0.7-1.6,0.6c-0.2,0.7-0.4,1.6-0.8,2c-0.3,0.4-0.5,0.1-0.7-0.3c-0.2-0.4-0.5-0.7-0.7-0.7
		c-0.6,0-0.9,1.4-0.7,3.2c0.2,1.8,0.8,3.2,1.4,3.2c0.1,0,0.2,0,0.2,0.1c0.2,1,0.5,1.9,0.8,2.5c0.9,1.6,2.3,2.9,4.3,4.1
		c1,0.6,1.9,0.6,2.9,0c2-1.1,3.5-2.4,4.3-4.1c0.5-1,0.9-2.5,1-4.1c0.2-1.2-0.3-1.9-1.3-2.4C285.5,195,284.2,194.6,283.4,194.3
		L283.4,194.3z M251.9,212.4c0.8-0.1,1,2.2,0.9,3.1c0,0.2,0,0.3-0.2,0.4c-0.2,0.2-0.6,0.5-0.8,0.7c-0.2,0.2-0.1,0.4,0,0.7
		c0.3,1.4,0.7,3.4,1,5.4l6.1-14c0.1-0.2,0.3-0.3,0.5-0.2c2.7,2.1,7.3,2.6,10.6,3.8c2.7,0.8,5.4,14.9,5.4,17c0,1.7-1.4,3.1-3.1,3.1
		H228c-1.7,0-3.1-1.4-3.1-3.1c0-2.1,2.6-16.2,5.4-17c3.2-1.1,7.8-1.7,10.6-3.8c0.2-0.1,0.4,0,0.5,0.2l6.1,14c0.3-2,0.7-4,1-5.4
		c0.1-0.2,0.1-0.5,0-0.7c-0.2-0.2-0.6-0.5-0.8-0.7c-0.2-0.2-0.2-0.3-0.2-0.4c-0.1-0.9,0.1-3.1,0.9-3.1
		C249.5,212.7,250.6,212.7,251.9,212.4L251.9,212.4z M255.6,179.2c3.1,0.1,4.9,2,5.9,4.3c0.8,1.9,1.1,4.4,1,6.5
		c1.1,1.5,1.1,4.2,0.9,5.7c-0.2,1.8-0.8,4.9-2.6,6c-0.8,3.4-3.6,6.7-6.8,8.6c-2.5,1.5-5.3,1.6-7.9,0.1c-3.4-1.9-6.2-5.2-7.1-8.8
		c-1.7-1.1-2.4-4.2-2.6-6c-0.2-1.6-0.1-4.3,0.9-5.7c-1.1-10.5,10.5-14.7,17.4-11.1C255.1,179.1,255.1,179.2,255.6,179.2L255.6,179.2
		z M241.5,190.6c0-0.9,0.3-1,1.1-0.7c2.1,0.6,11.6-1.1,13.8-2.2c0.4-0.2,0.8-0.3,1.1,0.1c0.2,0.2,0.3,0.5,0.4,0.8
		c0.2,0.8,0.3,2,0.3,2.9c0,0.2,0,0.4,0,0.5c0.1,0.7,0.3,0.7,0.5,0.5c0.2-0.2,0.4-0.4,0.5-0.7c0.3-0.6,0.7-1,1-1c0.8,0,1.3,2,1,4.5
		c-0.3,2.5-1.1,4.5-1.9,4.5c-0.2,0-0.3,0.1-0.4,0.3c-0.7,3.5-3.1,6.5-5.8,8c-2.3,1.3-3.8,1.4-6.3,0.1c-2.8-1.5-5.3-4.6-6-8.1
		c0-0.2-0.2-0.3-0.4-0.3c-0.8,0-1.7-2-1.9-4.5c-0.3-2.5,0.2-4.5,1-4.5c0.4,0,0.8,0.5,1.1,1.2c0.2,0.4,0.6,0.8,0.8,0.4
		C241.5,192.3,241.5,190.9,241.5,190.6L241.5,190.6z"/>
</g>
</svg>
