<?xml version="1.0" encoding="utf-8"?>
<!-- Generator: Adobe Illustrator 25.3.0, SVG Export Plug-In . SVG Version: 6.00 Build 0)  -->
<svg version="1.1" id="Layer_1" xmlns="http://www.w3.org/2000/svg" xmlns:xlink="http://www.w3.org/1999/xlink" x="0px" y="0px"
	 viewBox="0 0 500 500" style="enable-background:new 0 0 500 500;" xml:space="preserve">
<style type="text/css">
	.st0{fill:#FFFFFF;}
	.st1{fill:none;}
	.st2{enable-background:new    ;}
	.st3{fill:#BF0C3F;}
	.st4{fill:#414042;}
	.st5{fill:#EC2024;}
</style>
<g>
	<rect x="72.5" y="158.5" class="st0" width="350.3" height="217.1"/>
	<rect x="72.9" y="238.7" class="st1" width="349.5" height="118.7"/>
	<g class="st2">
		<path class="st3" d="M136.5,260.4c0,4.2-2,7.3-5.7,9.1c4.2,1.7,6.5,4.9,6.5,9c0,8.1-7.7,12-16,12c-6.2,0-11.2-2.2-14.5-6l5.9-6.9
			c2.2,2.2,4.9,3.5,8,3.5c3,0,5.6-1.2,5.6-3.6c0-2.3-2.8-3.5-6.3-3.5h-4.4v-9.2h4.5c3.1,0,5.5-1.2,5.5-3.4c0-2.2-1.9-3.2-4.9-3.2
			c-3.7,0-6.3,1.7-8.1,3.6l-5.7-7c3.3-3.5,7.6-6,14.2-6C130.1,248.7,136.5,253.3,136.5,260.4z"/>
		<path class="st3" d="M154.1,278.2l-5.1,20h-8.5l2.5-20H154.1z"/>
		<path class="st3" d="M186.6,260.4c0,4.2-2,7.3-5.7,9.1c4.2,1.7,6.5,4.9,6.5,9c0,8.1-7.7,12-16,12c-6.2,0-11.2-2.2-14.5-6l5.9-6.9
			c2.2,2.2,4.9,3.5,8,3.5c3,0,5.6-1.2,5.6-3.6c0-2.3-2.8-3.5-6.3-3.5h-4.4v-9.2h4.5c3.1,0,5.5-1.2,5.5-3.4c0-2.2-1.9-3.2-4.9-3.2
			c-3.7,0-6.3,1.7-8.1,3.6l-5.7-7c3.3-3.5,7.6-6,14.2-6C180.2,248.7,186.6,253.3,186.6,260.4z"/>
		<path class="st3" d="M218.6,273.5h4.6v9.8h-4.6v6.5H208v-6.5h-17.7V276l12.3-26.5h11.6l-11.2,24h5v-3.6l3.2-6.9h7.4V273.5z"/>
		<path class="st3" d="M238.9,276.4c-9.5-0.1-14.5-6.1-14.5-13.4c0-8.3,6.9-14.3,16.1-14.3c9.1,0,16.1,5.9,16.1,14
			c0,3.9-1.6,7.8-4.2,11.7l-10.3,15.4h-12.7L238.9,276.4z M245.4,262.9c0-2.8-2-4.8-4.9-4.8c-2.9,0-4.9,2-4.9,4.8
			c0,2.7,2.1,4.8,4.9,4.8C243.4,267.7,245.4,265.7,245.4,262.9z"/>
		<path class="st3" d="M269.5,278.2l-5.1,20h-8.5l2.5-20H269.5z"/>
		<path class="st3" d="M308.8,269.6c0,13.1-7.9,20.9-18.1,20.9c-10.1,0-18.1-7.8-18.1-20.9s8-20.9,18.1-20.9
			C300.9,248.7,308.8,256.5,308.8,269.6z M283.7,269.6c0,7,3,10.7,7,10.7s7-3.7,7-10.7c0-7-3-10.7-7-10.7S283.7,262.6,283.7,269.6z"
			/>
		<path class="st3" d="M348.8,269.6c0,13.1-7.9,20.9-18.1,20.9c-10.1,0-18.1-7.8-18.1-20.9s8-20.9,18.1-20.9
			C340.9,248.7,348.8,256.5,348.8,269.6z M323.7,269.6c0,7,3,10.7,7,10.7s7-3.7,7-10.7c0-7-3-10.7-7-10.7S323.7,262.6,323.7,269.6z"
			/>
		<path class="st3" d="M380.1,273.5h4.6v9.8h-4.6v6.5h-10.6v-6.5h-17.7V276l12.3-26.5h11.6l-11.2,24h5v-3.6l3.2-6.9h7.5V273.5z"/>
	</g>
	<g class="st2">
		<path class="st3" d="M150.9,332.5h-5.6v-20.6h5.6V332.5z"/>
		<path class="st3" d="M177.7,332.5h-5.6v-12.9l-3.3,11h-6l-3.3-11v12.9h-5.6v-20.6h7.8l4.1,12.4l4.1-12.4h7.8V332.5z"/>
		<path class="st3" d="M186.2,326v6.5h-5.6v-20.6h9.2c5.2,0,8,2.9,8,7.1c0,4.2-2.8,7-7.9,7H186.2z M186.2,316.9v4.2h3.5
			c1.4,0,2.4-0.8,2.4-2.1c0-1.3-1-2.1-2.4-2.1H186.2z"/>
		<path class="st3" d="M217.2,318.8c0,3.2-1.8,5.5-5.3,6.2l5.6,7.6h-6.6l-5-7.3h-0.3v7.3H200v-20.6h9.2
			C214.5,311.9,217.2,314.6,217.2,318.8z M205.6,316.9v3.7h3.5c1.4,0,2.4-0.6,2.4-1.8s-1-1.8-2.4-1.8H205.6z"/>
		<path class="st3" d="M235.9,332.5h-16.1v-20.6h16.1v5h-10.5v2.7h9.8v5h-9.8v3h10.5V332.5z"/>
		<path class="st3" d="M253.3,318.3c-1.4-0.8-3.4-1.7-6-1.7c-1.5,0-2.7,0.4-2.7,1.3c0,1.2,2.1,1.3,4.2,1.7l0.7,0.1
			c4.3,0.8,6.4,2.9,6.4,6c0,5.2-4.4,7.1-8.8,7.1c-3.7,0-7.1-0.9-9.4-2.6l2.7-4.6c1.6,1,3.6,2.1,6.8,2.1c1.5,0,2.6-0.4,2.6-1.4
			c0-1.1-1.3-1.3-3.8-1.7l-0.8-0.1c-4.7-0.8-6.7-2.9-6.6-6.5c0.1-4,3.4-6.6,8.4-6.6c2.7,0,5.1,0.3,8.7,2.2L253.3,318.3z"/>
		<path class="st3" d="M272.3,318.3c-1.4-0.8-3.4-1.7-6-1.7c-1.5,0-2.7,0.4-2.7,1.3c0,1.2,2.1,1.3,4.2,1.7l0.7,0.1
			c4.3,0.8,6.4,2.9,6.4,6c0,5.2-4.4,7.1-8.8,7.1c-3.7,0-7.1-0.9-9.4-2.6l2.7-4.6c1.6,1,3.6,2.1,6.8,2.1c1.5,0,2.6-0.4,2.6-1.4
			c0-1.1-1.3-1.3-3.8-1.7l-0.8-0.1c-4.7-0.8-6.7-2.9-6.6-6.5c0.1-4,3.4-6.6,8.4-6.6c2.7,0,5.1,0.3,8.7,2.2L272.3,318.3z"/>
		<path class="st3" d="M282.9,332.5h-5.6v-20.6h5.6V332.5z"/>
		<path class="st3" d="M307,322.2c0,6.2-4.5,10.7-10.9,10.7c-6.4,0-10.9-4.5-10.9-10.7c0-6.2,4.5-10.7,10.9-10.7
			C302.4,311.5,307,316.1,307,322.2z M291,322.2c0,3.2,2.1,5.3,5.1,5.3c3,0,5.1-2.2,5.1-5.3s-2.1-5.3-5.1-5.3
			C293,316.9,291,319.1,291,322.2z"/>
		<path class="st3" d="M328.7,332.5h-5.5l-8.5-11.6v11.6h-5.6v-20.6h5.5l8.5,11.6v-11.6h5.6V332.5z"/>
		<path class="st3" d="M346.6,318.3c-1.4-0.8-3.4-1.7-6-1.7c-1.5,0-2.7,0.4-2.7,1.3c0,1.2,2.1,1.3,4.2,1.7l0.7,0.1
			c4.3,0.8,6.4,2.9,6.4,6c0,5.2-4.4,7.1-8.8,7.1c-3.7,0-7.1-0.9-9.4-2.6l2.7-4.6c1.6,1,3.6,2.1,6.8,2.1c1.5,0,2.6-0.4,2.6-1.4
			c0-1.1-1.3-1.3-3.8-1.7l-0.8-0.1c-4.7-0.8-6.7-2.9-6.6-6.5c0.1-4,3.4-6.6,8.4-6.6c2.7,0,5.1,0.3,8.7,2.2L346.6,318.3z"/>
	</g>
	<g>
		<path class="st4" d="M278,375c0,1.7-2.8,3-6.2,3h-48.2c-3.4,0-6.2-1.4-6.2-3h-188c0,10,2.7,18.2,12.5,18.2h411.4
			c9.9,0,12.5-8.1,12.5-18.2H278z"/>
		<path class="st4" d="M420.9,161.5c0-6.5-5.6-11.9-12.6-11.9H87c-6.9,0-12.6,5.3-12.6,11.9v209.7h346.5V161.5z M247.7,152.3
			c2,0,3.7,1.6,3.7,3.7c0,2-1.6,3.7-3.7,3.7c-2,0-3.7-1.6-3.7-3.7C244,153.9,245.6,152.3,247.7,152.3z M410.9,359H84.4V162h326.4
			v197H410.9z"/>
		<path class="st4" d="M247.7,157.8c1,0,1.8-0.8,1.8-1.8s-0.8-1.8-1.8-1.8s-1.8,0.8-1.8,1.8C245.8,157,246.7,157.8,247.7,157.8z"/>
	</g>
	<rect x="70.1" y="100" class="st1" width="355.2" height="59.3"/>
	<g class="st2">
		<path class="st4" d="M178.1,116.1v9.4h-6.7v-9.3l-9.3-15.5h7.7l5,9.4l5-9.4h7.5L178.1,116.1z"/>
		<path class="st4" d="M211.7,113.1c0,7.4-5.4,12.9-13.1,12.9c-7.7,0-13.1-5.5-13.1-12.9c0-7.4,5.4-12.8,13.1-12.8
			C206.2,100.2,211.7,105.7,211.7,113.1z M192.4,113.1c0,3.8,2.5,6.4,6.1,6.4c3.6,0,6.1-2.6,6.1-6.4c0-3.8-2.5-6.4-6.1-6.4
			C194.9,106.7,192.4,109.3,192.4,113.1z"/>
		<path class="st4" d="M236.1,115.4c0,6.7-3.9,10.6-11,10.6c-7.1,0-11-3.8-11-10.6v-14.7h6.7v14.5c0,2.8,1.6,4.3,4.2,4.3
			c2.6,0,4.2-1.5,4.2-4.3v-14.5h6.7V115.4z"/>
		<path class="st4" d="M258.8,106.9h-7v18.6h-6.7v-18.6h-7v-6.2h20.8V106.9z"/>
		<path class="st4" d="M282.7,115.4c0,6.7-3.9,10.6-11,10.6s-11-3.8-11-10.6v-14.7h6.7v14.5c0,2.8,1.6,4.3,4.2,4.3s4.2-1.5,4.2-4.3
			v-14.5h6.7V115.4z"/>
		<path class="st4" d="M297.2,100.7c6.7,0,9.6,2.7,9.6,7.1c0,2.4-1.4,4.2-3.3,5.2c2.2,0.8,3.8,2.9,3.8,5.3c0,4.4-2.9,7.1-9.5,7.1
			h-11.8v-24.8H297.2z M292.8,106.2v4.1h4.2c1.9,0,2.8-0.7,2.8-2.1c0-1.4-0.9-2.1-2.8-2.1H292.8z M292.8,115.8v4.2l4.7,0
			c1.9,0,2.9-0.7,2.9-2.1c0-1.4-1-2.1-2.9-2.1H292.8z"/>
		<path class="st4" d="M329.3,125.5H310v-24.8h19.4v6h-12.6v3.3h11.8v6h-11.8v3.6h12.6V125.5z"/>
	</g>
	<g>
		<path class="st5" d="M277.7,189.5c-0.7-2.7-2.8-4.8-5.5-5.5c-4.9-1.3-24.5-1.3-24.5-1.3s-19.6,0-24.5,1.3
			c-2.6,0.7-4.8,2.9-5.5,5.6c-1.3,4.9-1.3,15.1-1.3,15.1s0,10.2,1.3,15.1c0.7,2.7,2.8,4.8,5.5,5.5c5,1.3,24.5,1.3,24.5,1.3
			s19.6,0,24.5-1.3c2.7-0.7,4.8-2.8,5.5-5.5c1.3-4.9,1.3-15.1,1.3-15.1S279.1,194.4,277.7,189.5z"/>
		<path class="st0" d="M241.4,214l16.3-9.4l-16.3-9.4L241.4,214L241.4,214z"/>
	</g>
</g>
</svg>
