<?xml version="1.0" encoding="utf-8"?>
<!-- Generator: Adobe Illustrator 25.3.0, SVG Export Plug-In . SVG Version: 6.00 Build 0)  -->
<svg version="1.1" id="Layer_3" xmlns="http://www.w3.org/2000/svg" xmlns:xlink="http://www.w3.org/1999/xlink" x="0px" y="0px"
	 viewBox="0 0 500 500" style="enable-background:new 0 0 500 500;" xml:space="preserve">
<style type="text/css">
	.st0{fill:none;}
	.st1{enable-background:new    ;}
	.st2{fill:#414042;}
	.st3{fill:#FFFFFF;}
	.st4{fill:#BF0C3F;}
</style>
<g>
	<rect x="70.1" y="100" class="st0" width="355.2" height="59.3"/>
	<g class="st1">
		<path class="st2" d="M143.6,125.5h-7.9l-9-24.8h7.1l5.9,17.8l5.9-17.8h7L143.6,125.5z"/>
		<path class="st2" d="M161.2,125.5h-6.7v-24.8h6.7V125.5z"/>
		<path class="st2" d="M188.6,113.1c0,7.5-5.1,12.4-12.9,12.4h-10.9v-24.8h10.9C183.5,100.7,188.6,105.6,188.6,113.1z M171.5,106.9
			v12.4h4c4.1,0,6-2.6,6-6.2c0-3.6-2-6.2-6-6.2H171.5z"/>
		<path class="st2" d="M210.6,125.5h-19.4v-24.8h19.4v6h-12.6v3.3h11.8v6h-11.8v3.6h12.6V125.5z"/>
		<path class="st2" d="M238.6,113.1c0,7.4-5.4,12.9-13.1,12.9c-7.7,0-13.1-5.5-13.1-12.9c0-7.4,5.4-12.8,13.1-12.8
			C233.2,100.2,238.6,105.7,238.6,113.1z M219.4,113.1c0,3.8,2.5,6.4,6.1,6.4c3.6,0,6.1-2.6,6.1-6.4c0-3.8-2.5-6.4-6.1-6.4
			C221.9,106.7,219.4,109.3,219.4,113.1z"/>
		<path class="st2" d="M263.5,125.5h-7.9l-9-24.8h7.1l5.9,17.8l5.9-17.8h7L263.5,125.5z"/>
		<path class="st2" d="M281.1,125.5h-6.7v-24.8h6.7V125.5z"/>
		<path class="st2" d="M304,125.5h-19.4v-24.8H304v6h-12.6v3.3h11.8v6h-11.8v3.6H304V125.5z"/>
		<path class="st2" d="M336.7,125.5h-7.9l-4.1-14.5l-4.1,14.5h-7.9l-7.1-24.8h6.9l4.2,16.6l4.5-16.6h7.2l4.5,16.6l4.2-16.6h6.8
			L336.7,125.5z"/>
		<path class="st2" d="M362.8,108.4c-1.6-0.9-4.1-2.1-7.2-2.1c-1.8,0-3.2,0.5-3.2,1.6c0,1.4,2.5,1.5,5.1,2l0.8,0.2
			c5.1,1,7.7,3.5,7.7,7.3c0,6.3-5.3,8.6-10.6,8.6c-4.4,0-8.5-1.1-11.3-3.1l3.3-5.5c2,1.2,4.3,2.5,8.1,2.5c1.8,0,3.1-0.5,3.1-1.7
			c0-1.3-1.5-1.5-4.6-2.1l-0.9-0.2c-5.7-1-8.1-3.4-7.9-7.8c0.1-4.7,4.1-7.9,10.1-7.9c3.2,0,6.2,0.3,10.5,2.6L362.8,108.4z"/>
	</g>
	<g>
		<path class="st2" d="M425.9,381.2H69.4c-5.6,0-10.2-4.6-10.2-10.2V159.9c0-5.6,4.6-10.2,10.2-10.2h356.5c5.6,0,10.2,4.6,10.2,10.2
			V371C436.1,376.7,431.6,381.2,425.9,381.2z"/>
		<rect x="183.5" y="388" class="st2" width="128.4" height="12.4"/>
		<rect x="71.8" y="162" class="st3" width="351.7" height="207"/>
	</g>
	<rect x="88.3" y="238.7" class="st0" width="318.8" height="118.7"/>
	<g class="st1">
		<path class="st4" d="M136.5,273.5h4.6v9.8h-4.6v6.5h-10.6v-6.5h-17.7V276l12.3-26.5h11.6l-11.2,24h5v-3.6l3.2-6.9h7.4V273.5z"/>
		<path class="st4" d="M157.8,278.2l-5.1,20h-8.5l2.5-20H157.8z"/>
		<path class="st4" d="M189.7,257.8l-15.2,31.9h-12.7l15.3-30.5H160v-9.8h29.7V257.8z"/>
		<path class="st4" d="M227.9,269.6c0,13.1-7.9,20.9-18.1,20.9c-10.1,0-18.1-7.8-18.1-20.9s8-20.9,18.1-20.9
			C220,248.7,227.9,256.5,227.9,269.6z M202.8,269.6c0,7,3,10.7,7,10.7s7-3.7,7-10.7c0-7-3-10.7-7-10.7S202.8,262.6,202.8,269.6z"/>
		<path class="st4" d="M248.8,262.8c9.5,0.1,14.5,6.1,14.5,13.4c0,8.3-7,14.3-16.1,14.3c-9.1,0-16.1-5.9-16.1-14
			c0-3.9,1.6-7.8,4.2-11.7l10.3-15.4h12.7L248.8,262.8z M242.2,276.3c0,2.8,2,4.8,4.9,4.8c2.9,0,5-2,5-4.8c0-2.7-2.1-4.8-5-4.8
			C244.2,271.5,242.2,273.5,242.2,276.3z"/>
		<path class="st4" d="M279.6,278.2l-5.1,20h-8.5l2.5-20H279.6z"/>
		<path class="st4" d="M300.4,262.8c9.5,0.1,14.5,6.1,14.5,13.4c0,8.3-7,14.3-16.1,14.3c-9.1,0-16.1-5.9-16.1-14
			c0-3.9,1.6-7.8,4.2-11.7l10.3-15.4h12.7L300.4,262.8z M293.8,276.3c0,2.8,2,4.8,4.9,4.8c2.9,0,5-2,5-4.8c0-2.7-2.1-4.8-5-4.8
			C295.9,271.5,293.8,273.5,293.8,276.3z"/>
		<path class="st4" d="M331.3,276.4c-9.5-0.1-14.5-6.1-14.5-13.4c0-8.3,6.9-14.3,16.1-14.3c9.1,0,16.1,5.9,16.1,14
			c0,3.9-1.6,7.8-4.2,11.7l-10.3,15.4h-12.7L331.3,276.4z M337.8,262.9c0-2.8-2-4.8-4.9-4.8c-2.9,0-4.9,2-4.9,4.8
			c0,2.7,2.1,4.8,4.9,4.8C335.8,267.7,337.8,265.7,337.8,262.9z"/>
		<path class="st4" d="M383.8,260.4c0,4.5-2.6,7.4-6,9c3.9,1.6,7,4.5,7,9.3c0,7.4-7.4,11.7-16.5,11.7c-9,0-16.5-4.4-16.5-11.7
			c0-4.9,3.1-7.8,7-9.3c-3.4-1.6-6-4.5-6-9c0-7.3,6.9-11.7,15.4-11.7C376.8,248.7,383.8,253.1,383.8,260.4z M363.5,277.4
			c0,2.6,2.2,4,4.8,4c2.6,0,4.8-1.4,4.8-4c0-2.6-2.2-4.1-4.8-4.1C365.8,273.3,363.5,274.8,363.5,277.4z M364.3,261.5
			c0,2.3,1.8,3.6,4.1,3.6c2.3,0,4.1-1.3,4.1-3.6s-1.8-3.5-4.1-3.5C366,258,364.3,259.2,364.3,261.5z"/>
	</g>
	<g class="st1">
		<path class="st4" d="M122.1,316.7l-5,2.7c-1-1.7-2.5-2.6-4.5-2.6c-2.9,0-5,2.2-5,5.3c0,3.5,2.4,5.3,5,5.3c2,0,3.5-0.9,4.7-2.6
			l4.6,3.2c-1.9,2.9-5.1,4.7-9.2,4.7c-6.4,0-10.9-4.4-10.9-10.7s4.5-10.7,10.9-10.7C116.7,311.5,120.3,313.4,122.1,316.7z"/>
		<path class="st4" d="M144.6,322.2c0,6.2-4.5,10.7-10.9,10.7s-10.9-4.5-10.9-10.7c0-6.2,4.5-10.7,10.9-10.7
			S144.6,316.1,144.6,322.2z M128.6,322.2c0,3.2,2.1,5.3,5.1,5.3s5.1-2.2,5.1-5.3s-2.1-5.3-5.1-5.3S128.6,319.1,128.6,322.2z"/>
		<path class="st4" d="M170.6,332.5H165v-12.9l-3.3,11h-6l-3.3-11v12.9h-5.6v-20.6h7.8l4.1,12.4l4.1-12.4h7.8V332.5z"/>
		<path class="st4" d="M179.2,326v6.5h-5.6v-20.6h9.2c5.2,0,8,2.9,8,7.1c0,4.2-2.8,7-7.9,7H179.2z M179.2,316.9v4.2h3.5
			c1.4,0,2.4-0.8,2.4-2.1c0-1.3-1-2.1-2.4-2.1H179.2z"/>
		<path class="st4" d="M208.5,332.5H193v-20.6h5.6v15.5h9.9V332.5z"/>
		<path class="st4" d="M226.4,332.5h-16.1v-20.6h16.1v5h-10.5v2.7h9.8v5h-9.8v3h10.5V332.5z"/>
		<path class="st4" d="M245.2,317.1h-5.9v15.5h-5.6v-15.5h-5.9v-5.2h17.3V317.1z"/>
		<path class="st4" d="M263.1,332.5H247v-20.6h16.1v5h-10.5v2.7h9.8v5h-9.8v3h10.5V332.5z"/>
		<path class="st4" d="M285.6,322.2c0,6.2-4.2,10.3-10.7,10.3h-9.1v-20.6h9.1C281.3,311.9,285.6,316,285.6,322.2z M271.4,317v10.3
			h3.4c3.4,0,5-2.2,5-5.2c0-3-1.6-5.2-5-5.2H271.4z"/>
		<path class="st4" d="M306.3,332.5h-6.6l-7.5-20.6h5.9l4.9,14.8l4.9-14.8h5.9L306.3,332.5z"/>
		<path class="st4" d="M321,332.5h-5.6v-20.6h5.6V332.5z"/>
		<path class="st4" d="M340,332.5h-16.1v-20.6H340v5h-10.5v2.7h9.8v5h-9.8v3H340V332.5z"/>
		<path class="st4" d="M367.3,332.5h-6.6l-3.4-12.1l-3.4,12.1h-6.6l-5.9-20.6h5.8l3.5,13.8l3.7-13.8h6l3.7,13.9l3.5-13.9h5.7
			L367.3,332.5z"/>
		<path class="st4" d="M389,318.3c-1.4-0.8-3.4-1.7-6-1.7c-1.5,0-2.7,0.4-2.7,1.3c0,1.2,2.1,1.3,4.2,1.7l0.7,0.1
			c4.3,0.8,6.4,2.9,6.4,6c0,5.2-4.4,7.1-8.8,7.1c-3.7,0-7.1-0.9-9.4-2.6l2.7-4.6c1.6,1,3.6,2.1,6.8,2.1c1.5,0,2.6-0.4,2.6-1.4
			c0-1.1-1.3-1.3-3.8-1.7l-0.8-0.1c-4.7-0.8-6.7-2.9-6.6-6.5c0.1-4,3.4-6.6,8.4-6.6c2.7,0,5.1,0.3,8.7,2.2L389,318.3z"/>
	</g>
	<path class="st2" d="M216.7,182.6v43.9h61.9v-43.9H216.7z M225.5,223.5h-4.7v-4.7h4.7V223.5z M225.5,215.1h-4.7v-4.7h4.7V215.1z
		 M225.5,206.7h-4.7V202h4.7V206.7z M225.5,198.2h-4.7v-4.7h4.7V198.2z M225.5,189.8h-4.7v-4.7h4.7V189.8z M236.4,219.4v-30.3
		l27,15.4L236.4,219.4z M274.5,223.5h-4.7v-4.7h4.7V223.5z M274.5,215.1h-4.7v-4.7h4.7V215.1z M274.5,206.7h-4.7V202h4.7V206.7z
		 M274.5,198.2h-4.7v-4.7h4.7V198.2z M274.5,189.8h-4.7v-4.7h4.7V189.8z"/>
</g>
</svg>
