<?xml version="1.0" encoding="utf-8"?>
<!-- Generator: Adobe Illustrator 25.3.0, SVG Export Plug-In . SVG Version: 6.00 Build 0)  -->
<svg version="1.1" id="Layer_1" xmlns="http://www.w3.org/2000/svg" xmlns:xlink="http://www.w3.org/1999/xlink" x="0px" y="0px"
	 viewBox="0 0 250 230" style="enable-background:new 0 0 250 230;" xml:space="preserve">
<style type="text/css">
	.st0{opacity:0.5;fill:#F7B2D1;}
	.st1{fill:#36246B;}
	.st2{fill:#F7B2D1;}
	.st3{fill:#F6E948;}
	.st4{fill:#FFFFFF;}
	.st5{fill:#F27FB2;}
	.st6{fill:none;}
	.st7{opacity:0.42;}
	.st8{fill:#B3B3B3;}
	.st9{fill:#30006E;}
	.st10{fill:#39226F;}
	.st11{fill:#FFADD1;}
</style>
<g>
	<g>
		<rect x="119.6" y="75.9" class="st0" width="87.1" height="43.6"/>
		<path class="st1" d="M193.8,91.6h-62.1c-2.7,0-4.8-2.2-4.8-4.8v0c0-2.7,2.2-4.8,4.8-4.8h62.1c2.7,0,4.8,2.2,4.8,4.8v0
			C198.7,89.5,196.5,91.6,193.8,91.6z"/>
		<path class="st2" d="M196.7,104.5h-69.8c-0.4,0-0.8-0.3-0.8-0.8s0.3-0.8,0.8-0.8h69.8c0.4,0,0.8,0.3,0.8,0.8
			S197.1,104.5,196.7,104.5z"/>
		<path class="st2" d="M196.7,98.4h-69.8c-0.4,0-0.8-0.3-0.8-0.8s0.3-0.8,0.8-0.8h69.8c0.4,0,0.8,0.3,0.8,0.8S197.1,98.4,196.7,98.4
			z"/>
		<path class="st2" d="M196.7,111.1h-69.8c-0.4,0-0.8-0.3-0.8-0.8c0-0.4,0.3-0.8,0.8-0.8h69.8c0.4,0,0.8,0.3,0.8,0.8
			C197.5,110.8,197.1,111.1,196.7,111.1z"/>
	</g>
	<circle class="st3" cx="138.5" cy="77.3" r="9.5"/>
	<path class="st1" d="M126,209c-28.8,0-52.2-23.4-52.2-52.2s23.4-52.2,52.2-52.2s52.2,23.4,52.2,52.2S154.8,209,126,209z"/>
	<path class="st3" d="M178.3,157c-0.1,28.7-23.5,52-52.2,52c-28.7,0-52.1-23.3-52.2-52H178.3z"/>
	<path class="st4" d="M165.2,156.8c0-21.6-17.6-39.2-39.2-39.2c-21.6,0-39.2,17.6-39.2,39.2l-1.5,0c0-22.4,18.3-40.7,40.7-40.7
		c22.4,0,40.7,18.2,40.7,40.7L165.2,156.8z"/>
	<circle class="st5" cx="126" cy="156.8" r="21.8"/>
	<path class="st6" d="M147.8,156.8c0,12-9.8,21.8-21.8,21.8c-12,0-21.8-9.8-21.8-21.8c0-0.1,0-0.1,0-0.2h43.5
		C147.8,156.7,147.8,156.7,147.8,156.8z"/>
	<path class="st3" d="M147.8,156.6h-43.5c0.1-11.9,9.8-21.5,21.8-21.5C138,135,147.7,144.7,147.8,156.6z"/>
	<circle class="st1" cx="126" cy="156.8" r="9.3"/>
	<path class="st4" d="M126,174.9c-10.1,0-18.3-8.2-18.3-18.3l1.5,0c0,9.3,7.5,16.8,16.8,16.8c9.3,0,16.8-7.5,16.8-16.8l1.5,0v0
		C144.3,166.7,136.1,174.9,126,174.9z"/>
	<rect x="108.5" y="156.6" class="st4" width="0.2" height="0.3"/>
	<g>
		<g>
			<polygon class="st1" points="43.9,106.6 16.4,89.9 54.1,27.7 206.7,27.7 206.7,59.9 72.2,59.9 			"/>
		</g>
		<g>
			<g>
				<polygon class="st3" points="34.3,100.8 25.7,95.6 62.3,36.4 206.7,36.4 206.7,46.4 67.9,46.4 				"/>
			</g>
		</g>
		<g>
			<g class="st7">
				<circle class="st8" cx="37.3" cy="85.7" r="10.8"/>
			</g>
			<g>
				<g>
					<circle class="st4" cx="38.9" cy="83.4" r="10.9"/>
				</g>
				<g>
					<path class="st5" d="M37.7,79c1.1,0.7,1.3,1.9,1.6,3.7c1.7-0.5,2.9-0.8,4-0.1c1.3,0.8,1.8,2.6,0.8,4.2c-1,1.6-2.8,1.8-4.1,1
						c-1.1-0.7-1.3-1.9-1.6-3.7c-1.7,0.5-2.9,0.8-4,0.1c-1.3-0.8-1.8-2.6-0.8-4.1C34.6,78.4,36.4,78.2,37.7,79z M35,83.2
						c0.7,0.4,1.5,0.2,3.2-0.3c-0.3-1.7-0.4-2.6-1.1-3c-0.8-0.5-1.9-0.4-2.5,0.7C33.9,81.7,34.2,82.7,35,83.2z M42.7,83.5
						c-0.7-0.4-1.5-0.2-3.2,0.3c0.3,1.8,0.4,2.6,1.1,3c0.8,0.5,1.9,0.4,2.5-0.7C43.8,85,43.5,84,42.7,83.5z"/>
				</g>
			</g>
		</g>
	</g>
	<polygon class="st4" points="239,43.2 232.7,46.4 206.7,60 206.7,27.7 232.6,40.1 	"/>
	<path class="st1" d="M239,43.2l-6.3,3.3c-0.9-0.8-1.4-2-1.4-3.2c0-1.2,0.5-2.3,1.3-3.1L239,43.2z"/>
	<path class="st1" d="M43,108.3c-4.6,7.6-14.5,10-22.1,5.4s-10-14.5-5.4-22.1"/>
	<path class="st9" d="M52.3,156.1c0,2.2-1.8,3.9-3.9,3.9c-2.2,0-3.9-1.8-3.9-3.9"/>
	<path class="st3" d="M44.4,156.1c0-2.2,1.8-3.9,3.9-3.9c2.2,0,3.9,1.8,3.9,3.9"/>
	<path class="st9" d="M54.1,186.1v17.1c0,3.2-2.6,5.8-5.8,5.8h0c-3.2,0-5.8-2.6-5.8-5.8v-17.1"/>
	<g>
		<defs>
			<path id="SVGID_1_" d="M42.5,185.1V168c0-3.2,2.6-5.8,5.8-5.8h0c3.2,0,5.8,2.6,5.8,5.8v17.1"/>
		</defs>
		<use xlink:href="#SVGID_1_"  style="overflow:visible;fill:#F6E948;"/>
		<clipPath id="SVGID_2_">
			<use xlink:href="#SVGID_1_"  style="overflow:visible;"/>
		</clipPath>
	</g>
	<g>
		<g>
			<rect x="92.5" y="208.7" class="st2" width="68.4" height="0.7"/>
		</g>
		<g>
			
				<rect x="123.7" y="207.5" transform="matrix(-0.7071 -0.7071 0.7071 -0.7071 65.9338 445.3458)" class="st2" width="3" height="3"/>
		</g>
		<g>
			<circle class="st2" cx="92.6" cy="209" r="1.3"/>
		</g>
		<g>
			<circle class="st2" cx="161.1" cy="209" r="1.3"/>
		</g>
	</g>
	<g>
		<g>
			<rect x="73.6" y="124.3" class="st2" width="0.7" height="68.4"/>
		</g>
		<g>
			<rect x="72.5" y="155.4" transform="matrix(0.7071 -0.7071 0.7071 0.7071 -89.3199 98.2887)" class="st2" width="3" height="3"/>
		</g>
		<g>
			<circle class="st2" cx="74" cy="124.4" r="1.3"/>
		</g>
		<g>
			<circle class="st2" cx="74" cy="192.8" r="1.3"/>
		</g>
	</g>
	<g>
		<g>
			<rect x="177.6" y="124.3" class="st2" width="0.7" height="68.4"/>
		</g>
		<g>
			
				<rect x="176.5" y="155.4" transform="matrix(0.7071 -0.7071 0.7071 0.7071 -58.8363 171.8826)" class="st2" width="3" height="3"/>
		</g>
		<g>
			<circle class="st2" cx="178.1" cy="124.4" r="1.3"/>
		</g>
		<g>
			<circle class="st2" cx="178.1" cy="192.8" r="1.3"/>
		</g>
	</g>
	<g>
		<rect x="213.7" y="144.9" class="st3" width="8.5" height="64.1"/>
		<g>
			<g>
				<rect x="213.7" y="206.6" class="st10" width="2.4" height="0.6"/>
				<rect x="213.7" y="202.3" class="st10" width="2.4" height="0.6"/>
				<rect x="213.7" y="198" class="st10" width="2.4" height="0.6"/>
				<rect x="213.7" y="193.7" class="st10" width="2.4" height="0.6"/>
				<rect x="213.7" y="189.5" class="st10" width="2.4" height="0.6"/>
				<rect x="213.7" y="185.2" class="st10" width="2.4" height="0.6"/>
				<rect x="213.7" y="180.9" class="st10" width="2.4" height="0.6"/>
				<rect x="213.7" y="176.6" class="st10" width="2.4" height="0.6"/>
				<rect x="213.7" y="172.3" class="st10" width="2.4" height="0.6"/>
				<rect x="213.7" y="168.1" class="st10" width="2.4" height="0.6"/>
				<rect x="213.7" y="163.8" class="st10" width="2.4" height="0.6"/>
				<rect x="213.7" y="157.4" class="st10" width="2.4" height="0.6"/>
				<rect x="213.7" y="153.1" class="st10" width="2.4" height="0.6"/>
				<rect x="213.7" y="148.8" class="st10" width="2.4" height="0.6"/>
			</g>
			<g>
				<rect x="213.7" y="204.4" class="st10" width="1.2" height="0.6"/>
				<rect x="213.7" y="200.1" class="st10" width="1.2" height="0.6"/>
				<rect x="213.7" y="195.9" class="st10" width="1.2" height="0.6"/>
				<rect x="213.7" y="191.6" class="st10" width="1.2" height="0.6"/>
				<rect x="213.7" y="187.3" class="st10" width="1.2" height="0.6"/>
				<rect x="213.7" y="183" class="st10" width="1.3" height="0.6"/>
				<rect x="213.7" y="178.8" class="st10" width="1.2" height="0.6"/>
				<rect x="213.7" y="174.5" class="st10" width="1.2" height="0.6"/>
				<rect x="213.7" y="170.2" class="st10" width="1.2" height="0.6"/>
				<rect x="213.7" y="165.9" class="st10" width="1.2" height="0.6"/>
				<rect x="213.7" y="161.7" class="st10" width="1.2" height="0.6"/>
				<rect x="213.7" y="159.5" class="st10" width="1.2" height="0.6"/>
				<rect x="213.7" y="155.2" class="st10" width="1.2" height="0.6"/>
				<rect x="213.7" y="151" class="st10" width="1.2" height="0.6"/>
				<rect x="213.7" y="146.7" class="st10" width="1.2" height="0.6"/>
			</g>
		</g>
	</g>
	<g>
		<rect x="200.7" y="166.7" class="st10" width="8.8" height="36.3"/>
		<rect x="201.8" y="206.8" class="st10" width="6.6" height="2.2"/>
		<rect x="201.8" y="160.7" class="st10" width="6.6" height="2.2"/>
		<rect x="202.9" y="156.3" class="st4" width="4.4" height="4.4"/>
		<polygon class="st10" points="204,156.3 204,153.4 206.2,152.7 206.2,156.3 		"/>
		<rect x="200.7" y="162.9" class="st4" width="8.8" height="3.8"/>
		<path class="st4" d="M209.5,203h-8.8v2.7c0,0.3,0.1,0.6,0.3,0.8c0.2,0.2,0.5,0.3,0.8,0.3h6.6c0.3,0,0.6-0.1,0.8-0.3
			c0.2-0.2,0.3-0.5,0.3-0.8V203z"/>
		<rect x="204.5" y="184.9" class="st3" width="1.2" height="18.2"/>
	</g>
	<g>
		<path class="st10" d="M76.8,91.9l-0.7,2.5h-2.3l3-9.8h2.9l3,9.8h-2.4l-0.8-2.5H76.8z M79.2,90.2l-0.6-2.1
			c-0.2-0.6-0.3-1.3-0.5-1.9h0c-0.1,0.6-0.3,1.3-0.5,1.9l-0.6,2.1H79.2z"/>
		<path class="st10" d="M88,94.4l-0.1-0.7h0c-0.5,0.6-1.2,0.9-2,0.9c-1.4,0-2.3-1-2.3-2.2c0-1.8,1.7-2.7,4.2-2.7v-0.1
			c0-0.4-0.2-0.9-1.3-0.9c-0.7,0-1.5,0.2-2,0.5L84,87.8c0.5-0.3,1.5-0.6,2.8-0.6c2.4,0,3.1,1.4,3.1,3.1v2.5c0,0.7,0,1.3,0.1,1.7H88z
			 M87.7,91.1c-1.2,0-2.1,0.3-2.1,1.1c0,0.6,0.4,0.8,0.9,0.8c0.6,0,1-0.4,1.1-0.8c0-0.1,0-0.2,0-0.4V91.1z"/>
	</g>
	<rect x="93.5" y="80.3" class="st11" width="0.9" height="17.3"/>
	<g>
		<polygon class="st3" points="223.7,119.3 213,115.8 202.4,112.3 205.8,123 209.3,133.7 213,126.4 218.7,132.1 222.1,128.7 
			216.4,123 		"/>
		<g>
			<polygon class="st4" points="213,115.8 202.4,112.3 202.5,112.7 220.3,130.5 222.1,128.7 216.4,123 223.7,119.3 			"/>
		</g>
	</g>
</g>
</svg>
