<?xml version="1.0" encoding="utf-8"?>
<!-- Generator: Adobe Illustrator 25.3.0, SVG Export Plug-In . SVG Version: 6.00 Build 0)  -->
<svg version="1.1" id="Layer_1" xmlns="http://www.w3.org/2000/svg" xmlns:xlink="http://www.w3.org/1999/xlink" x="0px" y="0px"
	 viewBox="0 0 250 230" style="enable-background:new 0 0 250 230;" xml:space="preserve">
<style type="text/css">
	.st0{fill:#00313C;}
	.st1{fill:#70C6AE;}
	.st2{fill:#FFFFFF;}
	.st3{fill:#FF671D;}
	.st4{fill:#FF806D;}
	.st5{opacity:0.5;fill:#AADDCE;}
</style>
<g>
	<g>
		<path class="st0" d="M21,211v-25.5c0-1.2,1-2.2,2.2-2.2h48.5c1.2,0,2.2,1,2.2,2.2V211c0,1.2-1,2.2-2.2,2.2H23.2
			C22,213.3,21,212.3,21,211z"/>
		
			<rect x="37.8" y="180.7" transform="matrix(-1.836970e-16 1 -1 -1.836970e-16 248.6199 147.9656)" class="st1" width="25.1" height="35.1"/>
		<g>
			<path class="st2" d="M66.7,209.6H34V187h32.7V209.6z M34.1,209.4h32.5v-22.2H34.1V209.4z"/>
			<rect x="34.1" y="207.9" class="st2" width="32.5" height="0.1"/>
			<rect x="34.1" y="188.8" class="st2" width="32.5" height="0.1"/>
			<rect x="34.1" y="191.2" class="st2" width="32.5" height="0.1"/>
			<rect x="34.1" y="193.6" class="st2" width="32.5" height="0.1"/>
			<rect x="34.1" y="196" class="st2" width="32.5" height="0.1"/>
			<rect x="34.1" y="198.4" class="st2" width="32.5" height="0.1"/>
			<rect x="34.1" y="200.8" class="st2" width="32.5" height="0.1"/>
			<rect x="34.1" y="203.1" class="st2" width="32.5" height="0.1"/>
			<rect x="34.1" y="205.5" class="st2" width="32.5" height="0.1"/>
		</g>
		<rect x="61.2" y="204.6" class="st3" width="3.5" height="4.8"/>
		<rect x="38.2" y="204.6" class="st3" width="3.5" height="4.8"/>
		<rect x="42.5" y="195.1" class="st3" width="3.5" height="14.4"/>
		<rect x="47.2" y="199.3" class="st3" width="3.5" height="10.1"/>
		<rect x="56.6" y="202" class="st3" width="3.5" height="7.5"/>
		<rect x="52.1" y="198.2" class="st3" width="3.5" height="11.2"/>
		<circle class="st2" cx="26.3" cy="198.5" r="1.7"/>
		<path class="st2" d="M26.3,201.3c-1.5,0-2.8-1.2-2.8-2.8c0-1.5,1.2-2.8,2.8-2.8s2.8,1.2,2.8,2.8C29,200,27.8,201.3,26.3,201.3z
			 M26.3,196c-1.4,0-2.5,1.1-2.5,2.5s1.1,2.5,2.5,2.5s2.5-1.1,2.5-2.5S27.6,196,26.3,196z"/>
		<path class="st2" d="M70.6,200.8h0.2c0.2,0,0.3-0.1,0.3-0.3v-3.4c0-0.2-0.1-0.3-0.3-0.3h-0.2c-0.2,0-0.3,0.1-0.3,0.3v3.4
			C70.3,200.6,70.4,200.8,70.6,200.8z"/>
		<circle class="st4" cx="70.7" cy="196" r="0.4"/>
		<g>
			<path class="st0" d="M34.5,198.5c-0.2,0-0.4-0.2-0.4-0.4c0-0.2,0.2-0.4,0.4-0.4c5.2,0,9.5-4.3,9.5-9.5c0-0.2,0.2-0.4,0.4-0.4
				s0.4,0.2,0.4,0.4C44.9,193.8,40.2,198.5,34.5,198.5z"/>
		</g>
	</g>
	<polygon class="st2" points="55.7,149.2 55.7,153.2 59.1,155.1 62.5,153.2 62.5,149.2 59.1,147.3 	"/>
	<rect x="52.7" y="173.6" class="st3" width="12.9" height="9.8"/>
	<path class="st0" d="M52.7,172.5v-10.3c0-3.5,2.9-6.4,6.4-6.4h0c3.5,0,6.4,2.9,6.4,6.4v10.3"/>
	<rect x="36.1" y="175.7" class="st2" width="2.7" height="7.8"/>
	<rect x="33.5" y="165.8" transform="matrix(0.7071 -0.7071 0.7071 0.7071 -109.0549 76.2151)" class="st3" width="8" height="8"/>
	<circle class="st2" cx="37.4" cy="161.3" r="1.8"/>
	<g>
		<circle class="st3" cx="211" cy="201.6" r="15.8"/>
		<path class="st0" d="M218.2,184.5h-14.3c-2,0-3.7-1.7-3.7-3.7V179c0-2,1.7-3.7,3.7-3.7h14.3c2,0,3.7,1.7,3.7,3.7v1.8
			C221.9,182.9,220.2,184.5,218.2,184.5z"/>
		<polygon class="st3" points="212.1,162.6 217.6,158 210.9,155.5 		"/>
		<path class="st2" d="M216,166c0.3,0.7,0.5,1.5,0.5,2.3c0,3.2-2.6,5.9-5.9,5.9s-5.9-2.6-5.9-5.9c0-0.8,0.2-1.6,0.5-2.3"/>
		<path class="st0" d="M205.2,166.1c0.9-2.1,3-3.6,5.4-3.6c2.4,0,4.5,1.4,5.4,3.5"/>
		<g>
			<path class="st2" d="M220.2,193.5l-2.5,2.5c1.2,1.6,2,3.5,2,5.6c0,5-4,9-9,9c-2.1,0-4.1-0.7-5.6-2l-2.5,2.5l-1.4-1.4l2.5-2.5
				c-1.2-1.5-2-3.5-2-5.6c0-5,4-9,9-9c2.1,0,4.1,0.7,5.6,2l2.5-2.5L220.2,193.5z M205.1,206l9.9-9.9c-1.2-0.9-2.7-1.5-4.3-1.5
				c-3.9,0-7,3.2-7,7C203.7,203.3,204.2,204.8,205.1,206z M217.7,201.7c0-1.6-0.6-3.1-1.5-4.3l-9.9,9.9c1.2,0.9,2.7,1.4,4.3,1.4
				C214.6,208.7,217.7,205.6,217.7,201.7z"/>
		</g>
	</g>
	<g>
		<circle class="st3" cx="228.4" cy="121.4" r="2"/>
	</g>
	<g>
		<circle class="st3" cx="193.9" cy="150.7" r="1.8"/>
	</g>
	<g>
		<circle class="st3" cx="200.7" cy="130.4" r="1.8"/>
	</g>
	<g>
		<path class="st2" d="M196.9,118.1l1.3,1.8h-1.1l-0.8-1.1l-0.8,1.1h-1.1l1.3-1.8l-1.2-1.7h1.1l0.8,1.1l0.7-1.1h1.1L196.9,118.1z"/>
	</g>
	<g>
		<path class="st2" d="M204.9,141.2l1.3,1.8H205l-0.8-1.1l-0.8,1.1h-1.1l1.3-1.8l-1.2-1.7h1.1l0.8,1.1l0.7-1.1h1.1L204.9,141.2z"/>
	</g>
	<g>
		<path class="st2" d="M222,136.1l1.3,1.8h-1.1l-0.8-1.1l-0.8,1.1h-1.1l1.3-1.8l-1.2-1.7h1.1l0.8,1.1l0.7-1.1h1.1L222,136.1z"/>
	</g>
	<g>
		<path class="st2" d="M177,123.7l1.3,1.8h-1.1l-0.8-1.1l-0.8,1.1h-1.1l1.3-1.8l-1.2-1.7h1.1l0.8,1.1l0.7-1.1h1.1L177,123.7z"/>
	</g>
	<g>
		<path class="st0" d="M203.4,128c-0.1,0-0.3-0.1-0.3-0.2c-0.2-0.2-0.1-0.5,0.1-0.6c4.6-3.8,10.5-5.9,16.5-5.9
			c0.2,0,0.4,0.2,0.4,0.4c0,0.2-0.2,0.4-0.4,0.4c-5.8,0-11.5,2-16,5.7C203.6,127.9,203.5,128,203.4,128z"/>
		<path class="st0" d="M194.1,147.7c-0.2,0-0.4-0.2-0.4-0.4c0-5,1.4-9.8,4.1-14c0.1-0.2,0.4-0.3,0.6-0.1c0.2,0.1,0.3,0.4,0.1,0.6
			c-2.6,4-4,8.7-4,13.5C194.5,147.5,194.3,147.7,194.1,147.7z"/>
	</g>
	<polygon class="st3" points="222.8,121.6 219.2,119.5 219.2,123.6 	"/>
	<rect x="45.5" y="80.5" class="st5" width="104.4" height="45.1"/>
	<path class="st2" d="M146.3,118.2H52.5c-0.4,0-0.7-0.3-0.7-0.7s0.3-0.7,0.7-0.7h93.8c0.4,0,0.7,0.3,0.7,0.7
		S146.7,118.2,146.3,118.2z"/>
	<path class="st2" d="M146.3,88H52.5c-0.4,0-0.7-0.3-0.7-0.7s0.3-0.7,0.7-0.7h93.8c0.4,0,0.7,0.3,0.7,0.7S146.7,88,146.3,88z"/>
	<path class="st2" d="M146.3,103.1H52.5c-0.4,0-0.7-0.3-0.7-0.7s0.3-0.7,0.7-0.7h93.8c0.4,0,0.7,0.3,0.7,0.7
		S146.7,103.1,146.3,103.1z"/>
	<g>
		<circle class="st0" cx="135.8" cy="87.3" r="3.3"/>
	</g>
	<g>
		<circle class="st0" cx="86.5" cy="102.4" r="3.3"/>
	</g>
	<g>
		<circle class="st0" cx="68.9" cy="117.4" r="3.3"/>
	</g>
	<g>
		<g>
			<polygon class="st3" points="146,92.5 140.9,90.9 135.8,89.2 137.4,94.3 139.1,99.4 141.2,94.8 			"/>
		</g>
	</g>
	<path class="st0" d="M127.6,209.4c-28.4,0-51.5-23.1-51.5-51.5s23.1-51.5,51.5-51.5s51.5,23.1,51.5,51.5S156,209.4,127.6,209.4z"/>
	<path class="st3" d="M179.3,158.2h-51.6v-51.4C156,106.7,179.2,129.8,179.3,158.2z"/>
	<path class="st1" d="M127.6,122.8c19.4,0,35.2,15.8,35.2,35.2s-15.8,35.2-35.2,35.2S92.4,177.4,92.4,158S108.2,122.8,127.6,122.8
		 M127.6,121.3c-20.2,0-36.7,16.5-36.7,36.7s16.5,36.7,36.7,36.7s36.7-16.5,36.7-36.7S147.9,121.3,127.6,121.3L127.6,121.3z"/>
	<g>
		<circle class="st2" cx="128.8" cy="193.4" r="3.3"/>
	</g>
	<path class="st1" d="M127.6,139.9c10,0,18.1,8.1,18.1,18.1s-8.1,18.1-18.1,18.1s-18.1-8.1-18.1-18.1S117.7,139.9,127.6,139.9
		 M127.6,138.4c-10.8,0-19.5,8.8-19.5,19.5s8.8,19.5,19.5,19.5s19.5-8.8,19.5-19.5S138.4,138.4,127.6,138.4L127.6,138.4z"/>
	<path class="st1" d="M127.6,152.7c2.9,0,5.3,2.4,5.3,5.3s-2.4,5.3-5.3,5.3c-2.9,0-5.3-2.4-5.3-5.3S124.7,152.7,127.6,152.7
		 M127.6,151.2c-3.7,0-6.8,3-6.8,6.8s3,6.8,6.8,6.8s6.8-3,6.8-6.8S131.4,151.2,127.6,151.2L127.6,151.2z"/>
	<g>
		<circle class="st2" cx="145.9" cy="158.3" r="3.3"/>
	</g>
	<g>
		<circle class="st2" cx="122" cy="158.3" r="3.3"/>
	</g>
	<g>
		<polygon class="st0" points="204.7,112.5 171.4,74.5 75.9,74.5 22.4,39.3 41.6,10.1 86.3,39.6 187.3,39.6 231,89.5 		"/>
	</g>
	<polygon class="st2" points="217.4,101.3 182.5,58.4 79.3,57.6 79.1,57.5 31.7,25.7 32.2,24.9 79.5,56.7 182.9,57.5 183,57.7 
		218.1,100.8 	"/>
	<g>
		<g>
			<path class="st2" d="M59.3,47.3l7.5-1.9c0.5,2.1-0.8,4.2-2.8,4.7C61.9,50.7,59.8,49.4,59.3,47.3z"/>
		</g>
		<path class="st3" d="M59.3,47.3c-0.5-2.1,0.8-4.2,2.8-4.7s4.2,0.8,4.7,2.8L59.3,47.3z"/>
	</g>
	<g>
		<g>
			<path class="st2" d="M191.5,74.3l7.5-1.9c0.5,2.1-0.8,4.2-2.8,4.7S192,76.3,191.5,74.3z"/>
		</g>
		<path class="st3" d="M191.5,74.3c-0.5-2.1,0.8-4.2,2.8-4.7s4.2,0.8,4.7,2.8L191.5,74.3z"/>
	</g>
	<g>
		<circle class="st3" cx="132.4" cy="57.6" r="2"/>
	</g>
	<polygon class="st1" points="96.5,61.2 102.5,57.3 96.2,54 	"/>
	<rect x="164.7" y="55.2" transform="matrix(0.842 -0.5395 0.5395 0.842 -4.655 99.2572)" class="st1" width="4.8" height="4.8"/>
	<rect x="35.9" y="26.9" transform="matrix(0.8334 0.5527 -0.5527 0.8334 22.555 -16.299)" class="st1" width="4.8" height="4.8"/>
	<polygon class="st1" points="215.1,98.5 213.2,91.6 208.2,96.7 	"/>
	<g>
		<g>
			<g>
				<path class="st2" d="M173.1,29.3L173.1,29.3c-0.1,0.1-0.2,0.2-0.4,0.2c-0.1,0-0.2,0-0.2-0.1l-3-1.7c-0.2-0.1-0.3-0.4-0.2-0.6
					c0.1-0.2,0.4-0.3,0.6-0.2l3,1.7C173.2,28.9,173.2,29.1,173.1,29.3z"/>
			</g>
		</g>
		<g>
			<path class="st3" d="M168.3,12.5C168.3,12.4,168.3,12.4,168.3,12.5C168.3,12.4,168.3,12.4,168.3,12.5
				C168.3,12.4,168.3,12.4,168.3,12.5z"/>
		</g>
		<g>
			<g>
				<path class="st3" d="M168.3,12.2C168.3,12.1,168.3,12.1,168.3,12.2C168.3,12.1,168.3,12.1,168.3,12.2
					C168.3,12.2,168.3,12.2,168.3,12.2z"/>
				<path class="st0" d="M168.3,12.2C168.3,12.1,168.3,12.1,168.3,12.2C168.3,12.1,168.3,12.1,168.3,12.2
					C168.3,12.2,168.3,12.2,168.3,12.2z"/>
				<path class="st3" d="M168.5,11.8c-0.1,0-0.2-0.1-0.3-0.1c-0.2,0-0.4,0.1-0.5,0.3l-1.7,3c-0.1,0.3-0.1,0.6,0.2,0.7
					c0.1,0,0.2,0.1,0.3,0.1c0.2,0,0.4-0.1,0.5-0.3l1.7-3C168.8,12.3,168.7,12,168.5,11.8z M168.3,12.2
					C168.3,12.2,168.3,12.2,168.3,12.2C168.3,12.1,168.3,12.1,168.3,12.2C168.3,12.1,168.3,12.1,168.3,12.2z"/>
			</g>
		</g>
		<g>
			<g>
				<path class="st2" d="M173,17.3l-3,1.7c-0.1,0-0.2,0.1-0.3,0.1c-0.2,0-0.4-0.1-0.5-0.3c-0.1-0.3-0.1-0.6,0.2-0.7l3-1.7
					c0.1,0,0.2-0.1,0.3-0.1c0.2,0,0.4,0.1,0.5,0.3C173.3,16.8,173.3,17.1,173,17.3z"/>
			</g>
		</g>
		<g>
			<g>
				<path class="st3" d="M174.9,23c0,0.3-0.2,0.5-0.5,0.5h-3.5c-0.3,0-0.5-0.2-0.5-0.5c0-0.3,0.2-0.5,0.5-0.5h3.5
					C174.7,22.4,174.9,22.7,174.9,23z"/>
			</g>
		</g>
		<g>
			<g>
				<path class="st2" d="M154.7,27.9l-3,1.7c-0.1,0-0.2,0.1-0.3,0.1c-0.2,0-0.4-0.1-0.5-0.3c-0.1-0.3-0.1-0.6,0.2-0.7l3-1.7
					c0.1,0,0.2-0.1,0.3-0.1c0.2,0,0.4,0.1,0.5,0.3C155,27.4,154.9,27.7,154.7,27.9z"/>
			</g>
		</g>
		<g>
			<g>
				<path class="st3" d="M153.7,23c0,0.3-0.2,0.5-0.5,0.5h-3.5c-0.3,0-0.5-0.2-0.5-0.5c0-0.3,0.2-0.5,0.5-0.5h3.5
					C153.5,22.4,153.7,22.7,153.7,23z"/>
			</g>
		</g>
		<g>
			<g>
				<path class="st2" d="M154.9,18.8c-0.1,0.2-0.3,0.3-0.5,0.3c-0.1,0-0.2,0-0.3-0.1l-3-1.7c-0.3-0.1-0.3-0.5-0.2-0.7
					c0.1-0.2,0.3-0.3,0.5-0.3c0.1,0,0.2,0,0.3,0.1l3,1.7C154.9,18.2,155,18.6,154.9,18.8z"/>
			</g>
		</g>
		<g>
			<g>
				<path class="st3" d="M157.9,15.8c-0.1,0-0.2,0.1-0.3,0.1c-0.2,0-0.4-0.1-0.5-0.3l-1.7-3c-0.1-0.3-0.1-0.6,0.2-0.7
					c0.1,0,0.2-0.1,0.3-0.1c0.2,0,0.4,0.1,0.5,0.3l1.7,3C158.2,15.3,158.2,15.6,157.9,15.8z"/>
			</g>
		</g>
		<g>
			<g>
				<path class="st2" d="M162.6,10.6v3.5c0,0.3-0.2,0.5-0.5,0.5c-0.3,0-0.5-0.2-0.5-0.5v-3.5c0-0.3,0.2-0.5,0.5-0.5
					C162.4,10.1,162.6,10.4,162.6,10.6z"/>
			</g>
		</g>
		<rect x="158.9" y="31.7" class="st0" width="6.4" height="0.6"/>
		<rect x="158.9" y="32.7" class="st0" width="6.4" height="0.6"/>
		<rect x="158.9" y="33.7" class="st0" width="6.4" height="0.6"/>
		<rect x="158.9" y="34.6" class="st0" width="6.4" height="0.6"/>
		<g>
			<path class="st3" d="M165.8,28.9c-0.7,0.9-0.6,2.8-0.6,2.8h-6.4c0,0,0.1-1.9-0.6-2.8c-2.4-3.1-2.5-6-2.5-6.2
				c0-3.5,2.8-6.3,6.3-6.3s6.3,2.8,6.3,6.3C168.4,22.9,168.2,25.8,165.8,28.9z"/>
		</g>
		<g>
			<g>
				<g>
					<circle class="st3" cx="159.4" cy="23.6" r="1.1"/>
					<path class="st2" d="M159.4,22.4c0.6,0,1.1,0.5,1.1,1.1c0,0.6-0.5,1.1-1.1,1.1c-0.6,0-1.1-0.5-1.1-1.1
						C158.3,22.9,158.8,22.4,159.4,22.4 M159.4,21.8c-0.9,0-1.7,0.8-1.7,1.7s0.8,1.7,1.7,1.7c0.9,0,1.7-0.8,1.7-1.7
						S160.4,21.8,159.4,21.8L159.4,21.8z"/>
				</g>
			</g>
			<g>
				<g>
					<circle class="st3" cx="161.1" cy="23.6" r="1.1"/>
					<path class="st2" d="M161.1,22.4c0.6,0,1.1,0.5,1.1,1.1c0,0.6-0.5,1.1-1.1,1.1c-0.6,0-1.1-0.5-1.1-1.1
						C160,22.9,160.5,22.4,161.1,22.4 M161.1,21.8c-0.9,0-1.7,0.8-1.7,1.7s0.8,1.7,1.7,1.7c0.9,0,1.7-0.8,1.7-1.7
						S162.1,21.8,161.1,21.8L161.1,21.8z"/>
				</g>
			</g>
			<g>
				<g>
					<circle class="st3" cx="162.8" cy="23.6" r="1.1"/>
					<path class="st2" d="M162.8,22.4c0.6,0,1.1,0.5,1.1,1.1c0,0.6-0.5,1.1-1.1,1.1s-1.1-0.5-1.1-1.1
						C161.7,22.9,162.2,22.4,162.8,22.4 M162.8,21.8c-0.9,0-1.7,0.8-1.7,1.7s0.8,1.7,1.7,1.7c0.9,0,1.7-0.8,1.7-1.7
						S163.8,21.8,162.8,21.8L162.8,21.8z"/>
				</g>
			</g>
			<g>
				<g>
					<circle class="st3" cx="164.6" cy="23.6" r="1.1"/>
					<path class="st2" d="M164.6,22.4c0.6,0,1.1,0.5,1.1,1.1c0,0.6-0.5,1.1-1.1,1.1c-0.6,0-1.1-0.5-1.1-1.1
						C163.4,22.9,163.9,22.4,164.6,22.4 M164.6,21.8c-0.9,0-1.7,0.8-1.7,1.7s0.8,1.7,1.7,1.7s1.7-0.8,1.7-1.7S165.5,21.8,164.6,21.8
						L164.6,21.8z"/>
				</g>
			</g>
		</g>
		<g>
			<circle class="st2" cx="162" cy="37.5" r="2"/>
		</g>
	</g>
</g>
</svg>
