<?xml version="1.0" encoding="utf-8"?>
<!-- Generator: Adobe Illustrator 25.3.0, SVG Export Plug-In . SVG Version: 6.00 Build 0)  -->
<svg version="1.1" id="Layer_1" xmlns="http://www.w3.org/2000/svg" xmlns:xlink="http://www.w3.org/1999/xlink" x="0px" y="0px"
	 viewBox="0 0 250 230" style="enable-background:new 0 0 250 230;" xml:space="preserve">
<style type="text/css">
	.st0{opacity:0.6;fill:#FFFFFF;}
	.st1{fill:#FFFFFF;}
	.st2{fill:#36246B;}
	.st3{clip-path:url(#SVGID_2_);}
	.st4{fill:#002E6D;}
	.st5{fill:#F58674;}
	.st6{fill:#69D2C2;}
	.st7{fill:none;}
	.st8{font-family:'MyriadPro-Bold';}
	.st9{font-size:13.1606px;}
	.st10{opacity:0.13;}
	.st11{opacity:7.000000e-02;}
	.st12{opacity:0.55;}
	.st13{opacity:0.33;}
	.st14{opacity:0.3;fill:#002E6D;}
	.st15{opacity:0.4;fill:#002E6D;}
	.st16{opacity:0.5;fill:#002E6D;}
	.st17{opacity:0.25;fill:#FFFFFF;}
	.st18{fill:#2B266D;}
	.st19{fill:#70C6AE;}
	.st20{fill:#FFFFFF;fill-opacity:0.5;}
</style>
<g>
	
		<rect x="126.2" y="89.5" transform="matrix(1 1.694056e-03 -1.694056e-03 1 0.1802 -0.2652)" class="st0" width="60.9" height="33.5"/>
	
		<rect x="129.1" y="91.4" transform="matrix(1 1.694056e-03 -1.694056e-03 1 0.1793 -0.2357)" class="st1" width="20.2" height="28.6"/>
	<g>
		<path class="st2" d="M172.8,98.6l-13.7,0c-0.3,0-0.5-0.2-0.5-0.5l0-2.2c0-0.3,0.2-0.5,0.5-0.5l13.7,0c0.3,0,0.5,0.2,0.5,0.5l0,2.2
			C173.3,98.4,173.1,98.6,172.8,98.6z"/>
		<path class="st2" d="M181.2,98.6l-5.9,0c-0.3,0-0.5-0.2-0.5-0.5l0-2.2c0-0.3,0.2-0.5,0.5-0.5l5.9,0c0.3,0,0.5,0.2,0.5,0.5l0,2.2
			C181.7,98.4,181.5,98.6,181.2,98.6z"/>
		<path class="st2" d="M167.5,102.2l13.7,0c0.3,0,0.5,0.2,0.5,0.5l0,2.2c0,0.3-0.2,0.5-0.5,0.5l-13.7,0c-0.3,0-0.5-0.2-0.5-0.5
			l0-2.2C167,102.4,167.2,102.2,167.5,102.2z"/>
		<path class="st2" d="M159.1,102.2l5.9,0c0.3,0,0.5,0.2,0.5,0.5l0,2.2c0,0.3-0.2,0.5-0.5,0.5l-5.9,0c-0.3,0-0.5-0.2-0.5-0.5l0-2.2
			C158.7,102.4,158.9,102.2,159.1,102.2z"/>
		<path class="st1" d="M157.6,101.1L157.6,101.1l-2.7,0l0-8.3l2.7,0c0.1,0,0.1,0.1,0.1,0.1c0,0.1-0.1,0.1-0.1,0.1h0l-2.4,0l0,7.7
			l2.4,0c0.1,0,0.1,0.1,0.1,0.1C157.7,101,157.7,101.1,157.6,101.1z"/>
		<path class="st1" d="M184.3,108l-2.7,0c-0.1,0-0.1-0.1-0.1-0.1c0-0.1,0.1-0.1,0.1-0.1h0l2.4,0l0-7.7l-2.4,0
			c-0.1,0-0.1-0.1-0.1-0.1c0-0.1,0.1-0.1,0.1-0.1h0l2.7,0L184.3,108z"/>
	</g>
	<circle class="st2" cx="133.2" cy="94.5" r="1.7"/>
	<circle class="st2" cx="139.2" cy="94.5" r="1.7"/>
	<circle class="st2" cx="145.1" cy="94.5" r="1.7"/>
	
		<rect x="131.5" y="100.5" transform="matrix(1 1.694056e-03 -1.694056e-03 1 0.1719 -0.2241)" class="st2" width="1.7" height="1.7"/>
	
		<rect x="131.5" y="103.5" transform="matrix(1 1.694056e-03 -1.694056e-03 1 0.1769 -0.2241)" class="st2" width="1.7" height="1.7"/>
	<g>
		<defs>
			<path id="SVGID_1_" d="M124.4,203.5c-26.3,0-47.6-21.4-47.6-47.6s21.4-47.6,47.6-47.6s47.6,21.4,47.6,47.6
				S150.6,203.5,124.4,203.5z"/>
		</defs>
		<use xlink:href="#SVGID_1_"  style="overflow:visible;fill:#69D2C2;"/>
		<clipPath id="SVGID_2_">
			<use xlink:href="#SVGID_1_"  style="overflow:visible;"/>
		</clipPath>
		<g class="st3">
			<rect x="137.5" y="124" class="st1" width="1.7" height="1.7"/>
			<rect x="145.7" y="124" class="st1" width="1.7" height="1.7"/>
			<rect x="153.8" y="124" class="st1" width="1.7" height="1.7"/>
			<rect x="162" y="124" class="st1" width="1.7" height="1.7"/>
			<rect x="170.1" y="124" class="st1" width="1.7" height="1.7"/>
			<rect x="137.5" y="133.9" class="st1" width="1.7" height="1.7"/>
			<rect x="145.7" y="133.9" class="st1" width="1.7" height="1.7"/>
			<rect x="153.8" y="133.9" class="st1" width="1.7" height="1.7"/>
			<rect x="162" y="133.9" class="st1" width="1.7" height="1.7"/>
			<rect x="170.1" y="133.9" class="st1" width="1.7" height="1.7"/>
			<rect x="137.5" y="143.7" class="st1" width="1.7" height="1.7"/>
			<rect x="145.7" y="143.7" class="st1" width="1.7" height="1.7"/>
			<rect x="153.8" y="143.7" class="st1" width="1.7" height="1.7"/>
			<rect x="162" y="143.7" class="st1" width="1.7" height="1.7"/>
			<rect x="170.1" y="143.7" class="st1" width="1.7" height="1.7"/>
			<rect x="137.5" y="153.6" class="st1" width="1.7" height="1.7"/>
			<rect x="145.7" y="153.6" class="st1" width="1.7" height="1.7"/>
			<rect x="153.8" y="153.6" class="st1" width="1.7" height="1.7"/>
			<rect x="162" y="153.6" class="st1" width="1.7" height="1.7"/>
			<rect x="170.1" y="153.6" class="st1" width="1.7" height="1.7"/>
		</g>
		<g class="st3">
			<rect x="95.6" y="124" class="st1" width="1.7" height="1.7"/>
			<rect x="103.7" y="124" class="st1" width="1.7" height="1.7"/>
			<rect x="111.9" y="124" class="st1" width="1.7" height="1.7"/>
			<rect x="120" y="124" class="st1" width="1.7" height="1.7"/>
			<rect x="128.2" y="124" class="st1" width="1.7" height="1.7"/>
			<rect x="95.6" y="133.9" class="st1" width="1.7" height="1.7"/>
			<rect x="103.7" y="133.9" class="st1" width="1.7" height="1.7"/>
			<rect x="111.9" y="133.9" class="st1" width="1.7" height="1.7"/>
			<rect x="120" y="133.9" class="st1" width="1.7" height="1.7"/>
			<rect x="128.2" y="133.9" class="st1" width="1.7" height="1.7"/>
			<rect x="95.6" y="143.7" class="st1" width="1.7" height="1.7"/>
			<rect x="103.7" y="143.7" class="st1" width="1.7" height="1.7"/>
			<rect x="111.9" y="143.7" class="st1" width="1.7" height="1.7"/>
			<rect x="120" y="143.7" class="st1" width="1.7" height="1.7"/>
			<rect x="128.2" y="143.7" class="st1" width="1.7" height="1.7"/>
			<rect x="95.6" y="153.6" class="st1" width="1.7" height="1.7"/>
			<rect x="103.7" y="153.6" class="st1" width="1.7" height="1.7"/>
			<rect x="111.9" y="153.6" class="st1" width="1.7" height="1.7"/>
			<rect x="120" y="153.6" class="st1" width="1.7" height="1.7"/>
			<rect x="128.2" y="153.6" class="st1" width="1.7" height="1.7"/>
		</g>
		<g class="st3">
			<rect x="54.7" y="124" class="st1" width="1.7" height="1.7"/>
			<rect x="62.9" y="124" class="st1" width="1.7" height="1.7"/>
			<rect x="71" y="124" class="st1" width="1.7" height="1.7"/>
			<rect x="79.2" y="124" class="st1" width="1.7" height="1.7"/>
			<rect x="87.4" y="124" class="st1" width="1.7" height="1.7"/>
			<rect x="54.7" y="133.9" class="st1" width="1.7" height="1.7"/>
			<rect x="62.9" y="133.9" class="st1" width="1.7" height="1.7"/>
			<rect x="71" y="133.9" class="st1" width="1.7" height="1.7"/>
			<rect x="79.2" y="133.9" class="st1" width="1.7" height="1.7"/>
			<rect x="87.4" y="133.9" class="st1" width="1.7" height="1.7"/>
			<rect x="54.7" y="143.7" class="st1" width="1.7" height="1.7"/>
			<rect x="62.9" y="143.7" class="st1" width="1.7" height="1.7"/>
			<rect x="71" y="143.7" class="st1" width="1.7" height="1.7"/>
			<rect x="79.2" y="143.7" class="st1" width="1.7" height="1.7"/>
			<rect x="87.4" y="143.7" class="st1" width="1.7" height="1.7"/>
			<rect x="54.7" y="153.6" class="st1" width="1.7" height="1.7"/>
			<rect x="62.9" y="153.6" class="st1" width="1.7" height="1.7"/>
			<rect x="71" y="153.6" class="st1" width="1.7" height="1.7"/>
			<rect x="79.2" y="153.6" class="st1" width="1.7" height="1.7"/>
			<rect x="87.4" y="153.6" class="st1" width="1.7" height="1.7"/>
		</g>
		<g class="st3">
			<rect x="137.5" y="85.8" class="st1" width="1.7" height="1.7"/>
			<rect x="145.7" y="85.8" class="st1" width="1.7" height="1.7"/>
			<rect x="153.8" y="85.8" class="st1" width="1.7" height="1.7"/>
			<rect x="162" y="85.8" class="st1" width="1.7" height="1.7"/>
			<rect x="170.1" y="85.8" class="st1" width="1.7" height="1.7"/>
			<rect x="137.5" y="95.6" class="st1" width="1.7" height="1.7"/>
			<rect x="145.7" y="95.6" class="st1" width="1.7" height="1.7"/>
			<rect x="153.8" y="95.6" class="st1" width="1.7" height="1.7"/>
			<rect x="162" y="95.6" class="st1" width="1.7" height="1.7"/>
			<rect x="170.1" y="95.6" class="st1" width="1.7" height="1.7"/>
			<rect x="137.5" y="105.5" class="st1" width="1.7" height="1.7"/>
			<rect x="145.7" y="105.5" class="st1" width="1.7" height="1.7"/>
			<rect x="153.8" y="105.5" class="st1" width="1.7" height="1.7"/>
			<rect x="162" y="105.5" class="st1" width="1.7" height="1.7"/>
			<rect x="170.1" y="105.5" class="st1" width="1.7" height="1.7"/>
			<rect x="137.5" y="115.3" class="st1" width="1.7" height="1.7"/>
			<rect x="145.7" y="115.3" class="st1" width="1.7" height="1.7"/>
			<rect x="153.8" y="115.3" class="st1" width="1.7" height="1.7"/>
			<rect x="162" y="115.3" class="st1" width="1.7" height="1.7"/>
			<rect x="170.1" y="115.3" class="st1" width="1.7" height="1.7"/>
		</g>
		<g class="st3">
			<rect x="95.6" y="85.8" class="st1" width="1.7" height="1.7"/>
			<rect x="103.7" y="85.8" class="st1" width="1.7" height="1.7"/>
			<rect x="111.9" y="85.8" class="st1" width="1.7" height="1.7"/>
			<rect x="120" y="85.8" class="st1" width="1.7" height="1.7"/>
			<rect x="128.2" y="85.8" class="st1" width="1.7" height="1.7"/>
			<rect x="95.6" y="95.6" class="st1" width="1.7" height="1.7"/>
			<rect x="103.7" y="95.6" class="st1" width="1.7" height="1.7"/>
			<rect x="111.9" y="95.6" class="st1" width="1.7" height="1.7"/>
			<rect x="120" y="95.6" class="st1" width="1.7" height="1.7"/>
			<rect x="128.2" y="95.6" class="st1" width="1.7" height="1.7"/>
			<rect x="95.6" y="105.5" class="st1" width="1.7" height="1.7"/>
			<rect x="103.7" y="105.5" class="st1" width="1.7" height="1.7"/>
			<rect x="111.9" y="105.5" class="st1" width="1.7" height="1.7"/>
			<rect x="120" y="105.5" class="st1" width="1.7" height="1.7"/>
			<rect x="128.2" y="105.5" class="st1" width="1.7" height="1.7"/>
			<rect x="95.6" y="115.3" class="st1" width="1.7" height="1.7"/>
			<rect x="103.7" y="115.3" class="st1" width="1.7" height="1.7"/>
			<rect x="111.9" y="115.3" class="st1" width="1.7" height="1.7"/>
			<rect x="120" y="115.3" class="st1" width="1.7" height="1.7"/>
			<rect x="128.2" y="115.3" class="st1" width="1.7" height="1.7"/>
		</g>
		<g class="st3">
			<rect x="54.7" y="85.8" class="st1" width="1.7" height="1.7"/>
			<rect x="62.9" y="85.8" class="st1" width="1.7" height="1.7"/>
			<rect x="71" y="85.8" class="st1" width="1.7" height="1.7"/>
			<rect x="79.2" y="85.8" class="st1" width="1.7" height="1.7"/>
			<rect x="87.4" y="85.8" class="st1" width="1.7" height="1.7"/>
			<rect x="54.7" y="95.6" class="st1" width="1.7" height="1.7"/>
			<rect x="62.9" y="95.6" class="st1" width="1.7" height="1.7"/>
			<rect x="71" y="95.6" class="st1" width="1.7" height="1.7"/>
			<rect x="79.2" y="95.6" class="st1" width="1.7" height="1.7"/>
			<rect x="87.4" y="95.6" class="st1" width="1.7" height="1.7"/>
			<rect x="54.7" y="105.5" class="st1" width="1.7" height="1.7"/>
			<rect x="62.9" y="105.5" class="st1" width="1.7" height="1.7"/>
			<rect x="71" y="105.5" class="st1" width="1.7" height="1.7"/>
			<rect x="79.2" y="105.5" class="st1" width="1.7" height="1.7"/>
			<rect x="87.4" y="105.5" class="st1" width="1.7" height="1.7"/>
			<rect x="54.7" y="115.3" class="st1" width="1.7" height="1.7"/>
			<rect x="62.9" y="115.3" class="st1" width="1.7" height="1.7"/>
			<rect x="71" y="115.3" class="st1" width="1.7" height="1.7"/>
			<rect x="79.2" y="115.3" class="st1" width="1.7" height="1.7"/>
			<rect x="87.4" y="115.3" class="st1" width="1.7" height="1.7"/>
		</g>
	</g>
	<path class="st4" d="M172,156c-0.1,26.2-21.4,47.5-47.6,47.5c-26.2,0-47.5-21.3-47.6-47.5H172z"/>
	<path class="st4" d="M144.2,155.9h-39.7c0.1-10.8,9-19.6,19.8-19.6C135.2,136.2,144.1,145,144.2,155.9z"/>
	<path class="st5" d="M104.5,155.9h39.7c-0.1,10.8-9,19.6-19.8,19.6C113.5,175.5,104.6,166.7,104.5,155.9z"/>
	<path class="st1" d="M109.8,155.7h-2.7c0-9.5,7.7-17.3,17.3-17.3v2.7C116.3,141.2,109.8,147.7,109.8,155.7z"/>
	<path class="st6" d="M124.4,173.2v-3c7.9,0,14.4-6.5,14.4-14.4h3C141.8,165.4,134,173.2,124.4,173.2z"/>
	<path class="st6" d="M132.8,155.7c0-4.7-3.8-8.5-8.5-8.5c-4.7,0-8.5,3.8-8.5,8.5"/>
	<path class="st4" d="M115.9,155.7c0,4.7,3.8,8.5,8.5,8.5c4.7,0,8.5-3.8,8.5-8.5"/>
	<path class="st1" d="M182.3,126.8c-0.1,0-0.1,0-0.2,0c-0.3-0.1-0.4-0.4-0.3-0.7l3.3-8.7c0.1-0.3,0.4-0.4,0.7-0.3
		c0.3,0.1,0.4,0.4,0.3,0.7l-3.3,8.7C182.7,126.6,182.5,126.8,182.3,126.8z"/>
	<path class="st1" d="M189.1,126.4c-0.1,0-0.3-0.1-0.4-0.2c-0.2-0.2-0.2-0.6,0-0.8l3.6-3.6l-3.7-3.7c-0.2-0.2-0.2-0.6,0-0.8
		c0.2-0.2,0.6-0.2,0.8,0l4.4,4.4l-4.3,4.3C189.4,126.4,189.3,126.4,189.1,126.4z"/>
	<path class="st1" d="M171.2,126.4c-0.1,0-0.3-0.1-0.4-0.2l-4.4-4.4l4.3-4.3c0.2-0.2,0.6-0.2,0.8,0c0.2,0.2,0.2,0.6,0,0.8l-3.6,3.6
		l3.7,3.7c0.2,0.2,0.2,0.6,0,0.8C171.5,126.4,171.4,126.4,171.2,126.4z"/>
	<rect x="173.4" y="117" class="st7" width="11.8" height="11.9"/>
	<text transform="matrix(1 0 0 1 173.3701 126.3418)" class="st1 st8 st9">#</text>
	<polygon class="st4" points="24.3,39.1 24.3,50.1 24.3,50.1 24.3,93.1 53.7,93.1 53.7,68 195,68 195,93.1 224.5,93.1 224.5,68 
		224.5,50.1 224.5,39.1 	"/>
	<g>
		<g class="st10">
			<rect x="25.3" y="49.3" class="st1" width="4.9" height="4.9"/>
			<path class="st4" d="M30.4,54.4h-5.2v-5.2h5.2V54.4z M25.5,54.1h4.7v-4.7h-4.7V54.1z"/>
		</g>
		<g class="st11">
			<rect x="25.3" y="55.2" class="st1" width="4.9" height="4.9"/>
			<path class="st4" d="M30.4,60.2h-5.2V55h5.2V60.2z M25.5,60h4.7v-4.7h-4.7V60z"/>
		</g>
		<g class="st10">
			<rect x="25.3" y="60.8" class="st1" width="4.9" height="4.9"/>
			<path class="st4" d="M30.4,65.9h-5.2v-5.2h5.2V65.9z M25.5,65.6h4.7v-4.7h-4.7V65.6z"/>
		</g>
		<g class="st10">
			<rect x="25.3" y="43.6" class="st1" width="4.9" height="4.9"/>
			<path class="st4" d="M30.4,48.6h-5.2v-5.2h5.2V48.6z M25.5,48.4h4.7v-4.7h-4.7V48.4z"/>
		</g>
		<g class="st11">
			<rect x="25.3" y="84.4" class="st1" width="4.9" height="4.9"/>
			<path class="st4" d="M30.4,89.4h-5.2v-5.2h5.2V89.4z M25.5,89.2h4.7v-4.7h-4.7V89.2z"/>
		</g>
		<g class="st10">
			<rect x="25.3" y="66.8" class="st1" width="4.9" height="4.9"/>
			<path class="st4" d="M30.4,71.9h-5.2v-5.2h5.2V71.9z M25.5,71.6h4.7V67h-4.7V71.6z"/>
		</g>
		<g class="st10">
			<rect x="25.3" y="72.7" class="st1" width="4.9" height="4.9"/>
			<path class="st4" d="M30.4,77.8h-5.2v-5.2h5.2V77.8z M25.5,77.5h4.7v-4.7h-4.7V77.5z"/>
		</g>
		<g class="st11">
			<rect x="25.3" y="78.5" class="st1" width="4.9" height="4.9"/>
			<path class="st4" d="M30.4,83.6h-5.2v-5.2h5.2V83.6z M25.5,83.3h4.7v-4.7h-4.7V83.3z"/>
		</g>
		<g class="st12">
			<rect x="31.2" y="43.5" class="st1" width="4.9" height="4.9"/>
			<path class="st4" d="M36.3,48.6h-5.2v-5.2h5.2V48.6z M31.4,48.3H36v-4.7h-4.7V48.3z"/>
		</g>
		<g class="st10">
			<rect x="31.2" y="49.3" class="st1" width="4.9" height="4.9"/>
			<path class="st4" d="M36.3,54.4h-5.2v-5.2h5.2V54.4z M31.4,54.1H36v-4.7h-4.7V54.1z"/>
		</g>
		<g class="st10">
			<rect x="31.2" y="55.2" class="st1" width="4.9" height="4.9"/>
			<path class="st4" d="M36.3,60.2h-5.2V55h5.2V60.2z M31.4,60H36v-4.7h-4.7V60z"/>
		</g>
		<g class="st12">
			<rect x="31.2" y="66.8" class="st1" width="4.9" height="4.9"/>
			<path class="st4" d="M36.3,71.9h-5.2v-5.2h5.2V71.9z M31.4,71.6H36V67h-4.7V71.6z"/>
		</g>
		<g class="st12">
			<rect x="31.2" y="72.7" class="st1" width="4.9" height="4.9"/>
			<path class="st4" d="M36.3,77.8h-5.2v-5.2h5.2V77.8z M31.4,77.5H36v-4.7h-4.7V77.5z"/>
		</g>
		<g class="st12">
			<rect x="31.2" y="78.5" class="st1" width="4.9" height="4.9"/>
			<path class="st4" d="M36.3,83.6h-5.2v-5.2h5.2V83.6z M31.4,83.3H36v-4.7h-4.7V83.3z"/>
		</g>
		<g class="st10">
			<rect x="31.2" y="84.4" class="st1" width="4.9" height="4.9"/>
			<path class="st4" d="M36.3,89.4h-5.2v-5.2h5.2V89.4z M31.4,89.2H36v-4.7h-4.7V89.2z"/>
		</g>
		<g class="st12">
			<rect x="37.1" y="49.3" class="st1" width="4.9" height="4.9"/>
			<path class="st4" d="M42.2,54.4H37v-5.2h5.2V54.4z M37.3,54.1h4.7v-4.7h-4.7V54.1z"/>
		</g>
		<g class="st10">
			<rect x="37.1" y="55.2" class="st1" width="4.9" height="4.9"/>
			<path class="st4" d="M42.2,60.2H37V55h5.2V60.2z M37.3,60h4.7v-4.7h-4.7V60z"/>
		</g>
		<g class="st10">
			<rect x="37.1" y="61" class="st1" width="4.9" height="4.9"/>
			<path class="st4" d="M42.2,66.1H37v-5.2h5.2V66.1z M37.3,65.8h4.7v-4.7h-4.7V65.8z"/>
		</g>
		<g class="st10">
			<rect x="37.1" y="72.7" class="st1" width="4.9" height="4.9"/>
			<path class="st4" d="M42.2,77.8H37v-5.2h5.2V77.8z M37.3,77.5h4.7v-4.7h-4.7V77.5z"/>
		</g>
		<g class="st12">
			<rect x="37.1" y="78.5" class="st1" width="4.9" height="4.9"/>
			<path class="st4" d="M42.2,83.6H37v-5.2h5.2V83.6z M37.3,83.3h4.7v-4.7h-4.7V83.3z"/>
		</g>
		<g class="st10">
			<rect x="37.1" y="84.4" class="st1" width="4.9" height="4.9"/>
			<path class="st4" d="M42.2,89.4H37v-5.2h5.2V89.4z M37.3,89.2h4.7v-4.7h-4.7V89.2z"/>
		</g>
		<g class="st10">
			<rect x="43" y="43.5" class="st1" width="4.9" height="4.9"/>
			<path class="st4" d="M48.1,48.6h-5.2v-5.2h5.2V48.6z M43.2,48.3h4.7v-4.7h-4.7V48.3z"/>
		</g>
		<g class="st10">
			<rect x="43" y="49.3" class="st1" width="4.9" height="4.9"/>
			<path class="st4" d="M48.1,54.4h-5.2v-5.2h5.2V54.4z M43.2,54.1h4.7v-4.7h-4.7V54.1z"/>
		</g>
		<g class="st10">
			<rect x="55.8" y="49.3" class="st1" width="4.9" height="4.9"/>
			<path class="st4" d="M60.8,54.4h-5.2v-5.2h5.2V54.4z M55.9,54.1h4.7v-4.7h-4.7V54.1z"/>
		</g>
		<g class="st10">
			<rect x="61" y="55.3" class="st1" width="4.9" height="4.9"/>
			<path class="st4" d="M66.1,60.4h-5.2v-5.2h5.2V60.4z M61.1,60.1h4.7v-4.7h-4.7V60.1z"/>
		</g>
		<g class="st10">
			<rect x="43" y="55.2" class="st1" width="4.9" height="4.9"/>
			<path class="st4" d="M48.1,60.2h-5.2V55h5.2V60.2z M43.2,60h4.7v-4.7h-4.7V60z"/>
		</g>
		<g class="st10">
			<rect x="49.8" y="55.2" class="st1" width="4.9" height="4.9"/>
			<path class="st4" d="M54.9,60.2h-5.2V55h5.2V60.2z M49.9,60h4.7v-4.7h-4.7V60z"/>
		</g>
		<g class="st11">
			<rect x="43" y="61" class="st1" width="4.9" height="4.9"/>
			<path class="st4" d="M48.1,66.1h-5.2v-5.2h5.2V66.1z M43.2,65.8h4.7v-4.7h-4.7V65.8z"/>
		</g>
		<g class="st10">
			<rect x="43" y="66.8" class="st1" width="4.9" height="4.9"/>
			<path class="st4" d="M48.1,71.9h-5.2v-5.2h5.2V71.9z M43.2,71.6h4.7V67h-4.7V71.6z"/>
		</g>
		<g class="st13">
			<rect x="43" y="72.7" class="st1" width="4.9" height="4.9"/>
			<path class="st4" d="M48.1,77.8h-5.2v-5.2h5.2V77.8z M43.2,77.5h4.7v-4.7h-4.7V77.5z"/>
		</g>
		<g class="st13">
			<rect x="43" y="78.5" class="st1" width="4.9" height="4.9"/>
			<path class="st4" d="M48.1,83.6h-5.2v-5.2h5.2V83.6z M43.2,83.3h4.7v-4.7h-4.7V83.3z"/>
		</g>
		<g class="st10">
			<rect x="43" y="84.4" class="st1" width="4.9" height="4.9"/>
			<path class="st4" d="M48.1,89.4h-5.2v-5.2h5.2V89.4z M43.2,89.2h4.7v-4.7h-4.7V89.2z"/>
		</g>
	</g>
	<g>
		<rect x="61.6" y="76.5" class="st4" width="125.3" height="1.4"/>
		<g>
			<rect x="186.2" y="72.7" class="st4" width="1.4" height="8.9"/>
		</g>
		<g>
			<rect x="60.9" y="72.7" class="st4" width="1.4" height="8.9"/>
		</g>
	</g>
	<rect x="176.5" y="191.8" class="st4" width="46.5" height="9.6"/>
	<rect x="171.1" y="207.5" class="st4" width="56.9" height="2.7"/>
	<rect x="176.5" y="156.3" class="st4" width="46.5" height="34.2"/>
	<rect x="181.5" y="159.9" class="st6" width="36.6" height="26.9"/>
	<rect x="173.8" y="202.8" class="st4" width="6.4" height="3.6"/>
	<rect x="181.1" y="204.6" class="st4" width="6.4" height="1.8"/>
	<rect x="188.4" y="202.8" class="st4" width="6.4" height="3.6"/>
	<rect x="195.7" y="202.8" class="st4" width="6.4" height="3.6"/>
	<rect x="202.9" y="202.8" class="st4" width="6.4" height="3.6"/>
	<rect x="210.2" y="202.8" class="st4" width="6.4" height="3.6"/>
	<rect x="217.5" y="202.8" class="st4" width="6.4" height="3.6"/>
	<circle class="st1" cx="217.5" cy="196.4" r="2.4"/>
	<path class="st1" d="M209.4,198.9c-1.3,0-2.3-1-2.3-2.3c0-1.3,1-2.3,2.3-2.3c1.3,0,2.3,1,2.3,2.3
		C211.8,197.9,210.7,198.9,209.4,198.9z M209.4,195.1c-0.8,0-1.5,0.7-1.5,1.5c0,0.8,0.7,1.5,1.5,1.5s1.5-0.7,1.5-1.5
		C211,195.7,210.3,195.1,209.4,195.1z"/>
	<g>
		<g>
			<path class="st14" d="M215.9,171.1c0,4.2-3.4,7.5-7.5,7.5v-7.5H215.9z"/>
			<path class="st4" d="M208.4,163.6c4.2,0,7.5,3.4,7.5,7.5h-7.5V163.6z"/>
			<path class="st15" d="M208.4,178.6c-4.2,0-7.5-3.4-7.5-7.5h7.5V178.6z"/>
			<path class="st16" d="M208.4,163.6v7.5h-7.5C200.8,166.9,204.2,163.6,208.4,163.6z"/>
		</g>
		
			<rect x="184.1" y="164.3" transform="matrix(-1 -1.224647e-16 1.224647e-16 -1 381.3944 331.2158)" class="st17" width="13.3" height="2.5"/>
		
			<rect x="179.5" y="164.3" transform="matrix(-1 -1.224647e-16 1.224647e-16 -1 361.8166 331.2158)" class="st17" width="2.9" height="2.5"/>
		<rect x="179.5" y="168.8" class="st17" width="13.3" height="2.5"/>
		<rect x="194.4" y="168.8" class="st17" width="3" height="2.5"/>
	</g>
	<g>
		<rect x="181.4" y="194.1" class="st1" width="2.3" height="9.8"/>
		<rect x="184.8" y="194.1" class="st1" width="2.3" height="9.8"/>
		<circle class="st5" cx="184.3" cy="187.2" r="6.4"/>
		
			<rect x="182.5" y="176.2" transform="matrix(0.7071 -0.7071 0.7071 0.7071 -71.838 182.3996)" class="st4" width="3.5" height="3.5"/>
	</g>
	<g>
		<path class="st6" d="M52.2,199.4c-3,0-5.5,2.4-5.5,5.5s2.4,5.5,5.5,5.5s5.5-2.4,5.5-5.5S55.2,199.4,52.2,199.4z M52.2,207
			c-1.2,0-2.1-1-2.1-2.1s1-2.1,2.1-2.1s2.1,1,2.1,2.1S53.4,207,52.2,207z"/>
	</g>
	<circle class="st18" cx="52.1" cy="179.9" r="16.8"/>
	
		<rect x="46.8" y="146.7" transform="matrix(0.7071 -0.7071 0.7071 0.7071 -92.1956 81.2453)" class="st1" width="10.4" height="10.4"/>
	<circle class="st4" cx="54.3" cy="150.8" r="2.5"/>
	<g>
		<g>
			<path class="st4" d="M64.5,110.5H45.7c-1.6,0-3-1.3-3-3V88.7c0-1.6,1.3-3,3-3h18.8c1.6,0,3,1.3,3,3v18.8
				C67.5,109.1,66.2,110.5,64.5,110.5z"/>
			<path class="st5" d="M64.5,85.7c1.6,0,3,1.3,3,3v18.8c0,1.6-1.3,3-3,3H45.7c-1.6,0-3-1.3-3-3V88.7c0-1.6,1.3-3,3-3H64.5
				 M64.5,84.3H45.7c-2.4,0-4.3,2-4.3,4.3v18.8c0,2.4,2,4.3,4.3,4.3h18.8c2.4,0,4.3-2,4.3-4.3V88.7C68.9,86.3,66.9,84.3,64.5,84.3
				L64.5,84.3z"/>
		</g>
		<ellipse class="st6" cx="55.1" cy="98.1" rx="8.1" ry="8.1"/>
		<circle class="st4" cx="55.1" cy="98.1" r="3.5"/>
	</g>
	<g>
		<path class="st6" d="M56.5,113.8c-1.5,0-2.3-1.1-2.9-1.9c-0.6-0.8-1-1.4-1.8-1.4c-0.8,0-1.2,0.5-1.8,1.4c-0.6,0.9-1.4,1.9-2.9,1.9
			c-1.5,0-2.3-1.1-2.9-1.9c-0.6-0.8-1-1.4-1.8-1.4c-0.8,0-1.2,0.5-1.8,1.4c-0.6,0.9-1.4,1.9-2.9,1.9c-1.5,0-2.3-1.1-2.9-1.9
			c-0.6-0.8-1-1.4-1.8-1.4c-0.8,0-1.2,0.5-1.8,1.4c-0.6,0.9-1.4,1.9-2.9,1.9c-1.5,0-2.3-1.1-2.9-1.9c-0.6-0.8-1-1.4-1.8-1.4
			c-0.4,0-0.7-0.3-0.7-0.7s0.3-0.7,0.7-0.7c1.5,0,2.3,1.1,2.9,1.9c0.6,0.8,1,1.4,1.8,1.4c0.8,0,1.2-0.5,1.8-1.4
			c0.6-0.9,1.4-1.9,2.9-1.9c1.5,0,2.3,1.1,2.9,1.9c0.6,0.8,1,1.4,1.8,1.4c0.8,0,1.2-0.5,1.8-1.4c0.6-0.9,1.4-1.9,2.9-1.9
			c1.5,0,2.3,1.1,2.9,1.9c0.6,0.8,1,1.4,1.8,1.4c0.8,0,1.2-0.5,1.8-1.4c0.6-0.9,1.4-1.9,2.9-1.9s2.3,1.1,2.9,1.9
			c0.6,0.8,1,1.4,1.8,1.4c0.4,0,0.7,0.3,0.7,0.7C57.2,113.5,56.9,113.8,56.5,113.8z"/>
	</g>
	<g>
		<circle class="st1" cx="42.5" cy="110.1" r="2.1"/>
		<path class="st5" d="M42.5,112.7c-1.4,0-2.5-1.1-2.5-2.5c0-1.4,1.1-2.5,2.5-2.5c1.4,0,2.5,1.1,2.5,2.5
			C45.1,111.5,44,112.7,42.5,112.7z M42.5,108.4c-1,0-1.7,0.8-1.7,1.7s0.8,1.7,1.7,1.7s1.7-0.8,1.7-1.7S43.5,108.4,42.5,108.4z"/>
	</g>
	<g>
		<g>
			<path class="st6" d="M106.3,57.6H89.4c-1.1,0-2-0.9-2-2v-33c0-1.1,0.9-2,2-2h16.9c1.1,0,2,0.9,2,2v33
				C108.3,56.7,107.4,57.6,106.3,57.6z"/>
			<g>
				<rect x="89.1" y="24.9" class="st1" width="17.5" height="24.4"/>
			</g>
			<path class="st5" d="M99.1,54.8L99.1,54.8c-0.7,0.7-2,0.7-2.7,0h0c-0.7-0.7-0.7-2,0-2.7l0,0c0.7-0.7,2-0.7,2.7,0l0,0
				C99.8,52.8,99.8,54,99.1,54.8z"/>
			<rect x="93.5" y="22.8" class="st5" width="8.5" height="1.4"/>
		</g>
		<path class="st19" d="M104,36.1l-0.3-1.3l-1,0.2c-0.1-0.4-0.3-0.8-0.6-1.2l0.8-0.7l-0.9-1l-0.8,0.7c-0.3-0.3-0.7-0.5-1.1-0.7
			l0.3-1l-1.3-0.4l-0.3,1c-0.4-0.1-0.8-0.1-1.3-0.1l-0.2-1L96,30.8l0.2,1c-0.4,0.1-0.8,0.3-1.2,0.6l-0.7-0.8l-1,0.9l0.7,0.8
			c-0.3,0.3-0.5,0.7-0.7,1.1l-1-0.3l-0.4,1.3l1,0.3c-0.1,0.4-0.1,0.8-0.1,1.3l-1,0.2l0.3,1.3l1-0.2c0.1,0.4,0.3,0.8,0.6,1.2
			l-0.8,0.7l0.9,1l0.8-0.7c0.3,0.3,0.7,0.5,1.1,0.7l-0.3,1l1.3,0.4l0.3-1c0.4,0.1,0.8,0.1,1.3,0.1l0.2,1l1.3-0.3l-0.2-1
			c0.4-0.1,0.8-0.3,1.2-0.6l0.7,0.8l1-0.9l-0.7-0.8c0.3-0.3,0.5-0.7,0.7-1.1l1,0.3l0.4-1.3l-1-0.3c0.1-0.4,0.1-0.8,0.1-1.3L104,36.1
			z M98.5,39.9c-1.8,0.4-3.5-0.8-3.9-2.6c-0.4-1.8,0.8-3.5,2.6-3.9c1.8-0.4,3.5,0.8,3.9,2.6C101.5,37.7,100.3,39.5,98.5,39.9z"/>
	</g>
	<g>
		<path class="st6" d="M193.3,25.5c-0.3,0-0.5-0.2-0.5-0.5v-9.8c0-0.3,0.2-0.5,0.5-0.5c0.3,0,0.5,0.2,0.5,0.5v9.8
			C193.8,25.2,193.6,25.5,193.3,25.5z"/>
		<path class="st6" d="M189.8,24c-0.1,0-0.3-0.1-0.4-0.2c-0.2-0.2-0.2-0.6,0-0.8l6.9-6.9c0.2-0.2,0.6-0.2,0.8,0
			c0.2,0.2,0.2,0.6,0,0.8l-6.9,6.9C190.1,24,189.9,24,189.8,24z"/>
		<path class="st6" d="M198.2,20.5h-9.8c-0.3,0-0.5-0.2-0.5-0.5s0.2-0.5,0.5-0.5h9.8c0.3,0,0.5,0.2,0.5,0.5S198.5,20.5,198.2,20.5z"
			/>
		<path class="st6" d="M196.7,24c-0.1,0-0.3-0.1-0.4-0.2l-6.9-6.9c-0.2-0.2-0.2-0.6,0-0.8c0.2-0.2,0.6-0.2,0.8,0l6.9,6.9
			c0.2,0.2,0.2,0.6,0,0.8C197,24,196.9,24,196.7,24z"/>
	</g>
	<g>
		<path class="st20" d="M193.2,20h-15.9v-0.7c0-0.7-0.6-1.3-1.3-1.3h-10.8c-0.7,0-1.3,0.6-1.3,1.3V20v4.9v14.3h33V23.8
			C197,21.7,195.3,20,193.2,20z"/>
		<g>
			<path class="st4" d="M165.7,38.8c-0.3,0-0.5-0.2-0.5-0.5v-9.8c0-0.3,0.2-0.5,0.5-0.5s0.5,0.2,0.5,0.5v9.8
				C166.2,38.5,166,38.8,165.7,38.8z"/>
			<path class="st4" d="M162.2,37.3c-0.1,0-0.3-0.1-0.4-0.2c-0.2-0.2-0.2-0.6,0-0.8l6.9-6.9c0.2-0.2,0.6-0.2,0.8,0
				c0.2,0.2,0.2,0.6,0,0.8l-6.9,6.9C162.5,37.3,162.3,37.3,162.2,37.3z"/>
			<path class="st4" d="M170.6,33.9h-9.8c-0.3,0-0.5-0.2-0.5-0.5s0.2-0.5,0.5-0.5h9.8c0.3,0,0.5,0.2,0.5,0.5S170.9,33.9,170.6,33.9z
				"/>
			<path class="st4" d="M169.1,37.3c-0.1,0-0.3-0.1-0.4-0.2l-6.9-6.9c-0.2-0.2-0.2-0.6,0-0.8c0.2-0.2,0.6-0.2,0.8,0l6.9,6.9
				c0.2,0.2,0.2,0.6,0,0.8C169.4,37.3,169.3,37.3,169.1,37.3z"/>
		</g>
		<path class="st1" d="M197,39.2h-33l4.9-15.2c0.3-0.9,1.1-1.5,2.1-1.5h28.3c1.5,0,2.6,1.5,2.1,2.9L197,39.2z"/>
	</g>
</g>
</svg>
