<?xml version="1.0" encoding="utf-8"?>
<!-- Generator: Adobe Illustrator 25.3.0, SVG Export Plug-In . SVG Version: 6.00 Build 0)  -->
<svg version="1.1" id="Layer_1" xmlns="http://www.w3.org/2000/svg" xmlns:xlink="http://www.w3.org/1999/xlink" x="0px" y="0px"
	 viewBox="0 0 1137 733" style="enable-background:new 0 0 1137 733;" xml:space="preserve">
<style type="text/css">
	.st0{fill-rule:evenodd;clip-rule:evenodd;fill:#005CB9;}
	.st1{opacity:0.3916;fill-rule:evenodd;clip-rule:evenodd;fill:#005CB9;enable-background:new    ;}
	.st2{enable-background:new    ;}
	.st3{fill:#005CB9;}
	.st4{fill-rule:evenodd;clip-rule:evenodd;fill:#F4C44C;}
	.st5{opacity:0.3916;fill-rule:evenodd;clip-rule:evenodd;fill:#F4C44C;enable-background:new    ;}
	.st6{fill-rule:evenodd;clip-rule:evenodd;fill:#4C1A0F;}
	.st7{opacity:0.3916;fill-rule:evenodd;clip-rule:evenodd;fill:#4C1A0F;enable-background:new    ;}
	.st8{fill-rule:evenodd;clip-rule:evenodd;fill:#10181F;}
	.st9{opacity:0.3916;fill-rule:evenodd;clip-rule:evenodd;fill:#10181F;enable-background:new    ;}
	.st10{fill-rule:evenodd;clip-rule:evenodd;fill:#B65B00;}
	.st11{opacity:0.3916;fill-rule:evenodd;clip-rule:evenodd;fill:#B65B00;enable-background:new    ;}
	.st12{fill-rule:evenodd;clip-rule:evenodd;fill:#1F721F;}
	.st13{opacity:0.3916;fill-rule:evenodd;clip-rule:evenodd;fill:#1F721F;enable-background:new    ;}
	.st14{fill:#FFFFFF;}
	.st15{fill:#2E2E2E;}
	.st16{fill-rule:evenodd;clip-rule:evenodd;fill:#FFFFFF;stroke:#979797;}
	.st17{fill-rule:evenodd;clip-rule:evenodd;fill:#FFFFFF;stroke:#CB1515;}
	.st18{fill-rule:evenodd;clip-rule:evenodd;fill:#02488F;}
	.st19{fill-rule:evenodd;clip-rule:evenodd;fill:#FFFFFF;stroke:#005CB9;stroke-width:2;}
	.st20{fill:#4A4A4A;}
	.st21{fill-rule:evenodd;clip-rule:evenodd;fill:#195919;}
	.st22{fill-rule:evenodd;clip-rule:evenodd;fill:#FFFFFF;stroke:#1F721F;stroke-width:2;}
	.st23{fill-rule:evenodd;clip-rule:evenodd;fill:#894501;}
	.st24{fill-rule:evenodd;clip-rule:evenodd;fill:#FFFFFF;stroke:#B65B00;stroke-width:2;}
	.st25{fill-rule:evenodd;clip-rule:evenodd;fill:#DAAD3C;}
	.st26{fill-rule:evenodd;clip-rule:evenodd;fill:#FFFFFF;stroke:#F4C44C;stroke-width:2;}
</style>
<g id="Colours" transform="translate(0.000000, 654.000000)">
	<rect id="Rectangle" x="193" y="-557.7" class="st0" width="173.3" height="132.2"/>
	<rect id="Rectangle-Copy-8" x="193" y="-609.7" class="st1" width="173.3" height="41.8"/>
	<g class="st2">
		<path class="st3" d="M16.4-643.8l-2.8,1.7c-0.9-1.4-2.4-2.2-4.2-2.2c-2.9,0-5.1,2.1-5.1,5.3c0,3.2,2.2,5.3,5.1,5.3
			c1.8,0,3.2-0.8,4.2-2.2l2.6,1.9c-1.4,2.1-3.9,3.4-6.8,3.4c-5,0-8.5-3.5-8.5-8.4s3.5-8.4,8.5-8.4C12.5-647.4,15.1-646,16.4-643.8z"
			/>
		<path class="st3" d="M30-636.6c0,3.4-2.6,5.9-6,5.9c-3.5,0-6-2.5-6-5.9s2.6-5.9,6-5.9C27.5-642.4,30-639.9,30-636.6z M21-636.6
			c0,1.8,1.3,3.1,3,3.1c1.7,0,3-1.3,3-3.1s-1.3-3.1-3-3.1C22.3-639.7,21-638.4,21-636.6z"/>
		<path class="st3" d="M35.5-631h-3v-16.6h3V-631z"/>
		<path class="st3" d="M50-636.6c0,3.4-2.6,5.9-6,5.9c-3.5,0-6-2.5-6-5.9s2.6-5.9,6-5.9C47.4-642.4,50-639.9,50-636.6z M41-636.6
			c0,1.8,1.3,3.1,3,3.1c1.7,0,3-1.3,3-3.1s-1.3-3.1-3-3.1C42.3-639.7,41-638.4,41-636.6z"/>
		<path class="st3" d="M62.9-635.8c0,3.5-2.5,5-5.3,5c-2.8,0-5.3-1.5-5.3-5v-6.4h3v6.1c0,1.8,1,2.5,2.3,2.5c1.3,0,2.3-0.7,2.3-2.5
			v-6.1h3V-635.8z"/>
		<path class="st3" d="M73.6-642.2l-0.4,3c-0.5-0.2-1.2-0.4-1.8-0.4c-1.4,0-2.3,0.9-2.3,2.5v6.1h-3v-11.1h2.9v1.2
			c0.7-1,1.8-1.5,3.1-1.5C72.6-642.4,73.1-642.4,73.6-642.2z"/>
	</g>
	<g class="st2">
		<path class="st3" d="M16.7-334h-3.4l-1.4-3.8H5L3.6-334H0.2l6.3-16.1h3.9L16.7-334z M6.1-340.7h4.7l-2.3-6.2L6.1-340.7z"/>
		<path class="st3" d="M28-343.3l-2.2,1.8c-0.7-0.7-1.4-1.1-2.4-1.1c-1.6,0-2.8,1.2-2.8,3.1c0,1.9,1.2,3.1,2.8,3.1
			c1,0,1.8-0.4,2.4-1.1l2.1,1.8c-1,1.3-2.6,2.1-4.5,2.1c-3.6,0-5.9-2.5-5.9-5.9c0-3.4,2.4-5.9,5.9-5.9
			C25.4-345.4,26.9-344.7,28-343.3z"/>
		<path class="st3" d="M38.3-342.5h-4v4.1c0,1.4,0.7,1.9,1.7,1.9c0.7,0,1.5-0.4,2.1-0.7l1.1,2.3c-1,0.7-2.1,1.2-3.7,1.2
			c-2.8,0-4.2-1.6-4.2-4.5v-4.3h-2.2v-2.7h2.2v-3.3h3v3.3h4V-342.5z"/>
		<path class="st3" d="M44.4-348.8c0,1.1-0.8,1.9-1.9,1.9s-1.9-0.8-1.9-1.9c0-1.1,0.8-1.9,1.9-1.9S44.4-349.9,44.4-348.8z M44-334
			h-3v-11.1h3V-334z"/>
		<path class="st3" d="M53.6-334h-3.5l-4.4-11.1H49l2.9,8l2.9-8H58L53.6-334z"/>
		<path class="st3" d="M69.8-339.6c0,0.3,0,0.8-0.1,1h-7.9c0.3,1.6,1.4,2.3,2.9,2.3c1,0,2-0.4,2.8-1.1l1.8,1.9
			c-1.3,1.2-2.9,1.7-4.8,1.7c-3.4,0-5.8-2.3-5.8-5.8c0-3.5,2.3-5.9,5.6-5.9C67.6-345.4,69.8-343.1,69.8-339.6z M61.8-340.6h4.9
			c-0.3-1.4-1.1-2.2-2.4-2.2C62.9-342.9,62.1-342,61.8-340.6z"/>
		<path class="st3" d="M88.3-339.6c0,0.3,0,0.8-0.1,1h-7.9c0.3,1.6,1.4,2.3,2.9,2.3c1,0,2-0.4,2.8-1.1l1.8,1.9
			c-1.3,1.2-2.9,1.7-4.8,1.7c-3.4,0-5.8-2.3-5.8-5.8c0-3.5,2.3-5.9,5.6-5.9C86.1-345.4,88.3-343.1,88.3-339.6z M80.4-340.6h4.9
			c-0.3-1.4-1.1-2.2-2.4-2.2C81.4-342.9,80.6-342,80.4-340.6z"/>
		<path class="st3" d="M93.7-334h-3v-16.6h3V-334z"/>
		<path class="st3" d="M107.3-339.6c0,0.3,0,0.8-0.1,1h-7.9c0.3,1.6,1.4,2.3,2.9,2.3c1,0,2-0.4,2.8-1.1l1.8,1.9
			c-1.3,1.2-2.9,1.7-4.8,1.7c-3.4,0-5.8-2.3-5.8-5.8c0-3.5,2.3-5.9,5.6-5.9C105.1-345.4,107.3-343.1,107.3-339.6z M99.3-340.6h4.9
			c-0.3-1.4-1.1-2.2-2.4-2.2C100.4-342.9,99.6-342,99.3-340.6z"/>
		<path class="st3" d="M127.8-341.1v7.1h-3v-6.1c0-1.6-0.8-2.5-2.2-2.5c-1.3,0-2.4,0.8-2.4,2.5v6.1h-3v-6.1c0-1.6-0.8-2.5-2.2-2.5
			c-1.3,0-2.4,0.8-2.4,2.5v6.1h-3v-11.1h2.9v1.3c0.8-1.2,2-1.6,3.3-1.6c1.6,0,2.9,0.7,3.7,1.9c0.9-1.4,2.3-1.9,3.8-1.9
			C126-345.4,127.8-343.7,127.8-341.1z"/>
		<path class="st3" d="M141.2-339.6c0,0.3,0,0.8-0.1,1h-7.9c0.3,1.6,1.4,2.3,2.9,2.3c1,0,2-0.4,2.8-1.1l1.8,1.9
			c-1.3,1.2-2.9,1.7-4.8,1.7c-3.4,0-5.8-2.3-5.8-5.8c0-3.5,2.3-5.9,5.6-5.9C139-345.4,141.2-343.1,141.2-339.6z M133.2-340.6h4.9
			c-0.3-1.4-1.1-2.2-2.4-2.2C134.3-342.9,133.5-342,133.2-340.6z"/>
		<path class="st3" d="M154.2-341.1v7.1h-3v-6.1c0-1.6-0.8-2.5-2.2-2.5c-1.3,0-2.4,0.8-2.4,2.5v6.1h-3v-11.1h2.9v1.3
			c0.8-1.2,2-1.6,3.3-1.6C152.4-345.4,154.2-343.7,154.2-341.1z"/>
		<path class="st3" d="M165.2-342.5h-4v4.1c0,1.4,0.7,1.9,1.7,1.9c0.7,0,1.5-0.4,2.1-0.7l1.1,2.3c-1,0.7-2.1,1.2-3.7,1.2
			c-2.8,0-4.2-1.6-4.2-4.5v-4.3H156v-2.7h2.2v-3.3h3v3.3h4V-342.5z"/>
		<path class="st3" d="M175.8-342c-0.9-0.4-2.3-0.9-3.6-0.9c-1.1,0-1.7,0.4-1.7,1c0,0.6,0.8,0.8,1.8,1l1,0.1
			c2.4,0.4,3.8,1.4,3.8,3.3c0,2.3-1.9,3.8-5.1,3.8c-1.5,0-3.5-0.3-5-1.3l1.2-2.3c1,0.6,2.1,1.1,3.8,1.1c1.4,0,2.1-0.4,2.1-1
			c0-0.5-0.6-0.8-1.9-1l-0.9-0.1c-2.6-0.4-3.9-1.5-3.9-3.4c0-2.3,1.8-3.6,4.7-3.6c1.8,0,3.2,0.3,4.7,1.1L175.8-342z"/>
	</g>
	<rect id="Rectangle-Copy-4" x="770" y="-557.4" class="st4" width="173.3" height="132.2"/>
	<rect id="Rectangle-Copy-21" x="770" y="-609.6" class="st5" width="173.3" height="41.8"/>
	<rect id="Rectangle-Copy-2" x="386" y="-557.7" class="st6" width="173.3" height="132.2"/>
	<rect id="Rectangle-Copy-22" x="386" y="-609.7" class="st7" width="173.3" height="41.8"/>
	<rect id="Rectangle-Copy" x="1" y="-557.7" class="st8" width="173.3" height="132.2"/>
	<rect id="Rectangle-Copy-23" x="1" y="-609.7" class="st9" width="173.3" height="41.8"/>
	<rect id="Rectangle-Copy-3" x="577" y="-556.9" class="st10" width="173.3" height="132.2"/>
	<rect id="Rectangle-Copy-24" x="577" y="-609.4" class="st11" width="173.3" height="41.8"/>
	<rect id="Rectangle-Copy-5" x="963" y="-557.4" class="st12" width="173.3" height="132.2"/>
	<rect id="Rectangle-Copy-25" x="963" y="-609.6" class="st13" width="173.3" height="41.8"/>
	<g class="st2">
		<path class="st14" d="M218.8-475.6c3,0,4.6,1.4,4.6,3.8c0,2.1-1.4,3.5-3.9,3.7l3.9,5.1h-3l-3.7-5h-0.7v5h-2.5v-12.6H218.8z
			 M215.9-473.3v3.1h2.8c1.4,0,2.1-0.5,2.1-1.6c0-1-0.7-1.5-2.1-1.5H215.9z"/>
		<path class="st14" d="M227.8-470.8c0.6-0.9,1.5-1.2,2.5-1.2c2,0,3.4,1.4,3.4,3.4v5.6h-2.3v-4.8c0-1.3-0.6-2-1.7-2
			c-1,0-1.8,0.7-1.8,2v4.8h-2.3v-13h2.3V-470.8z"/>
		<path class="st14" d="M238.8-474.6c0,0.8-0.7,1.5-1.5,1.5s-1.5-0.6-1.5-1.5c0-0.8,0.6-1.5,1.5-1.5S238.8-475.4,238.8-474.6z
			 M238.5-463h-2.3v-8.7h2.3V-463z"/>
		<path class="st14" d="M249.2-468.6v5.6h-2.4v-4.8c0-1.3-0.6-2-1.7-2c-1,0-1.8,0.7-1.8,2v4.8h-2.3v-8.7h2.3v1
			c0.6-0.9,1.6-1.3,2.6-1.3C247.8-472,249.2-470.6,249.2-468.6z"/>
		<path class="st14" d="M260.5-467.4c0,2.6-2,4.6-4.7,4.6c-2.7,0-4.7-2-4.7-4.6s2-4.6,4.7-4.6C258.5-472,260.5-470,260.5-467.4z
			 M253.4-467.4c0,1.4,1,2.4,2.3,2.4c1.3,0,2.3-1,2.3-2.4s-1-2.4-2.3-2.4C254.4-469.8,253.4-468.8,253.4-467.4z"/>
		<path class="st14" d="M272.2-475.6c2.9,0,4.8,1.1,4.8,3.5c0,1.3-0.8,2.3-1.8,2.7c1.2,0.4,2.1,1.5,2.1,2.8c0,2.4-1.7,3.6-4.7,3.6
			H267v-12.6H272.2z M269.5-473.4v2.9h2.6c1.3,0,2.2-0.3,2.2-1.5c0-1.2-1-1.5-2.2-1.5H269.5z M269.5-468.2v3l2.8,0
			c1.4,0,2.3-0.3,2.3-1.5c0-1.2-0.9-1.5-2.3-1.5H269.5z"/>
		<path class="st14" d="M281.6-463h-2.3v-13h2.3V-463z"/>
		<path class="st14" d="M292.3-466.7c0,2.8-1.9,3.9-4.1,3.9c-2.2,0-4.1-1.2-4.1-3.9v-5h2.4v4.8c0,1.4,0.8,2,1.8,2c1,0,1.8-0.6,1.8-2
			v-4.8h2.3V-466.7z"/>
		<path class="st14" d="M302.8-467.4c0,0.3,0,0.6,0,0.8h-6.2c0.3,1.3,1.1,1.8,2.2,1.8c0.8,0,1.6-0.3,2.2-0.8l1.4,1.5
			c-1,0.9-2.3,1.3-3.7,1.3c-2.7,0-4.5-1.8-4.5-4.6c0-2.7,1.8-4.6,4.4-4.6C301.1-472,302.8-470.1,302.8-467.4z M296.6-468.2h3.9
			c-0.2-1.1-0.9-1.7-1.9-1.7C297.4-469.9,296.8-469.3,296.6-468.2z"/>
	</g>
	<g class="st2">
		<path class="st14" d="M215.9-448.3l0.6-2.9h1.2l-0.6,2.9h2.6l0.6-2.9h1.2l-0.6,2.9h1.8l-0.2,1.2h-1.8l-0.6,3h1.8l-0.2,1.2h-1.8
			l-0.6,3H218l0.6-3H216l-0.6,3h-1.2l0.6-3H213l0.2-1.2h1.8l0.6-3h-1.8l0.3-1.2H215.9z M216.2-444.1h2.6l0.6-3h-2.6L216.2-444.1z"/>
		<path class="st14" d="M234.1-445.6c0,3.6-2.1,5.8-4.6,5.8c-2.6,0-4.6-2.2-4.6-5.8c0-3.6,2.1-5.8,4.6-5.8
			C232-451.4,234.1-449.2,234.1-445.6z M226.2-445.6c0,2.9,1.5,4.5,3.2,4.5c1.8,0,3.2-1.6,3.2-4.5c0-2.9-1.4-4.5-3.2-4.5
			C227.6-450.1,226.2-448.5,226.2-445.6z"/>
		<path class="st14" d="M245.4-445.6c0,3.6-2.1,5.8-4.6,5.8c-2.6,0-4.6-2.2-4.6-5.8c0-3.6,2.1-5.8,4.6-5.8
			C243.3-451.4,245.4-449.2,245.4-445.6z M237.6-445.6c0,2.9,1.5,4.5,3.2,4.5c1.8,0,3.2-1.6,3.2-4.5c0-2.9-1.4-4.5-3.2-4.5
			C239-450.1,237.6-448.5,237.6-445.6z"/>
		<path class="st14" d="M254.3-449.9h-4.9l-0.1,3.2h1.6c2.6,0,3.9,1.5,3.9,3.3c0,2.3-1.7,3.6-3.9,3.6c-1.6,0-2.9-0.6-3.8-1.8
			l0.9-0.9c0.7,0.8,1.8,1.3,2.9,1.3c1.6,0,2.5-1,2.5-2.2c0-1.2-0.8-2.1-2.9-2.1H248l0.1-5.7h6.1V-449.9z"/>
		<path class="st14" d="M267.1-449l-1.2,0.8c-0.7-1.1-2-1.8-3.4-1.8c-2.5,0-4.3,1.8-4.3,4.4c0,2.6,1.9,4.4,4.3,4.4
			c1.4,0,2.7-0.7,3.4-1.8l1.2,0.8c-0.9,1.4-2.6,2.3-4.5,2.3c-3.4,0-5.8-2.4-5.8-5.8c0-3.4,2.4-5.8,5.8-5.8
			C264.5-451.4,266.2-450.5,267.1-449z"/>
		<path class="st14" d="M273.9-451.2c2.4,0,4.1,0.8,4.1,3c0,1.2-0.6,2.1-1.6,2.5c1.1,0.4,1.8,1.3,1.8,2.6c0,2.2-1.6,3.1-4.1,3.1
			h-4.6v-11.2H273.9z M271-449.9v3.6h2.9c1.5,0,2.6-0.3,2.6-1.8c0-1.4-1.2-1.8-2.7-1.8H271z M271-445v3.7h3.1c1.6,0,2.7-0.4,2.7-1.9
			c0-1.4-1.1-1.8-2.7-1.8H271z"/>
		<path class="st14" d="M284.9-444.3c-0.3,0.1-0.7,0.3-1.3,0.3c-2.1,0-3.8-1.6-3.8-3.7c0-2.1,1.7-3.7,4-3.7c2.3,0,4,1.6,4,3.7
			c0,0.9-0.3,1.7-0.9,2.6l-3.3,5.1H282L284.9-444.3z M286.5-447.7c0-1.4-1.1-2.4-2.6-2.4c-1.5,0-2.6,1-2.6,2.4
			c0,1.4,1.1,2.4,2.6,2.4C285.3-445.3,286.5-446.3,286.5-447.7z"/>
	</g>
	<g class="st2">
		<path class="st14" d="M606.8-461h-9.4v-12.6h9.3v2.3h-6.8v2.8h6.5v2.3h-6.5v2.9h6.9V-461z"/>
		<path class="st14" d="M617.7-461h-2.3v-1c-0.6,0.7-1.4,1.2-2.6,1.2c-2.4,0-4.2-2-4.2-4.6s1.8-4.6,4.2-4.6c1.2,0,2,0.5,2.6,1.2v-1
			h2.3V-461z M611-465.4c0,1.3,0.9,2.4,2.2,2.4c1.3,0,2.3-1,2.3-2.4c0-1.4-0.9-2.4-2.3-2.4C611.8-467.8,611-466.7,611-465.4z"/>
		<path class="st14" d="M626.1-469.8l-0.4,2.3c-0.4-0.2-0.9-0.3-1.4-0.3c-1.1,0-1.8,0.7-1.8,2v4.8h-2.3v-8.7h2.3v1
			c0.5-0.8,1.4-1.2,2.5-1.2C625.4-470,625.8-469.9,626.1-469.8z"/>
		<path class="st14" d="M634.2-467.6h-3.2v3.2c0,1.1,0.6,1.5,1.3,1.5c0.6,0,1.2-0.3,1.6-0.6l0.9,1.8c-0.8,0.5-1.6,0.9-2.9,0.9
			c-2.2,0-3.3-1.2-3.3-3.5v-3.4H627v-2.1h1.7v-2.6h2.3v2.6h3.2V-467.6z"/>
		<path class="st14" d="M638.6-468.8c0.6-0.9,1.5-1.2,2.5-1.2c2,0,3.4,1.4,3.4,3.4v5.6h-2.4v-4.8c0-1.3-0.6-2-1.7-2
			c-1,0-1.8,0.7-1.8,2v4.8h-2.3v-13h2.3V-468.8z"/>
	</g>
	<g class="st2">
		<path class="st14" d="M599.9-446.3l0.6-2.9h1.2l-0.6,2.9h2.6l0.6-2.9h1.2l-0.6,2.9h1.8l-0.2,1.2h-1.8l-0.6,3h1.8l-0.2,1.2h-1.8
			l-0.6,3H602l0.6-3H600l-0.6,3h-1.2l0.6-3H597l0.2-1.2h1.8l0.6-3h-1.8l0.3-1.2H599.9z M600.2-442.1h2.6l0.6-3h-2.6L600.2-442.1z"/>
		<path class="st14" d="M613.7-449.2c2.4,0,4.1,0.8,4.1,3c0,1.2-0.6,2.1-1.6,2.5c1.1,0.4,1.8,1.3,1.8,2.6c0,2.2-1.6,3.1-4.1,3.1
			h-4.6v-11.2H613.7z M610.7-447.9v3.6h2.9c1.5,0,2.6-0.3,2.6-1.8c0-1.4-1.2-1.8-2.7-1.8H610.7z M610.7-443v3.7h3.1
			c1.6,0,2.7-0.4,2.7-1.9c0-1.4-1.1-1.8-2.7-1.8H610.7z"/>
		<path class="st14" d="M622.5-444.9c0.3-0.2,0.7-0.3,1.3-0.3c2.1,0,3.8,1.6,3.8,3.7s-1.7,3.7-4,3.7c-2.3,0-4-1.6-4-3.7
			c0-0.9,0.3-1.7,0.9-2.6l3.3-5.1h1.7L622.5-444.9z M621-441.5c0,1.4,1.1,2.4,2.6,2.4s2.6-1,2.6-2.4s-1.1-2.4-2.6-2.4
			S621-442.9,621-441.5z"/>
		<path class="st14" d="M636-447.9h-4.9l-0.1,3.2h1.6c2.6,0,3.9,1.5,3.9,3.3c0,2.3-1.7,3.6-3.9,3.6c-1.6,0-2.9-0.6-3.8-1.8l0.9-0.9
			c0.7,0.8,1.8,1.3,2.9,1.3c1.6,0,2.5-1,2.5-2.2c0-1.2-0.8-2.1-2.9-2.1h-2.5l0.1-5.7h6.1V-447.9z"/>
		<path class="st14" d="M643.4-449.2c2.4,0,4.1,0.8,4.1,3c0,1.2-0.6,2.1-1.6,2.5c1.1,0.4,1.8,1.3,1.8,2.6c0,2.2-1.6,3.1-4.1,3.1
			h-4.6v-11.2H643.4z M640.5-447.9v3.6h2.9c1.5,0,2.6-0.3,2.6-1.8c0-1.4-1.2-1.8-2.7-1.8H640.5z M640.5-443v3.7h3.1
			c1.6,0,2.7-0.4,2.7-1.9c0-1.4-1.1-1.8-2.7-1.8H640.5z"/>
		<path class="st14" d="M659-443.6c0,3.6-2.1,5.8-4.6,5.8c-2.6,0-4.6-2.2-4.6-5.8c0-3.6,2.1-5.8,4.6-5.8
			C657-449.4,659-447.2,659-443.6z M651.2-443.6c0,2.9,1.5,4.5,3.2,4.5c1.8,0,3.2-1.6,3.2-4.5c0-2.9-1.4-4.5-3.2-4.5
			C652.6-448.1,651.2-446.5,651.2-443.6z"/>
		<path class="st14" d="M670.4-443.6c0,3.6-2.1,5.8-4.6,5.8c-2.6,0-4.6-2.2-4.6-5.8c0-3.6,2.1-5.8,4.6-5.8
			C668.3-449.4,670.4-447.2,670.4-443.6z M662.5-443.6c0,2.9,1.5,4.5,3.2,4.5c1.8,0,3.2-1.6,3.2-4.5c0-2.9-1.4-4.5-3.2-4.5
			C664-448.1,662.5-446.5,662.5-443.6z"/>
	</g>
	<g class="st2">
		<path class="st14" d="M26.8-475.6c3,0,4.6,1.4,4.6,3.8c0,2.1-1.4,3.5-3.9,3.7l3.9,5.1h-3l-3.7-5h-0.7v5h-2.5v-12.6H26.8z
			 M23.9-473.3v3.1h2.8c1.4,0,2.1-0.5,2.1-1.6c0-1-0.7-1.5-2.1-1.5H23.9z"/>
		<path class="st14" d="M35.8-470.8c0.6-0.9,1.5-1.2,2.5-1.2c2,0,3.4,1.4,3.4,3.4v5.6h-2.3v-4.8c0-1.3-0.6-2-1.7-2
			c-1,0-1.8,0.7-1.8,2v4.8h-2.3v-13h2.3V-470.8z"/>
		<path class="st14" d="M46.8-474.6c0,0.8-0.7,1.5-1.5,1.5s-1.5-0.6-1.5-1.5c0-0.8,0.6-1.5,1.5-1.5S46.8-475.4,46.8-474.6z
			 M46.5-463h-2.3v-8.7h2.3V-463z"/>
		<path class="st14" d="M57.2-468.6v5.6h-2.4v-4.8c0-1.3-0.6-2-1.7-2c-1,0-1.8,0.7-1.8,2v4.8h-2.3v-8.7h2.3v1
			c0.6-0.9,1.6-1.3,2.6-1.3C55.8-472,57.2-470.6,57.2-468.6z"/>
		<path class="st14" d="M68.5-467.4c0,2.6-2,4.6-4.7,4.6c-2.7,0-4.7-2-4.7-4.6s2-4.6,4.7-4.6C66.5-472,68.5-470,68.5-467.4z
			 M61.4-467.4c0,1.4,1,2.4,2.3,2.4c1.3,0,2.3-1,2.3-2.4s-1-2.4-2.3-2.4C62.4-469.8,61.4-468.8,61.4-467.4z"/>
		<path class="st14" d="M80.2-475.6c2.9,0,4.8,1.1,4.8,3.5c0,1.3-0.8,2.3-1.8,2.7c1.2,0.4,2.1,1.5,2.1,2.8c0,2.4-1.7,3.6-4.7,3.6H75
			v-12.6H80.2z M77.5-473.4v2.9h2.6c1.3,0,2.2-0.3,2.2-1.5c0-1.2-1-1.5-2.2-1.5H77.5z M77.5-468.2v3l2.8,0c1.4,0,2.3-0.3,2.3-1.5
			c0-1.2-0.9-1.5-2.3-1.5H77.5z"/>
		<path class="st14" d="M89.6-463h-2.3v-13h2.3V-463z"/>
		<path class="st14" d="M100.7-463h-2.3v-1c-0.6,0.7-1.4,1.2-2.6,1.2c-2.4,0-4.2-2-4.2-4.6s1.8-4.6,4.2-4.6c1.2,0,2,0.5,2.6,1.2v-1
			h2.3V-463z M94-467.4c0,1.3,0.9,2.4,2.3,2.4c1.3,0,2.3-1,2.3-2.4c0-1.4-0.9-2.4-2.3-2.4C94.8-469.8,94-468.7,94-467.4z"/>
		<path class="st14" d="M110.7-470.3l-1.7,1.4c-0.5-0.6-1.1-0.9-1.9-0.9c-1.2,0-2.2,1-2.2,2.4c0,1.5,1,2.4,2.2,2.4
			c0.8,0,1.4-0.3,1.9-0.9l1.7,1.4c-0.8,1.1-2,1.6-3.5,1.6c-2.8,0-4.6-1.9-4.6-4.6c0-2.6,1.9-4.6,4.6-4.6
			C108.7-472,109.9-471.4,110.7-470.3z"/>
		<path class="st14" d="M114.8-468.6h0.8l2.5-3.1h2.9l-3.4,4.1l3.5,4.6h-2.9l-2.5-3.5h-0.8v3.5h-2.3v-13h2.3V-468.6z"/>
	</g>
	<g class="st2">
		<path class="st14" d="M23.9-448.3l0.6-2.9h1.2l-0.6,2.9h2.6l0.6-2.9h1.2l-0.6,2.9h1.8l-0.2,1.2h-1.8l-0.6,3h1.8l-0.2,1.2h-1.8
			l-0.6,3H26l0.6-3H24l-0.6,3h-1.2l0.6-3H21l0.2-1.2H23l0.6-3h-1.8l0.3-1.2H23.9z M24.2-444.1h2.6l0.6-3h-2.6L24.2-444.1z"/>
		<path class="st14" d="M36.8-440h-1.4v-9.4l-3.2,1.4v-1.4l4.6-1.9V-440z"/>
		<path class="st14" d="M48.8-445.6c0,3.6-2.1,5.8-4.6,5.8c-2.6,0-4.6-2.2-4.6-5.8c0-3.6,2.1-5.8,4.6-5.8
			C46.7-451.4,48.8-449.2,48.8-445.6z M40.9-445.6c0,2.9,1.5,4.5,3.2,4.5c1.8,0,3.2-1.6,3.2-4.5c0-2.9-1.4-4.5-3.2-4.5
			C42.4-450.1,40.9-448.5,40.9-445.6z"/>
		<path class="st14" d="M54.9-440h-1.4v-9.4l-3.2,1.4v-1.4l4.6-1.9V-440z"/>
		<path class="st14" d="M65.5-448.3c0,1.4-0.8,2.2-1.9,2.6c1.2,0.4,2.2,1.2,2.2,2.7c0,2-1.9,3.2-4.2,3.2s-4.2-1.2-4.2-3.2
			c0-1.4,1-2.2,2.2-2.7c-1.1-0.4-1.9-1.2-1.9-2.6c0-2,1.8-3.1,3.9-3.1C63.8-451.4,65.5-450.2,65.5-448.3z M58.9-443.1
			c0,1.3,1.2,2,2.7,2s2.7-0.7,2.7-2c0-1.3-1.2-2-2.7-2S58.9-444.4,58.9-443.1z M59.1-448.2c0,1.3,1.1,2,2.5,2c1.4,0,2.5-0.7,2.5-2
			c0-1.2-1.1-1.9-2.5-1.9C60.3-450.1,59.1-449.4,59.1-448.2z"/>
		<path class="st14" d="M71.8-440h-1.4v-9.4l-3.2,1.4v-1.4l4.6-1.9V-440z"/>
		<path class="st14" d="M82.5-445h-6.1v5H75v-11.2h7.8v1.3h-6.4v3.6h6.1V-445z"/>
	</g>
	<g class="st2">
		<path class="st14" d="M799-470.4c-1-0.6-2.2-1.1-3.6-1.1c-1.4,0-2.4,0.6-2.4,1.5c0,0.9,1.1,1.2,2.6,1.5l0.7,0.1
			c2.2,0.4,4,1.3,4,3.5c0,2.8-2.4,4.1-5.2,4.1c-1.9,0-4-0.6-5.3-1.6l1.3-2c0.9,0.7,2.4,1.4,4,1.4c1.4,0,2.5-0.5,2.5-1.5
			c0-0.9-0.9-1.2-2.7-1.5l-0.8-0.1c-2.2-0.4-3.8-1.3-3.8-3.6c0-2.6,2.3-4,5-4c1.8,0,3.2,0.4,4.8,1.3L799-470.4z"/>
		<path class="st14" d="M811.1-461h-2.3v-1c-0.6,0.7-1.4,1.2-2.6,1.2c-2.4,0-4.2-2-4.2-4.6s1.8-4.6,4.2-4.6c1.2,0,2,0.5,2.6,1.2v-1
			h2.3V-461z M804.4-465.4c0,1.3,0.9,2.4,2.3,2.4c1.3,0,2.3-1,2.3-2.4c0-1.4-0.9-2.4-2.3-2.4C805.2-467.8,804.4-466.7,804.4-465.4z"
			/>
		<path class="st14" d="M821.8-466.6v5.6h-2.3v-4.8c0-1.3-0.6-2-1.7-2c-1,0-1.8,0.7-1.8,2v4.8h-2.3v-8.7h2.3v1
			c0.6-0.9,1.6-1.3,2.6-1.3C820.4-470,821.8-468.6,821.8-466.6z"/>
		<path class="st14" d="M830.4-468.8v-5.1h2.3v13h-2.3v-1c-0.6,0.7-1.4,1.2-2.6,1.2c-2.4,0-4.2-2-4.2-4.6s1.8-4.6,4.2-4.6
			C829-470,829.9-469.5,830.4-468.8z M826.1-465.4c0,1.3,0.9,2.4,2.3,2.4c1.3,0,2.2-1,2.2-2.4c0-1.4-0.9-2.4-2.2-2.4
			C826.9-467.8,826.1-466.7,826.1-465.4z"/>
	</g>
	<g class="st2">
		<path class="st14" d="M792.9-446.3l0.6-2.9h1.2l-0.6,2.9h2.6l0.6-2.9h1.2l-0.6,2.9h1.8l-0.2,1.2h-1.8l-0.6,3h1.8l-0.2,1.2h-1.8
			l-0.6,3H795l0.6-3H793l-0.6,3h-1.2l0.6-3H790l0.2-1.2h1.8l0.6-3h-1.8l0.3-1.2H792.9z M793.2-442.1h2.6l0.6-3h-2.6L793.2-442.1z"/>
		<path class="st14" d="M809.8-443h-6.1v5h-1.4v-11.2h7.8v1.3h-6.4v3.6h6.1V-443z"/>
		<path class="st14" d="M818.1-441.6h1.9v1.3h-1.9v2.3h-1.4v-2.3h-5.2v-1l4.2-7.8h1.5l-4.1,7.6h3.6v-3.1h1.4V-441.6z"/>
		<path class="st14" d="M831.7-447l-1.2,0.8c-0.7-1.1-2-1.8-3.4-1.8c-2.5,0-4.3,1.8-4.3,4.4c0,2.6,1.9,4.4,4.3,4.4
			c1.4,0,2.7-0.7,3.4-1.8l1.2,0.8c-0.9,1.4-2.6,2.3-4.5,2.3c-3.4,0-5.8-2.4-5.8-5.8c0-3.4,2.4-5.8,5.8-5.8
			C829.1-449.4,830.8-448.5,831.7-447z"/>
		<path class="st14" d="M839.5-441.6h1.9v1.3h-1.9v2.3h-1.4v-2.3H833v-1l4.2-7.8h1.5l-4.1,7.6h3.5v-3.1h1.4V-441.6z"/>
		<path class="st14" d="M849.1-441.6h1.9v1.3h-1.9v2.3h-1.4v-2.3h-5.2v-1l4.2-7.8h1.5l-4.1,7.6h3.5v-3.1h1.4V-441.6z"/>
		<path class="st14" d="M862.7-447l-1.2,0.8c-0.7-1.1-2-1.8-3.4-1.8c-2.5,0-4.3,1.8-4.3,4.4c0,2.6,1.9,4.4,4.3,4.4
			c1.4,0,2.7-0.7,3.4-1.8l1.2,0.8c-0.9,1.4-2.6,2.3-4.5,2.3c-3.4,0-5.8-2.4-5.8-5.8c0-3.4,2.4-5.8,5.8-5.8
			C860.1-449.4,861.8-448.5,862.7-447z"/>
	</g>
	<g class="st2">
		<path class="st14" d="M411.8-475.6c3,0,4.6,1.4,4.6,3.8c0,2.1-1.4,3.5-3.9,3.7l3.9,5.1h-3l-3.7-5h-0.7v5h-2.5v-12.6H411.8z
			 M408.9-473.3v3.1h2.8c1.4,0,2.1-0.5,2.1-1.6c0-1-0.7-1.5-2.1-1.5H408.9z"/>
		<path class="st14" d="M427-467.4c0,2.6-2,4.6-4.7,4.6c-2.7,0-4.7-2-4.7-4.6s2-4.6,4.7-4.6C425-472,427-470,427-467.4z
			 M419.9-467.4c0,1.4,1,2.4,2.3,2.4c1.3,0,2.3-1,2.3-2.4s-1-2.4-2.3-2.4C420.9-469.8,419.9-468.8,419.9-467.4z"/>
		<path class="st14" d="M436.5-470.3l-1.7,1.4c-0.5-0.6-1.1-0.9-1.9-0.9c-1.2,0-2.2,1-2.2,2.4c0,1.5,1,2.4,2.2,2.4
			c0.8,0,1.4-0.3,1.9-0.9l1.7,1.4c-0.8,1.1-2,1.6-3.5,1.6c-2.8,0-4.6-1.9-4.6-4.6c0-2.6,1.9-4.6,4.6-4.6
			C434.5-472,435.7-471.4,436.5-470.3z"/>
		<path class="st14" d="M440.6-468.6h0.8l2.5-3.1h2.9l-3.4,4.1l3.5,4.6h-2.9l-2.5-3.5h-0.8v3.5h-2.3v-13h2.3V-468.6z"/>
	</g>
	<g class="st2">
		<path class="st14" d="M408.9-448.3l0.6-2.9h1.2l-0.6,2.9h2.6l0.6-2.9h1.2l-0.6,2.9h1.8l-0.2,1.2h-1.8l-0.6,3h1.8l-0.2,1.2h-1.8
			l-0.6,3H411l0.6-3H409l-0.6,3h-1.2l0.6-3H406l0.2-1.2h1.8l0.6-3h-1.8l0.3-1.2H408.9z M409.2-444.1h2.6l0.6-3h-2.6L409.2-444.1z"/>
		<path class="st14" d="M423.7-443.6h1.9v1.3h-1.9v2.3h-1.4v-2.3h-5.2v-1l4.2-7.8h1.5l-4.1,7.6h3.5v-3.1h1.4V-443.6z"/>
		<path class="st14" d="M437.3-449l-1.2,0.8c-0.7-1.1-2-1.8-3.4-1.8c-2.5,0-4.3,1.8-4.3,4.4c0,2.6,1.9,4.4,4.3,4.4
			c1.4,0,2.7-0.7,3.4-1.8l1.2,0.8c-0.9,1.4-2.6,2.3-4.5,2.3c-3.4,0-5.8-2.4-5.8-5.8c0-3.4,2.4-5.8,5.8-5.8
			C434.7-451.4,436.4-450.5,437.3-449z"/>
		<path class="st14" d="M443.3-440h-1.4v-9.4l-3.2,1.4v-1.4l4.6-1.9V-440z"/>
		<path class="st14" d="M456.1-440h-1.5l-1.2-3.1h-5.4l-1.2,3.1h-1.5l4.5-11.2h1.8L456.1-440z M448.4-444.4h4.4l-2.2-5.4
			L448.4-444.4z"/>
		<path class="st14" d="M466.7-445.6c0,3.6-2.1,5.8-4.6,5.8c-2.6,0-4.6-2.2-4.6-5.8c0-3.6,2.1-5.8,4.6-5.8
			C464.6-451.4,466.7-449.2,466.7-445.6z M458.8-445.6c0,2.9,1.5,4.5,3.2,4.5c1.8,0,3.2-1.6,3.2-4.5c0-2.9-1.4-4.5-3.2-4.5
			C460.3-450.1,458.8-448.5,458.8-445.6z"/>
		<path class="st14" d="M476.8-445h-6.1v5h-1.4v-11.2h7.8v1.3h-6.4v3.6h6.1V-445z"/>
	</g>
	<g class="st2">
		<path class="st14" d="M992.3-466.1h-6.3v5.1h-2.5v-12.6h9.3v2.3h-6.7v2.9h6.3V-466.1z"/>
		<path class="st14" d="M1003.4-465.4c0,2.6-2,4.6-4.7,4.6c-2.7,0-4.7-2-4.7-4.6s2-4.6,4.7-4.6C1001.4-470,1003.4-468,1003.4-465.4z
			 M996.4-465.4c0,1.4,1,2.4,2.3,2.4c1.3,0,2.3-1,2.3-2.4s-1-2.4-2.3-2.4C997.3-467.8,996.4-466.8,996.4-465.4z"/>
		<path class="st14" d="M1011.3-469.8l-0.4,2.3c-0.4-0.2-0.9-0.3-1.4-0.3c-1.1,0-1.8,0.7-1.8,2v4.8h-2.3v-8.7h2.3v1
			c0.5-0.8,1.4-1.2,2.5-1.2C1010.5-470,1010.9-469.9,1011.3-469.8z"/>
		<path class="st14" d="M1020.7-465.4c0,0.3,0,0.6,0,0.8h-6.2c0.3,1.3,1.1,1.8,2.2,1.8c0.8,0,1.6-0.3,2.2-0.8l1.4,1.5
			c-1,0.9-2.2,1.3-3.7,1.3c-2.7,0-4.5-1.8-4.5-4.6c0-2.7,1.8-4.6,4.4-4.6C1019-470,1020.7-468.1,1020.7-465.4z M1014.5-466.2h3.9
			c-0.2-1.1-0.9-1.7-1.9-1.7C1015.3-467.9,1014.7-467.3,1014.5-466.2z"/>
		<path class="st14" d="M1028.8-467.3c-0.7-0.3-1.8-0.7-2.8-0.7c-0.9,0-1.3,0.3-1.3,0.8c0,0.5,0.6,0.6,1.4,0.7l0.8,0.1
			c1.9,0.3,2.9,1.1,2.9,2.6c0,1.8-1.5,3-4,3c-1.2,0-2.7-0.2-3.9-1l0.9-1.8c0.7,0.5,1.7,0.9,3,0.9c1.1,0,1.6-0.3,1.6-0.8
			c0-0.4-0.4-0.7-1.4-0.8l-0.7-0.1c-2-0.3-3-1.2-3-2.6c0-1.8,1.4-2.9,3.7-2.9c1.4,0,2.5,0.3,3.6,0.8L1028.8-467.3z"/>
		<path class="st14" d="M1037.9-467.6h-3.2v3.2c0,1.1,0.6,1.5,1.3,1.5c0.6,0,1.2-0.3,1.6-0.6l0.9,1.8c-0.8,0.5-1.6,0.9-2.9,0.9
			c-2.2,0-3.3-1.2-3.3-3.5v-3.4h-1.7v-2.1h1.7v-2.6h2.3v2.6h3.2V-467.6z"/>
	</g>
	<g class="st2">
		<path class="st14" d="M985.9-446.3l0.6-2.9h1.2l-0.6,2.9h2.6l0.6-2.9h1.2l-0.6,2.9h1.8l-0.2,1.2h-1.8l-0.6,3h1.8l-0.2,1.2h-1.8
			l-0.6,3H988l0.6-3H986l-0.6,3h-1.2l0.6-3H983l0.2-1.2h1.8l0.6-3h-1.8l0.3-1.2H985.9z M986.2-442.1h2.6l0.6-3h-2.6L986.2-442.1z"/>
		<path class="st14" d="M998.8-438h-1.4v-9.4l-3.2,1.4v-1.4l4.6-1.9V-438z"/>
		<path class="st14" d="M1009.6-443h-6.1v5h-1.4v-11.2h7.8v1.3h-6.4v3.6h6.1V-443z"/>
		<path class="st14" d="M1019.1-448.1l-5,10.1h-1.6l5-9.9h-6v-1.3h7.6V-448.1z"/>
		<path class="st14" d="M1020.3-447.5c0.5-0.8,1.5-1.9,3.5-1.9c2.3,0,3.6,1.5,3.6,3.5c0,1.4-0.8,2.4-1.5,3.2l-3.2,3.4h5.1v1.3h-7.1
			v-1.1l4.2-4.4c0.7-0.7,1.1-1.5,1.1-2.4c0-1.2-0.8-2.2-2.2-2.2c-1.2,0-1.9,0.6-2.4,1.4L1020.3-447.5z"/>
		<path class="st14" d="M1033.5-438h-1.4v-9.4l-3.2,1.4v-1.4l4.6-1.9V-438z"/>
		<path class="st14" d="M1044.2-443h-6.1v5h-1.4v-11.2h7.8v1.3h-6.4v3.6h6.1V-443z"/>
	</g>
	<g class="st2">
		<path class="st15" d="M691.4-295.4h-1.3l-6.8-8.8l0,8.8H682v-11.2h1.3l6.8,8.8v-8.8h1.4V-295.4z"/>
		<path class="st15" d="M701.9-299.2c0,2.3-1.7,4-4,4s-4-1.7-4-4s1.7-4,4-4S701.9-301.4,701.9-299.2z M695.2-299.2
			c0,1.6,1.2,2.7,2.7,2.7c1.5,0,2.7-1.1,2.7-2.7s-1.2-2.7-2.7-2.7C696.3-301.9,695.2-300.8,695.2-299.2z"/>
		<path class="st15" d="M709-302.9l-0.3,1.3c-0.4-0.2-0.9-0.3-1.3-0.3c-1.2,0-2,0.9-2,2.3v4.2h-1.3v-7.6h1.3v1
			c0.5-0.7,1.3-1.2,2.2-1.2C708.1-303.1,708.6-303.1,709-302.9z"/>
		<path class="st15" d="M723.4-300.1v4.7H722v-4.3c0-1.4-0.8-2.2-2.1-2.2c-1.3,0-2.2,0.9-2.2,2.3v4.3h-1.3v-4.3
			c0-1.4-0.8-2.2-2.1-2.2c-1.2,0-2.2,0.8-2.2,2.3v4.3h-1.3v-7.6h1.3v1c0.6-0.9,1.6-1.2,2.5-1.2c1.3,0,2.3,0.6,2.8,1.5
			c0.6-1.2,1.8-1.5,2.8-1.5C722.1-303.1,723.4-301.9,723.4-300.1z"/>
		<path class="st15" d="M733.3-295.4h-1.3v-1c-0.6,0.7-1.5,1.2-2.7,1.2c-2.1,0-3.8-1.7-3.8-4s1.7-4,3.8-4c1.2,0,2.1,0.5,2.7,1.2v-1
			h1.3V-295.4z M726.8-299.2c0,1.5,1.1,2.7,2.6,2.7c1.5,0,2.6-1.2,2.6-2.7c0-1.6-1.1-2.7-2.6-2.7
			C727.8-301.9,726.8-300.7,726.8-299.2z"/>
		<path class="st15" d="M737.3-295.4H736v-11.5h1.3V-295.4z"/>
	</g>
	<g class="st2">
		<path class="st15" d="M12-295h-1.3L4-303.8l0,8.8H2.6v-11.2h1.3l6.8,8.8v-8.8H12V-295z"/>
		<path class="st15" d="M22.5-298.8c0,2.3-1.7,4-4,4s-4-1.7-4-4s1.7-4,4-4S22.5-301.1,22.5-298.8z M15.8-298.8
			c0,1.6,1.2,2.7,2.7,2.7c1.5,0,2.7-1.1,2.7-2.7s-1.2-2.7-2.7-2.7C16.9-301.5,15.8-300.4,15.8-298.8z"/>
		<path class="st15" d="M29.6-302.5l-0.3,1.3c-0.4-0.2-0.9-0.3-1.3-0.3c-1.2,0-2,0.9-2,2.3v4.2h-1.3v-7.6H26v1
			c0.5-0.7,1.3-1.2,2.2-1.2C28.7-302.8,29.2-302.7,29.6-302.5z"/>
		<path class="st15" d="M44-299.7v4.7h-1.3v-4.3c0-1.4-0.8-2.2-2.1-2.2c-1.3,0-2.2,0.9-2.2,2.3v4.3H37v-4.3c0-1.4-0.8-2.2-2.1-2.2
			c-1.2,0-2.2,0.8-2.2,2.3v4.3h-1.3v-7.6h1.3v1c0.6-0.9,1.6-1.2,2.5-1.2c1.3,0,2.3,0.6,2.8,1.5c0.6-1.2,1.8-1.5,2.8-1.5
			C42.7-302.8,44-301.5,44-299.7z"/>
		<path class="st15" d="M53.9-295h-1.3v-1c-0.6,0.7-1.5,1.2-2.7,1.2c-2.1,0-3.8-1.7-3.8-4s1.7-4,3.8-4c1.2,0,2.1,0.5,2.7,1.2v-1h1.3
			V-295z M47.4-298.8c0,1.5,1.1,2.7,2.6,2.7c1.5,0,2.6-1.2,2.6-2.7c0-1.6-1.1-2.7-2.6-2.7C48.5-301.5,47.4-300.3,47.4-298.8z"/>
		<path class="st15" d="M58-295h-1.3v-11.5H58V-295z"/>
	</g>
	<g class="st2">
		<path class="st15" d="M211-301.3h6.6v-4.9h1.4v11.2h-1.4v-5H211v5h-1.4v-11.2h1.4V-301.3z"/>
		<path class="st15" d="M229.5-298.8c0,2.3-1.7,4-4,4s-4-1.7-4-4s1.7-4,4-4S229.5-301.1,229.5-298.8z M222.8-298.8
			c0,1.6,1.2,2.7,2.7,2.7c1.5,0,2.7-1.1,2.7-2.7s-1.2-2.7-2.7-2.7C223.9-301.5,222.8-300.4,222.8-298.8z"/>
		<path class="st15" d="M235.1-295h-1.5l-3.2-7.6h1.4l2.6,6.3l2.6-6.3h1.4L235.1-295z"/>
		<path class="st15" d="M246.6-298.8c0,0.2,0,0.3,0,0.5h-6c0.2,1.6,1.3,2.4,2.6,2.4c0.9,0,1.7-0.3,2.3-0.9l0.7,0.9
			c-0.9,0.9-2,1.2-3.1,1.2c-2.3,0-3.9-1.6-3.9-4c0-2.3,1.6-4,3.8-4C245.1-302.8,246.6-301.1,246.6-298.8z M240.6-299.4h4.6
			c-0.2-1.3-1-2.2-2.3-2.2C241.7-301.6,240.8-300.7,240.6-299.4z"/>
		<path class="st15" d="M253.7-302.5l-0.3,1.3c-0.4-0.2-0.9-0.3-1.3-0.3c-1.2,0-2,0.9-2,2.3v4.2h-1.3v-7.6h1.3v1
			c0.5-0.7,1.3-1.2,2.2-1.2C252.8-302.8,253.3-302.7,253.7-302.5z"/>
	</g>
	<g class="st2">
		<path class="st15" d="M418-299.5v4.5h-1.4v-11.2h4.3c2.5,0,4,1.3,4,3.4s-1.4,3.4-4,3.4H418z M418-304.9v4.1h2.8
			c1.7,0,2.5-0.7,2.5-2s-0.9-2-2.5-2H418z"/>
		<path class="st15" d="M431.9-302.5l-0.3,1.3c-0.4-0.2-0.9-0.3-1.3-0.3c-1.2,0-2,0.9-2,2.3v4.2H427v-7.6h1.3v1
			c0.5-0.7,1.3-1.2,2.2-1.2C431.1-302.8,431.5-302.7,431.9-302.5z"/>
		<path class="st15" d="M440.2-298.8c0,0.2,0,0.3,0,0.5h-6c0.2,1.6,1.3,2.4,2.6,2.4c0.9,0,1.7-0.3,2.3-0.9l0.7,0.9
			c-0.9,0.9-2,1.2-3.1,1.2c-2.3,0-3.9-1.6-3.9-4c0-2.3,1.6-4,3.8-4C438.7-302.8,440.1-301.1,440.2-298.8z M434.2-299.4h4.6
			c-0.2-1.3-1-2.2-2.3-2.2C435.2-301.6,434.4-300.7,434.2-299.4z"/>
		<path class="st15" d="M447.5-300.9c-0.5-0.3-1.4-0.7-2.4-0.7c-1,0-1.7,0.4-1.7,1.1c0,0.6,0.6,0.9,1.5,1l0.9,0.1
			c1.6,0.2,2.6,0.9,2.6,2.2c0,1.4-1.3,2.4-3.4,2.4c-0.9,0-2.2-0.2-3.2-1l0.6-1c0.6,0.4,1.3,0.8,2.6,0.8c1.2,0,2-0.4,2-1.2
			c0-0.6-0.5-0.9-1.5-1l-0.9-0.1c-1.7-0.2-2.5-1-2.5-2.1c0-1.5,1.2-2.3,3.1-2.3c1.2,0,2.3,0.3,3,0.8L447.5-300.9z"/>
		<path class="st15" d="M455.4-300.9c-0.5-0.3-1.4-0.7-2.4-0.7c-1,0-1.7,0.4-1.7,1.1c0,0.6,0.6,0.9,1.5,1l0.9,0.1
			c1.6,0.2,2.6,0.9,2.6,2.2c0,1.4-1.3,2.4-3.4,2.4c-0.9,0-2.2-0.2-3.2-1l0.6-1c0.6,0.4,1.3,0.8,2.6,0.8c1.2,0,2-0.4,2-1.2
			c0-0.6-0.5-0.9-1.5-1l-0.9-0.1c-1.7-0.2-2.5-1-2.5-2.1c0-1.5,1.2-2.3,3.1-2.3c1.2,0,2.3,0.3,3,0.8L455.4-300.9z"/>
	</g>
	<g class="st2">
		<path class="st15" d="M689.5-194.7h-7.9v-11.2h7.9v1.3H683v3.6h6.3v1.3H683v3.7h6.5V-194.7z"/>
		<path class="st15" d="M699.2-199.4v4.7h-1.3v-4.3c0-1.4-0.8-2.2-2.1-2.2c-1.2,0-2.2,0.8-2.2,2.3v4.3h-1.3v-7.6h1.3v1
			c0.6-0.9,1.6-1.2,2.5-1.2C697.9-202.5,699.2-201.3,699.2-199.4z"/>
		<path class="st15" d="M706.9-201.1h-3.2v3.7c0,1.1,0.6,1.6,1.4,1.6c0.6,0,1.1-0.2,1.6-0.5l0.6,1c-0.6,0.4-1.3,0.8-2.3,0.8
			c-1.6,0-2.6-0.9-2.6-2.8v-3.7h-1.6v-1.2h1.6v-2.4h1.3v2.4h3.2V-201.1z"/>
		<path class="st15" d="M713.9-202.2l-0.3,1.3c-0.4-0.2-0.9-0.3-1.3-0.3c-1.2,0-2,0.9-2,2.3v4.2H709v-7.6h1.3v1
			c0.5-0.7,1.3-1.2,2.2-1.2C713.1-202.5,713.5-202.4,713.9-202.2z"/>
		<path class="st15" d="M717-191.5h-1.4l2.8-4.9l-3.5-6h1.5l2.7,4.7l2.6-4.7h1.4L717-191.5z"/>
		<path class="st15" d="M733.4-201.1h-2.9v6.4h-1.3v-6.4h-1.7v-1.2h1.7v-1.3c0-1.6,0.7-2.8,2.5-2.8c0.9,0,1.5,0.2,2.1,0.6l-0.5,1.1
			c-0.4-0.2-1-0.4-1.5-0.4c-0.9,0-1.3,0.6-1.3,1.6v1.3h2.9V-201.1z"/>
		<path class="st15" d="M736.9-205c0,0.5-0.4,0.9-0.9,0.9s-0.9-0.4-0.9-0.9c0-0.5,0.4-0.9,0.9-0.9S736.9-205.5,736.9-205z
			 M736.6-194.7h-1.3v-7.6h1.3V-194.7z"/>
		<path class="st15" d="M746.1-198.5c0,0.2,0,0.3,0,0.5h-6c0.2,1.6,1.3,2.4,2.6,2.4c0.9,0,1.7-0.3,2.3-0.9l0.7,0.9
			c-0.9,0.9-2,1.2-3.1,1.2c-2.3,0-3.9-1.6-3.9-4c0-2.3,1.6-4,3.8-4C744.6-202.5,746.1-200.9,746.1-198.5z M740.2-199.1h4.6
			c-0.2-1.3-1-2.2-2.3-2.2C741.2-201.3,740.3-200.4,740.2-199.1z"/>
		<path class="st15" d="M749.6-194.7h-1.3v-11.5h1.3V-194.7z"/>
		<path class="st15" d="M758.3-201.3v-4.9h1.3v11.5h-1.3v-1c-0.6,0.7-1.5,1.2-2.7,1.2c-2.1,0-3.8-1.7-3.8-4s1.7-4,3.8-4
			C756.8-202.5,757.7-202,758.3-201.3z M753.2-198.5c0,1.5,1.1,2.7,2.6,2.7c1.5,0,2.6-1.2,2.6-2.7c0-1.6-1.1-2.7-2.6-2.7
			C754.2-201.2,753.2-200,753.2-198.5z"/>
	</g>
	<g class="st2">
		<path class="st15" d="M689.5-93.2h-7.9v-11.2h7.9v1.3H683v3.6h6.3v1.3H683v3.7h6.5V-93.2z"/>
		<path class="st15" d="M697.1-100.7l-0.3,1.3c-0.4-0.2-0.9-0.3-1.3-0.3c-1.2,0-2,0.9-2,2.3v4.2h-1.3v-7.6h1.3v1
			c0.5-0.7,1.3-1.2,2.2-1.2C696.3-101,696.7-100.9,697.1-100.7z"/>
		<path class="st15" d="M703.8-100.7l-0.3,1.3c-0.4-0.2-0.9-0.3-1.3-0.3c-1.2,0-2,0.9-2,2.3v4.2h-1.3v-7.6h1.3v1
			c0.5-0.7,1.3-1.2,2.2-1.2C703-101,703.4-100.9,703.8-100.7z"/>
		<path class="st15" d="M712.8-97c0,2.3-1.7,4-4,4s-4-1.7-4-4s1.7-4,4-4S712.8-99.3,712.8-97z M706.1-97c0,1.6,1.2,2.7,2.7,2.7
			c1.5,0,2.7-1.1,2.7-2.7s-1.2-2.7-2.7-2.7C707.2-99.7,706.1-98.6,706.1-97z"/>
		<path class="st15" d="M719.9-100.7l-0.3,1.3c-0.4-0.2-0.9-0.3-1.3-0.3c-1.2,0-2,0.9-2,2.3v4.2H715v-7.6h1.3v1
			c0.5-0.7,1.3-1.2,2.2-1.2C719-101,719.4-100.9,719.9-100.7z"/>
	</g>
	<rect id="Rectangle-Copy-15" x="680.9" y="-277.9" class="st16" width="411" height="53"/>
	<rect id="Rectangle-Copy-17" x="680.5" y="-177.2" class="st16" width="411" height="53"/>
	<rect id="Rectangle-Copy-16" x="680.5" y="-75.7" class="st17" width="411" height="53"/>
	<g>
		<rect id="Rectangle_1_" x="1" y="-277.6" class="st0" width="172" height="53.8"/>
		<rect id="Rectangle-Copy-6" x="208" y="-277.6" class="st18" width="172" height="53.8"/>
		<rect id="Rectangle-Copy-7" x="416" y="-276.6" class="st19" width="170" height="51.8"/>
		<g class="st2">
			<path class="st20" d="M467.9-256.2v1.5h-4.1v2.6h3.8v1.5h-3.8v2.8h4.2v1.5h-6v-9.8H467.9z"/>
			<path class="st20" d="M471.7-256.2l3.3,6.7h0.3v-6.7h1.8v9.8h-2.2l-3.3-6.7h-0.3v6.7h-1.8v-9.8H471.7z"/>
			<path class="st20" d="M478.3-254.8v-1.5h6.8v1.5h-2.5v8.3h-1.9v-8.3H478.3z"/>
			<path class="st20" d="M492.3-256.2v1.5h-4.1v2.6h3.8v1.5h-3.8v2.8h4.2v1.5h-6v-9.8H492.3z"/>
			<path class="st20" d="M500.7-247.5v1.1h-1.5l-2.3-3.8h-1.3v3.8h-1.9v-9.8h3.9c1.2,0,2.3,0.6,2.9,1.7v2.7c-0.4,0.7-1,1.2-1.8,1.5
				L500.7-247.5z M495.7-251.6h1.6c0.7,0,1.2-0.3,1.5-0.8v-1.5c-0.3-0.5-0.9-0.8-1.5-0.8h-1.6V-251.6z"/>
			<path class="st20" d="M507.3-256.2l3.3,6.7h0.3v-6.7h1.8v9.8h-2.2l-3.3-6.7h-0.3v6.7h-1.8v-9.8H507.3z"/>
			<path class="st20" d="M517.9-256.4c2.1,0,3.2,1.2,3.6,2.1v5.9c-0.4,0.9-1.5,2.1-3.6,2.1s-3.2-1.2-3.6-2.1v-5.9
				C514.7-255.2,515.8-256.4,517.9-256.4z M517.9-247.7c0.9,0,1.5-0.5,1.8-1.1v-5.2c-0.2-0.5-0.8-1.1-1.8-1.1
				c-0.9,0-1.5,0.5-1.8,1.1v5.2C516.4-248.2,517-247.7,517.9-247.7z"/>
			<path class="st20" d="M522.6-256.2h1.8l1.3,7.4h0.3l1.7-7.4h1.8l1.8,7.4h0.3l1.3-7.4h1.8v1.1l-1.8,8.7h-2.6l-1.6-6.4h-0.2
				l-1.6,6.4h-2.4l-1.8-8.7V-256.2z"/>
		</g>
		<g class="st2">
			<path class="st14" d="M53.9-256.2v1.5h-4.1v2.6h3.8v1.5h-3.8v2.8H54v1.5h-6v-9.8H53.9z"/>
			<path class="st14" d="M57.7-256.2l3.3,6.7h0.3v-6.7H63v9.8h-2.2l-3.3-6.7h-0.3v6.7h-1.8v-9.8H57.7z"/>
			<path class="st14" d="M64.3-254.8v-1.5h6.8v1.5h-2.5v8.3h-1.9v-8.3H64.3z"/>
			<path class="st14" d="M78.3-256.2v1.5h-4.1v2.6H78v1.5h-3.8v2.8h4.2v1.5h-6v-9.8H78.3z"/>
			<path class="st14" d="M86.7-247.5v1.1h-1.5l-2.3-3.8h-1.3v3.8h-1.9v-9.8h3.9c1.2,0,2.3,0.6,2.9,1.7v2.7c-0.4,0.7-1,1.2-1.8,1.5
				L86.7-247.5z M81.7-251.6h1.6c0.7,0,1.2-0.3,1.5-0.8v-1.5c-0.3-0.5-0.9-0.8-1.5-0.8h-1.6V-251.6z"/>
			<path class="st14" d="M93.3-256.2l3.3,6.7h0.3v-6.7h1.8v9.8h-2.2l-3.3-6.7h-0.3v6.7h-1.8v-9.8H93.3z"/>
			<path class="st14" d="M103.9-256.4c2.1,0,3.2,1.2,3.6,2.1v5.9c-0.4,0.9-1.5,2.1-3.6,2.1s-3.2-1.2-3.6-2.1v-5.9
				C100.7-255.2,101.8-256.4,103.9-256.4z M103.9-247.7c0.9,0,1.5-0.5,1.8-1.1v-5.2c-0.2-0.5-0.8-1.1-1.8-1.1
				c-0.9,0-1.5,0.5-1.8,1.1v5.2C102.4-248.2,103-247.7,103.9-247.7z"/>
			<path class="st14" d="M108.6-256.2h1.8l1.3,7.4h0.3l1.7-7.4h1.8l1.8,7.4h0.3l1.3-7.4h1.8v1.1l-1.8,8.7h-2.6l-1.6-6.4h-0.2
				l-1.6,6.4h-2.4l-1.8-8.7V-256.2z"/>
		</g>
		<g class="st2">
			<path class="st14" d="M260.9-256.2v1.5h-4.1v2.6h3.8v1.5h-3.8v2.8h4.2v1.5h-6v-9.8H260.9z"/>
			<path class="st14" d="M264.7-256.2l3.3,6.7h0.3v-6.7h1.8v9.8h-2.2l-3.3-6.7h-0.3v6.7h-1.8v-9.8H264.7z"/>
			<path class="st14" d="M271.3-254.8v-1.5h6.8v1.5h-2.5v8.3h-1.9v-8.3H271.3z"/>
			<path class="st14" d="M285.3-256.2v1.5h-4.1v2.6h3.8v1.5h-3.8v2.8h4.2v1.5h-6v-9.8H285.3z"/>
			<path class="st14" d="M293.7-247.5v1.1h-1.5l-2.3-3.8h-1.3v3.8h-1.9v-9.8h3.9c1.2,0,2.3,0.6,2.9,1.7v2.7c-0.4,0.7-1,1.2-1.8,1.5
				L293.7-247.5z M288.7-251.6h1.6c0.7,0,1.2-0.3,1.5-0.8v-1.5c-0.3-0.5-0.9-0.8-1.5-0.8h-1.6V-251.6z"/>
			<path class="st14" d="M300.3-256.2l3.3,6.7h0.3v-6.7h1.8v9.8h-2.2l-3.3-6.7h-0.3v6.7h-1.8v-9.8H300.3z"/>
			<path class="st14" d="M310.9-256.4c2.1,0,3.2,1.2,3.6,2.1v5.9c-0.4,0.9-1.5,2.1-3.6,2.1s-3.2-1.2-3.6-2.1v-5.9
				C307.7-255.2,308.8-256.4,310.9-256.4z M310.9-247.7c0.9,0,1.5-0.5,1.8-1.1v-5.2c-0.2-0.5-0.8-1.1-1.8-1.1
				c-0.9,0-1.5,0.5-1.8,1.1v5.2C309.4-248.2,310-247.7,310.9-247.7z"/>
			<path class="st14" d="M315.6-256.2h1.8l1.3,7.4h0.3l1.7-7.4h1.8l1.8,7.4h0.3l1.3-7.4h1.8v1.1l-1.8,8.7h-2.6l-1.6-6.4h-0.2
				l-1.6,6.4h-2.4l-1.8-8.7V-256.2z"/>
		</g>
	</g>
	<g class="st2">
		<path class="st20" d="M692.2-260.2l3.9,7.6h0.2v-7.6h1.3v9.8h-1.8l-3.9-7.6h-0.2v7.6h-1.3v-9.8H692.2z"/>
		<path class="st20" d="M705.4-256.3v5.9h-1.3v-0.6c-0.5,0.4-1.2,0.8-2.2,0.8c-1.7,0-2.4-0.9-2.6-1.2v-2.2c0.2-0.3,0.9-1.2,2.6-1.2
			c1,0,1.7,0.3,2.2,0.7v-1.9c-0.2-0.6-0.9-1.1-1.8-1.1c-1,0-1.4,0.5-1.6,0.8v0.7h-1.2v-1.1c0.2-0.3,1-1.4,2.8-1.4
			C704.1-258.1,705.1-257.1,705.4-256.3z M704.1-252.1v-0.9c-0.3-0.5-1-0.9-1.9-0.9c-0.9,0-1.4,0.4-1.6,0.6v1.3
			c0.2,0.2,0.6,0.7,1.6,0.7C703.2-251.2,703.8-251.6,704.1-252.1z"/>
		<path class="st20" d="M716.7-256.6v6.2h-1.3v-5.9c-0.2-0.3-0.6-0.7-1.4-0.7c-0.7,0-1.2,0.3-1.5,0.7v6h-1.3v-5.9
			c-0.2-0.3-0.5-0.7-1.4-0.7c-0.7,0-1.2,0.3-1.5,0.7v6h-1.3v-7.5h1.2v0.6c0.4-0.4,1-0.7,1.9-0.7c1.1,0,1.7,0.5,2,1
			c0.4-0.5,1.1-1,2.1-1C715.9-258.1,716.5-257.1,716.7-256.6z"/>
		<path class="st20" d="M719.6-253.8v1.5c0.2,0.6,0.9,1.1,1.8,1.1c1,0,1.6-0.5,1.8-1.1v-0.6h1.2v1c-0.3,0.6-1.2,1.7-3,1.7
			c-1.8,0-2.8-1.1-3.1-1.9v-4.2c0.3-0.8,1.3-1.8,3.1-1.8c1.8,0,2.7,1.1,3,1.7v2.6H719.6z M719.6-256v1.2h3.6v-1.2
			c-0.2-0.6-0.9-1.1-1.8-1.1C720.5-257.1,719.9-256.5,719.6-256z"/>
	</g>
	<g class="st2">
		<path class="st20" d="M692-160.8v12.9h-1.4v-12.9H692z"/>
	</g>
	<g>
		<rect id="Rectangle-Copy-9" x="1" y="-177.1" class="st12" width="172" height="53.8"/>
		<rect id="Rectangle-Copy-10" x="208" y="-177.1" class="st21" width="172" height="53.8"/>
		<rect id="Rectangle-Copy-11" x="416" y="-176.1" class="st22" width="170" height="51.8"/>
		<g class="st2">
			<path class="st14" d="M53.9-155.7v1.5h-4.1v2.6h3.8v1.5h-3.8v2.8H54v1.5h-6v-9.8H53.9z"/>
			<path class="st14" d="M57.7-155.7L61-149h0.3v-6.7H63v9.8h-2.2l-3.3-6.7h-0.3v6.7h-1.8v-9.8H57.7z"/>
			<path class="st14" d="M64.3-154.3v-1.5h6.8v1.5h-2.5v8.3h-1.9v-8.3H64.3z"/>
			<path class="st14" d="M78.3-155.7v1.5h-4.1v2.6H78v1.5h-3.8v2.8h4.2v1.5h-6v-9.8H78.3z"/>
			<path class="st14" d="M86.7-147v1.1h-1.5l-2.3-3.8h-1.3v3.8h-1.9v-9.8h3.9c1.2,0,2.3,0.6,2.9,1.7v2.7c-0.4,0.7-1,1.2-1.8,1.5
				L86.7-147z M81.7-151.1h1.6c0.7,0,1.2-0.3,1.5-0.8v-1.5c-0.3-0.5-0.9-0.8-1.5-0.8h-1.6V-151.1z"/>
			<path class="st14" d="M93.3-155.7l3.3,6.7h0.3v-6.7h1.8v9.8h-2.2l-3.3-6.7h-0.3v6.7h-1.8v-9.8H93.3z"/>
			<path class="st14" d="M103.9-155.9c2.1,0,3.2,1.2,3.6,2.1v5.9c-0.4,0.9-1.5,2.1-3.6,2.1s-3.2-1.2-3.6-2.1v-5.9
				C100.7-154.7,101.8-155.9,103.9-155.9z M103.9-147.2c0.9,0,1.5-0.5,1.8-1.1v-5.2c-0.2-0.5-0.8-1.1-1.8-1.1
				c-0.9,0-1.5,0.5-1.8,1.1v5.2C102.4-147.7,103-147.2,103.9-147.2z"/>
			<path class="st14" d="M108.6-155.7h1.8l1.3,7.4h0.3l1.7-7.4h1.8l1.8,7.4h0.3l1.3-7.4h1.8v1.1l-1.8,8.7h-2.6l-1.6-6.4h-0.2
				l-1.6,6.4h-2.4l-1.8-8.7V-155.7z"/>
		</g>
		<g class="st2">
			<path class="st14" d="M260.9-155.7v1.5h-4.1v2.6h3.8v1.5h-3.8v2.8h4.2v1.5h-6v-9.8H260.9z"/>
			<path class="st14" d="M264.7-155.7l3.3,6.7h0.3v-6.7h1.8v9.8h-2.2l-3.3-6.7h-0.3v6.7h-1.8v-9.8H264.7z"/>
			<path class="st14" d="M271.3-154.3v-1.5h6.8v1.5h-2.5v8.3h-1.9v-8.3H271.3z"/>
			<path class="st14" d="M285.3-155.7v1.5h-4.1v2.6h3.8v1.5h-3.8v2.8h4.2v1.5h-6v-9.8H285.3z"/>
			<path class="st14" d="M293.7-147v1.1h-1.5l-2.3-3.8h-1.3v3.8h-1.9v-9.8h3.9c1.2,0,2.3,0.6,2.9,1.7v2.7c-0.4,0.7-1,1.2-1.8,1.5
				L293.7-147z M288.7-151.1h1.6c0.7,0,1.2-0.3,1.5-0.8v-1.5c-0.3-0.5-0.9-0.8-1.5-0.8h-1.6V-151.1z"/>
			<path class="st14" d="M300.3-155.7l3.3,6.7h0.3v-6.7h1.8v9.8h-2.2l-3.3-6.7h-0.3v6.7h-1.8v-9.8H300.3z"/>
			<path class="st14" d="M310.9-155.9c2.1,0,3.2,1.2,3.6,2.1v5.9c-0.4,0.9-1.5,2.1-3.6,2.1s-3.2-1.2-3.6-2.1v-5.9
				C307.7-154.7,308.8-155.9,310.9-155.9z M310.9-147.2c0.9,0,1.5-0.5,1.8-1.1v-5.2c-0.2-0.5-0.8-1.1-1.8-1.1
				c-0.9,0-1.5,0.5-1.8,1.1v5.2C309.4-147.7,310-147.2,310.9-147.2z"/>
			<path class="st14" d="M315.6-155.7h1.8l1.3,7.4h0.3l1.7-7.4h1.8l1.8,7.4h0.3l1.3-7.4h1.8v1.1l-1.8,8.7h-2.6l-1.6-6.4h-0.2
				l-1.6,6.4h-2.4l-1.8-8.7V-155.7z"/>
		</g>
		<g class="st2">
			<path class="st20" d="M467.9-155.7v1.5h-4.1v2.6h3.8v1.5h-3.8v2.8h4.2v1.5h-6v-9.8H467.9z"/>
			<path class="st20" d="M471.7-155.7l3.3,6.7h0.3v-6.7h1.8v9.8h-2.2l-3.3-6.7h-0.3v6.7h-1.8v-9.8H471.7z"/>
			<path class="st20" d="M478.3-154.3v-1.5h6.8v1.5h-2.5v8.3h-1.9v-8.3H478.3z"/>
			<path class="st20" d="M492.3-155.7v1.5h-4.1v2.6h3.8v1.5h-3.8v2.8h4.2v1.5h-6v-9.8H492.3z"/>
			<path class="st20" d="M500.7-147v1.1h-1.5l-2.3-3.8h-1.3v3.8h-1.9v-9.8h3.9c1.2,0,2.3,0.6,2.9,1.7v2.7c-0.4,0.7-1,1.2-1.8,1.5
				L500.7-147z M495.7-151.1h1.6c0.7,0,1.2-0.3,1.5-0.8v-1.5c-0.3-0.5-0.9-0.8-1.5-0.8h-1.6V-151.1z"/>
			<path class="st20" d="M507.3-155.7l3.3,6.7h0.3v-6.7h1.8v9.8h-2.2l-3.3-6.7h-0.3v6.7h-1.8v-9.8H507.3z"/>
			<path class="st20" d="M517.9-155.9c2.1,0,3.2,1.2,3.6,2.1v5.9c-0.4,0.9-1.5,2.1-3.6,2.1s-3.2-1.2-3.6-2.1v-5.9
				C514.7-154.7,515.8-155.9,517.9-155.9z M517.9-147.2c0.9,0,1.5-0.5,1.8-1.1v-5.2c-0.2-0.5-0.8-1.1-1.8-1.1
				c-0.9,0-1.5,0.5-1.8,1.1v5.2C516.4-147.7,517-147.2,517.9-147.2z"/>
			<path class="st20" d="M522.6-155.7h1.8l1.3,7.4h0.3l1.7-7.4h1.8l1.8,7.4h0.3l1.3-7.4h1.8v1.1l-1.8,8.7h-2.6l-1.6-6.4h-0.2
				l-1.6,6.4h-2.4l-1.8-8.7V-155.7z"/>
		</g>
	</g>
	<g>
		<rect id="Rectangle-Copy-12" x="1" y="-76.5" class="st10" width="172" height="53.8"/>
		<rect id="Rectangle-Copy-13" x="208" y="-76.5" class="st23" width="172" height="53.8"/>
		<rect id="Rectangle-Copy-14" x="416" y="-75.5" class="st24" width="170" height="51.8"/>
		<g class="st2">
			<path class="st14" d="M53.9-55.2v1.5h-4.1v2.6h3.8v1.5h-3.8v2.8H54v1.5h-6v-9.8H53.9z"/>
			<path class="st14" d="M57.7-55.2l3.3,6.7h0.3v-6.7H63v9.8h-2.2l-3.3-6.7h-0.3v6.7h-1.8v-9.8H57.7z"/>
			<path class="st14" d="M64.3-53.7v-1.5h6.8v1.5h-2.5v8.3h-1.9v-8.3H64.3z"/>
			<path class="st14" d="M78.3-55.2v1.5h-4.1v2.6H78v1.5h-3.8v2.8h4.2v1.5h-6v-9.8H78.3z"/>
			<path class="st14" d="M86.7-46.5v1.1h-1.5L83-49.1h-1.3v3.8h-1.9v-9.8h3.9c1.2,0,2.3,0.6,2.9,1.7v2.7c-0.4,0.7-1,1.2-1.8,1.5
				L86.7-46.5z M81.7-50.6h1.6c0.7,0,1.2-0.3,1.5-0.8v-1.5c-0.3-0.5-0.9-0.8-1.5-0.8h-1.6V-50.6z"/>
			<path class="st14" d="M93.3-55.2l3.3,6.7h0.3v-6.7h1.8v9.8h-2.2l-3.3-6.7h-0.3v6.7h-1.8v-9.8H93.3z"/>
			<path class="st14" d="M103.9-55.4c2.1,0,3.2,1.2,3.6,2.1v5.9c-0.4,0.9-1.5,2.1-3.6,2.1s-3.2-1.2-3.6-2.1v-5.9
				C100.7-54.2,101.8-55.4,103.9-55.4z M103.9-46.7c0.9,0,1.5-0.5,1.8-1.1v-5.2c-0.2-0.5-0.8-1.1-1.8-1.1c-0.9,0-1.5,0.5-1.8,1.1
				v5.2C102.4-47.2,103-46.7,103.9-46.7z"/>
			<path class="st14" d="M108.6-55.2h1.8l1.3,7.4h0.3l1.7-7.4h1.8l1.8,7.4h0.3l1.3-7.4h1.8v1.1l-1.8,8.7h-2.6l-1.6-6.4h-0.2
				l-1.6,6.4h-2.4l-1.8-8.7V-55.2z"/>
		</g>
		<g class="st2">
			<path class="st14" d="M260.9-55.2v1.5h-4.1v2.6h3.8v1.5h-3.8v2.8h4.2v1.5h-6v-9.8H260.9z"/>
			<path class="st14" d="M264.7-55.2l3.3,6.7h0.3v-6.7h1.8v9.8h-2.2l-3.3-6.7h-0.3v6.7h-1.8v-9.8H264.7z"/>
			<path class="st14" d="M271.3-53.7v-1.5h6.8v1.5h-2.5v8.3h-1.9v-8.3H271.3z"/>
			<path class="st14" d="M285.3-55.2v1.5h-4.1v2.6h3.8v1.5h-3.8v2.8h4.2v1.5h-6v-9.8H285.3z"/>
			<path class="st14" d="M293.7-46.5v1.1h-1.5l-2.3-3.8h-1.3v3.8h-1.9v-9.8h3.9c1.2,0,2.3,0.6,2.9,1.7v2.7c-0.4,0.7-1,1.2-1.8,1.5
				L293.7-46.5z M288.7-50.6h1.6c0.7,0,1.2-0.3,1.5-0.8v-1.5c-0.3-0.5-0.9-0.8-1.5-0.8h-1.6V-50.6z"/>
			<path class="st14" d="M300.3-55.2l3.3,6.7h0.3v-6.7h1.8v9.8h-2.2l-3.3-6.7h-0.3v6.7h-1.8v-9.8H300.3z"/>
			<path class="st14" d="M310.9-55.4c2.1,0,3.2,1.2,3.6,2.1v5.9c-0.4,0.9-1.5,2.1-3.6,2.1s-3.2-1.2-3.6-2.1v-5.9
				C307.7-54.2,308.8-55.4,310.9-55.4z M310.9-46.7c0.9,0,1.5-0.5,1.8-1.1v-5.2c-0.2-0.5-0.8-1.1-1.8-1.1c-0.9,0-1.5,0.5-1.8,1.1
				v5.2C309.4-47.2,310-46.7,310.9-46.7z"/>
			<path class="st14" d="M315.6-55.2h1.8l1.3,7.4h0.3l1.7-7.4h1.8l1.8,7.4h0.3l1.3-7.4h1.8v1.1l-1.8,8.7h-2.6l-1.6-6.4h-0.2
				l-1.6,6.4h-2.4l-1.8-8.7V-55.2z"/>
		</g>
		<g class="st2">
			<path class="st20" d="M467.9-55.2v1.5h-4.1v2.6h3.8v1.5h-3.8v2.8h4.2v1.5h-6v-9.8H467.9z"/>
			<path class="st20" d="M471.7-55.2l3.3,6.7h0.3v-6.7h1.8v9.8h-2.2l-3.3-6.7h-0.3v6.7h-1.8v-9.8H471.7z"/>
			<path class="st20" d="M478.3-53.7v-1.5h6.8v1.5h-2.5v8.3h-1.9v-8.3H478.3z"/>
			<path class="st20" d="M492.3-55.2v1.5h-4.1v2.6h3.8v1.5h-3.8v2.8h4.2v1.5h-6v-9.8H492.3z"/>
			<path class="st20" d="M500.7-46.5v1.1h-1.5l-2.3-3.8h-1.3v3.8h-1.9v-9.8h3.9c1.2,0,2.3,0.6,2.9,1.7v2.7c-0.4,0.7-1,1.2-1.8,1.5
				L500.7-46.5z M495.7-50.6h1.6c0.7,0,1.2-0.3,1.5-0.8v-1.5c-0.3-0.5-0.9-0.8-1.5-0.8h-1.6V-50.6z"/>
			<path class="st20" d="M507.3-55.2l3.3,6.7h0.3v-6.7h1.8v9.8h-2.2l-3.3-6.7h-0.3v6.7h-1.8v-9.8H507.3z"/>
			<path class="st20" d="M517.9-55.4c2.1,0,3.2,1.2,3.6,2.1v5.9c-0.4,0.9-1.5,2.1-3.6,2.1s-3.2-1.2-3.6-2.1v-5.9
				C514.7-54.2,515.8-55.4,517.9-55.4z M517.9-46.7c0.9,0,1.5-0.5,1.8-1.1v-5.2c-0.2-0.5-0.8-1.1-1.8-1.1c-0.9,0-1.5,0.5-1.8,1.1
				v5.2C516.4-47.2,517-46.7,517.9-46.7z"/>
			<path class="st20" d="M522.6-55.2h1.8l1.3,7.4h0.3l1.7-7.4h1.8l1.8,7.4h0.3l1.3-7.4h1.8v1.1l-1.8,8.7h-2.6l-1.6-6.4h-0.2
				l-1.6,6.4h-2.4l-1.8-8.7V-55.2z"/>
		</g>
	</g>
	<g>
		<rect id="Rectangle-Copy-18" x="1" y="24" class="st4" width="172" height="53.8"/>
		<rect id="Rectangle-Copy-19" x="208" y="24" class="st25" width="172" height="53.8"/>
		<rect id="Rectangle-Copy-20" x="416" y="25" class="st26" width="170" height="51.8"/>
		<g class="st2">
			<path class="st14" d="M53.9,45.3v1.5h-4.1v2.6h3.8v1.5h-3.8v2.8H54v1.5h-6v-9.8H53.9z"/>
			<path class="st14" d="M57.7,45.3l3.3,6.7h0.3v-6.7H63v9.8h-2.2l-3.3-6.7h-0.3v6.7h-1.8v-9.8H57.7z"/>
			<path class="st14" d="M64.3,46.8v-1.5h6.8v1.5h-2.5v8.3h-1.9v-8.3H64.3z"/>
			<path class="st14" d="M78.3,45.3v1.5h-4.1v2.6H78v1.5h-3.8v2.8h4.2v1.5h-6v-9.8H78.3z"/>
			<path class="st14" d="M86.7,54v1.1h-1.5L83,51.4h-1.3v3.8h-1.9v-9.8h3.9c1.2,0,2.3,0.6,2.9,1.7v2.7c-0.4,0.7-1,1.2-1.8,1.5
				L86.7,54z M81.7,50h1.6c0.7,0,1.2-0.3,1.5-0.8v-1.5c-0.3-0.5-0.9-0.8-1.5-0.8h-1.6V50z"/>
			<path class="st14" d="M93.3,45.3l3.3,6.7h0.3v-6.7h1.8v9.8h-2.2l-3.3-6.7h-0.3v6.7h-1.8v-9.8H93.3z"/>
			<path class="st14" d="M103.9,45.1c2.1,0,3.2,1.2,3.6,2.1v5.9c-0.4,0.9-1.5,2.1-3.6,2.1s-3.2-1.2-3.6-2.1v-5.9
				C100.7,46.3,101.8,45.1,103.9,45.1z M103.9,53.9c0.9,0,1.5-0.5,1.8-1.1v-5.2c-0.2-0.5-0.8-1.1-1.8-1.1c-0.9,0-1.5,0.5-1.8,1.1
				v5.2C102.4,53.3,103,53.9,103.9,53.9z"/>
			<path class="st14" d="M108.6,45.3h1.8l1.3,7.4h0.3l1.7-7.4h1.8l1.8,7.4h0.3l1.3-7.4h1.8v1.1l-1.8,8.7h-2.6l-1.6-6.4h-0.2
				l-1.6,6.4h-2.4l-1.8-8.7V45.3z"/>
		</g>
		<g class="st2">
			<path class="st14" d="M260.9,45.3v1.5h-4.1v2.6h3.8v1.5h-3.8v2.8h4.2v1.5h-6v-9.8H260.9z"/>
			<path class="st14" d="M264.7,45.3l3.3,6.7h0.3v-6.7h1.8v9.8h-2.2l-3.3-6.7h-0.3v6.7h-1.8v-9.8H264.7z"/>
			<path class="st14" d="M271.3,46.8v-1.5h6.8v1.5h-2.5v8.3h-1.9v-8.3H271.3z"/>
			<path class="st14" d="M285.3,45.3v1.5h-4.1v2.6h3.8v1.5h-3.8v2.8h4.2v1.5h-6v-9.8H285.3z"/>
			<path class="st14" d="M293.7,54v1.1h-1.5l-2.3-3.8h-1.3v3.8h-1.9v-9.8h3.9c1.2,0,2.3,0.6,2.9,1.7v2.7c-0.4,0.7-1,1.2-1.8,1.5
				L293.7,54z M288.7,50h1.6c0.7,0,1.2-0.3,1.5-0.8v-1.5c-0.3-0.5-0.9-0.8-1.5-0.8h-1.6V50z"/>
			<path class="st14" d="M300.3,45.3l3.3,6.7h0.3v-6.7h1.8v9.8h-2.2l-3.3-6.7h-0.3v6.7h-1.8v-9.8H300.3z"/>
			<path class="st14" d="M310.9,45.1c2.1,0,3.2,1.2,3.6,2.1v5.9c-0.4,0.9-1.5,2.1-3.6,2.1s-3.2-1.2-3.6-2.1v-5.9
				C307.7,46.3,308.8,45.1,310.9,45.1z M310.9,53.9c0.9,0,1.5-0.5,1.8-1.1v-5.2c-0.2-0.5-0.8-1.1-1.8-1.1c-0.9,0-1.5,0.5-1.8,1.1
				v5.2C309.4,53.3,310,53.9,310.9,53.9z"/>
			<path class="st14" d="M315.6,45.3h1.8l1.3,7.4h0.3l1.7-7.4h1.8l1.8,7.4h0.3l1.3-7.4h1.8v1.1l-1.8,8.7h-2.6l-1.6-6.4h-0.2
				l-1.6,6.4h-2.4l-1.8-8.7V45.3z"/>
		</g>
		<g class="st2">
			<path class="st20" d="M467.9,45.3v1.5h-4.1v2.6h3.8v1.5h-3.8v2.8h4.2v1.5h-6v-9.8H467.9z"/>
			<path class="st20" d="M471.7,45.3l3.3,6.7h0.3v-6.7h1.8v9.8h-2.2l-3.3-6.7h-0.3v6.7h-1.8v-9.8H471.7z"/>
			<path class="st20" d="M478.3,46.8v-1.5h6.8v1.5h-2.5v8.3h-1.9v-8.3H478.3z"/>
			<path class="st20" d="M492.3,45.3v1.5h-4.1v2.6h3.8v1.5h-3.8v2.8h4.2v1.5h-6v-9.8H492.3z"/>
			<path class="st20" d="M500.7,54v1.1h-1.5l-2.3-3.8h-1.3v3.8h-1.9v-9.8h3.9c1.2,0,2.3,0.6,2.9,1.7v2.7c-0.4,0.7-1,1.2-1.8,1.5
				L500.7,54z M495.7,50h1.6c0.7,0,1.2-0.3,1.5-0.8v-1.5c-0.3-0.5-0.9-0.8-1.5-0.8h-1.6V50z"/>
			<path class="st20" d="M507.3,45.3l3.3,6.7h0.3v-6.7h1.8v9.8h-2.2l-3.3-6.7h-0.3v6.7h-1.8v-9.8H507.3z"/>
			<path class="st20" d="M517.9,45.1c2.1,0,3.2,1.2,3.6,2.1v5.9c-0.4,0.9-1.5,2.1-3.6,2.1s-3.2-1.2-3.6-2.1v-5.9
				C514.7,46.3,515.8,45.1,517.9,45.1z M517.9,53.9c0.9,0,1.5-0.5,1.8-1.1v-5.2c-0.2-0.5-0.8-1.1-1.8-1.1c-0.9,0-1.5,0.5-1.8,1.1
				v5.2C516.4,53.3,517,53.9,517.9,53.9z"/>
			<path class="st20" d="M522.6,45.3h1.8l1.3,7.4h0.3l1.7-7.4h1.8l1.8,7.4h0.3l1.3-7.4h1.8v1.1l-1.8,8.7h-2.6l-1.6-6.4h-0.2
				l-1.6,6.4h-2.4l-1.8-8.7V45.3z"/>
		</g>
	</g>
</g>
</svg>
