<?xml version="1.0" encoding="utf-8"?>
<!-- Generator: Adobe Illustrator 25.3.0, SVG Export Plug-In . SVG Version: 6.00 Build 0)  -->
<svg version="1.1" id="Layer_2_1_" xmlns="http://www.w3.org/2000/svg" xmlns:xlink="http://www.w3.org/1999/xlink" x="0px" y="0px"
	 viewBox="0 0 500 500" style="enable-background:new 0 0 500 500;" xml:space="preserve">
<style type="text/css">
	.st0{fill:#FFFFFF;}
	.st1{fill:#414042;}
	.st2{fill:none;}
	.st3{enable-background:new    ;}
	.st4{fill:#BF0C3F;}
	.st5{fill:#485992;}
</style>
<g>
	<g>
		<rect x="72.5" y="158.5" class="st0" width="350.3" height="217.1"/>
		<g>
			<path class="st1" d="M278,375c0,1.7-2.8,3-6.2,3h-48.2c-3.4,0-6.2-1.4-6.2-3h-188c0,10,2.7,18.2,12.5,18.2h411.4
				c9.9,0,12.5-8.1,12.5-18.2H278z"/>
			<path class="st1" d="M420.9,161.5c0-6.5-5.6-11.9-12.6-11.9H87c-6.9,0-12.6,5.3-12.6,11.9v209.7h346.5V161.5z M247.7,152.3
				c2,0,3.7,1.6,3.7,3.7c0,2-1.6,3.7-3.7,3.7c-2,0-3.7-1.6-3.7-3.7C244,153.9,245.6,152.3,247.7,152.3z M410.9,359H84.4V162h326.4
				v197H410.9z"/>
			<path class="st1" d="M247.7,157.8c1,0,1.8-0.8,1.8-1.8s-0.8-1.8-1.8-1.8s-1.8,0.8-1.8,1.8C245.8,157,246.7,157.8,247.7,157.8z"/>
		</g>
		<rect x="70.1" y="100" class="st2" width="355.2" height="59.3"/>
		<g class="st3">
			<path class="st1" d="M166.5,116.5H155v9h-6.7v-24.8h19.2v6H155v3.8h11.6V116.5z"/>
			<path class="st1" d="M193.7,125.5h-7.1l-1.6-4.7h-9.3l-1.6,4.7h-7l9.4-24.8h7.9L193.7,125.5z M177.7,114.8h5.1l-2.5-7.3
				L177.7,114.8z"/>
			<path class="st1" d="M217.1,106.5l-6,3.3c-1.2-2.1-3-3.1-5.5-3.1c-3.4,0-6,2.6-6,6.4c0,4.2,2.9,6.4,6,6.4c2.4,0,4.2-1.1,5.6-3.1
				l5.5,3.9c-2.3,3.5-6.1,5.7-11,5.7c-7.7,0-13.1-5.3-13.1-12.9c0-7.5,5.4-12.8,13.1-12.8C210.6,100.2,214.9,102.6,217.1,106.5z"/>
			<path class="st1" d="M238.9,125.5h-19.4v-24.8h19.4v6h-12.6v3.3h11.8v6h-11.8v3.6h12.6V125.5z"/>
			<path class="st1" d="M253.2,100.7c6.7,0,9.6,2.7,9.6,7.1c0,2.4-1.4,4.2-3.3,5.2c2.2,0.8,3.8,2.9,3.8,5.3c0,4.4-2.9,7.1-9.5,7.1
				h-11.8v-24.8H253.2z M248.8,106.2v4.1h4.2c1.9,0,2.8-0.7,2.8-2.1c0-1.4-0.9-2.1-2.8-2.1H248.8z M248.8,115.8v4.2l4.7,0
				c1.9,0,2.9-0.7,2.9-2.1c0-1.4-1-2.1-2.9-2.1H248.8z"/>
			<path class="st1" d="M291.3,113.1c0,7.4-5.4,12.9-13.1,12.9c-7.7,0-13.1-5.5-13.1-12.9c0-7.4,5.4-12.8,13.1-12.8
				C285.9,100.2,291.3,105.7,291.3,113.1z M272.1,113.1c0,3.8,2.5,6.4,6.1,6.4c3.6,0,6.1-2.6,6.1-6.4c0-3.8-2.5-6.4-6.1-6.4
				C274.6,106.7,272.1,109.3,272.1,113.1z"/>
			<path class="st1" d="M319.3,113.1c0,7.4-5.4,12.9-13.1,12.9c-7.7,0-13.1-5.5-13.1-12.9c0-7.4,5.4-12.8,13.1-12.8
				C313.8,100.2,319.3,105.7,319.3,113.1z M300.1,113.1c0,3.8,2.5,6.4,6.1,6.4c3.6,0,6.1-2.6,6.1-6.4c0-3.8-2.5-6.4-6.1-6.4
				C302.6,106.7,300.1,109.3,300.1,113.1z"/>
			<path class="st1" d="M330.6,116h-1.9v9.5h-6.7v-24.8h6.7v9.3h1.9l6.2-9.3h8.2l-9,12.1l9.8,12.7h-8.3L330.6,116z"/>
		</g>
		<rect x="72.9" y="238.7" class="st2" width="349.5" height="118.7"/>
		<g class="st3">
			<path class="st4" d="M122.4,289.7h-10.3V264l-8.3,2.9v-10l18.6-7V289.7z"/>
			<path class="st4" d="M143.9,263.5c9.3,0.1,14.1,6,14.1,13.1c0,8.1-6.8,14-15.7,14c-8.9,0-15.7-5.7-15.7-13.6
				c0-3.8,1.5-7.6,4.1-11.4l10.1-15h12.4L143.9,263.5z M137.5,276.6c0,2.7,2,4.7,4.8,4.7c2.8,0,4.8-2,4.8-4.7c0-2.7-2-4.7-4.8-4.7
				C139.5,272,137.5,274,137.5,276.6z"/>
			<path class="st4" d="M174,278.5l-5,19.4h-8.2l2.5-19.4H174z"/>
			<path class="st4" d="M205.1,258.6l-14.8,31.1h-12.4l14.9-29.7h-16.7v-9.6h29V258.6z"/>
			<path class="st4" d="M234.5,260h-14.9l-0.1,4.8h3.3c9,0,14.2,4.5,14.2,11.8c0,8.4-6.3,13.9-15.4,13.9c-6.1,0-11.3-2.3-14.4-5.1
				l4.7-7.8c1.7,1.5,5.7,3.6,9.6,3.6c3.1,0,4.7-1.3,4.7-3.9c0-2.1-1.6-3.6-6.1-3.6h-9.9l0.5-23.2h23.7V260z"/>
			<path class="st4" d="M267.3,273.9h4.5v9.6h-4.5v6.3H257v-6.3h-17.2v-7.1l12-25.8H263l-11,23.4h4.9v-3.5l3.1-6.8h7.3V273.9z"/>
			<path class="st4" d="M288.1,278.5l-5,19.4h-8.2l2.5-19.4H288.1z"/>
			<path class="st4" d="M322.6,261.2c0,4.4-2.5,7.2-5.9,8.8c3.8,1.5,6.9,4.3,6.9,9.1c0,7.2-7.2,11.4-16.1,11.4
				c-8.8,0-16-4.3-16-11.4c0-4.8,3-7.6,6.8-9.1c-3.3-1.6-5.8-4.3-5.8-8.8c0-7.1,6.8-11.4,15-11.4C315.8,249.8,322.6,254,322.6,261.2
				z M302.9,277.7c0,2.5,2.2,3.9,4.7,3.9c2.5,0,4.7-1.3,4.7-3.9c0-2.5-2.2-4-4.7-4C305,273.8,302.9,275.2,302.9,277.7z M303.6,262.3
				c0,2.2,1.7,3.5,4,3.5c2.2,0,4-1.3,4-3.5s-1.7-3.4-4-3.4C305.3,258.9,303.6,260,303.6,262.3z"/>
			<path class="st4" d="M340.6,276.8c-9.3-0.1-14.1-5.9-14.1-13.1c0-8.1,6.8-14,15.7-14c8.9,0,15.7,5.7,15.7,13.6
				c0,3.8-1.5,7.6-4.1,11.4l-10.1,15h-12.4L340.6,276.8z M346.9,263.6c0-2.7-2-4.7-4.8-4.7s-4.8,2-4.8,4.7c0,2.7,2,4.7,4.8,4.7
				S346.9,266.3,346.9,263.6z"/>
			<path class="st4" d="M374.6,276.8c-9.3-0.1-14.1-5.9-14.1-13.1c0-8.1,6.8-14,15.7-14c8.9,0,15.7,5.7,15.7,13.6
				c0,3.8-1.5,7.6-4.1,11.4l-10.1,15h-12.4L374.6,276.8z M381,263.6c0-2.7-2-4.7-4.8-4.7s-4.8,2-4.8,4.7c0,2.7,2,4.7,4.8,4.7
				S381,266.3,381,263.6z"/>
		</g>
		<g class="st3">
			<path class="st4" d="M151,332.5h-5.6v-20.6h5.6V332.5z"/>
			<path class="st4" d="M177.7,332.5h-5.6v-12.9l-3.3,11h-6l-3.3-11v12.9h-5.6v-20.6h7.8l4.1,12.4l4.1-12.4h7.8V332.5z"/>
			<path class="st4" d="M186.3,326v6.5h-5.6v-20.6h9.2c5.2,0,8,2.9,8,7.1c0,4.2-2.8,7-7.9,7H186.3z M186.3,316.9v4.2h3.5
				c1.4,0,2.4-0.8,2.4-2.1c0-1.3-1-2.1-2.4-2.1H186.3z"/>
			<path class="st4" d="M217.3,318.8c0,3.2-1.8,5.5-5.3,6.2l5.6,7.6h-6.6l-5-7.3h-0.3v7.3H200v-20.6h9.2
				C214.5,311.9,217.3,314.6,217.3,318.8z M205.7,316.9v3.7h3.5c1.4,0,2.4-0.6,2.4-1.8s-1-1.8-2.4-1.8H205.7z"/>
			<path class="st4" d="M235.9,332.5h-16.1v-20.6h16.1v5h-10.5v2.7h9.8v5h-9.8v3h10.5V332.5z"/>
			<path class="st4" d="M253.3,318.3c-1.4-0.8-3.4-1.7-6-1.7c-1.5,0-2.7,0.4-2.7,1.3c0,1.2,2.1,1.3,4.2,1.7l0.7,0.1
				c4.3,0.8,6.4,2.9,6.4,6c0,5.2-4.4,7.1-8.8,7.1c-3.7,0-7.1-0.9-9.4-2.6l2.7-4.6c1.6,1,3.6,2.1,6.8,2.1c1.5,0,2.6-0.4,2.6-1.4
				c0-1.1-1.3-1.3-3.8-1.7l-0.8-0.1c-4.7-0.8-6.7-2.9-6.6-6.5c0.1-4,3.4-6.6,8.4-6.6c2.7,0,5.1,0.3,8.7,2.2L253.3,318.3z"/>
			<path class="st4" d="M272.3,318.3c-1.4-0.8-3.4-1.7-6-1.7c-1.5,0-2.7,0.4-2.7,1.3c0,1.2,2.1,1.3,4.2,1.7l0.7,0.1
				c4.3,0.8,6.4,2.9,6.4,6c0,5.2-4.4,7.1-8.8,7.1c-3.7,0-7.1-0.9-9.4-2.6l2.7-4.6c1.6,1,3.6,2.1,6.8,2.1c1.5,0,2.6-0.4,2.6-1.4
				c0-1.1-1.3-1.3-3.8-1.7l-0.8-0.1c-4.7-0.8-6.7-2.9-6.6-6.5c0.1-4,3.4-6.6,8.4-6.6c2.7,0,5.1,0.3,8.7,2.2L272.3,318.3z"/>
			<path class="st4" d="M283,332.5h-5.6v-20.6h5.6V332.5z"/>
			<path class="st4" d="M307,322.2c0,6.2-4.5,10.7-10.9,10.7c-6.4,0-10.9-4.5-10.9-10.7c0-6.2,4.5-10.7,10.9-10.7
				C302.5,311.5,307,316.1,307,322.2z M291,322.2c0,3.2,2.1,5.3,5.1,5.3s5.1-2.2,5.1-5.3s-2.1-5.3-5.1-5.3S291,319.1,291,322.2z"/>
			<path class="st4" d="M328.8,332.5h-5.5l-8.5-11.6v11.6h-5.6v-20.6h5.5l8.5,11.6v-11.6h5.6V332.5z"/>
			<path class="st4" d="M346.7,318.3c-1.4-0.8-3.4-1.7-6-1.7c-1.5,0-2.7,0.4-2.7,1.3c0,1.2,2.1,1.3,4.2,1.7l0.7,0.1
				c4.3,0.8,6.4,2.9,6.4,6c0,5.2-4.4,7.1-8.8,7.1c-3.7,0-7.1-0.9-9.4-2.6l2.7-4.6c1.6,1,3.6,2.1,6.8,2.1c1.5,0,2.6-0.4,2.6-1.4
				c0-1.1-1.3-1.3-3.8-1.7l-0.8-0.1c-4.7-0.8-6.7-2.9-6.6-6.5c0.1-4,3.4-6.6,8.4-6.6c2.7,0,5.1,0.3,8.7,2.2L346.7,318.3z"/>
		</g>
		<path class="st5" d="M265.7,181.1h-36.2c-3.7,0-6.7,3-6.7,6.7V224c0,3.7,3,6.7,6.7,6.7h17.8V213h-4.6c-0.6,0-1.1-0.5-1.1-1.1v-5.7
			c0-0.6,0.5-1.1,1.1-1.1h4.6v-5.5c0-6.4,3.9-9.9,9.6-9.9h4.7c0.6,0,1.1,0.5,1.1,1.1v4.8c0,0.6-0.5,1.1-1.1,1.1h-2.9
			c-3.1,0-3.7,1.5-3.7,3.6v4.8h6.8c0.6,0,1.2,0.6,1.1,1.2l-0.7,5.7c-0.1,0.5-0.5,1-1.1,1H255v17.7h10.6c3.7,0,6.7-3,6.7-6.7v-36.2
			C272.4,184.1,269.4,181.1,265.7,181.1z"/>
	</g>
	<g>
		<path class="st1" d="M456.7,192.9c0-2.2-0.9-4.1-2.2-5.6c0.4-0.3,0.8-0.6,1.2-1c1.1-1.2,2.5-3.3,2.3-6.5c0-5.2-4.3-9.5-9.4-9.5
			l-26.5-0.5h-0.3c0.2-7.8-0.2-14.1-0.2-14.2c-0.2-14.3-6.6-17.8-12.2-19.3c-1.5-0.4-3.1-0.1-4.5,0.8c-1.3,0.9-2.2,2.4-2.4,4
			l-2.2,19.6l-3.8,8.7c-1,2.2-3.1,3.7-5.5,3.9h-0.8v-2c0-1.6-1.3-3-3-3h-14.8v5.9h11.8v50.7h-11.8v5.9h14.8c1.6,0,3-1.3,3-3v-3.4
			c5.3,1.5,14.8,3.9,21.9,3.9c0.8,0,1.6,0,2.5,0c10.5,0,29.5-0.5,29.6-0.5c5.6,0,9.9-4.2,9.9-9.6c0-2.3-0.5-4.1-1.5-5.5
			c1.7-1.8,2.8-4.2,2.8-6.9c0-2.2-0.8-4.2-2-5.8c0.4-0.3,0.7-0.5,1-0.9C456,197.6,456.8,195.4,456.7,192.9z M449.5,205.9
			c0,2-1.6,3.7-3.4,3.8h-0.3c-0.4,0-0.8,0-1.2,0l-0.1,5.9h1.4c2,0.2,2.2,0.8,2.3,2.7c0,2.1-1.7,3.6-4.1,3.6c-0.2,0-22.5,0.6-32,0.5
			c-7.1-0.1-17.5-2.9-21.9-4.2v-39.1l1.2-0.1c4.7-0.3,8.8-3.1,10.6-7.4l3.9-9.1l2.4-20.5c3.1,0.9,7.2,2.6,7.3,13.7
			c0,0.1,0.5,7.9,0.1,16.7l-0.2,3l32.9,0.7c2,0,3.5,1.6,3.5,3.7c0.1,1.4-0.4,2-0.7,2.3c-0.8,0.9-2.7,1.4-5,1.4v5.9
			c2.2,0,4.4,1.7,4.4,3.5c0,1.2-0.4,1.8-0.7,2.1c-0.8,0.8-2.4,1.3-4.2,1.3v5.9C447.9,202.4,449.5,204,449.5,205.9z"/>
		<path class="st0" d="M448.6,176.2l-32.9-0.7l0.2-3c0.4-8.8-0.1-16.6-0.1-16.7c-0.1-11.1-4.3-12.8-7.3-13.7l-2.4,20.5l-3.9,9.1
			c-1.9,4.3-5.9,7.2-10.6,7.4l-1.2,0.1v39.1c4.4,1.3,14.8,4.1,21.9,4.2c9.5,0.1,31.7-0.5,32-0.5c2.3,0,4.1-1.6,4.1-3.6
			c0-1.9-0.3-2.5-2.3-2.7h-1.4l0.1-5.9c0.4,0,0.8,0,1.2,0h0.3c1.8,0,3.4-1.7,3.4-3.8c0-2-1.6-3.5-3.5-3.5v-5.9
			c1.8,0,3.4-0.5,4.2-1.3c0.3-0.3,0.7-0.9,0.7-2.1c0-1.8-2.2-3.5-4.4-3.5v-5.9c2.3,0,4.2-0.5,5-1.4c0.3-0.3,0.7-0.9,0.7-2.3
			C452.1,177.8,450.5,176.2,448.6,176.2z"/>
	</g>
</g>
</svg>
